<?xml version="1.0" encoding="UTF-8" standalone="no"?>
<!-- Generator: Adobe Illustrator 11.0, SVG Export Plug-In . SVG Version: 6.0.0 Build 78)  -->

<svg
   xmlns:i="http://ns.adobe.com/AdobeIllustrator/10.0/"
   xmlns:dc="http://purl.org/dc/elements/1.1/"
   xmlns:cc="http://creativecommons.org/ns#"
   xmlns:rdf="http://www.w3.org/1999/02/22-rdf-syntax-ns#"
   xmlns:svg="http://www.w3.org/2000/svg"
   xmlns="http://www.w3.org/2000/svg"
   xmlns:sodipodi="http://sodipodi.sourceforge.net/DTD/sodipodi-0.dtd"
   xmlns:inkscape="http://www.inkscape.org/namespaces/inkscape"
   i:viewOrigin="293.083 426.0396"
   i:rulerOrigin="7.5 -24.3896"
   i:pageBounds="-7.5 816.3896 604.5 24.3896"
   width="11.944"
   height="12.57"
   viewBox="0 0 11.944 12.57"
   overflow="visible"
   enable-background="new 0 0 11.944 12.57"
   xml:space="preserve"
   id="svg3000"
   version="1.1"
   inkscape:version="0.48.3.1 r9886"
   sodipodi:docname="Airededtente2.svg"><defs
   id="defs3011" /><sodipodi:namedview
   pagecolor="#ffffff"
   bordercolor="#666666"
   borderopacity="1"
   objecttolerance="10"
   gridtolerance="10"
   guidetolerance="10"
   inkscape:pageopacity="0"
   inkscape:pageshadow="2"
   inkscape:window-width="1280"
   inkscape:window-height="968"
   id="namedview3009"
   showgrid="false"
   inkscape:zoom="62.927607"
   inkscape:cx="7.1286629"
   inkscape:cy="6.2849998"
   inkscape:window-x="-4"
   inkscape:window-y="-4"
   inkscape:window-maximized="1"
   inkscape:current-layer="svg3000" />
	
		<path
   style="fill:#AA3976;fill-opacity:1;stroke:none"
   inkscape:connector-curvature="0"
   id="path3005"
   d="M 1.378,0.339 C 1.146,0.347 0.775,1.247 0.719,1.446 c -0.982,3.494 -0.959,7.024 0.07,10.5 0.094,0.317 3.148,0.519 3.551,0.557 1.635,0.152 3.288,0.019 4.919,-0.114 0.295,-0.024 0.477,-1.061 0.617,-1.07 C 7.328,11.495 4.897,11.479 2.385,11.012 1.564,10.86 1.491,11.031 1.23,10.142 0.883,8.959 0.743,7.722 0.652,6.5 0.525,4.802 0.73,3.105 1.113,1.453 4.588,1.244 11.851,-0.147 11.213,5.221 11.237,5.016 11.859,4.482 11.904,4.096 12.569,-1.495 4.676,0.221 1.378,0.339 z"
   i:knockout="Off" /><polygon
   style="fill:#AA3976;fill-opacity:1;stroke:none"
   id="polygon3007"
   points="7.854,8.328 7.854,9.835 3.929,9.836 3.929,7.195 5.389,7.195 3.967,5.664 5.389,5.664 3.998,4.258 5.389,4.258 3.492,2.215 1.594,4.258 2.986,4.258 1.594,5.664 3.017,5.664 1.594,7.195 3.054,7.195 3.054,9.836 0.854,9.837 0.854,10.121 10.613,10.118 10.613,9.834 9.271,9.834 9.271,8.328 11.113,8.328 11.113,7.478 6.011,7.478 6.011,8.328 "
   i:knockout="Off" />
	<metadata
   id="metadata4417"><rdf:RDF><cc:Work
       rdf:about=""><dc:title></dc:title></cc:Work></rdf:RDF></metadata></svg>