<?xml version="1.0" encoding="UTF-8" standalone="no"?>
<!-- Generator: Adobe Illustrator 13.0.0, SVG Export Plug-In . SVG Version: 6.00 Build 14948)  -->
<svg
   xmlns:dc="http://purl.org/dc/elements/1.1/"
   xmlns:cc="http://creativecommons.org/ns#"
   xmlns:rdf="http://www.w3.org/1999/02/22-rdf-syntax-ns#"
   xmlns:svg="http://www.w3.org/2000/svg"
   xmlns="http://www.w3.org/2000/svg"
   xmlns:xlink="http://www.w3.org/1999/xlink"
   xmlns:sodipodi="http://sodipodi.sourceforge.net/DTD/sodipodi-0.dtd"
   xmlns:inkscape="http://www.inkscape.org/namespaces/inkscape"
   version="1.1"
   id="Layer_1"
   x="0px"
   y="0px"
   width="11.941"
   height="12.559999"
   viewBox="0 0 11.941 12.559999"
   xml:space="preserve"
   inkscape:version="0.46"
   sodipodi:docname="Baignade.svg"
   sodipodi:version="0.32"
   inkscape:output_extension="org.inkscape.output.svg.inkscape"><metadata
   id="metadata3091"><rdf:RDF><cc:Work
       rdf:about=""><dc:format>image/svg+xml</dc:format><dc:type
         rdf:resource="http://purl.org/dc/dcmitype/StillImage" /></cc:Work></rdf:RDF></metadata><defs
   id="defs3089"><inkscape:perspective
   sodipodi:type="inkscape:persp3d"
   inkscape:vp_x="0 : 6.2799997 : 1"
   inkscape:vp_y="0 : 1000 : 0"
   inkscape:vp_z="11.941 : 6.2799997 : 1"
   inkscape:persp3d-origin="5.9705 : 4.1866665 : 1"
   id="perspective19" />
	

		<defs
   id="defs3069">
			<polyline
   id="SVGID_1_"
   points="0,0 0,8.62 0,17.23 0,25.85 0,34.47 0,43.09 0,51.699 0,60.32 0,68.939 0,77.561 0,86.17      0,94.791 8.8,94.791 17.61,94.791 26.41,94.791 35.21,94.791 44.01,94.791 52.82,94.791 61.62,94.791 70.42,94.791 79.23,94.791      88.03,94.791 96.83,94.791 96.83,86.17 96.83,77.561 96.83,68.939 96.83,60.32 96.83,51.699 96.83,43.09 96.83,34.47      96.83,25.85 96.83,17.23 96.83,8.62 96.83,0 88.03,0 79.23,0 70.42,0 61.62,0 52.82,0 44.01,0 35.21,0 26.41,0 17.61,0 8.8,0      0,0    " />
		</defs>
		<defs
   id="defs3072">
			<rect
   id="SVGID_2_"
   width="96.959999"
   height="94.560997"
   x="0"
   y="0" />
		</defs>
		<clipPath
   id="SVGID_3_">
			<use
   xlink:href="#SVGID_1_"
   style="overflow:visible"
   id="use3076"
   x="0"
   y="0"
   width="96.959999"
   height="94.791" />
		</clipPath>
		<clipPath
   id="SVGID_4_">
			<use
   xlink:href="#SVGID_2_"
   style="overflow:visible"
   id="use3079"
   x="0"
   y="0"
   width="96.959999"
   height="94.791" />
		</clipPath>
		
		
		
			
	</defs><sodipodi:namedview
   pagecolor="#ffffff"
   bordercolor="#666666"
   borderopacity="1"
   objecttolerance="10"
   gridtolerance="10"
   guidetolerance="10"
   inkscape:pageopacity="0"
   inkscape:pageshadow="2"
   inkscape:window-width="875"
   inkscape:window-height="667"
   id="namedview3087"
   showgrid="false"
   fit-margin-top="0"
   fit-margin-left="0"
   fit-margin-right="0"
   fit-margin-bottom="0"
   inkscape:zoom="9.9196271"
   inkscape:cx="18.339933"
   inkscape:cy="4.358207"
   inkscape:window-x="378"
   inkscape:window-y="110"
   inkscape:window-maximized="0"
   inkscape:current-layer="Layer_1" />
<path
   style="fill:#777777;fill-opacity:1"
   d="M 53.74,41.46 L 53.469,41.49 L 53.249,41.57 L 53.039,41.68 L 52.859,41.8 L 52.489,42.04 L 52.299,42.12 L 52.089,42.14 L 51.86,42.12 L 51.63,42.04 L 51.16,41.8 L 50.67,41.57 L 50.42,41.49 L 50.15,41.46 L 49.94,41.48 L 49.74,41.53 L 49.35,41.7 L 48.96,41.9 L 48.57,42.07 L 48.58,41.28 L 48.57,40.54 L 48.52,39.82 L 48.41,39.08 L 48.22,38.3 L 47.94,37.43 L 47.55,36.45 L 47.03,35.32 L 46.96,35.23 L 46.87,35.17 L 46.76,35.16 L 46.65,35.19 L 46.56,35.26 L 46.51,35.35 L 46.49,35.46 L 46.52,35.57 L 47.02,36.67 L 47.4,37.62 L 47.68,38.46 L 47.85,39.22 L 47.96,39.93 L 48.01,40.63 L 48.02,41.35 L 48,42.13 L 47.8,42.07 L 47.62,41.98 L 47.31,41.76 L 47.15,41.65 L 46.98,41.55 L 46.78,41.48 L 46.55,41.46 L 46.55,42.46 L 46.66,42.47 L 46.75,42.51 L 46.99,42.67 L 47.2,42.83 L 47.46,42.98 L 47.78,43.1 L 47.96,43.13 L 48.16,43.14 L 48.51,43.11 L 48.84,43.01 L 49.15,42.88 L 49.43,42.73 L 49.81,42.54 L 49.99,42.48 L 50.15,42.46 L 50.33,42.48 L 50.52,42.55 L 50.93,42.75 L 51.48,43.02 L 51.78,43.11 L 52.09,43.14 L 52.26,43.13 L 52.42,43.11 L 52.7,43 L 52.95,42.86 L 53.16,42.72 L 53.46,42.52 L 53.59,42.47 L 53.74,42.46 L 53.88,42.47 L 54.03,42.52 L 54.38,42.7 L 54.57,42.76 L 54.78,41.86 L 54.29,41.59 L 54.03,41.49 L 53.74,41.46 M 49.33,39.21 L 49.78,38.83 L 50.35,38.4 L 51.15,37.89 L 51.879,37.48 L 52.249,37.31 L 52.689,37.13 L 54.218,36.66 L 54.059,36.5 L 53.889,36.35 L 53.519,36.11 L 53.109,35.92 L 52.669,35.8 L 52.219,35.71 L 51.749,35.67 L 50.81,35.65 L 49.11,35.68 L 48.78,35.66 L 48.49,35.6 L 48.26,35.51 L 48.17,35.44 L 48.1,35.37 L 48.59,36.16 L 48.88,36.69 L 49.15,37.26 L 49.36,37.83 L 49.44,38.11 L 49.49,38.37 L 49.51,38.62 L 49.49,38.84 L 49.43,39.04 L 49.33,39.21 M 48.1,35.37 L 47.95,35.15 L 48.09,35.36 L 48.1,35.37 L 48.1,35.37 z"
   id="path3081"
   clip-path="url(#SVGID_4_)"
   inkscape:connector-curvature="0"
   transform="translate(-44.5,-32.890001)" /><polygon
   style="fill:#777777;fill-opacity:1"
   points="45.48,33.71 45.31,34.08 45.21,34.33 45.04,34.99 44.89,35.64 44.77,36.3 44.67,36.96 44.59,37.62 44.53,38.27 44.5,38.93 44.5,39.59 44.51,40.25 44.55,40.9 44.61,41.56 44.7,42.22 44.81,42.87 44.95,43.53 45.1,44.18 45.28,44.83 45.34,44.89 45.45,44.95 45.82,45.05 46.34,45.14 46.94,45.22 48.84,45.39 49.45,45.43 50.061,45.45 51.3,45.44 52.53,45.37 53.75,45.28 53.86,45.22 53.96,45.1 54.12,44.74 54.26,44.37 54.32,44.25 54.37,44.21 53.42,44.26 52.48,44.3 51.54,44.31 50.61,44.29 49.68,44.25 48.75,44.17 47.82,44.05 46.88,43.9 46.39,43.82 46.22,43.79 46.09,43.74 45.99,43.65 45.9,43.52 45.82,43.32 45.73,43.03 45.5,42.13 45.34,41.22 45.23,40.31 45.15,39.39 45.11,38.75 45.11,38.12 45.14,37.48 45.19,36.85 45.26,36.22 45.36,35.59 45.61,34.34 48.74,34.09 49.62,34.04 50.5,34.03 51.37,34.05 52.2,34.13 52.601,34.2 52.99,34.28 53.36,34.38 53.71,34.5 54.04,34.65 54.351,34.81 54.63,35.01 54.891,35.23 55.11,35.47 55.311,35.75 55.47,36.06 55.601,36.4 55.69,36.77 55.74,37.18 55.74,37.62 55.71,38.11 55.74,38.02 55.82,37.9 56.04,37.61 56.271,37.29 56.36,37.13 56.4,36.98 56.44,36.48 56.431,36.02 56.37,35.6 56.271,35.21 56.13,34.86 55.96,34.55 55.74,34.27 55.5,34.02 55.22,33.8 54.92,33.61 54.59,33.45 54.23,33.31 53.851,33.19 53.46,33.1 53.05,33.02 52.62,32.96 51.74,32.9 50.83,32.89 49.91,32.92 49,32.98 47.3,33.12 45.87,33.23 45.87,33.23 45.78,33.27 45.68,33.37 45.48,33.71 "
   id="polygon3083"
   clip-path="url(#SVGID_4_)"
   transform="translate(-44.5,-32.890001)" />
</svg>
