<?xml version="1.0" encoding="UTF-8" standalone="no"?>
<!-- Generator: Adobe Illustrator 11.0, SVG Export Plug-In . SVG Version: 6.0.0 Build 78)  -->

<svg
   xmlns:i="http://ns.adobe.com/AdobeIllustrator/10.0/"
   xmlns:svg="http://www.w3.org/2000/svg"
   xmlns="http://www.w3.org/2000/svg"
   xmlns:sodipodi="http://sodipodi.sourceforge.net/DTD/sodipodi-0.dtd"
   xmlns:inkscape="http://www.inkscape.org/namespaces/inkscape"
   i:viewOrigin="297.3345 421.8838"
   i:rulerOrigin="7.5 -24.3896"
   i:pageBounds="-7.5 816.3896 604.5 24.3896"
   width="4.251"
   height="4.251"
   viewBox="0 0 4.251 4.251"
   overflow="visible"
   enable-background="new 0 0 4.251 4.251"
   xml:space="preserve"
   id="svg3000"
   version="1.1"
   inkscape:version="0.48.3.1 r9886"
   sodipodi:docname="Blocrocheux.svg"><defs
   id="defs3011" /><sodipodi:namedview
   pagecolor="#ffffff"
   bordercolor="#666666"
   borderopacity="1"
   objecttolerance="10"
   gridtolerance="10"
   guidetolerance="10"
   inkscape:pageopacity="0"
   inkscape:pageshadow="2"
   inkscape:window-width="640"
   inkscape:window-height="480"
   id="namedview3009"
   showgrid="false"
   inkscape:zoom="55.51635"
   inkscape:cx="2.1255"
   inkscape:cy="2.1255"
   inkscape:window-x="0"
   inkscape:window-y="0"
   inkscape:window-maximized="0"
   inkscape:current-layer="svg3000" />
		<path
   inkscape:connector-curvature="0"
   id="path3005"
   d="M 3.982,0.716 C 3.985,0.713 3.993,0.709 3.996,0.706 4.021,0.677 4.008,0.689 3.982,0.716 z"
   i:knockout="Off" /><path
   inkscape:connector-curvature="0"
   id="path3007"
   d="M 4.243,2.588 C 3.955,2.447 3.09,2.389 2.925,2.223 2.761,2.059 2.868,1.966 3.049,1.741 3.253,1.488 3.858,0.842 3.982,0.716 3.827,0.877 3.307,1.039 2.793,1.236 2.705,1.269 2.442,1.365 2.277,1.129 2.113,0.894 2.031,0.447 1.907,0 1.907,0 1.866,1.2 1.742,1.247 1.619,1.294 1.259,1.165 0.014,0.929 -0.139,0.9 1.017,1.599 1.161,1.693 1.305,1.787 1.259,2.152 1.227,2.282 1.065,2.965 0.599,3.92 0.754,3.67 0.981,3.306 1.247,3.178 1.583,2.959 1.727,2.864 1.962,2.857 2.195,3.082 2.462,3.341 3.29,4.479 3.173,4.211 3.007,3.835 2.875,3.529 2.802,3.282 2.764,3.152 2.709,3.058 2.915,2.823 3.121,2.588 4.363,2.646 4.243,2.588 z M 2.648,2.48 2.205,2.718 1.759,2.653 1.433,1.975 1.73,1.499 1.966,1.33 2.376,1.447 2.708,2.116 2.648,2.48 z"
   i:knockout="Off" /></svg>