<?xml version="1.0" encoding="UTF-8" standalone="no"?>
<!-- Generator: Adobe Illustrator 13.0.0, SVG Export Plug-In . SVG Version: 6.00 Build 14948)  -->
<svg
   xmlns:dc="http://purl.org/dc/elements/1.1/"
   xmlns:cc="http://creativecommons.org/ns#"
   xmlns:rdf="http://www.w3.org/1999/02/22-rdf-syntax-ns#"
   xmlns:svg="http://www.w3.org/2000/svg"
   xmlns="http://www.w3.org/2000/svg"
   xmlns:xlink="http://www.w3.org/1999/xlink"
   xmlns:sodipodi="http://sodipodi.sourceforge.net/DTD/sodipodi-0.dtd"
   xmlns:inkscape="http://www.inkscape.org/namespaces/inkscape"
   version="1.1"
   id="Layer_1"
   x="0px"
   y="0px"
   width="11.941"
   height="12.559999"
   viewBox="0 0 11.941 12.559999"
   xml:space="preserve"
   inkscape:version="0.46"
   sodipodi:docname="Campingtouristique.svg"
   sodipodi:version="0.32"
   inkscape:output_extension="org.inkscape.output.svg.inkscape"><metadata
   id="metadata3178"><rdf:RDF><cc:Work
       rdf:about=""><dc:format>image/svg+xml</dc:format><dc:type
         rdf:resource="http://purl.org/dc/dcmitype/StillImage" /></cc:Work></rdf:RDF></metadata><defs
   id="defs3176"><inkscape:perspective
   sodipodi:type="inkscape:persp3d"
   inkscape:vp_x="0 : 6.2799997 : 1"
   inkscape:vp_y="0 : 1000 : 0"
   inkscape:vp_z="11.941 : 6.2799997 : 1"
   inkscape:persp3d-origin="5.9705 : 4.1866665 : 1"
   id="perspective20" />
	

		<defs
   id="defs3154">
			<polyline
   id="SVGID_1_"
   points="0,0 0,8.62 0,17.23 0,25.85 0,34.47 0,43.09 0,51.699 0,60.32 0,68.939 0,77.561 0,86.17      0,94.791 8.8,94.791 17.61,94.791 26.41,94.791 35.21,94.791 44.01,94.791 52.82,94.791 61.62,94.791 70.42,94.791 79.23,94.791      88.03,94.791 96.83,94.791 96.83,86.17 96.83,77.561 96.83,68.939 96.83,60.32 96.83,51.699 96.83,43.09 96.83,34.47      96.83,25.85 96.83,17.23 96.83,8.62 96.83,0 88.03,0 79.23,0 70.42,0 61.62,0 52.82,0 44.01,0 35.21,0 26.41,0 17.61,0 8.8,0      0,0    " />
		</defs>
		<defs
   id="defs3157">
			<rect
   id="SVGID_2_"
   width="96.959999"
   height="94.560997"
   x="0"
   y="0" />
		</defs>
		<clipPath
   id="SVGID_3_">
			<use
   xlink:href="#SVGID_1_"
   style="overflow:visible"
   id="use3161"
   x="0"
   y="0"
   width="96.959999"
   height="94.791" />
		</clipPath>
		<clipPath
   id="SVGID_4_">
			<use
   xlink:href="#SVGID_2_"
   style="overflow:visible"
   id="use3164"
   x="0"
   y="0"
   width="96.959999"
   height="94.791" />
		</clipPath>
		
		
		
		
			
	</defs><sodipodi:namedview
   pagecolor="#ffffff"
   bordercolor="#666666"
   borderopacity="1"
   objecttolerance="10"
   gridtolerance="10"
   guidetolerance="10"
   inkscape:pageopacity="0"
   inkscape:pageshadow="2"
   inkscape:window-width="1280"
   inkscape:window-height="968"
   id="namedview3174"
   showgrid="false"
   fit-margin-top="0"
   fit-margin-left="0"
   fit-margin-right="0"
   fit-margin-bottom="0"
   inkscape:zoom="11.560483"
   inkscape:cx="-10.844672"
   inkscape:cy="-0.18159196"
   inkscape:window-x="1280"
   inkscape:window-y="22"
   inkscape:window-maximized="0"
   inkscape:current-layer="Layer_1" />
<polygon
   style="fill:#a3a3a3;fill-opacity:1"
   points="45.99,38.14 45.8,36.83 45.52,36.87 45.72,38.25 45.2,39.48 44.99,39.92 44.74,40.36 44.25,41.2 43.94,41.71 43.52,42.36 43.08,42.75 43.08,42.78 43.12,42.81 43.3,42.84 43.57,42.84 43.85,42.78 44.16,42.7 44.43,42.65 44.92,42.63 45.26,42.64 44.98,42.59 44.86,42.55 44.78,42.49 44.73,42.42 44.73,42.32 44.78,42.19 44.89,42.03 45.02,41.81 45.17,41.49 45.46,40.71 45.77,39.72 45.9,40.26 46,40.73 46.08,41.25 46.12,41.76 46.1,42 46.07,42.21 46.01,42.39 45.91,42.53 45.79,42.63 45.62,42.67 46.07,42.72 46.76,42.87 47.03,42.91 47.3,42.9 47.56,42.88 47.76,42.9 47.93,42.94 47.49,42.13 47.14,41.45 46.88,40.89 46.88,40.89 46.55,39.98 46.24,38.99 45.99,38.14 "
   id="polygon3166"
   clip-path="url(#SVGID_4_)"
   transform="translate(-41.63,-32.890001)" /><polygon
   style="fill:#a3a3a3;fill-opacity:1"
   points="46.75,38.28 47.36,40.09 47.76,41.12 48.19,42.11 48.67,43.14 49.01,42.75 49.35,42.43 49.53,42.3 49.72,42.2 49.91,42.13 50.141,42.07 50.66,42.01 51.21,42.03 51.76,42.11 52.45,42.3 52.92,42.49 53.26,42.69 52.59,41.34 52.15,40.4 51.771,39.52 51.65,39.15 51.59,38.82 51.58,38.55 51.601,38.32 51.62,38 51.59,37.91 51.5,37.87 51.09,37.85 50.45,37.88 49.74,37.9 49.13,37.87 49.13,37.87 48.52,37.79 46.49,37.42 46.75,38.28 "
   id="polygon3168"
   clip-path="url(#SVGID_4_)"
   transform="translate(-41.63,-32.890001)" /><polygon
   style="fill:#a3a3a3;fill-opacity:1"
   points="42.61,33.71 42.44,34.08 42.35,34.33 42.18,34.99 42.03,35.64 41.9,36.3 41.8,36.96 41.72,37.61 41.67,38.27 41.64,38.93 41.63,39.59 41.65,40.25 41.69,40.9 41.75,41.56 41.84,42.22 41.95,42.87 42.08,43.53 42.24,44.18 42.42,44.83 42.47,44.89 42.58,44.94 42.96,45.05 43.48,45.14 44.08,45.21 45.97,45.39 46.59,45.43 47.2,45.45 48.43,45.44 49.66,45.37 50.891,45.27 51,45.22 51.09,45.1 51.26,44.73 51.391,44.37 51.45,44.25 51.51,44.2 50.561,44.26 49.62,44.3 48.68,44.31 47.75,44.29 46.82,44.24 45.89,44.17 44.96,44.05 44.02,43.9 43.53,43.82 43.36,43.79 43.23,43.74 43.13,43.65 43.04,43.52 42.95,43.31 42.86,43.03 42.64,42.13 42.48,41.22 42.36,40.3 42.28,39.39 42.25,38.75 42.25,38.11 42.27,37.48 42.32,36.84 42.4,36.21 42.49,35.59 42.75,34.34 45.88,34.08 46.76,34.04 47.64,34.02 48.5,34.05 49.34,34.13 49.74,34.19 50.12,34.28 50.49,34.38 50.851,34.5 51.181,34.64 51.48,34.81 51.771,35 52.021,35.22 52.25,35.47 52.45,35.75 52.61,36.05 52.74,36.39 52.82,36.77 52.87,37.18 52.88,37.62 52.84,38.11 52.88,38.01 52.96,37.9 53.181,37.61 53.41,37.29 53.49,37.13 53.53,36.98 53.57,36.48 53.561,36.02 53.51,35.59 53.41,35.21 53.271,34.86 53.09,34.55 52.88,34.27 52.63,34.02 52.36,33.8 52.05,33.61 51.72,33.44 51.37,33.3 50.99,33.19 50.601,33.09 50.181,33.02 49.76,32.96 48.88,32.9 47.96,32.89 47.05,32.92 46.14,32.98 44.44,33.12 43.01,33.22 43.01,33.22 42.92,33.27 42.82,33.37 42.61,33.71 "
   id="polygon3170"
   clip-path="url(#SVGID_4_)"
   transform="translate(-41.63,-32.890001)" />
</svg>
