<?xml version="1.0" encoding="UTF-8" standalone="no"?>
<!-- Generator: Adobe Illustrator 13.0.0, SVG Export Plug-In . SVG Version: 6.00 Build 14948)  -->
<svg
   xmlns:dc="http://purl.org/dc/elements/1.1/"
   xmlns:cc="http://creativecommons.org/ns#"
   xmlns:rdf="http://www.w3.org/1999/02/22-rdf-syntax-ns#"
   xmlns:svg="http://www.w3.org/2000/svg"
   xmlns="http://www.w3.org/2000/svg"
   xmlns:xlink="http://www.w3.org/1999/xlink"
   xmlns:sodipodi="http://sodipodi.sourceforge.net/DTD/sodipodi-0.dtd"
   xmlns:inkscape="http://www.inkscape.org/namespaces/inkscape"
   version="1.1"
   id="Layer_1"
   x="0px"
   y="0px"
   width="11.94"
   height="12.559999"
   viewBox="0 0 11.94 12.559999"
   xml:space="preserve"
   inkscape:version="0.46"
   sodipodi:docname="Cano.svg"
   sodipodi:version="0.32"
   inkscape:output_extension="org.inkscape.output.svg.inkscape"><metadata
   id="metadata3207"><rdf:RDF><cc:Work
       rdf:about=""><dc:format>image/svg+xml</dc:format><dc:type
         rdf:resource="http://purl.org/dc/dcmitype/StillImage" /></cc:Work></rdf:RDF></metadata><defs
   id="defs3205"><inkscape:perspective
   sodipodi:type="inkscape:persp3d"
   inkscape:vp_x="0 : 6.2799997 : 1"
   inkscape:vp_y="0 : 1000 : 0"
   inkscape:vp_z="11.94 : 6.2799997 : 1"
   inkscape:persp3d-origin="5.9699998 : 4.1866665 : 1"
   id="perspective19" />
	

		<defs
   id="defs3185">
			<polyline
   id="SVGID_1_"
   points="0,0 0,8.62 0,17.23 0,25.85 0,34.47 0,43.09 0,51.699 0,60.32 0,68.939 0,77.561 0,86.17      0,94.791 8.8,94.791 17.61,94.791 26.41,94.791 35.21,94.791 44.01,94.791 52.82,94.791 61.62,94.791 70.42,94.791 79.23,94.791      88.03,94.791 96.83,94.791 96.83,86.17 96.83,77.561 96.83,68.939 96.83,60.32 96.83,51.699 96.83,43.09 96.83,34.47      96.83,25.85 96.83,17.23 96.83,8.62 96.83,0 88.03,0 79.23,0 70.42,0 61.62,0 52.82,0 44.01,0 35.21,0 26.41,0 17.61,0 8.8,0      0,0    " />
		</defs>
		<defs
   id="defs3188">
			<rect
   id="SVGID_2_"
   width="96.959999"
   height="94.560997"
   x="0"
   y="0" />
		</defs>
		<clipPath
   id="SVGID_3_">
			<use
   xlink:href="#SVGID_1_"
   style="overflow:visible"
   id="use3192"
   x="0"
   y="0"
   width="96.959999"
   height="94.791" />
		</clipPath>
		<clipPath
   id="SVGID_4_">
			<use
   xlink:href="#SVGID_2_"
   style="overflow:visible"
   id="use3195"
   x="0"
   y="0"
   width="96.959999"
   height="94.791" />
		</clipPath>
		
		
		
			
	</defs><sodipodi:namedview
   pagecolor="#ffffff"
   bordercolor="#666666"
   borderopacity="1"
   objecttolerance="10"
   gridtolerance="10"
   guidetolerance="10"
   inkscape:pageopacity="0"
   inkscape:pageshadow="2"
   inkscape:window-width="695"
   inkscape:window-height="667"
   id="namedview3203"
   showgrid="false"
   fit-margin-top="0"
   fit-margin-left="0"
   fit-margin-right="0"
   fit-margin-bottom="0"
   inkscape:zoom="9.9381466"
   inkscape:cx="7.6232613"
   inkscape:cy="3.6318392"
   inkscape:window-x="421"
   inkscape:window-y="251"
   inkscape:window-maximized="0"
   inkscape:current-layer="Layer_1" />
<path
   style="fill:#1C62A6;fill-opacity:1"
   d="M 51.28,40.02 L 50.75,39.11 L 50.54,38.77 L 50.431,39.58 L 50.181,39.61 L 47.821,38.89 L 47.601,38.82 L 48.701,37.64 L 48.911,37.65 L 49.131,37.59 L 49.351,37.46 L 49.561,37.27 L 49.671,37.12 L 49.751,36.97 L 49.811,36.82 L 49.851,36.67 L 49.851,36.52 L 49.831,36.39 L 49.781,36.28 L 49.701,36.18 L 49.601,36.12 L 49.481,36.08 L 49.341,36.08 L 49.2,36.1 L 49.06,36.15 L 48.91,36.23 L 48.77,36.34 L 48.64,36.47 L 48.48,36.7 L 48.38,36.93 L 48.35,37.16 L 48.38,37.36 L 47.14,38.68 L 44.12,37.76 L 43.87,37.47 L 44.4,36.63 L 43.96,36.83 L 43.16,37.21 L 42.57,37.93 L 42.52,38.62 L 43.19,39.45 L 45.71,40.22 L 44.54,41.46 L 44.44,41.43 L 44.32,41.41 L 44.2,41.42 L 44.07,41.45 L 43.82,41.58 L 43.58,41.79 L 43.47,41.94 L 43.39,42.09 L 43.33,42.24 L 43.29,42.39 L 43.29,42.54 L 43.31,42.67 L 43.36,42.78 L 43.44,42.88 L 43.54,42.94 L 43.66,42.98 L 43.8,42.98 L 43.94,42.96 L 44.08,42.91 L 44.23,42.83 L 44.37,42.72 L 44.5,42.59 L 44.64,42.4 L 44.73,42.21 L 44.77,42.01 L 44.78,41.83 L 46.16,40.36 L 46.41,40.43 L 50.16,41.58 L 50.8,41.44 L 51.3,40.82 L 51.28,40.02 M 46.66,37.19 L 46.81,37.22 L 46.96,37.21 L 47.1,37.18 L 47.23,37.12 L 47.36,37.04 L 47.46,36.94 L 47.55,36.82 L 47.61,36.68 L 47.64,36.53 L 47.65,36.38 L 47.62,36.24 L 47.57,36.1 L 47.49,35.99 L 47.39,35.88 L 47.27,35.8 L 47.14,35.75 L 46.99,35.72 L 46.84,35.72 L 46.7,35.75 L 46.56,35.81 L 46.44,35.89 L 46.33,35.99 L 46.25,36.12 L 46.18,36.26 L 46.15,36.41 L 46.15,36.55 L 46.17,36.7 L 46.23,36.83 L 46.3,36.95 L 46.4,37.05 L 46.52,37.13 L 46.66,37.19 M 47.26,38.3 L 47.14,38.07 L 46.91,37.8 L 46.39,37.53 L 45.88,37.44 L 45.25,37.66 L 45.86,37.87 L 47.26,38.3 L 47.26,38.3 L 47.26,38.3 z"
   id="path3197"
   clip-path="url(#SVGID_4_)"
   inkscape:connector-curvature="0"
   transform="translate(-40.94,-33.070001)" /><polygon
   style="fill:#1C62A6;fill-opacity:1"
   points="41.92,33.89 41.75,34.26 41.66,34.51 41.49,35.17 41.34,35.82 41.21,36.48 41.11,37.14 41.03,37.79 40.98,38.45 40.95,39.11 40.94,39.77 40.96,40.43 41,41.08 41.06,41.74 41.15,42.4 41.26,43.05 41.39,43.71 41.55,44.36 41.73,45.01 41.78,45.07 41.89,45.12 42.27,45.23 42.79,45.32 43.39,45.39 45.28,45.57 45.89,45.61 46.51,45.63 47.74,45.62 48.97,45.55 50.2,45.45 50.311,45.4 50.4,45.28 50.57,44.91 50.7,44.55 50.76,44.43 50.82,44.38 49.87,44.44 48.92,44.48 47.99,44.49 47.06,44.47 46.13,44.43 45.2,44.35 44.26,44.23 43.32,44.08 42.83,44 42.67,43.97 42.54,43.92 42.43,43.83 42.35,43.7 42.26,43.49 42.17,43.21 41.95,42.31 41.78,41.4 41.67,40.48 41.59,39.57 41.56,38.93 41.56,38.29 41.58,37.66 41.63,37.02 41.71,36.39 41.8,35.77 42.05,34.52 45.19,34.26 46.06,34.22 46.94,34.2 47.81,34.23 48.65,34.31 49.05,34.37 49.43,34.46 49.8,34.56 50.15,34.68 50.48,34.82 50.79,34.99 51.08,35.18 51.33,35.4 51.561,35.65 51.76,35.93 51.92,36.23 52.04,36.57 52.13,36.95 52.18,37.36 52.19,37.8 52.15,38.29 52.19,38.19 52.26,38.08 52.49,37.79 52.72,37.47 52.8,37.31 52.84,37.16 52.88,36.66 52.87,36.2 52.82,35.77 52.72,35.39 52.58,35.04 52.4,34.73 52.19,34.45 51.94,34.2 51.67,33.98 51.36,33.79 51.03,33.62 50.67,33.48 50.3,33.37 49.9,33.27 49.49,33.2 49.07,33.14 48.18,33.08 47.27,33.07 46.35,33.1 45.45,33.16 43.74,33.3 42.32,33.4 42.32,33.4 42.22,33.45 42.12,33.55 41.92,33.89 "
   id="polygon3199"
   clip-path="url(#SVGID_4_)"
   transform="translate(-40.94,-33.070001)" />
</svg>