<?xml version="1.0" encoding="UTF-8" standalone="no"?>
<!-- Generator: Adobe Illustrator 13.0.0, SVG Export Plug-In . SVG Version: 6.00 Build 14948)  -->
<svg
   xmlns:dc="http://purl.org/dc/elements/1.1/"
   xmlns:cc="http://creativecommons.org/ns#"
   xmlns:rdf="http://www.w3.org/1999/02/22-rdf-syntax-ns#"
   xmlns:svg="http://www.w3.org/2000/svg"
   xmlns="http://www.w3.org/2000/svg"
   xmlns:xlink="http://www.w3.org/1999/xlink"
   xmlns:sodipodi="http://sodipodi.sourceforge.net/DTD/sodipodi-0.dtd"
   xmlns:inkscape="http://www.inkscape.org/namespaces/inkscape"
   version="1.1"
   id="Layer_1"
   x="0px"
   y="0px"
   width="27.889999"
   height="27.9"
   viewBox="0 0 27.89 27.9"
   xml:space="preserve"
   inkscape:version="0.46"
   sodipodi:docname="Chteaudeau.svg"
   sodipodi:version="0.32"
   inkscape:output_extension="org.inkscape.output.svg.inkscape"><metadata
   id="metadata3118"><rdf:RDF><cc:Work
       rdf:about=""><dc:format>image/svg+xml</dc:format><dc:type
         rdf:resource="http://purl.org/dc/dcmitype/StillImage" /></cc:Work></rdf:RDF></metadata><defs
   id="defs3116"><inkscape:perspective
   sodipodi:type="inkscape:persp3d"
   inkscape:vp_x="0 : 13.95 : 1"
   inkscape:vp_y="0 : 1000 : 0"
   inkscape:vp_z="27.889999 : 13.95 : 1"
   inkscape:persp3d-origin="13.945 : 9.2999999 : 1"
   id="perspective19" />
	

		<defs
   id="defs3096">
			<polyline
   id="SVGID_1_"
   points="0,0 0,8.62 0,17.23 0,25.85 0,34.47 0,43.09 0,51.699 0,60.32 0,68.939 0,77.561 0,86.17      0,94.791 8.8,94.791 17.61,94.791 26.41,94.791 35.21,94.791 44.01,94.791 52.82,94.791 61.62,94.791 70.42,94.791 79.23,94.791      88.03,94.791 96.83,94.791 96.83,86.17 96.83,77.561 96.83,68.939 96.83,60.32 96.83,51.699 96.83,43.09 96.83,34.47      96.83,25.85 96.83,17.23 96.83,8.62 96.83,0 88.03,0 79.23,0 70.42,0 61.62,0 52.82,0 44.01,0 35.21,0 26.41,0 17.61,0 8.8,0      0,0    " />
		</defs>
		<defs
   id="defs3099">
			<rect
   id="SVGID_2_"
   width="96.959999"
   height="94.560997"
   x="0"
   y="0" />
		</defs>
		<clipPath
   id="SVGID_3_">
			<use
   xlink:href="#SVGID_1_"
   style="overflow:visible"
   id="use3103"
   x="0"
   y="0"
   width="96.959999"
   height="94.791" />
		</clipPath>
		<clipPath
   id="SVGID_4_">
			<use
   xlink:href="#SVGID_2_"
   style="overflow:visible"
   id="use3106"
   x="0"
   y="0"
   width="96.959999"
   height="94.791" />
		</clipPath>
		
		
			
		
	</defs><sodipodi:namedview
   pagecolor="#ffffff"
   bordercolor="#666666"
   borderopacity="1"
   objecttolerance="10"
   gridtolerance="10"
   guidetolerance="10"
   inkscape:pageopacity="0"
   inkscape:pageshadow="2"
   inkscape:window-width="983"
   inkscape:window-height="667"
   id="namedview3114"
   showgrid="false"
   fit-margin-top="0"
   fit-margin-left="0"
   fit-margin-right="0"
   fit-margin-bottom="0"
   inkscape:zoom="4.2865977"
   inkscape:cx="-14.593471"
   inkscape:cy="43.658323"
   inkscape:window-x="207"
   inkscape:window-y="143"
   inkscape:window-maximized="0"
   inkscape:current-layer="Layer_1" />
<polygon
   style="fill:#1C62A6;fill-opacity:1"
   points="34.05,47.16 34.16,47.83 34.3,48.49 34.48,49.141 34.69,49.779 34.93,50.4 35.2,51.01 35.5,51.609 35.83,52.189 36.2,52.77 36.6,53.33 37.03,53.881 37.49,54.41 37.99,54.939 38.5,55.439 39.03,55.91 39.57,56.34 40.13,56.75 40.7,57.121 41.28,57.461 41.87,57.77 42.48,58.041 43.1,58.279 43.73,58.49 44.38,58.67 45.03,58.82 45.71,58.93 46.39,59.01 47.09,59.061 47.8,59.08 48.5,59.061 49.2,59.01 49.88,58.93 50.561,58.82 51.22,58.67 51.86,58.49 52.5,58.279 53.12,58.041 53.73,57.77 54.33,57.461 54.91,57.121 55.49,56.75 56.05,56.34 56.601,55.91 57.13,55.439 57.66,54.939 58.16,54.41 58.63,53.881 59.061,53.33 59.47,52.77 59.84,52.189 60.181,51.609 60.49,51.01 60.76,50.4 61,49.779 61.21,49.141 61.391,48.49 61.54,47.83 61.65,47.16 61.73,46.47 61.78,45.78 61.8,45.07 61.78,44.36 61.73,43.66 61.65,42.98 61.54,42.31 61.391,41.65 61.21,41.01 61,40.38 60.76,39.76 60.49,39.15 60.181,38.56 59.84,37.98 59.47,37.41 59.061,36.85 58.63,36.31 58.16,35.78 57.66,35.27 57.13,34.77 56.601,34.31 56.05,33.88 55.49,33.48 54.91,33.11 54.33,32.78 53.73,32.47 53.12,32.2 52.5,31.96 51.86,31.75 51.22,31.58 50.561,31.43 49.88,31.32 49.2,31.24 48.5,31.19 47.8,31.18 47.09,31.19 46.39,31.24 45.71,31.32 45.03,31.43 44.38,31.58 43.73,31.75 43.1,31.96 42.48,32.2 41.87,32.47 41.28,32.78 40.7,33.11 40.13,33.48 39.57,33.88 39.03,34.31 38.5,34.77 37.99,35.27 37.49,35.78 37.03,36.31 36.6,36.85 36.2,37.41 35.83,37.98 35.5,38.56 35.2,39.15 34.93,39.76 34.69,40.38 34.48,41.01 34.3,41.65 34.16,42.31 34.05,42.98 33.97,43.66 33.92,44.36 33.91,45.07 33.91,45.07 33.92,45.78 33.97,46.47 34.05,47.16 "
   id="polygon3108"
   clip-path="url(#SVGID_4_)"
   transform="translate(-33.91,-31.18)" /><polygon
   style="fill:none;stroke:#0c0c0c;stroke-width:0.01;stroke-linecap:round;stroke-miterlimit:10"
   points="34.05,47.16 34.16,47.83 34.3,48.49 34.48,49.141 34.69,49.779 34.93,50.4 35.2,51.01 35.5,51.609 35.83,52.189 36.2,52.77 36.6,53.33 37.03,53.881 37.49,54.41 37.99,54.939 38.5,55.439 39.03,55.91 39.57,56.34 40.13,56.75 40.7,57.121 41.28,57.461 41.87,57.77 42.48,58.041 43.1,58.279 43.73,58.49 44.38,58.67 45.03,58.82 45.71,58.93 46.39,59.01 47.09,59.061 47.8,59.08 48.5,59.061 49.2,59.01 49.88,58.93 50.561,58.82 51.22,58.67 51.86,58.49 52.5,58.279 53.12,58.041 53.73,57.77 54.33,57.461 54.91,57.121 55.49,56.75 56.05,56.34 56.601,55.91 57.13,55.439 57.66,54.939 58.16,54.41 58.63,53.881 59.061,53.33 59.47,52.77 59.84,52.189 60.181,51.609 60.49,51.01 60.76,50.4 61,49.779 61.21,49.141 61.391,48.49 61.54,47.83 61.65,47.16 61.73,46.47 61.78,45.78 61.8,45.07 61.78,44.36 61.73,43.66 61.65,42.98 61.54,42.31 61.391,41.65 61.21,41.01 61,40.38 60.76,39.76 60.49,39.15 60.181,38.56 59.84,37.98 59.47,37.41 59.061,36.85 58.63,36.31 58.16,35.78 57.66,35.27 57.13,34.77 56.601,34.31 56.05,33.88 55.49,33.48 54.91,33.11 54.33,32.78 53.73,32.47 53.12,32.2 52.5,31.96 51.86,31.75 51.22,31.58 50.561,31.43 49.88,31.32 49.2,31.24 48.5,31.19 47.8,31.18 47.09,31.19 46.39,31.24 45.71,31.32 45.03,31.43 44.38,31.58 43.73,31.75 43.1,31.96 42.48,32.2 41.87,32.47 41.28,32.78 40.7,33.11 40.13,33.48 39.57,33.88 39.03,34.31 38.5,34.77 37.99,35.27 37.49,35.78 37.03,36.31 36.6,36.85 36.2,37.41 35.83,37.98 35.5,38.56 35.2,39.15 34.93,39.76 34.69,40.38 34.48,41.01 34.3,41.65 34.16,42.31 34.05,42.98 33.97,43.66 33.92,44.36 33.91,45.07 33.91,45.07 33.92,45.78 33.97,46.47 34.05,47.16 "
   id="polygon3110"
   clip-path="url(#SVGID_4_)"
   transform="translate(-33.91,-31.180001)" />
</svg>