<?xml version="1.0" encoding="UTF-8" standalone="no"?>
<!-- Generator: Adobe Illustrator 13.0.0, SVG Export Plug-In . SVG Version: 6.00 Build 14948)  -->

<svg
   xmlns:dc="http://purl.org/dc/elements/1.1/"
   xmlns:cc="http://creativecommons.org/ns#"
   xmlns:rdf="http://www.w3.org/1999/02/22-rdf-syntax-ns#"
   xmlns:svg="http://www.w3.org/2000/svg"
   xmlns="http://www.w3.org/2000/svg"
   xmlns:xlink="http://www.w3.org/1999/xlink"
   xmlns:sodipodi="http://sodipodi.sourceforge.net/DTD/sodipodi-0.dtd"
   xmlns:inkscape="http://www.inkscape.org/namespaces/inkscape"
   version="1.1"
   id="Layer_1"
   x="0px"
   y="0px"
   width="28.68"
   height="28.68"
   viewBox="0 0 28.680001 28.68"
   xml:space="preserve"
   inkscape:version="0.48.0 r9654"
   sodipodi:docname="ClocherChtdeaugodsique.svg"><metadata
   id="metadata3180"><rdf:RDF><cc:Work
       rdf:about=""><dc:format>image/svg+xml</dc:format><dc:type
         rdf:resource="http://purl.org/dc/dcmitype/StillImage" /></cc:Work></rdf:RDF></metadata><defs
   id="defs3178" /><sodipodi:namedview
   pagecolor="#ffffff"
   bordercolor="#666666"
   borderopacity="1"
   objecttolerance="10"
   gridtolerance="10"
   guidetolerance="10"
   inkscape:pageopacity="0"
   inkscape:pageshadow="2"
   inkscape:window-width="640"
   inkscape:window-height="480"
   id="namedview3176"
   showgrid="false"
   fit-margin-top="0"
   fit-margin-left="0"
   fit-margin-right="0"
   fit-margin-bottom="0"
   inkscape:zoom="2.7534259"
   inkscape:cx="13.945"
   inkscape:cy="10.5995"
   inkscape:window-x="522"
   inkscape:window-y="343"
   inkscape:window-maximized="0"
   inkscape:current-layer="Layer_1" />
<g
   id="g3150"
   transform="translate(-34.535,-29.315001)">
	<g
   id="g3152">
		<defs
   id="defs3154">
			<polyline
   id="SVGID_1_"
   points="0,0 0,8.62 0,17.23 0,25.85 0,34.47 0,43.09 0,51.699 0,60.32 0,68.939 0,77.561 0,86.17      0,94.791 8.8,94.791 17.61,94.791 26.41,94.791 35.21,94.791 44.01,94.791 52.82,94.791 61.62,94.791 70.42,94.791 79.23,94.791      88.03,94.791 96.83,94.791 96.83,86.17 96.83,77.561 96.83,68.939 96.83,60.32 96.83,51.699 96.83,43.09 96.83,34.47      96.83,25.85 96.83,17.23 96.83,8.62 96.83,0 88.03,0 79.23,0 70.42,0 61.62,0 52.82,0 44.01,0 35.21,0 26.41,0 17.61,0 8.8,0      0,0    " />
		</defs>
		<defs
   id="defs3157">
			<rect
   id="SVGID_2_"
   width="96.959999"
   height="94.560997"
   x="0"
   y="0" />
		</defs>
		<clipPath
   id="SVGID_3_">
			<use
   xlink:href="#SVGID_1_"
   style="overflow:visible"
   id="use3161"
   x="0"
   y="0"
   width="96.959999"
   height="94.791" />
		</clipPath>
		<clipPath
   id="SVGID_4_">
			<use
   xlink:href="#SVGID_2_"
   style="overflow:visible"
   id="use3164"
   x="0"
   y="0"
   width="96.959999"
   height="94.791" />
		</clipPath>
		<polygon
   style="fill:#ffffff"
   points="36.08,45.56 36.18,46.19 36.31,46.81 36.47,47.41 36.66,48 36.88,48.58 37.13,49.15 37.4,49.711 37.71,50.25 38.05,50.779 38.41,51.301 38.81,51.801 39.23,52.301 39.69,52.779 40.16,53.24 40.65,53.67 41.15,54.07 41.66,54.439 42.18,54.779 42.72,55.09 43.27,55.381 43.84,55.631 44.42,55.85 45.01,56.041 45.61,56.211 46.23,56.34 46.85,56.439 47.5,56.52 48.15,56.561 48.82,56.58 49.48,56.561 50.141,56.52 50.78,56.439 51.41,56.34 52.03,56.211 52.63,56.041 53.22,55.85 53.8,55.631 54.37,55.381 54.931,55.09 55.47,54.779 56,54.439 56.521,54.07 57.021,53.67 57.521,53.24 58,52.779 58.46,52.301 58.891,51.801 59.29,51.301 59.66,50.779 60,50.25 60.311,49.711 60.59,49.15 60.84,48.58 61.07,48 61.26,47.41 61.42,46.81 61.561,46.19 61.66,45.56 61.74,44.92 61.78,44.26 61.8,43.6 61.78,42.93 61.74,42.28 61.66,41.63 61.561,41.01 61.42,40.39 61.26,39.79 61.07,39.2 60.84,38.62 60.59,38.06 60.311,37.51 60,36.97 59.66,36.44 59.29,35.93 58.891,35.43 58.46,34.94 58,34.47 57.521,34.01 57.021,33.59 56.521,33.2 56,32.83 55.47,32.5 54.931,32.19 54.37,31.91 53.8,31.66 53.22,31.44 52.63,31.25 52.03,31.09 51.41,30.96 50.78,30.86 50.141,30.78 49.48,30.74 48.82,30.73 48.15,30.74 47.5,30.78 46.85,30.86 46.23,30.96 45.61,31.09 45.01,31.25 44.42,31.44 43.84,31.66 43.27,31.91 42.72,32.19 42.18,32.5 41.66,32.83 41.15,33.2 40.65,33.59 40.16,34.01 39.69,34.47 39.23,34.94 38.81,35.43 38.41,35.93 38.05,36.44 37.71,36.97 37.4,37.51 37.13,38.06 36.88,38.62 36.66,39.2 36.47,39.79 36.31,40.39 36.18,41.01 36.08,41.63 36,42.28 35.96,42.93 35.95,43.6 35.95,43.6 35.96,44.26 36,44.92 "
   id="polygon3166"
   clip-path="url(#SVGID_4_)" />
		
			<polygon
   style="fill:none;stroke:#0c0c0c;stroke-width:2.82999992;stroke-linecap:round;stroke-miterlimit:10"
   points="36.08,45.56 36.18,46.19 36.31,46.81 36.47,47.41 36.66,48 36.88,48.58 37.13,49.15 37.4,49.711 37.71,50.25 38.05,50.779 38.41,51.301 38.81,51.801 39.23,52.301 39.69,52.779 40.16,53.24 40.65,53.67 41.15,54.07 41.66,54.439 42.18,54.779 42.72,55.09 43.27,55.381 43.84,55.631 44.42,55.85 45.01,56.041 45.61,56.211 46.23,56.34 46.85,56.439 47.5,56.52 48.15,56.561 48.82,56.58 49.48,56.561 50.141,56.52 50.78,56.439 51.41,56.34 52.03,56.211 52.63,56.041 53.22,55.85 53.8,55.631 54.37,55.381 54.931,55.09 55.47,54.779 56,54.439 56.521,54.07 57.021,53.67 57.521,53.24 58,52.779 58.46,52.301 58.891,51.801 59.29,51.301 59.66,50.779 60,50.25 60.311,49.711 60.59,49.15 60.84,48.58 61.07,48 61.26,47.41 61.42,46.81 61.561,46.19 61.66,45.56 61.74,44.92 61.78,44.26 61.8,43.6 61.78,42.93 61.74,42.28 61.66,41.63 61.561,41.01 61.42,40.39 61.26,39.79 61.07,39.2 60.84,38.62 60.59,38.06 60.311,37.51 60,36.97 59.66,36.44 59.29,35.93 58.891,35.43 58.46,34.94 58,34.47 57.521,34.01 57.021,33.59 56.521,33.2 56,32.83 55.47,32.5 54.931,32.19 54.37,31.91 53.8,31.66 53.22,31.44 52.63,31.25 52.03,31.09 51.41,30.96 50.78,30.86 50.141,30.78 49.48,30.74 48.82,30.73 48.15,30.74 47.5,30.78 46.85,30.86 46.23,30.96 45.61,31.09 45.01,31.25 44.42,31.44 43.84,31.66 43.27,31.91 42.72,32.19 42.18,32.5 41.66,32.83 41.15,33.2 40.65,33.59 40.16,34.01 39.69,34.47 39.23,34.94 38.81,35.43 38.41,35.93 38.05,36.44 37.71,36.97 37.4,37.51 37.13,38.06 36.88,38.62 36.66,39.2 36.47,39.79 36.31,40.39 36.18,41.01 36.08,41.63 36,42.28 35.96,42.93 35.95,43.6 35.95,43.6 35.96,44.26 36,44.92 "
   id="polygon3168"
   clip-path="url(#SVGID_4_)" />
		<path
   d="m 46.62,43.59 c 0,0.61 0.22,1.13 0.68,1.55 0.45,0.43 1,0.65 1.64,0.65 0.64,0 1.19,-0.22 1.64,-0.65 0.45,-0.42 0.68,-0.94 0.68,-1.55 0,-0.6 -0.229,-1.12 -0.68,-1.55 -0.45,-0.43 -1,-0.64 -1.64,-0.64 -0.64,0 -1.19,0.21 -1.64,0.64 -0.46,0.43 -0.68,0.95 -0.68,1.55 l 0,0 z"
   id="path3170"
   clip-path="url(#SVGID_4_)"
   inkscape:connector-curvature="0" />
		
			<path
   style="fill:none;stroke:#0c0c0c;stroke-width:0.01;stroke-linecap:round;stroke-miterlimit:10"
   d="m 46.62,42.68 v 1.82 l 1.36,1.29 H 49.9 L 51.259,44.5 V 42.68 L 49.9,41.4 h -1.92 l -1.36,1.28 0,0 z m -10.67,0.92 0.01,0.66 0.04,0.66 0.08,0.64 0.1,0.63 0.13,0.62 0.16,0.6 0.19,0.59 0.22,0.58 0.25,0.57 0.27,0.561 0.31,0.539 0.34,0.529 0.36,0.521 0.4,0.5 0.42,0.5 0.46,0.479 0.47,0.461 0.49,0.43 0.5,0.4 0.51,0.369 0.52,0.34 0.54,0.311 0.55,0.291 0.57,0.25 0.58,0.219 0.59,0.191 0.6,0.17 0.62,0.129 0.62,0.1 0.65,0.08 0.65,0.041 0.67,0.02 0.66,-0.02 0.661,-0.041 0.64,-0.08 0.63,-0.1 0.62,-0.129 0.6,-0.17 0.59,-0.191 0.58,-0.219 0.57,-0.25 0.561,-0.291 0.539,-0.311 0.53,-0.34 0.521,-0.369 0.5,-0.4 0.5,-0.43 L 58,52.779 58.46,52.3 58.891,51.8 59.29,51.3 59.66,50.779 60,50.25 60.311,49.711 60.59,49.15 60.84,48.58 61.07,48 l 0.189,-0.59 0.16,-0.6 0.141,-0.62 0.1,-0.63 0.08,-0.64 0.04,-0.66 0.02,-0.66 -0.02,-0.67 -0.04,-0.65 -0.08,-0.65 -0.1,-0.62 -0.141,-0.62 -0.16,-0.6 L 61.07,39.2 60.84,38.62 60.59,38.06 60.311,37.51 60,36.97 59.66,36.44 59.29,35.93 58.891,35.43 58.46,34.94 58,34.47 57.521,34.01 57.021,33.59 56.521,33.2 56,32.83 55.47,32.5 54.931,32.19 54.37,31.91 53.8,31.66 l -0.58,-0.22 -0.59,-0.19 -0.6,-0.16 -0.62,-0.13 -0.63,-0.1 -0.64,-0.08 -0.661,-0.04 -0.66,-0.01 -0.67,0.01 -0.65,0.04 -0.65,0.08 -0.62,0.1 -0.62,0.13 -0.6,0.16 -0.59,0.19 -0.58,0.22 -0.57,0.25 -0.55,0.28 -0.54,0.31 -0.52,0.33 -0.51,0.37 -0.5,0.39 -0.49,0.42 -0.47,0.46 -0.46,0.47 -0.42,0.49 -0.4,0.5 -0.36,0.51 -0.34,0.53 -0.31,0.54 -0.27,0.55 -0.25,0.56 -0.22,0.58 -0.19,0.59 -0.16,0.6 -0.13,0.62 -0.1,0.62 -0.079,0.65 -0.04,0.65 -0.01,0.67 0,0 z"
   id="path3172"
   clip-path="url(#SVGID_4_)"
   inkscape:connector-curvature="0" />
		<polyline
   style="fill:none;stroke:#0c0c0c;stroke-width:0.01;stroke-miterlimit:10"
   points="    35.95,43.6 35.96,44.26 36,44.92 36.08,45.56 36.18,46.19 36.31,46.81 36.47,47.41 36.66,48 36.88,48.58 37.13,49.15 37.4,49.711     37.71,50.25 38.05,50.779 38.41,51.301 38.81,51.801 39.23,52.301 39.69,52.779 40.16,53.24 40.65,53.67 41.15,54.07     41.66,54.439 42.18,54.779 42.72,55.09 43.27,55.381 43.84,55.631 44.42,55.85 45.01,56.041 45.61,56.211 46.23,56.34     46.85,56.439 47.5,56.52 48.15,56.561 48.82,56.58 49.48,56.561 50.141,56.52 50.78,56.439 51.41,56.34 52.03,56.211     52.63,56.041 53.22,55.85 53.8,55.631 54.37,55.381 54.931,55.09 55.47,54.779 56,54.439 56.521,54.07 57.021,53.67 57.521,53.24     58,52.779 58.46,52.301 58.891,51.801 59.29,51.301 59.66,50.779 60,50.25 60.311,49.711 60.59,49.15 60.84,48.58 61.07,48     61.26,47.41 61.42,46.81 61.561,46.19 61.66,45.56 61.74,44.92 61.78,44.26 61.8,43.6 61.78,42.93 61.74,42.28 61.66,41.63     61.561,41.01 61.42,40.39 61.26,39.79 61.07,39.2 60.84,38.62 60.59,38.06 60.311,37.51 60,36.97 59.66,36.44 59.29,35.93     58.891,35.43 58.46,34.94 58,34.47 57.521,34.01 57.021,33.59 56.521,33.2 56,32.83 55.47,32.5 54.931,32.19 54.37,31.91     53.8,31.66 53.22,31.44 52.63,31.25 52.03,31.09 51.41,30.96 50.78,30.86 50.141,30.78 49.48,30.74 48.82,30.73 48.15,30.74     47.5,30.78 46.85,30.86 46.23,30.96 45.61,31.09 45.01,31.25 44.42,31.44 43.84,31.66 43.27,31.91 42.72,32.19 42.18,32.5     41.66,32.83 41.15,33.2 40.65,33.59 40.16,34.01 39.69,34.47 39.23,34.94 38.81,35.43 38.41,35.93 38.05,36.44 37.71,36.97     37.4,37.51 37.13,38.06 36.88,38.62 36.66,39.2 36.47,39.79 36.31,40.39 36.18,41.01 36.08,41.63 36,42.28 35.96,42.93     35.95,43.6   "
   id="polyline3174"
   clip-path="url(#SVGID_4_)" />
	</g>
</g>
</svg>