<?xml version="1.0" encoding="iso-8859-1"?>
<!-- Generator: Adobe Illustrator 13.0.0, SVG Export Plug-In . SVG Version: 6.00 Build 14948)  -->
<!DOCTYPE svg PUBLIC "-//W3C//DTD SVG 1.1//EN" "http://www.w3.org/Graphics/SVG/1.1/DTD/svg11.dtd">
<svg version="1.1" id="Layer_1" xmlns="http://www.w3.org/2000/svg" xmlns:xlink="http://www.w3.org/1999/xlink" x="0px" y="0px"
	 width="3.168px" height="3.173px" viewBox="0 0 3.168 3.173" style="enable-background:new 0 0 3.168 3.173;" xml:space="preserve"
	>
<g>
	<polygon style="fill-rule:evenodd;clip-rule:evenodd;" points="0.167,0 0.203,0.005 0.239,0.014 0.27,0.036 0.288,0.05 
		1.584,1.346 2.88,0.05 2.898,0.036 2.93,0.014 2.966,0.005 3.002,0 3.038,0.005 3.073,0.014 3.105,0.036 3.132,0.063 3.154,0.099 
		3.164,0.13 3.168,0.167 3.164,0.202 3.154,0.238 3.132,0.271 3.123,0.288 1.827,1.584 3.123,2.88 3.132,2.897 3.154,2.929 
		3.164,2.966 3.168,3.001 3.164,3.038 3.154,3.073 3.132,3.104 3.105,3.132 3.073,3.155 3.038,3.163 3.002,3.173 2.966,3.163 
		2.93,3.155 2.898,3.132 2.88,3.122 1.584,1.827 0.288,3.122 0.27,3.132 0.239,3.155 0.203,3.163 0.167,3.173 0.131,3.163 
		0.095,3.155 0.063,3.132 0.036,3.104 0.014,3.073 0.005,3.038 0,3.001 0.005,2.966 0.014,2.929 0.036,2.897 0.045,2.88 
		1.341,1.584 0.045,0.288 0.036,0.271 0.014,0.238 0.005,0.202 0,0.167 0.005,0.13 0.014,0.099 0.036,0.063 0.063,0.036 
		0.095,0.014 0.131,0.005 	"/>
</g>
</svg>
