<?xml version="1.0" encoding="UTF-8" standalone="no"?>
<!-- Generator: Adobe Illustrator 13.0.0, SVG Export Plug-In  -->

<svg
   xmlns:dc="http://purl.org/dc/elements/1.1/"
   xmlns:cc="http://creativecommons.org/ns#"
   xmlns:rdf="http://www.w3.org/1999/02/22-rdf-syntax-ns#"
   xmlns:svg="http://www.w3.org/2000/svg"
   xmlns="http://www.w3.org/2000/svg"
   xmlns:sodipodi="http://sodipodi.sourceforge.net/DTD/sodipodi-0.dtd"
   xmlns:inkscape="http://www.inkscape.org/namespaces/inkscape"
   version="1.1"
   x="0px"
   y="0px"
   width="11.623"
   height="11.622"
   viewBox="-0.487 -0.662 11.623 11.622"
   enable-background="new -0.487 -0.662 13 13"
   xml:space="preserve"
   id="svg2"
   inkscape:version="0.48.0 r9654"
   sodipodi:docname="e100_Reserve_naturelle.svg"><metadata
   id="metadata24"><rdf:RDF><cc:Work
       rdf:about=""><dc:format>image/svg+xml</dc:format><dc:type
         rdf:resource="http://purl.org/dc/dcmitype/StillImage" /></cc:Work></rdf:RDF></metadata><sodipodi:namedview
   pagecolor="#ffffff"
   bordercolor="#666666"
   borderopacity="1"
   objecttolerance="10"
   gridtolerance="10"
   guidetolerance="10"
   inkscape:pageopacity="0"
   inkscape:pageshadow="2"
   inkscape:window-width="640"
   inkscape:window-height="480"
   id="namedview22"
   showgrid="false"
   fit-margin-top="0"
   fit-margin-left="0"
   fit-margin-right="0"
   fit-margin-bottom="0"
   inkscape:zoom="22.384615"
   inkscape:cx="6.013"
   inkscape:cy="5.784"
   inkscape:window-x="90"
   inkscape:window-y="59"
   inkscape:window-maximized="0"
   inkscape:current-layer="svg2" />
<defs
   id="defs4">
</defs>
<path
   sodipodi:type="arc"
   style="fill:#ffffff;stroke:#ffffff;stroke-opacity:1"
   id="path2982"
   sodipodi:cx="8.1975946"
   sodipodi:cy="6.8195944"
   sodipodi:rx="4.5790377"
   sodipodi:ry="4.6237116"
   d="m 12.776632,6.8195944 a 4.5790377,4.6237116 0 1 1 -9.158075,0 4.5790377,4.6237116 0 1 1 9.158075,0 z"
   transform="matrix(0.98287722,0,0,0.97338083,-2.7992703,-1.5067361)" /><path
   d="m -0.487,5.148 c 0,3.205 2.607,5.812 5.811,5.812 3.205,0 5.812,-2.606 5.812,-5.812 0,-3.204 -2.607,-5.81 -5.812,-5.81 -3.204,0 -5.811,2.606 -5.811,5.81 z m 0.851,0 c 0,-2.735 2.225,-4.959 4.96,-4.959 2.735,0 4.962,2.225 4.962,4.959 0,2.735 -2.227,4.962 -4.962,4.962 -2.735,0 -4.96,-2.227 -4.96,-4.962 z"
   id="path6"
   inkscape:connector-curvature="0"
   style="fill:#246138" />
<polyline
   points="5.691,2.097 5.699,2.358 5.716,2.95 5.733,3.588 5.741,3.988 5.802,4.165 5.957,4.31 6.16,4.397   6.37,4.4 6.725,4.256 7.25,4.004 7.725,3.764 7.932,3.658 7.772,3.653 7.39,3.621 6.937,3.533 6.563,3.363 6.267,3.04 5.985,2.619   5.774,2.253 5.691,2.097 "
   id="polyline8"
   style="fill:#246138"
   transform="translate(-0.487,-0.662)" />
<polyline
   points="9.065,7.681 8.835,7.557 8.314,7.276 7.752,6.972 7.403,6.779 7.219,6.74 7.02,6.794 6.846,6.922   6.742,7.101 6.689,7.48 6.644,8.06 6.614,8.591 6.602,8.824 6.685,8.69 6.9,8.381 7.199,8.039 7.532,7.802 7.959,7.708 8.465,7.675   8.888,7.675 9.065,7.681 "
   id="polyline10"
   style="fill:#246138"
   transform="translate(-0.487,-0.662)" />
<polyline
   points="2.504,7.833 2.727,7.696 3.231,7.384 3.776,7.05 4.118,6.845 4.243,6.706 4.294,6.504 4.271,6.291   4.17,6.113 3.868,5.875 3.388,5.546 2.944,5.254 2.749,5.128 2.823,5.267 2.982,5.608 3.129,6.038 3.167,6.445 3.034,6.862   2.81,7.317 2.598,7.683 2.504,7.833 "
   id="polyline12"
   style="fill:#246138"
   transform="translate(-0.487,-0.662)" />
<ellipse
   cx="5.8109999"
   cy="5.8119998"
   rx="1.135"
   ry="1.1"
   id="ellipse14"
   sodipodi:cx="5.8109999"
   sodipodi:cy="5.8119998"
   sodipodi:rx="1.135"
   sodipodi:ry="1.1"
   style="fill:#246138"
   transform="translate(-0.487,-0.662)" />
<polyline
   points="9.043,3.767 8.82,3.901 8.312,4.205 7.764,4.532 7.418,4.734 7.293,4.874 7.243,5.079 7.266,5.299   7.366,5.484 7.666,5.723 8.141,6.058 8.582,6.355 8.776,6.484 8.702,6.341 8.542,5.993 8.398,5.555 8.366,5.146 8.502,4.729   8.732,4.278 8.948,3.916 9.043,3.767 "
   id="polyline16"
   style="fill:#246138"
   transform="translate(-0.487,-0.662)" />
<polyline
   points="5.821,9.437 5.816,9.176 5.807,8.584 5.798,7.947 5.795,7.546 5.739,7.368 5.594,7.221   5.398,7.132 5.192,7.128 4.835,7.266 4.307,7.51 3.828,7.744 3.62,7.847 3.777,7.854 4.151,7.89 4.596,7.984 4.965,8.16   5.256,8.487 5.533,8.912 5.74,9.28 5.821,9.437 "
   id="polyline18"
   style="fill:#246138"
   transform="translate(-0.487,-0.662)" />
<polyline
   points="2.483,3.789 2.711,3.916 3.229,4.204 3.787,4.516 4.133,4.714 4.316,4.754 4.517,4.702   4.691,4.576 4.797,4.4 4.856,4.021 4.909,3.442 4.947,2.912 4.961,2.679 4.877,2.812 4.657,3.118 4.354,3.456 4.016,3.687   3.588,3.776 3.082,3.803 2.66,3.797 2.483,3.789 "
   id="polyline20"
   style="fill:#246138"
   transform="translate(-0.487,-0.662)" />
</svg>