<?xml version="1.0" encoding="utf-8"?>
<!-- Generator: Adobe Illustrator 13.0.0, SVG Export Plug-In . SVG Version: 6.00 Build 14948)  -->
<!DOCTYPE svg PUBLIC "-//W3C//DTD SVG 1.1//EN" "http://www.w3.org/Graphics/SVG/1.1/DTD/svg11.dtd">
<svg version="1.1" id="Layer_4" xmlns="http://www.w3.org/2000/svg" xmlns:xlink="http://www.w3.org/1999/xlink" x="0px" y="0px"
	 width="100.63px" height="113.39px" viewBox="0 0 100.63 113.39" enable-background="new 0 0 100.63 113.39" xml:space="preserve">
<defs>
	<polygon id="SVGID_1_" points="0,0 0,8.72 0,17.44 0,26.17 0,34.89 0,43.61 0,52.33 0,61.05 0,69.78 0,78.5 0,87.22 0,95.94 
		0,104.66 0,113.39 8.39,113.39 16.77,113.39 25.16,113.39 33.54,113.39 41.93,113.39 50.31,113.39 58.7,113.39 67.09,113.39 
		75.47,113.39 83.86,113.39 92.24,113.39 100.63,113.39 100.63,104.66 100.63,95.94 100.63,87.22 100.63,78.5 100.63,69.78 
		100.63,61.05 100.63,52.33 100.63,43.61 100.63,34.89 100.63,26.17 100.63,17.44 100.63,8.72 100.63,0 92.24,0 83.86,0 75.47,0 
		67.09,0 58.7,0 50.31,0 41.93,0 33.54,0 25.16,0 16.77,0 8.39,0 	"/>
</defs>
<clipPath id="SVGID_2_">
	<use xlink:href="#SVGID_1_"  overflow="visible"/>
</clipPath>
<g id="clip" clip-path="url(#SVGID_2_)">
</g>
<g id="Surface" clip-path="url(#SVGID_2_)">
	<polygon points="46.06,85.04 54.57,85.04 55.48,85 56.38,84.89 57.27,84.71 58.14,84.46 59,84.15 59.84,83.77 60.66,83.32 
		61.46,82.81 62.25,82.24 63.01,81.62 63.75,80.94 64.47,80.2 65.17,79.41 65.84,78.57 66.48,77.68 67.1,76.74 67.68,75.75 
		68.24,74.72 68.76,73.65 69.26,72.54 69.72,71.39 70.15,70.21 70.54,68.98 70.89,67.73 71.21,66.44 71.49,65.12 71.73,63.78 
		71.92,62.41 72.08,61.01 72.19,59.59 72.26,58.15 72.28,56.69 72.26,55.23 72.19,53.79 72.08,52.38 71.92,50.98 71.73,49.61 
		71.49,48.26 71.21,46.95 70.89,45.66 70.54,44.4 70.15,43.18 69.72,41.99 69.26,40.84 68.76,39.73 68.24,38.66 67.68,37.63 
		67.1,36.65 66.48,35.71 65.84,34.82 65.17,33.98 64.47,33.19 63.75,32.45 63.01,31.77 62.25,31.14 61.46,30.57 60.66,30.07 
		59.84,29.62 59,29.24 58.14,28.92 57.27,28.67 56.38,28.49 55.48,28.38 54.57,28.35 46.06,28.35 46.06,28.35 46.06,28.35 
		45.15,28.38 44.25,28.49 43.36,28.67 42.49,28.92 41.64,29.24 40.79,29.62 39.97,30.07 39.17,30.57 38.38,31.14 37.62,31.77 
		36.88,32.45 36.16,33.19 35.46,33.98 34.79,34.82 34.15,35.71 33.54,36.65 32.95,37.63 32.39,38.66 31.87,39.73 31.37,40.84 
		30.91,41.99 30.48,43.18 30.09,44.4 29.74,45.66 29.42,46.95 29.14,48.26 28.9,49.61 28.71,50.98 28.55,52.38 28.44,53.79 
		28.37,55.23 28.35,56.69 28.37,58.15 28.44,59.59 28.55,61.01 28.71,62.41 28.9,63.78 29.14,65.12 29.42,66.44 29.74,67.73 
		30.09,68.98 30.48,70.21 30.91,71.39 31.37,72.54 31.87,73.65 32.39,74.72 32.95,75.75 33.54,76.74 34.15,77.68 34.79,78.57 
		35.46,79.41 36.16,80.2 36.88,80.94 37.62,81.62 38.38,82.24 39.17,82.81 39.97,83.32 40.79,83.77 41.64,84.15 42.49,84.46 
		43.36,84.71 44.25,84.89 45.15,85 	"/>
</g>
</svg>
