<?xml version="1.0" encoding="UTF-8" standalone="no"?>
<!-- Generator: Adobe Illustrator 13.0.0, SVG Export Plug-In  -->

<svg
   xmlns:dc="http://purl.org/dc/elements/1.1/"
   xmlns:cc="http://creativecommons.org/ns#"
   xmlns:rdf="http://www.w3.org/1999/02/22-rdf-syntax-ns#"
   xmlns:svg="http://www.w3.org/2000/svg"
   xmlns="http://www.w3.org/2000/svg"
   xmlns:sodipodi="http://sodipodi.sourceforge.net/DTD/sodipodi-0.dtd"
   xmlns:inkscape="http://www.inkscape.org/namespaces/inkscape"
   version="1.1"
   x="0px"
   y="0px"
   width="11.623"
   height="11.622"
   viewBox="-0.211 -0.826 11.623 11.622"
   enable-background="new -0.211 -0.826 12 13"
   xml:space="preserve"
   id="svg3068"
   inkscape:version="0.48.0 r9654"
   sodipodi:docname="e100_Parc_de_loisirs.svg"><metadata
   id="metadata3084"><rdf:RDF><cc:Work
       rdf:about=""><dc:format>image/svg+xml</dc:format><dc:type
         rdf:resource="http://purl.org/dc/dcmitype/StillImage" /></cc:Work></rdf:RDF></metadata><sodipodi:namedview
   pagecolor="#ffffff"
   bordercolor="#666666"
   borderopacity="1"
   objecttolerance="10"
   gridtolerance="10"
   guidetolerance="10"
   inkscape:pageopacity="0"
   inkscape:pageshadow="2"
   inkscape:window-width="710"
   inkscape:window-height="480"
   id="namedview3082"
   showgrid="false"
   fit-margin-top="0"
   fit-margin-left="0"
   fit-margin-right="0"
   fit-margin-bottom="0"
   inkscape:zoom="22.384615"
   inkscape:cx="5.789"
   inkscape:cy="5.948"
   inkscape:window-x="0"
   inkscape:window-y="0"
   inkscape:window-maximized="0"
   inkscape:current-layer="svg3068" />
<defs
   id="defs3070">
</defs>
<path
   sodipodi:type="arc"
   style="fill:#ffffff;fill-rule:evenodd;stroke:#ffffff;stroke-width:0.99961555000000002;stroke-linecap:butt;stroke-linejoin:miter;stroke-opacity:1;stroke-miterlimit:4;stroke-dasharray:none"
   id="path2986"
   sodipodi:cx="6.9690723"
   sodipodi:cy="6.7079105"
   sodipodi:rx="4.5120277"
   sodipodi:ry="4.3333335"
   d="m 11.4811,6.7079105 a 4.5120277,4.3333335 0 1 1 -9.0240554,0 4.5120277,4.3333335 0 1 1 9.0240554,0 z"
   transform="matrix(1.0810845,0,0,1.0638097,-1.9822699,-2.1028268)" /><circle
   cx="2.7379999"
   cy="5.0359998"
   r="0.64600003"
   id="circle3072"
   sodipodi:cx="2.7379999"
   sodipodi:cy="5.0359998"
   sodipodi:rx="0.64600003"
   sodipodi:ry="0.64600003"
   style="fill:#246138"
   transform="translate(-0.211,-0.826)" />
<circle
   cx="8.1079998"
   cy="5.71"
   r="0.64600003"
   id="circle3074"
   sodipodi:cx="8.1079998"
   sodipodi:cy="5.71"
   sodipodi:rx="0.64600003"
   sodipodi:ry="0.64600003"
   style="fill:#246138"
   transform="translate(-0.211,-0.826)" />
<ellipse
   cx="6.652"
   cy="2.9809999"
   rx="1.124"
   ry="1.089"
   id="ellipse3076"
   sodipodi:cx="6.652"
   sodipodi:cy="2.9809999"
   sodipodi:rx="1.124"
   sodipodi:ry="1.089"
   style="fill:#246138"
   transform="translate(-0.211,-0.826)" />
<path
   d="m 5.601,-0.826 c -3.205,0 -5.812,2.607 -5.812,5.812 0,3.204 2.607,5.81 5.812,5.81 3.204,0 5.811,-2.605 5.811,-5.81 0,-3.205 -2.607,-5.812 -5.811,-5.812 z m -3.937,8.795 0.033,0.03 0.379,0.47 C 1.924,8.316 1.795,8.142 1.664,7.969 z M 5.601,9.946 C 4.56,9.946 3.596,9.621 2.797,9.071 L 2.831,8.89 3.381,5.978 3.61,5.738 3.724,5.617 3.953,5.377 4.182,5.136 4.296,5.016 4.332,4.607 4.351,4.402 4.387,3.993 4.406,3.788 4.442,3.379 4.826,2.994 H 4.152 L 3.863,4.341 3.748,4.456 3.52,4.685 3.291,4.914 3.063,5.143 2.949,5.257 2.927,5.273 2.864,5.311 2.764,5.356 2.63,5.395 2.467,5.413 2.279,5.398 2.069,5.334 1.842,5.207 1.692,5.803 1.617,6.099 1.465,6.695 1.39,6.992 1.315,7.29 1.289,7.391 C 0.888,6.675 0.639,5.863 0.639,4.986 0.639,2.25 2.865,0.025 5.6,0.025 c 2.735,0 4.961,2.226 4.961,4.961 10e-4,2.734 -2.225,4.96 -4.96,4.96 z"
   id="path3078"
   inkscape:connector-curvature="0"
   style="fill:#246138" />
<polyline
   points="9.9,8.656 9.786,8.374 9.671,8.091 9.557,7.808 9.443,7.526 9.329,7.244 9.214,6.96 9.1,6.678   8.986,6.396 8.847,6.468 8.708,6.54 8.57,6.611 8.432,6.683 8.294,6.755 8.156,6.827 8.017,6.898 7.878,6.97 7.848,7.025   7.818,7.08 7.788,7.134 7.757,7.188 7.727,7.242 7.697,7.296 7.667,7.351 7.637,7.406 7.445,7.28 7.252,7.154 7.06,7.027   6.868,6.901 6.675,6.775 6.483,6.648 6.291,6.522 6.098,6.396 6.074,6.457 6.05,6.516 6.026,6.576 6.001,6.636 5.977,6.697   5.953,6.756 5.929,6.816 5.905,6.876 6.055,7.002 6.206,7.128 6.356,7.255 6.506,7.381 6.657,7.507 6.807,7.634 6.958,7.76   7.108,7.886 7.162,7.922 7.216,7.958 7.271,7.994 7.325,8.03 7.378,8.066 7.433,8.101 7.488,8.137 7.542,8.173 7.626,8.162   7.71,8.15 7.794,8.138 7.878,8.126 7.962,8.115 8.046,8.103 8.13,8.091 8.215,8.08 8.24,8.147 8.302,8.327 8.388,8.586 8.48,8.893   8.563,9.213 8.622,9.514 8.639,9.762 8.601,9.925 "
   id="polyline3080"
   style="fill:#246138"
   transform="translate(-0.211,-0.826)" />
</svg>