<?xml version="1.0" encoding="UTF-8" standalone="no"?>
<!-- Generator: Adobe Illustrator 13.0.0, SVG Export Plug-In  -->

<svg
   xmlns:dc="http://purl.org/dc/elements/1.1/"
   xmlns:cc="http://creativecommons.org/ns#"
   xmlns:rdf="http://www.w3.org/1999/02/22-rdf-syntax-ns#"
   xmlns:svg="http://www.w3.org/2000/svg"
   xmlns="http://www.w3.org/2000/svg"
   xmlns:sodipodi="http://sodipodi.sourceforge.net/DTD/sodipodi-0.dtd"
   xmlns:inkscape="http://www.inkscape.org/namespaces/inkscape"
   version="1.1"
   x="0px"
   y="0px"
   width="11.622"
   height="11.62"
   viewBox="-0.236 -0.828 11.622 11.62"
   enable-background="new -0.236 -0.828 12 13"
   xml:space="preserve"
   id="svg3465"
   inkscape:version="0.48.0 r9654"
   sodipodi:docname="e100_Golf.svg"><metadata
   id="metadata3479"><rdf:RDF><cc:Work
       rdf:about=""><dc:format>image/svg+xml</dc:format><dc:type
         rdf:resource="http://purl.org/dc/dcmitype/StillImage" /></cc:Work></rdf:RDF></metadata><sodipodi:namedview
   pagecolor="#ffffff"
   bordercolor="#666666"
   borderopacity="1"
   objecttolerance="10"
   gridtolerance="10"
   guidetolerance="10"
   inkscape:pageopacity="0"
   inkscape:pageshadow="2"
   inkscape:window-width="640"
   inkscape:window-height="480"
   id="namedview3477"
   showgrid="false"
   fit-margin-top="0"
   fit-margin-left="0"
   fit-margin-right="0"
   fit-margin-bottom="0"
   inkscape:zoom="22.384615"
   inkscape:cx="5.764"
   inkscape:cy="5.948"
   inkscape:window-x="786"
   inkscape:window-y="94"
   inkscape:window-maximized="0"
   inkscape:current-layer="svg3465" />
<defs
   id="defs3467">
</defs>
<path
   sodipodi:type="arc"
   style="fill:#ffffff;stroke:#ffffff;stroke-opacity:1"
   id="path2982"
   sodipodi:cx="8.1975946"
   sodipodi:cy="6.8195944"
   sodipodi:rx="4.5790377"
   sodipodi:ry="4.6237116"
   d="m 12.776632,6.8195944 a 4.5790377,4.6237116 0 1 1 -9.158075,0 4.5790377,4.6237116 0 1 1 9.158075,0 z"
   transform="matrix(0.98775646,0,0,0.96855109,-2.5022166,-1.6494418)" /><path
   d="m -0.236,4.982 c 0,3.204 2.607,5.81 5.812,5.81 3.204,0 5.81,-2.605 5.81,-5.81 0,-3.204 -2.605,-5.81 -5.81,-5.81 -3.205,0 -5.812,2.606 -5.812,5.81 z m 0.851,0 c 0,-2.735 2.226,-4.959 4.961,-4.959 2.734,0 4.96,2.225 4.96,4.959 0,2.734 -2.226,4.96 -4.96,4.96 -2.736,0 -4.961,-2.226 -4.961,-4.96 z"
   id="path3469"
   inkscape:connector-curvature="0"
   style="fill:#246138" />
<polygon
   points="4.909,1.259 4.837,1.222 4.839,1.259 4.486,1.259 4.486,9.025 4.986,9.025 4.986,4.173 8.541,3.144 4.986,1.299 4.986,1.259 "
   id="polygon3471"
   style="fill:#246138"
   transform="translate(-0.236,-0.828)" />
<polygon
   points="5.663,7.344 5.647,7.345 5.631,7.347 5.616,7.348 5.6,7.349 5.584,7.351 5.587,7.382 5.59,7.414 5.593,7.445 5.596,7.476 5.598,7.507 5.601,7.539 5.604,7.57 5.607,7.6 5.623,7.599 5.638,7.597 5.654,7.595 5.669,7.594 5.685,7.593 5.701,7.591 5.716,7.589 5.731,7.588 6.196,7.606 6.66,7.624 6.992,7.737 7.324,7.85 7.542,8.003 7.758,8.157 7.878,8.294 7.999,8.432 8.058,8.536 8.118,8.639 8.151,8.73 8.183,8.821 8.193,8.892 8.203,8.964 8.194,9.011 8.186,9.058 8.039,9.26 7.891,9.462 7.696,9.605 7.501,9.749 7.286,9.842 7.069,9.936 6.858,9.992 6.646,10.047 6.124,10.089 5.601,10.131 5.09,10.074 4.58,10.015 4.14,9.882 3.701,9.749 3.393,9.566 3.084,9.384 3.073,9.375 3.061,9.364 3.049,9.353 3.038,9.343 3.026,9.333 3.014,9.322 3.002,9.312 2.991,9.301 2.97,9.325 2.949,9.348 2.928,9.372 2.908,9.395 2.887,9.418 2.867,9.442 2.846,9.465 2.825,9.489 2.836,9.5 2.848,9.509 2.86,9.52 2.872,9.531 2.883,9.541 2.895,9.551 2.907,9.562 2.918,9.572 3.276,9.784 3.634,9.996 4.112,10.134 4.589,10.273 5.122,10.327 5.654,10.38 6.174,10.336 6.695,10.292 6.987,10.209 7.28,10.126 7.522,10.003 7.765,9.88 7.955,9.72 8.144,9.56 8.278,9.364 8.411,9.167 8.43,9.079 8.451,8.99 8.439,8.882 8.427,8.774 8.385,8.654 8.343,8.535 8.274,8.413 8.204,8.291 8.07,8.136 7.936,7.981 7.696,7.808 7.456,7.636 7.09,7.509 6.725,7.381 6.217,7.361 5.709,7.34 5.709,7.34 5.709,7.34 5.709,7.34 5.694,7.341 5.678,7.343 "
   id="polygon3473"
   style="fill:#246138"
   transform="translate(-0.236,-0.828)" />
<ellipse
   cx="5.9860001"
   cy="8.8730001"
   rx="0.56999999"
   ry="0.41600001"
   id="ellipse3475"
   sodipodi:cx="5.9860001"
   sodipodi:cy="8.8730001"
   sodipodi:rx="0.56999999"
   sodipodi:ry="0.41600001"
   style="fill:#246138"
   transform="translate(-0.236,-0.828)" />
</svg>