<?xml version="1.0" encoding="UTF-8" standalone="no"?>
<!-- Generator: Adobe Illustrator 13.0.0, SVG Export Plug-In  -->

<svg
   xmlns:dc="http://purl.org/dc/elements/1.1/"
   xmlns:cc="http://creativecommons.org/ns#"
   xmlns:rdf="http://www.w3.org/1999/02/22-rdf-syntax-ns#"
   xmlns:svg="http://www.w3.org/2000/svg"
   xmlns="http://www.w3.org/2000/svg"
   xmlns:sodipodi="http://sodipodi.sourceforge.net/DTD/sodipodi-0.dtd"
   xmlns:inkscape="http://www.inkscape.org/namespaces/inkscape"
   version="1.1"
   x="0px"
   y="0px"
   width="10.772"
   height="10.809"
   viewBox="-0.823 -0.541 10.772 10.809"
   enable-background="new -0.823 -0.541 12 12"
   xml:space="preserve"
   id="svg4590"
   inkscape:version="0.48.0 r9654"
   sodipodi:docname="e100_Ensemble_classe.svg"><metadata
   id="metadata4598"><rdf:RDF><cc:Work
       rdf:about=""><dc:format>image/svg+xml</dc:format><dc:type
         rdf:resource="http://purl.org/dc/dcmitype/StillImage" /></cc:Work></rdf:RDF></metadata><sodipodi:namedview
   pagecolor="#ffffff"
   bordercolor="#666666"
   borderopacity="1"
   objecttolerance="10"
   gridtolerance="10"
   guidetolerance="10"
   inkscape:pageopacity="0"
   inkscape:pageshadow="2"
   inkscape:window-width="640"
   inkscape:window-height="480"
   id="namedview4596"
   showgrid="false"
   fit-margin-top="0"
   fit-margin-left="0"
   fit-margin-right="0"
   fit-margin-bottom="0"
   inkscape:zoom="24.25"
   inkscape:cx="5.177"
   inkscape:cy="5.35"
   inkscape:window-x="209"
   inkscape:window-y="394"
   inkscape:window-maximized="0"
   inkscape:current-layer="svg4590" />
<defs
   id="defs4592">
</defs>
<rect
   style="fill:#ffffff;stroke:#ffffff;stroke-width:0.95170045;stroke-opacity:1"
   id="rect2984"
   width="9.4020615"
   height="7.0964704"
   x="-0.017133972"
   y="0.14584801" /><rect
   style="fill:#ffffff;fill-opacity:1;stroke:#ffffff;stroke-width:1;stroke-opacity:1"
   id="rect2996"
   width="4.7422681"
   height="1.814433"
   x="1.1343304"
   y="8.0533495"
   transform="matrix(0.92338423,-0.38387701,0.38387701,0.92338423,0,0)"
   inkscape:transform-center-x="0.70828221"
   inkscape:transform-center-y="0.22582892" /><rect
   style="fill:#ffffff;fill-opacity:1;stroke:#ffffff;stroke-width:1;stroke-opacity:1"
   id="rect2996-8"
   width="4.7422681"
   height="1.814433"
   x="-7.5447006"
   y="-6.0769243"
   transform="matrix(-0.91136532,-0.41159841,0.41159841,-0.91136532,0,0)"
   inkscape:transform-center-x="-4.3774963"
   inkscape:transform-center-y="-0.10904665" /><path
   d="m -0.823,-0.541 0.025,8.409 5.375,2.4 5.372,-2.171 V -0.541 H -0.823 z M 9.099,7.523 C 8.64,7.709 4.889,9.225 4.594,9.344 4.302,9.213 0.488,7.51 0.051,7.315 0.05,6.834 0.032,1.042 0.03,0.31 H 9.1 V 7.523 z M 3.739,7.932 3.845,7.308 3.927,7.054 4.047,6.795 4.254,6.604 4.482,6.58 4.808,6.604 5.044,6.699 5.212,6.863 5.394,7.262 5.485,7.849 7.363,7.873 7.899,5.451 7.014,4.783 6.136,3.85 5.653,3.225 5.213,2.538 4.889,1.791 4.44,0.614 4.302,0.931 3.896,1.861 3.556,2.575 c 0,0 -0.4,0.686 -0.4,0.687 -0.002,0 -0.486,0.627 -0.486,0.627 L 1.956,4.739 C 1.961,4.734 1.226,5.406 1.226,5.406 L 1.157,5.468 1.156,5.577 1.958,7.932 H 3.739 z M 5.183,4.463 5.273,4.367 5.383,4.331 5.493,4.296 5.603,4.331 5.713,4.367 5.893,4.559 5.954,4.702 6.015,4.845 6.06,5.195 6.015,5.543 5.894,5.829 5.714,6.021 5.493,6.091 5.383,6.056 5.273,6.021 5.183,5.925 5.094,5.829 5.033,5.686 4.972,5.543 4.95,5.369 4.927,5.195 4.949,5.02 4.971,4.845 5.032,4.702 5.093,4.559 5.183,4.463 z M 3.994,3.412 4.015,3.342 4.073,3.285 4.132,3.228 4.218,3.189 4.304,3.151 4.517,3.123 4.729,3.151 4.815,3.189 4.901,3.228 5.017,3.342 5.038,3.412 5.059,3.482 5.038,3.552 5.017,3.622 4.902,3.736 4.815,3.774 4.729,3.813 4.517,3.841 4.304,3.813 4.132,3.736 4.073,3.679 4.015,3.622 3.994,3.552 3.973,3.482 3.994,3.412 z M 2.921,4.999 2.943,4.824 3.004,4.681 3.065,4.538 3.155,4.442 3.245,4.346 3.355,4.31 3.465,4.275 3.575,4.31 3.685,4.346 3.775,4.442 3.865,4.538 3.926,4.681 3.987,4.824 4.009,4.999 4.031,5.174 4.009,5.348 3.987,5.522 3.926,5.665 3.865,5.807 3.775,5.903 3.685,5.999 3.575,6.034 3.465,6.069 3.355,6.034 3.245,5.999 3.155,5.903 3.065,5.807 3.004,5.665 2.943,5.522 2.921,5.348 2.898,5.173 2.921,4.999 z"
   id="path4594"
   inkscape:connector-curvature="0"
   style="fill:#7d7d7d" />
</svg>
