<?xml version="1.0" encoding="UTF-8" standalone="no"?>
<!-- Generator: Adobe Illustrator 13.0.0, SVG Export Plug-In  -->

<svg
   xmlns:dc="http://purl.org/dc/elements/1.1/"
   xmlns:cc="http://creativecommons.org/ns#"
   xmlns:rdf="http://www.w3.org/1999/02/22-rdf-syntax-ns#"
   xmlns:svg="http://www.w3.org/2000/svg"
   xmlns="http://www.w3.org/2000/svg"
   xmlns:sodipodi="http://sodipodi.sourceforge.net/DTD/sodipodi-0.dtd"
   xmlns:inkscape="http://www.inkscape.org/namespaces/inkscape"
   version="1.1"
   x="0px"
   y="0px"
   width="10.772"
   height="10.809"
   viewBox="-0.14 -0.541 10.772 10.809"
   enable-background="new -0.14 -0.541 11 12"
   xml:space="preserve"
   id="svg3142"
   inkscape:version="0.48.0 r9654"
   sodipodi:docname="e100_Office_du_tourisme.svg"><metadata
   id="metadata3154"><rdf:RDF><cc:Work
       rdf:about=""><dc:format>image/svg+xml</dc:format><dc:type
         rdf:resource="http://purl.org/dc/dcmitype/StillImage" /></cc:Work></rdf:RDF></metadata><sodipodi:namedview
   pagecolor="#ffffff"
   bordercolor="#666666"
   borderopacity="1"
   objecttolerance="10"
   gridtolerance="10"
   guidetolerance="10"
   inkscape:pageopacity="0"
   inkscape:pageshadow="2"
   inkscape:window-width="710"
   inkscape:window-height="480"
   id="namedview3152"
   showgrid="false"
   fit-margin-top="0"
   fit-margin-left="0"
   fit-margin-right="0"
   fit-margin-bottom="0"
   inkscape:zoom="24.25"
   inkscape:cx="12.452784"
   inkscape:cy="5.35"
   inkscape:window-x="316"
   inkscape:window-y="244"
   inkscape:window-maximized="0"
   inkscape:current-layer="svg3142" />
<defs
   id="defs3144">
</defs>
<rect
   style="fill:#ffffff;stroke:#ffffff;stroke-width:0.95170045;stroke-opacity:1"
   id="rect2984"
   width="9.4020615"
   height="7.0964704"
   x="0.64350498"
   y="0.16490723" /><rect
   style="fill:#ffffff;fill-opacity:1;stroke:#ffffff;stroke-width:1;stroke-opacity:1"
   id="rect2996"
   width="4.7422681"
   height="1.814433"
   x="1.7370375"
   y="8.3245525"
   transform="matrix(0.92338423,-0.38387701,0.38387701,0.92338423,0,0)"
   inkscape:transform-center-x="0.70828221"
   inkscape:transform-center-y="0.22582892" /><rect
   style="fill:#ffffff;fill-opacity:1;stroke:#ffffff;stroke-width:1;stroke-opacity:1"
   id="rect2996-8"
   width="4.7422681"
   height="1.814433"
   x="-8.1546288"
   y="-5.8223767"
   transform="matrix(-0.91136532,-0.41159841,0.41159841,-0.91136532,0,0)"
   inkscape:transform-center-x="-4.3774963"
   inkscape:transform-center-y="-0.10904665" /><path
   d="M 10.207,-0.541 H -0.14 l 0.024,8.409 5.374,2.4 5.374,-2.171 V -0.541 H 10.207 z M 9.782,0.31 c 0,0.732 0,6.71 0,7.213 C 9.323,7.709 5.57,9.225 5.275,9.344 4.983,9.213 1.17,7.51 0.733,7.315 0.732,6.834 0.715,1.042 0.713,0.31 c 0.746,0 8.325,0 9.069,0 z"
   id="path3146"
   inkscape:connector-curvature="0"
   style="fill:#7d7d7d" />
<polygon
   points="6.719,7.796 6.799,7.896 6.912,7.994 7.088,7.994 7.088,8.507 3.686,8.507 3.686,8.177 3.798,8.144 3.927,8.093 4.04,7.994 4.151,7.896 4.231,7.779 4.231,4.748 4.183,4.564 4.086,4.464 3.975,4.382 3.831,4.316 3.717,4.283 3.686,3.968 6.687,3.851 6.687,7.63 "
   id="polygon3148"
   style="fill:#7d7d7d"
   transform="translate(-0.14,-0.541)" />
<circle
   cx="5.3860002"
   cy="2.148"
   r="1.021"
   id="circle3150"
   sodipodi:cx="5.3860002"
   sodipodi:cy="2.148"
   sodipodi:rx="1.021"
   sodipodi:ry="1.021"
   style="fill:#7d7d7d"
   transform="translate(-0.14,-0.541)" />
</svg>
