<?xml version="1.0" encoding="UTF-8" standalone="no"?>
<!-- Generator: Adobe Illustrator 13.0.0, SVG Export Plug-In  -->

<svg
   xmlns:dc="http://purl.org/dc/elements/1.1/"
   xmlns:cc="http://creativecommons.org/ns#"
   xmlns:rdf="http://www.w3.org/1999/02/22-rdf-syntax-ns#"
   xmlns:svg="http://www.w3.org/2000/svg"
   xmlns="http://www.w3.org/2000/svg"
   xmlns:sodipodi="http://sodipodi.sourceforge.net/DTD/sodipodi-0.dtd"
   xmlns:inkscape="http://www.inkscape.org/namespaces/inkscape"
   version="1.1"
   x="0px"
   y="0px"
   width="3.966001"
   height="10.5"
   viewBox="-0.559 -0.202 3.966001 10.5"
   enable-background="new -0.559 -0.202 5 8"
   xml:space="preserve"
   id="svg4468"
   inkscape:version="0.48.0 r9654"
   sodipodi:docname="e100_Eglise.svg"><metadata
   id="metadata4476"><rdf:RDF><cc:Work
       rdf:about=""><dc:format>image/svg+xml</dc:format><dc:type
         rdf:resource="http://purl.org/dc/dcmitype/StillImage" /></cc:Work></rdf:RDF></metadata><sodipodi:namedview
   pagecolor="#ffffff"
   bordercolor="#666666"
   borderopacity="1"
   objecttolerance="10"
   gridtolerance="10"
   guidetolerance="10"
   inkscape:pageopacity="0"
   inkscape:pageshadow="2"
   inkscape:window-width="710"
   inkscape:window-height="801"
   id="namedview4474"
   showgrid="false"
   fit-margin-top="0"
   fit-margin-left="0"
   fit-margin-right="0"
   fit-margin-bottom="0"
   inkscape:zoom="36.375"
   inkscape:cx="1.941"
   inkscape:cy="5.9419987"
   inkscape:window-x="155"
   inkscape:window-y="241"
   inkscape:window-maximized="0"
   inkscape:current-layer="svg4468" />
<defs
   id="defs4470">
</defs>
<path
   d="m 1.708,2.907828 v -1.437 H 2.7 V 0.90482798 H 1.708 v -1.041 H 1.141 v 1.041 H 0.149 V 1.470828 h 0.992 v 1.437 c -0.958,0.139 -1.7,0.958 -1.7,1.956 0,1.095 0.89,1.9840002 1.982,1.9840002 1.095,0 1.984,-0.8900002 1.984,-1.9840002 10e-4,-0.997 -0.74,-1.816 -1.699,-1.956 z m -0.285,3.374 c -0.78,0 -1.416,-0.637 -1.416,-1.418 0,-0.781 0.636,-1.418 1.416,-1.418 0.782,0 1.418,0.637 1.418,1.418 0,0.781 -0.636,1.418 -1.418,1.418 z"
   id="path4472"
   inkscape:connector-curvature="0" />
<path
   sodipodi:type="arc"
   style="fill:#ffffff;fill-rule:evenodd;stroke:#ffffff;stroke-width:1px;stroke-linecap:butt;stroke-linejoin:miter;stroke-opacity:1"
   id="path2982"
   sodipodi:cx="2.2955327"
   sodipodi:cy="5.1941581"
   sodipodi:rx="1.0859107"
   sodipodi:ry="1.0171821"
   d="m 3.3814434,5.1941581 a 1.0859107,1.0171821 0 1 1 -2.1718214,0 1.0859107,1.0171821 0 1 1 2.1718214,0 z"
   transform="matrix(0.89774673,0,0,0.92660889,-0.61980688,0.07685434)" /></svg>