<?xml version="1.0" encoding="UTF-8" standalone="no"?>
<!-- Generator: Adobe Illustrator 13.0.0, SVG Export Plug-In  -->

<svg
   xmlns:dc="http://purl.org/dc/elements/1.1/"
   xmlns:cc="http://creativecommons.org/ns#"
   xmlns:rdf="http://www.w3.org/1999/02/22-rdf-syntax-ns#"
   xmlns:svg="http://www.w3.org/2000/svg"
   xmlns="http://www.w3.org/2000/svg"
   xmlns:sodipodi="http://sodipodi.sourceforge.net/DTD/sodipodi-0.dtd"
   xmlns:inkscape="http://www.inkscape.org/namespaces/inkscape"
   version="1.1"
   x="0px"
   y="0px"
   width="11px"
   height="12px"
   viewBox="-0.164 -0.541 11 12"
   enable-background="new -0.164 -0.541 11 12"
   xml:space="preserve"
   id="svg2"
   inkscape:version="0.48.0 r9654"
   sodipodi:docname="e100_Ville_art.svg"><metadata
   id="metadata20"><rdf:RDF><cc:Work
       rdf:about=""><dc:format>image/svg+xml</dc:format><dc:type
         rdf:resource="http://purl.org/dc/dcmitype/StillImage" /></cc:Work></rdf:RDF></metadata><sodipodi:namedview
   pagecolor="#ffffff"
   bordercolor="#666666"
   borderopacity="1"
   objecttolerance="10"
   gridtolerance="10"
   guidetolerance="10"
   inkscape:pageopacity="0"
   inkscape:pageshadow="2"
   inkscape:window-width="640"
   inkscape:window-height="480"
   id="namedview18"
   showgrid="false"
   inkscape:zoom="21.75"
   inkscape:cx="5.5"
   inkscape:cy="6"
   inkscape:window-x="91"
   inkscape:window-y="145"
   inkscape:window-maximized="0"
   inkscape:current-layer="svg2" />
<defs
   id="defs4">
</defs>
<rect
   style="fill:#ffffff;stroke:#ffffff;stroke-width:0.95170045;stroke-opacity:1"
   id="rect2984"
   width="9.4020615"
   height="7.0964704"
   x="0.68094629"
   y="0.6299693" /><rect
   style="fill:#ffffff;fill-opacity:1;stroke:#ffffff;stroke-width:1;stroke-opacity:1"
   id="rect2996"
   width="4.7422681"
   height="1.814433"
   x="1.5930836"
   y="8.7683563"
   transform="matrix(0.92338423,-0.38387701,0.38387701,0.92338423,0,0)"
   inkscape:transform-center-x="0.70828221"
   inkscape:transform-center-y="0.22582892" /><rect
   style="fill:#ffffff;fill-opacity:1;stroke:#ffffff;stroke-width:1;stroke-opacity:1"
   id="rect2996-8"
   width="4.7422681"
   height="1.814433"
   x="-8.3801699"
   y="-6.2308073"
   transform="matrix(-0.91136532,-0.41159841,0.41159841,-0.91136532,0,0)"
   inkscape:transform-center-x="-4.3774963"
   inkscape:transform-center-y="-0.10904665" /><polygon
   fill="#FFFFFF"
   stroke="#AD4E81"
   stroke-width="0.8504"
   points="0.426,0.425 10.348,0.425 10.348,8.351 5.408,10.347   0.45,8.132 "
   id="polygon6" />
<rect
   x="4.213"
   y="3.88"
   fill="#AD4E81"
   stroke="#AD4E81"
   stroke-width="0.034"
   width="0.729"
   height="4.537"
   id="rect8" />
<polyline
   fill="#AD4E81"
   stroke="#AD4E81"
   stroke-width="0.034"
   points="8.231,5.402 8.231,8.419 7.501,8.419 7.501,5.376 "
   id="polyline10" />
<rect
   x="4.503"
   y="5.382"
   fill="#AD4E81"
   stroke="#AD4E81"
   stroke-width="0.034"
   width="3.726"
   height="0.881"
   id="rect12" />
<rect
   x="5.819"
   y="5.4"
   fill="#AD4E81"
   stroke="#AD4E81"
   stroke-width="0.034"
   width="0.783"
   height="2.596"
   id="rect14" />
<path
   fill="#FFFFFF"
   stroke="#AD4E81"
   stroke-width="0.7654"
   d="M3.363,3.66c-0.356-0.15-0.607-0.367-0.735-0.73  C2.554,2.718,2.493,2.228,2.604,2.048c0.107-0.172,0.313-0.375,0.684-0.426c0.081-0.014,2.289,0,2.483,0.018  c0.497,0.045,0.575,0.258,0.684,0.428c0.11,0.178,0.036,0.668-0.022,0.881c-0.086,0.305-0.379,0.57-0.734,0.727  C5.233,3.876,4.569,3.917,4.569,3.917S3.827,3.865,3.363,3.66z"
   id="path16" />
</svg>