<?xml version="1.0" encoding="UTF-8" standalone="no"?>
<!-- Generator: Adobe Illustrator 13.0.0, SVG Export Plug-In  -->

<svg
   xmlns:dc="http://purl.org/dc/elements/1.1/"
   xmlns:cc="http://creativecommons.org/ns#"
   xmlns:rdf="http://www.w3.org/1999/02/22-rdf-syntax-ns#"
   xmlns:svg="http://www.w3.org/2000/svg"
   xmlns="http://www.w3.org/2000/svg"
   xmlns:sodipodi="http://sodipodi.sourceforge.net/DTD/sodipodi-0.dtd"
   xmlns:inkscape="http://www.inkscape.org/namespaces/inkscape"
   version="1.1"
   x="0px"
   y="0px"
   width="11.623"
   height="11.624"
   viewBox="-0.948 -0.66 11.623 11.624"
   enable-background="new -0.948 -0.66 13 13"
   xml:space="preserve"
   id="svg2"
   inkscape:version="0.48.0 r9654"
   sodipodi:docname="e100_Parc_ou_jardin.svg"><metadata
   id="metadata12"><rdf:RDF><cc:Work
       rdf:about=""><dc:format>image/svg+xml</dc:format><dc:type
         rdf:resource="http://purl.org/dc/dcmitype/StillImage" /></cc:Work></rdf:RDF></metadata><sodipodi:namedview
   pagecolor="#ffffff"
   bordercolor="#666666"
   borderopacity="1"
   objecttolerance="10"
   gridtolerance="10"
   guidetolerance="10"
   inkscape:pageopacity="0"
   inkscape:pageshadow="2"
   inkscape:window-width="640"
   inkscape:window-height="480"
   id="namedview10"
   showgrid="false"
   fit-margin-top="0"
   fit-margin-left="0"
   fit-margin-right="0"
   fit-margin-bottom="0"
   inkscape:zoom="22.384615"
   inkscape:cx="5.5519997"
   inkscape:cy="5.784"
   inkscape:window-x="44"
   inkscape:window-y="313"
   inkscape:window-maximized="0"
   inkscape:current-layer="svg2" />
<defs
   id="defs4">
</defs>
<path
   sodipodi:type="arc"
   style="fill:#ffffff;stroke:#ffffff;stroke-opacity:1"
   id="path2982"
   sodipodi:cx="8.1975946"
   sodipodi:cy="6.8195944"
   sodipodi:rx="4.5790377"
   sodipodi:ry="4.6237116"
   d="m 12.776632,6.8195944 a 4.5790377,4.6237116 0 1 1 -9.158075,0 4.5790377,4.6237116 0 1 1 9.158075,0 z"
   transform="matrix(0.98287723,0,0,0.97338084,-3.2298618,-1.5027362)" /><path
   d="m -0.9480003,5.152 c 0,3.205 2.607,5.812 5.812,5.812 3.204,0 5.8110003,-2.606 5.8110003,-5.812 0,-3.205 -2.6070003,-5.812 -5.8110003,-5.812 -3.205,0 -5.812,2.607 -5.812,5.812 z m 0.851,0 c 0,-2.736 2.226,-4.961 4.961,-4.961 2.735,0 4.961,2.226 4.961,4.961 0,2.735 -2.226,4.962 -4.961,4.962 -2.736,0 -4.961,-2.227 -4.961,-4.962 z"
   id="path6"
   inkscape:connector-curvature="0"
   style="fill:#246138" />
<path
   d="m 9.1189997,3.213 -0.072,-0.272 -0.045,-0.256 0.011,-0.16 -0.214,0.044 -0.178,0.063 -0.185,0.112 -0.233,0.191 -0.18,0.158 -0.124,0.098 -0.123,0.069 -0.182,0.07 -0.206,0.077 -0.111,0.051 -0.104,0.036 -0.186,0.037 -0.172,0.038 -0.114,0.04 -0.097,0.031 -0.12,0.016 -0.144,0.01 -0.144,0.016 -0.153,0.012 -0.168,-10e-4 -0.256,-0.002 -0.247,0.019 -0.224,0.03 -0.185,0.033 -0.124,0.024 -0.137,0.03 -0.146,0.049 -0.151,0.079 -0.164,0.066 -0.146,-0.014 -0.128,-0.072 -0.116,-0.109 -0.154,-0.182 -0.103,-0.134 -0.091,-0.104 -0.117,-0.09 -0.158,-0.08 -0.166,-0.047 -0.171,-0.019 -0.174,0.005 -0.16,0.034 -0.137,0.06 -0.13,0.076 -0.135,0.08 -0.174,0.198 -0.143,0.302 -0.097,0.276 -0.035,0.121 -0.203,0.174 -1.229,0.738 0.114,0 0.319,0.002 0.488,0.006 0.625,0.011 0.044,0.041 0.103,0.101 0.115,0.132 0.081,0.133 0.069,0.12 0.105,0.118 0.133,0.124 0.155,0.138 0.148,0.119 0.177,0.125 0.193,0.116 0.196,0.095 0.059,0.027 0.067,0.035 0.072,0.034 0.076,0.026 0.246,0.07 -0.908,1.048 -0.445,-0.211 -0.072,0.038 -0.477,0.301 0.151,0.24 c 0,0 0.319,-0.201 0.414,-0.262 0.073,0.032 0.254,0.111 0.392,0.171 l -0.397,0.143 -0.296,0.292 0.207,0.193 0.24,-0.256 0.412,-0.134 c 0,0 0.188,-0.023 0.281,-0.035 0.065,0.071 0.209,0.23 0.209,0.23 l 0.21,-0.191 -0.309,-0.34 -0.074,0.01 -0.31,0.042 0.002,-0.058 0.048,0.042 1.019,-1.176 0.103,0.03 0.283,0.051 0.261,-0.023 0.209,-0.053 0.146,-0.034 0.124,-0.034 0.105,-0.042 c -0.034,0.27 -0.112,0.874 -0.142,1.111 -0.393,-0.232 -0.536,-0.197 -0.577,-0.173 l -0.32,0.407 0.25,0.133 c 0,0 0.209,-0.29 0.211,-0.294 0,0.021 0.3,0.184 0.415,0.245 l -0.281,0.164 -0.273,0.273 0.203,0.197 0.243,-0.25 0.424,-0.242 c 0,0 0.357,-0.132 0.46,-0.169 0.066,0.043 0.175,0.114 0.175,0.114 l 0.156,-0.236 -0.295,-0.194 -0.067,0.025 -0.46,0.172 0.175,-1.359 0.121,-0.023 0.247,-0.104 0.316,-0.17 0.219,-0.139 0.175,-0.13 0.184,-0.14 0.211,-0.157 0.084,-0.06 0.088,-0.072 0.226,-0.19 0.247,-0.228 0.263,-0.271 0.162,-0.214 -0.058,-0.056 -0.123,0.035 -0.205,0.053 -0.273,0.066 -0.325,0.069 -0.159,-0.023 -0.169,-0.104 -0.199,-0.14 -0.248,-0.133 -0.026,-0.07 0.168,-0.072 0.253,-0.069 0.226,-0.063 0.197,-0.065 0.072,-0.022 0.099,-0.026 0.282,-0.076 0.283,-0.073 0.082,-0.016 0.022,-0.001 0.104,-0.031 0.303,-0.104 0.266,-0.103 0.177,-0.075 0.036,-0.021 -0.039,0.025 0.096,-0.026 0.11,-0.094 0.006,-0.18 -0.066,-0.207 z m -6.201,1.544 c -0.236,0 -0.426,-0.189 -0.426,-0.424 0,-0.236 0.189,-0.426 0.426,-0.426 0.235,0 0.425,0.189 0.425,0.426 0,0.235 -0.19,0.424 -0.425,0.424 z"
   id="path8"
   inkscape:connector-curvature="0"
   style="fill:#246138" />
</svg>