<?xml version="1.0" encoding="UTF-8" standalone="no"?>
<!-- Generator: Adobe Illustrator 13.0.0, SVG Export Plug-In . SVG Version: 6.00 Build 14948)  -->

<svg
   xmlns:dc="http://purl.org/dc/elements/1.1/"
   xmlns:cc="http://creativecommons.org/ns#"
   xmlns:rdf="http://www.w3.org/1999/02/22-rdf-syntax-ns#"
   xmlns:svg="http://www.w3.org/2000/svg"
   xmlns="http://www.w3.org/2000/svg"
   xmlns:xlink="http://www.w3.org/1999/xlink"
   xmlns:sodipodi="http://sodipodi.sourceforge.net/DTD/sodipodi-0.dtd"
   xmlns:inkscape="http://www.inkscape.org/namespaces/inkscape"
   version="1.1"
   id="Layer_4"
   x="0px"
   y="0px"
   width="113.38"
   height="56.689999"
   viewBox="0 0 113.38 56.689999"
   enable-background="new 0 0 170.08 113.39"
   xml:space="preserve"
   inkscape:version="0.48.0 r9654"
   sodipodi:docname="e100_caisson_echangeur.svg"><metadata
   id="metadata15"><rdf:RDF><cc:Work
       rdf:about=""><dc:format>image/svg+xml</dc:format><dc:type
         rdf:resource="http://purl.org/dc/dcmitype/StillImage" /></cc:Work></rdf:RDF></metadata><sodipodi:namedview
   pagecolor="#ffffff"
   bordercolor="#666666"
   borderopacity="1"
   objecttolerance="10"
   gridtolerance="10"
   guidetolerance="10"
   inkscape:pageopacity="0"
   inkscape:pageshadow="2"
   inkscape:window-width="640"
   inkscape:window-height="480"
   id="namedview13"
   showgrid="false"
   fit-margin-top="0"
   fit-margin-left="0"
   fit-margin-right="0"
   fit-margin-bottom="0"
   inkscape:zoom="2.3017903"
   inkscape:cx="56.69"
   inkscape:cy="28.345"
   inkscape:window-x="354"
   inkscape:window-y="14"
   inkscape:window-maximized="0"
   inkscape:current-layer="Surface" />
<defs
   id="defs3">
	<polygon
   id="SVGID_1_"
   points="0,17.44 0,26.17 0,34.89 0,43.61 0,52.33 0,61.05 0,69.78 0,78.5 0,87.22 0,95.94 0,104.66 0,113.39 8.95,113.39 17.9,113.39 26.85,113.39 35.81,113.39 44.76,113.39 53.71,113.39 62.66,113.39 71.61,113.39 80.56,113.39 89.51,113.39 98.47,113.39 107.42,113.39 116.37,113.39 125.32,113.39 134.27,113.39 143.22,113.39 152.18,113.39 161.13,113.39 170.08,113.39 170.08,104.66 170.08,95.94 170.08,87.22 170.08,78.5 170.08,69.78 170.08,61.05 170.08,52.33 170.08,43.61 170.08,34.89 170.08,26.17 170.08,17.44 170.08,8.72 170.08,0 161.13,0 152.18,0 143.22,0 134.27,0 125.32,0 116.37,0 107.42,0 98.47,0 89.51,0 80.56,0 71.61,0 62.66,0 53.71,0 44.76,0 35.81,0 26.85,0 17.9,0 8.95,0 0,0 0,8.72 " />
</defs>
<clipPath
   id="SVGID_2_">
	<use
   xlink:href="#SVGID_1_"
   overflow="visible"
   id="use7"
   style="overflow:visible"
   x="0"
   y="0"
   width="170.08"
   height="113.39" />
</clipPath>
<g
   id="clip"
   clip-path="url(#SVGID_2_)"
   transform="translate(-28.350001,-28.35)">
</g>
<g
   id="Surface"
   clip-path="url(#SVGID_2_)"
   transform="translate(-28.350001,-28.35)"
   style="fill:#0c0c0cff">
	<polygon
   points="55.23,28.38 53.79,28.49 52.38,28.67 50.98,28.92 49.61,29.24 48.26,29.62 46.95,30.07 45.66,30.57 44.4,31.14 43.18,31.77 41.99,32.45 40.84,33.19 39.73,33.98 38.66,34.82 37.63,35.71 36.65,36.65 35.71,37.63 34.82,38.66 33.98,39.73 33.19,40.84 32.45,41.99 31.77,43.18 31.14,44.4 30.57,45.66 30.07,46.95 29.62,48.26 29.24,49.61 28.92,50.98 28.67,52.38 28.49,53.79 28.38,55.23 28.35,56.69 28.38,58.15 28.49,59.59 28.67,61.01 28.92,62.41 29.24,63.78 29.62,65.12 30.07,66.44 30.57,67.73 31.14,68.98 31.77,70.21 32.45,71.39 33.19,72.54 33.98,73.65 34.82,74.72 35.71,75.75 36.65,76.74 37.63,77.68 38.66,78.57 39.73,79.41 40.84,80.2 41.99,80.94 43.18,81.62 44.4,82.24 45.66,82.81 46.95,83.32 48.26,83.77 49.61,84.15 50.98,84.46 52.38,84.71 53.79,84.89 55.23,85 56.69,85.04 56.69,85.04 113.39,85.04 114.84,85 116.29,84.89 117.7,84.71 119.1,84.46 120.47,84.15 121.82,83.77 123.14,83.32 124.42,82.81 125.68,82.24 126.9,81.62 128.09,80.94 129.24,80.2 130.35,79.41 131.42,78.57 132.45,77.68 133.43,76.74 134.37,75.75 135.26,74.72 136.1,73.65 136.89,72.54 137.63,71.39 138.31,70.21 138.94,68.98 139.51,67.73 140.01,66.44 140.46,65.12 140.84,63.78 141.16,62.41 141.41,61.01 141.59,59.59 141.7,58.15 141.73,56.69 141.7,55.23 141.59,53.79 141.41,52.38 141.16,50.98 140.84,49.61 140.46,48.26 140.01,46.95 139.51,45.66 138.94,44.4 138.31,43.18 137.63,41.99 136.89,40.84 136.1,39.73 135.26,38.66 134.37,37.63 133.43,36.65 132.45,35.71 131.42,34.82 130.35,33.98 129.24,33.19 128.09,32.45 126.9,31.77 125.68,31.14 124.42,30.57 123.14,30.07 121.82,29.62 120.47,29.24 119.1,28.92 117.7,28.67 116.29,28.49 114.84,28.38 113.39,28.35 56.69,28.35 56.69,28.35 "
   id="polygon11"
   style="fill:#0F76B8" />
</g>
</svg>