<?xml version="1.0" encoding="UTF-8" standalone="no"?>
<!-- Generator: Adobe Illustrator 13.0.0, SVG Export Plug-In  -->

<svg
   xmlns:dc="http://purl.org/dc/elements/1.1/"
   xmlns:cc="http://creativecommons.org/ns#"
   xmlns:rdf="http://www.w3.org/1999/02/22-rdf-syntax-ns#"
   xmlns:svg="http://www.w3.org/2000/svg"
   xmlns="http://www.w3.org/2000/svg"
   xmlns:sodipodi="http://sodipodi.sourceforge.net/DTD/sodipodi-0.dtd"
   xmlns:inkscape="http://www.inkscape.org/namespaces/inkscape"
   version="1.1"
   x="0px"
   y="0px"
   width="13px"
   height="13px"
   viewBox="-0.617 -0.412 13 13"
   enable-background="new -0.617 -0.412 13 13"
   xml:space="preserve"
   id="svg2"
   inkscape:version="0.48.0 r9654"
   sodipodi:docname="e100_trefle.svg"><metadata
   id="metadata18"><rdf:RDF><cc:Work
       rdf:about=""><dc:format>image/svg+xml</dc:format><dc:type
         rdf:resource="http://purl.org/dc/dcmitype/StillImage" /></cc:Work></rdf:RDF></metadata><sodipodi:namedview
   pagecolor="#ffffff"
   bordercolor="#666666"
   borderopacity="1"
   objecttolerance="10"
   gridtolerance="10"
   guidetolerance="10"
   inkscape:pageopacity="0"
   inkscape:pageshadow="2"
   inkscape:window-width="710"
   inkscape:window-height="480"
   id="namedview16"
   showgrid="false"
   inkscape:zoom="20.076923"
   inkscape:cx="6.5"
   inkscape:cy="6.5"
   inkscape:window-x="152"
   inkscape:window-y="7"
   inkscape:window-maximized="0"
   inkscape:current-layer="svg2" />
<defs
   id="defs4">
</defs>
<path
   sodipodi:type="arc"
   style="fill:#ffffff;stroke:#ffffff;stroke-opacity:1"
   id="path2995"
   sodipodi:cx="10.783525"
   sodipodi:cy="9.3390808"
   sodipodi:rx="4.3582377"
   sodipodi:ry="3.3122606"
   d="m 15.141763,9.3390808 a 4.3582377,3.3122606 0 1 1 -8.7164753,0 4.3582377,3.3122606 0 1 1 8.7164753,0 z"
   transform="matrix(0.99957526,0,0,1.3302682,-5.0204656,-6.6094281)" /><circle
   fill="#FFFFFF"
   stroke="#404040"
   stroke-width="0.8504"
   cx="5.812"
   cy="5.812"
   r="5.386"
   id="circle6" />
<path
   fill="#404040"
   d="M3.597,9.454l0.995,0.178C4.489,9.813,4.894,6.15,5.599,5.286C5.599,5.286,3.811,7.788,3.597,9.454z"
   id="path8" />
<path
   fill="#404040"
   d="M5.479,4.351C5.44,4.461,4.227,2.239,5.84,1.455c0.638-0.311,2.273,0.589,2.482,1.261  c0.32,1.021-1.536,1.87-2.01,2.061L5.479,4.351z"
   id="path10" />
<path
   fill="#404040"
   d="M5.238,5.542C5.354,5.557,3.418,7.19,2.327,5.767C1.896,5.204,2.448,3.422,3.066,3.083  c0.937-0.518,2.139,1.13,2.419,1.556L5.238,5.542z"
   id="path12" />
<path
   fill="#404040"
   d="M6.05,5.032C5.946,4.98,8.299,4.045,8.882,5.743c0.229,0.669-0.86,2.184-1.554,2.311  C6.277,8.247,5.66,6.303,5.528,5.81L6.05,5.032z"
   id="path14" />
</svg>
