<?xml version="1.0" encoding="UTF-8" standalone="no"?>
<!-- Generator: Adobe Illustrator 13.0.0, SVG Export Plug-In  -->

<svg
   xmlns:dc="http://purl.org/dc/elements/1.1/"
   xmlns:cc="http://creativecommons.org/ns#"
   xmlns:rdf="http://www.w3.org/1999/02/22-rdf-syntax-ns#"
   xmlns:svg="http://www.w3.org/2000/svg"
   xmlns="http://www.w3.org/2000/svg"
   xmlns:sodipodi="http://sodipodi.sourceforge.net/DTD/sodipodi-0.dtd"
   xmlns:inkscape="http://www.inkscape.org/namespaces/inkscape"
   version="1.1"
   x="0px"
   y="0px"
   width="10.523"
   height="10.787"
   viewBox="-0.402 -0.493 10.523 10.787"
   enable-background="new -0.402 -0.493 11 12"
   xml:space="preserve"
   id="svg3598"
   inkscape:version="0.48.1 "
   sodipodi:docname="e100_stationverte2.svg"><metadata
   id="metadata3618"><rdf:RDF><cc:Work
       rdf:about=""><dc:format>image/svg+xml</dc:format><dc:type
         rdf:resource="http://purl.org/dc/dcmitype/StillImage" /></cc:Work></rdf:RDF></metadata><sodipodi:namedview
   pagecolor="#ffffff"
   bordercolor="#666666"
   borderopacity="1"
   objecttolerance="10"
   gridtolerance="10"
   guidetolerance="10"
   inkscape:pageopacity="0"
   inkscape:pageshadow="2"
   inkscape:window-width="640"
   inkscape:window-height="480"
   id="namedview3616"
   showgrid="false"
   fit-margin-top="0"
   fit-margin-left="0"
   fit-margin-right="0"
   fit-margin-bottom="0"
   inkscape:zoom="24.25"
   inkscape:cx="5.098"
   inkscape:cy="5.28"
   inkscape:window-x="0"
   inkscape:window-y="0"
   inkscape:window-maximized="0"
   inkscape:current-layer="svg3598" />
<defs
   id="defs3600">
</defs>
<polygon
   points="5.233,10.787 0,8.219 0,0 10.523,0 10.523,8.219 "
   id="polygon3602"
   style="fill:#246138"
   transform="translate(-0.402,-0.493)" />
<polygon
   points="5.233,9.775 0.872,7.58 0.872,0.836 9.638,0.836 9.638,7.58 "
   id="polygon3604"
   style="fill:#ffffff"
   transform="translate(-0.402,-0.493)" />
<path
   d="m 1.735,2.796 c 0,0 1.414,-2.826 4.638,-1.592 C 7.54,1.651 8.68,3.39 8.57,4.431 8.461,5.47 8.103,7.736 5.345,8.015 4.399,8.111 2.097,7.888 1.396,6.129 1.058,5.284 1.111,4.046 1.735,2.796"
   id="path3606"
   inkscape:connector-curvature="0"
   style="fill:#246138" />
<path
   d="m 4.366,2.087 c 0.077,0.154 0.136,0.22 0.201,0.279 0.066,0.06 0.321,0.101 0.404,0.114 0.083,0.012 0.356,0 0.505,-0.061 C 5.624,2.36 5.814,2.295 5.951,2.183 6.088,2.07 6.207,1.968 6.26,1.873 6.313,1.778 6.33,1.487 6.301,1.404 6.271,1.321 6.241,1.167 6.135,1.095 6.028,1.025 5.843,0.793 5.66,0.745 5.476,0.698 5.185,0.638 5.066,0.681 4.948,0.722 4.734,0.799 4.662,0.894 4.591,0.99 4.481,1.144 4.394,1.179 4.095,1.299 4.347,2.052 4.366,2.087 z"
   id="path3608"
   inkscape:connector-curvature="0"
   style="fill:#ffffff" />
<path
   d="M 3.504,2.556 C 3.801,2.533 3.98,2.628 4.217,2.544 4.454,2.462 4.585,2.378 4.585,2.378 c 0,0 0.273,0.108 0.511,0.096 C 5.333,2.462 5.784,2.331 6.093,2.224 6.402,2.117 6.841,2.035 7.174,1.856 7.506,1.677 7.791,1.487 7.934,1.393 7.934,1.393 8.1,1.262 8.243,1.156 8.386,1.049 8.564,0.8 8.611,0.787 8.659,0.775 8.717,0.811 8.682,0.894 8.646,0.978 8.077,1.95 7.946,2.105 7.815,2.26 7.387,2.698 7.161,2.841 6.935,2.984 6.783,3.079 6.723,3.234 6.663,3.389 6.521,3.755 6.521,3.91 c 0,0.154 0.083,0.878 0.083,0.997 0,0.119 -0.309,0.903 -0.415,1.141 C 6.08,6.285 5.962,7.045 5.773,7.294 5.583,7.544 5.345,7.757 5.168,7.959 4.989,8.161 4.978,8.28 4.812,8.446 4.646,8.612 4.502,8.708 4.502,8.708 c 0,0 -0.084,0.094 -0.06,-0.19 C 4.465,8.233 4.429,8.221 4.56,8.019 4.691,7.818 4.916,7.402 5.036,7.152 5.155,6.903 5.286,6.38 5.333,6.237 5.38,6.094 5.404,5.893 5.368,5.798 5.333,5.702 5.357,5.609 5.155,5.786 4.953,5.963 5.012,6.048 4.74,6.191 4.466,6.333 3.327,6.915 3.255,6.939 3.183,6.963 2.721,7.105 2.614,7.081 2.507,7.057 2.518,6.962 2.518,6.962 c 0,0 0.346,-0.131 0.5,-0.202 C 3.171,6.689 3.789,6.226 3.98,6.036 4.169,5.846 4.395,5.501 4.538,5.287 4.681,5.073 4.764,4.872 4.787,4.741 4.811,4.61 4.823,4.575 4.716,4.479 4.609,4.385 4.383,4.337 4.205,4.207 4.027,4.076 3.338,3.577 3.184,3.327 3.03,3.079 2.839,2.698 2.792,2.604 2.744,2.509 2.661,2.295 2.661,2.295 l 0.213,0.071 c 0,0 0.333,0.214 0.63,0.19 z"
   id="path3610"
   inkscape:connector-curvature="0"
   style="fill:#ffffff" />
<path
   d="M 4.217,1.661 C 4.219,1.663 4.254,1.691 4.257,1.693 4.304,1.732 4.35,1.707 4.399,1.705 4.475,1.702 4.427,1.649 4.49,1.599 4.554,1.546 4.55,1.603 4.581,1.519 4.614,1.437 4.645,1.46 4.649,1.353 4.652,1.247 4.629,1.278 4.645,1.199 4.661,1.12 4.64,1.144 4.672,1.083 4.704,1.024 4.755,0.98 4.779,0.941 4.801,0.901 4.826,0.866 4.897,0.831 4.968,0.794 5.04,0.77 5.111,0.759 5.182,0.748 5.229,0.751 5.32,0.763 5.412,0.775 5.504,0.794 5.566,0.819 5.63,0.843 5.733,0.874 5.808,0.937 5.883,1.001 5.958,1.06 6.018,1.131 6.078,1.202 6.14,1.294 6.168,1.353 6.196,1.412 6.232,1.507 6.228,1.579 6.224,1.65 6.216,1.737 6.192,1.788 6.168,1.84 6.184,1.843 6.114,1.919 6.042,1.994 5.943,2.077 5.879,2.121 5.816,2.165 5.729,2.235 5.642,2.275 5.555,2.315 5.531,2.342 5.452,2.378 5.373,2.413 5.365,2.409 5.27,2.434 5.174,2.457 5.19,2.457 5.104,2.462 5.017,2.465 5.024,2.465 4.953,2.446 4.883,2.425 4.831,2.397 4.831,2.397 h -0.06 c 0,0 -0.035,0.028 0.031,0.06 0.068,0.032 0.124,0.044 0.167,0.044 0.043,0 0.273,0.004 0.396,-0.023 C 5.487,2.449 5.698,2.402 5.788,2.378 5.878,2.354 5.986,2.275 6.058,2.232 6.129,2.189 6.204,2.153 6.255,2.093 6.307,2.034 6.39,1.907 6.417,1.835 6.445,1.765 6.43,1.653 6.449,1.571 6.47,1.487 6.505,1.484 6.477,1.377 6.45,1.27 6.45,1.21 6.414,1.131 6.377,1.052 6.244,0.909 6.133,0.843 6.022,0.775 5.876,0.716 5.773,0.681 5.67,0.645 5.595,0.585 5.471,0.585 5.349,0.585 5.06,0.577 4.989,0.589 4.918,0.601 4.799,0.653 4.724,0.693 4.649,0.732 4.558,0.807 4.502,0.862 4.446,0.917 4.392,0.962 4.343,1.02 4.296,1.08 4.292,1.09 4.28,1.151 4.268,1.21 4.273,1.238 4.241,1.259 4.208,1.278 4.198,1.218 4.173,1.298 4.15,1.377 4.111,1.464 4.142,1.528 4.15,1.542 4.167,1.62 4.217,1.661 z"
   id="path3612"
   inkscape:connector-curvature="0" />
<path
   d="m 6.01,2.303 c 0,0 0.233,-0.171 0.27,-0.202 C 6.315,2.07 6.648,1.951 6.727,1.912 6.805,1.872 7.174,1.685 7.344,1.588 7.514,1.488 7.768,1.338 7.882,1.271 7.997,1.204 8.08,1.149 8.163,1.097 8.246,1.045 8.361,0.987 8.429,0.935 8.495,0.883 8.476,0.875 8.532,0.82 8.587,0.764 8.592,0.757 8.631,0.757 c 0.04,0 0.044,-0.008 0.084,0.012 0.038,0.02 0.059,0.06 0.043,0.092 C 8.742,0.89 8.734,0.917 8.698,0.962 8.661,1.005 8.564,1.136 8.548,1.171 8.532,1.206 8.476,1.353 8.433,1.416 8.389,1.48 8.167,1.868 8.148,1.9 8.127,1.931 8.045,2.077 7.99,2.15 7.934,2.22 7.867,2.324 7.815,2.375 7.764,2.426 7.593,2.612 7.527,2.675 7.458,2.738 7.292,2.854 7.217,2.917 7.142,2.98 6.999,3.087 6.949,3.13 6.897,3.174 6.814,3.234 6.778,3.296 6.743,3.361 6.695,3.503 6.683,3.57 6.671,3.637 6.62,3.78 6.616,3.84 6.612,3.899 6.589,4.05 6.596,4.129 6.603,4.208 6.643,4.651 6.648,4.702 6.652,4.753 6.643,4.942 6.643,5.003 6.643,5.062 6.612,5.232 6.58,5.308 6.548,5.382 6.52,5.458 6.48,5.565 6.442,5.671 6.286,6.127 6.267,6.214 6.248,6.301 6.058,6.804 6.022,6.89 5.987,6.978 5.833,7.35 5.801,7.41 5.768,7.468 5.622,7.679 5.563,7.745 5.504,7.813 5.243,8.09 5.19,8.141 5.139,8.193 5.012,8.351 4.973,8.407 4.933,8.462 4.91,8.512 4.834,8.577 4.759,8.64 4.633,8.727 4.58,8.774 4.53,8.822 4.451,8.847 4.451,8.847 l -0.146,-0.1 c 0,0 0.028,-0.289 0.044,-0.396 C 4.365,8.245 4.419,8.038 4.491,7.944 4.563,7.85 4.761,7.502 4.788,7.441 4.816,7.382 4.971,7.021 4.998,6.887 5.025,6.752 5.121,6.427 5.153,6.288 5.184,6.15 5.216,5.94 5.216,5.94 c 0,0 -0.16,0.198 -0.235,0.258 C 4.906,6.257 4.593,6.427 4.439,6.495 4.284,6.561 3.857,6.796 3.77,6.835 3.683,6.874 3.247,7.085 3.112,7.116 2.978,7.148 2.693,7.179 2.574,7.155 2.455,7.132 2.365,7.097 2.365,7.097 V 6.915 c 0,0 0.359,-0.155 0.447,-0.187 C 2.899,6.696 3.222,6.524 3.354,6.439 3.52,6.333 3.936,5.952 3.865,6.027 3.862,6.031 4.359,5.419 4.359,5.418 c 0,0 0.028,-0.056 0.127,-0.233 C 4.586,5.007 4.633,4.822 4.64,4.761 4.649,4.702 4.649,4.579 4.596,4.548 4.545,4.515 4.483,4.452 4.411,4.441 4.339,4.429 3.999,4.255 3.94,4.218 3.88,4.183 3.461,3.835 3.417,3.787 3.373,3.739 2.986,3.337 2.899,3.158 c 0,0 -0.063,0 -0.087,-0.036 C 2.788,3.087 2.621,2.771 2.571,2.718 2.518,2.667 2.289,2.32 2.254,2.276 2.218,2.232 2.174,2.116 2.166,2.054 2.159,1.99 2.202,1.82 2.202,1.82 L 2.626,1.757 c 0,0 0.253,0.309 0.621,0.416 C 3.615,2.278 3.876,2.347 4.002,2.366 4.13,2.386 4.229,2.393 4.304,2.374 4.379,2.355 4.522,2.315 4.522,2.315 l 0.092,0.103 c 0,0 -0.076,0.056 -0.115,0.103 C 4.458,2.568 4.478,2.604 4.408,2.624 4.337,2.644 4.075,2.723 3.968,2.723 3.862,2.723 3.525,2.699 3.394,2.675 3.394,2.675 3.071,2.612 3.022,2.584 2.974,2.556 2.895,2.528 2.895,2.528 c 0,0 0.158,0.289 0.254,0.447 0.094,0.158 0.253,0.396 0.336,0.487 0.083,0.091 0.305,0.289 0.392,0.368 0.088,0.079 0.254,0.209 0.364,0.289 0.111,0.08 0.182,0.076 0.257,0.112 0.075,0.036 0.157,0.091 0.229,0.163 0.072,0.07 0.119,0.17 0.124,0.257 C 4.855,4.737 4.819,4.919 4.78,5.015 4.74,5.109 4.59,5.378 4.514,5.494 4.438,5.61 4.332,5.775 4.244,5.866 4.158,5.956 3.992,6.135 3.876,6.234 3.761,6.334 3.592,6.48 3.461,6.566 3.33,6.654 3.08,6.785 3.001,6.82 2.923,6.855 2.653,6.974 2.653,6.974 c 0,0 0.195,0.023 0.313,-0.024 C 3.085,6.903 3.759,6.574 3.865,6.527 3.996,6.467 4.023,6.46 4.023,6.46 c 0,0 0.364,-0.182 0.451,-0.229 0,0 0.202,-0.11 0.253,-0.154 C 4.78,6.034 4.949,5.848 4.997,5.8 5.045,5.753 5.136,5.673 5.155,5.657 5.174,5.641 5.301,5.591 5.301,5.591 l 0.183,0.131 c 0,0 0.02,0.261 -0.02,0.391 C 5.424,6.244 5.401,6.327 5.408,6.379 5.416,6.427 5.42,6.44 5.42,6.44 5.42,6.44 5.286,6.796 5.243,6.907 5.199,7.017 5.12,7.239 5.077,7.357 5.033,7.475 4.883,7.713 4.811,7.817 4.74,7.919 4.617,8.11 4.601,8.18 4.585,8.252 4.585,8.33 4.57,8.391 4.554,8.45 4.554,8.529 4.554,8.529 c 0,0 0.051,-0.024 0.135,-0.114 C 4.771,8.323 4.914,8.11 4.969,8.05 5.024,7.991 5.242,7.745 5.301,7.679 5.361,7.612 5.46,7.521 5.507,7.449 5.555,7.379 5.788,6.863 5.827,6.769 5.868,6.673 6.098,6.06 6.12,5.996 6.144,5.933 6.31,5.426 6.335,5.37 6.358,5.315 6.438,4.955 6.445,4.868 6.453,4.78 6.429,4.27 6.429,4.194 6.429,4.12 6.441,3.893 6.452,3.827 6.464,3.76 6.531,3.511 6.559,3.438 6.586,3.368 6.646,3.168 6.685,3.118 6.725,3.067 6.891,2.921 6.987,2.848 7.081,2.778 7.3,2.619 7.39,2.551 7.483,2.486 7.704,2.247 7.768,2.165 7.831,2.081 7.993,1.868 8.052,1.78 8.112,1.694 8.251,1.507 8.302,1.42 8.354,1.333 8.405,1.262 8.452,1.191 8.499,1.12 8.543,1.009 8.551,0.994 8.559,0.979 8.524,0.957 8.524,0.957 c 0,0 -0.009,0.008 -0.069,0.079 C 8.397,1.108 8.322,1.179 8.227,1.267 8.132,1.353 7.906,1.503 7.824,1.551 7.74,1.599 7.624,1.682 7.53,1.734 7.435,1.784 7.305,1.853 7.213,1.9 7.122,1.946 6.88,2.042 6.767,2.085 6.652,2.129 6.01,2.303 6.01,2.303 z"
   id="path3614"
   inkscape:connector-curvature="0" />
</svg>