<?xml version="1.0" encoding="UTF-8" standalone="no"?>
<!-- Generator: Adobe Illustrator 13.0.0, SVG Export Plug-In  -->

<svg
   xmlns:dc="http://purl.org/dc/elements/1.1/"
   xmlns:cc="http://creativecommons.org/ns#"
   xmlns:rdf="http://www.w3.org/1999/02/22-rdf-syntax-ns#"
   xmlns:svg="http://www.w3.org/2000/svg"
   xmlns="http://www.w3.org/2000/svg"
   xmlns:sodipodi="http://sodipodi.sourceforge.net/DTD/sodipodi-0.dtd"
   xmlns:inkscape="http://www.inkscape.org/namespaces/inkscape"
   version="1.1"
   x="0px"
   y="0px"
   width="8.0019999"
   height="6.987"
   viewBox="-0.43 -0.744 8.0019999 6.987"
   enable-background="new -0.43 -0.744 9 8"
   xml:space="preserve"
   id="svg3359"
   inkscape:version="0.48.1 "
   sodipodi:docname="e100_maison_parc.svg"><metadata
   id="metadata3373"><rdf:RDF><cc:Work
       rdf:about=""><dc:format>image/svg+xml</dc:format><dc:type
         rdf:resource="http://purl.org/dc/dcmitype/StillImage" /></cc:Work></rdf:RDF></metadata><sodipodi:namedview
   pagecolor="#ffffff"
   bordercolor="#666666"
   borderopacity="1"
   objecttolerance="10"
   gridtolerance="10"
   guidetolerance="10"
   inkscape:pageopacity="0"
   inkscape:pageshadow="2"
   inkscape:window-width="640"
   inkscape:window-height="480"
   id="namedview3371"
   showgrid="false"
   fit-margin-top="0"
   fit-margin-left="0"
   fit-margin-right="0"
   fit-margin-bottom="0"
   inkscape:zoom="36.375"
   inkscape:cx="4.07"
   inkscape:cy="3.731"
   inkscape:window-x="0"
   inkscape:window-y="0"
   inkscape:window-maximized="0"
   inkscape:current-layer="svg3359" />
<defs
   id="defs3361">
</defs>
<polygon
   points="6.713,2.831 6.818,2.887 6.934,2.948 7.039,3.01 7.155,3.084 7.305,3.184 7.326,3.202 7.379,3.247 7.448,3.305 7.518,3.359 7.664,3.501 7.781,3.625 7.889,3.741 8.002,3.861 7.901,3.964 7.802,4.054 7.726,4.117 7.695,4.141 7.444,4.342 7.213,4.489 6.953,4.612 6.617,4.738 6.459,4.777 6.213,4.822 5.921,4.861 5.623,4.879 5.319,4.869 5.074,4.842 4.911,4.813 4.852,4.803 4.628,4.74 4.404,4.663 4.195,4.581 4.018,4.504 3.917,4.458 3.804,4.396 3.688,4.327 3.58,4.256 3.535,4.224 3.475,4.179 3.421,4.14 3.398,4.123 3.302,4.039 3.185,3.933 3.086,3.841 3.045,3.803 3.184,3.669 3.361,3.514 3.513,3.386 3.574,3.332 3.696,3.238 3.784,3.177 3.848,3.138 3.902,3.107 3.96,3.069 4.015,3.034 4.068,3.002 4.123,2.973 4.422,2.818 4.732,2.686 5.061,2.593 5.412,2.561 5.513,2.555 5.763,2.557 6.087,2.594 6.408,2.697 6.408,2.697 6.523,2.742 6.62,2.785 "
   id="polygon3363"
   style="fill:#7d7d7d"
   transform="translate(-0.43,-0.744)" />
<polygon
   points="7.48,3.589 7.611,3.674 7.664,3.719 7.717,3.764 7.77,3.809 7.822,3.854 7.786,3.879 7.697,3.942 7.581,4.019 7.465,4.088 7.21,4.204 6.817,4.355 6.414,4.484 6.125,4.533 6.221,4.431 6.295,4.333 6.354,4.236 6.408,4.137 6.414,4.12 6.43,4.073 6.447,3.998 6.463,3.898 6.472,3.812 6.475,3.725 6.468,3.629 6.443,3.516 6.41,3.422 6.367,3.334 6.319,3.249 6.271,3.162 6.241,3.116 6.222,3.083 6.207,3.055 6.189,3.02 6.403,3.07 6.632,3.157 6.813,3.239 6.887,3.275 6.887,3.275 7.059,3.356 7.277,3.473 "
   id="polygon3365"
   style="fill:#ffffff"
   transform="translate(-0.43,-0.744)" />
<polygon
   points="3.534,3.559 3.404,3.643 3.351,3.688 3.298,3.732 3.245,3.777 3.191,3.822 3.228,3.848 3.317,3.911 3.434,3.989 3.549,4.059 3.805,4.175 4.198,4.326 4.602,4.454 4.891,4.502 4.794,4.399 4.72,4.302 4.66,4.205 4.607,4.105 4.602,4.089 4.586,4.042 4.568,3.967 4.553,3.867 4.543,3.781 4.54,3.694 4.547,3.598 4.572,3.484 4.605,3.392 4.648,3.304 4.696,3.219 4.744,3.133 4.774,3.086 4.794,3.053 4.809,3.024 4.826,2.988 4.611,3.039 4.384,3.127 4.203,3.209 4.129,3.246 4.129,3.246 3.957,3.327 3.738,3.443 "
   id="polygon3367"
   style="fill:#ffffff"
   transform="translate(-0.43,-0.744)" />
<polygon
   points="4.75,0 0,3.313 0.648,4.242 1.236,3.833 1.236,5.853 0.793,5.853 0.793,6.987 7.801,6.987 7.801,5.853 2.37,5.853 2.37,3.042 5.398,0.93 "
   id="polygon3369"
   style="fill:#7d7d7d"
   transform="translate(-0.43,-0.744)" />
</svg>
