<?xml version="1.0" encoding="UTF-8" standalone="no"?>
<!-- Generator: Adobe Illustrator 13.0.0, SVG Export Plug-In . SVG Version: 6.00 Build 14948)  -->

<svg
   xmlns:dc="http://purl.org/dc/elements/1.1/"
   xmlns:cc="http://creativecommons.org/ns#"
   xmlns:rdf="http://www.w3.org/1999/02/22-rdf-syntax-ns#"
   xmlns:svg="http://www.w3.org/2000/svg"
   xmlns="http://www.w3.org/2000/svg"
   xmlns:xlink="http://www.w3.org/1999/xlink"
   xmlns:sodipodi="http://sodipodi.sourceforge.net/DTD/sodipodi-0.dtd"
   xmlns:inkscape="http://www.inkscape.org/namespaces/inkscape"
   version="1.1"
   id="Layer_4"
   x="0px"
   y="0px"
   width="9.249999"
   height="9.1199999"
   viewBox="0 0 9.2499987 9.1200003"
   enable-background="new 0 0 65.94 65.81"
   xml:space="preserve"
   inkscape:version="0.48.0 r9654"
   sodipodi:docname="e1000_aerodrome.svg"><metadata
   id="metadata23"><rdf:RDF><cc:Work
       rdf:about=""><dc:format>image/svg+xml</dc:format><dc:type
         rdf:resource="http://purl.org/dc/dcmitype/StillImage" /></cc:Work></rdf:RDF></metadata><sodipodi:namedview
   pagecolor="#ffffff"
   bordercolor="#666666"
   borderopacity="1"
   objecttolerance="10"
   gridtolerance="10"
   guidetolerance="10"
   inkscape:pageopacity="0"
   inkscape:pageshadow="2"
   inkscape:window-width="640"
   inkscape:window-height="480"
   id="namedview21"
   showgrid="false"
   units="mm"
   inkscape:zoom="3.9659628"
   inkscape:cx="4.6199998"
   inkscape:cy="4.5649907"
   inkscape:window-x="0"
   inkscape:window-y="0"
   inkscape:window-maximized="0"
   inkscape:current-layer="Layer_4"
   fit-margin-top="0"
   fit-margin-left="0"
   fit-margin-right="0"
   fit-margin-bottom="0" />
<defs
   id="defs3">
	<polygon
   id="SVGID_1_"
   points="16.49,65.81 24.73,65.81 32.97,65.81 41.21,65.81 49.46,65.81 57.7,65.81 65.94,65.81 65.94,57.59 65.94,49.36 65.94,41.13 65.94,32.91 65.94,24.68 65.94,16.45 65.94,8.23 65.94,0 57.7,0 49.46,0 41.21,0 32.97,0 24.73,0 16.49,0 8.24,0 0,0 0,8.23 0,16.45 0,24.68 0,32.91 0,41.13 0,49.36 0,57.59 0,65.81 8.24,65.81 " />
</defs>
<clipPath
   id="SVGID_2_">
	<use
   xlink:href="#SVGID_1_"
   overflow="visible"
   id="use7"
   style="overflow:visible"
   x="0"
   y="0"
   width="65.940002"
   height="65.809998" />
</clipPath>
<g
   id="clip"
   clip-path="url(#SVGID_2_)"
   transform="translate(-28.350003,-28.350001)">
</g>
<g
   id="Surface"
   clip-path="url(#SVGID_2_)"
   transform="translate(-28.350003,-28.350001)">
	<polygon
   points="33.33,29.05 33.23,28.67 33.17,28.53 33.11,28.43 33.04,28.37 32.97,28.35 32.9,28.37 32.83,28.42 32.77,28.51 32.71,28.63 32.61,28.99 32.52,29.48 32.46,30.11 32.41,30.87 32.38,31.77 32.37,32.81 32.38,33.85 32.41,34.77 32.46,35.57 32.52,36.24 32.61,36.77 32.71,37.16 32.77,37.29 32.83,37.39 32.9,37.45 32.97,37.47 33.04,37.46 33.11,37.4 33.17,37.31 33.23,37.19 33.33,36.83 33.42,36.34 33.49,35.71 33.54,34.95 33.57,34.05 33.57,33.01 33.57,31.97 33.54,31.05 33.49,30.25 33.42,29.58 "
   id="polygon11" />
	<polygon
   points="28.4,33.85 28.37,33.91 28.35,33.99 28.36,34.07 28.41,34.16 28.49,34.2 28.64,34.2 29.11,34.15 29.76,34.04 30.48,33.88 32.41,33.41 32.41,31.72 28.53,33.73 "
   id="polygon13" />
	<polygon
   points="35.43,33.88 36.17,34.03 36.82,34.15 37.31,34.2 37.46,34.19 37.54,34.16 37.58,34.07 37.6,33.99 37.58,33.91 37.54,33.85 37.41,33.72 33.47,31.72 33.47,33.41 "
   id="polygon15" />
	<polygon
   points="31.53,37.22 32,37.14 32.66,36.99 32.66,36.1 31.33,37.06 31.29,37.11 31.27,37.16 31.29,37.22 31.37,37.23 "
   id="polygon17" />
	<polygon
   points="34.6,37.16 34.58,37.1 34.53,37.06 33.2,36.1 33.2,36.99 33.86,37.14 34.33,37.22 34.5,37.23 34.58,37.22 "
   id="polygon19" />
</g>
</svg>