<?xml version="1.0" encoding="UTF-8" standalone="no"?>
<!-- Generator: Adobe Illustrator 13.0.0, SVG Export Plug-In  -->

<svg
   xmlns:dc="http://purl.org/dc/elements/1.1/"
   xmlns:cc="http://creativecommons.org/ns#"
   xmlns:rdf="http://www.w3.org/1999/02/22-rdf-syntax-ns#"
   xmlns:svg="http://www.w3.org/2000/svg"
   xmlns="http://www.w3.org/2000/svg"
   xmlns:sodipodi="http://sodipodi.sourceforge.net/DTD/sodipodi-0.dtd"
   xmlns:inkscape="http://www.inkscape.org/namespaces/inkscape"
   version="1.1"
   x="0px"
   y="0px"
   width="5.4415364"
   height="21.032156"
   viewBox="-0.043 -0.955 5.4415364 21.032157"
   enable-background="new -0.043 -0.955 6 12"
   xml:space="preserve"
   id="svg2"
   inkscape:version="0.48.2 r9819"
   sodipodi:docname="e100_Phare.svg"><metadata
   id="metadata18"><rdf:RDF><cc:Work
       rdf:about=""><dc:format>image/svg+xml</dc:format><dc:type
         rdf:resource="http://purl.org/dc/dcmitype/StillImage" /></cc:Work></rdf:RDF></metadata><sodipodi:namedview
   pagecolor="#ffffff"
   bordercolor="#666666"
   borderopacity="1"
   objecttolerance="10"
   gridtolerance="10"
   guidetolerance="10"
   inkscape:pageopacity="0"
   inkscape:pageshadow="2"
   inkscape:window-width="764"
   inkscape:window-height="856"
   id="namedview16"
   showgrid="false"
   fit-margin-top="0"
   fit-margin-left="0"
   fit-margin-right="0"
   fit-margin-bottom="0"
   inkscape:zoom="24.25"
   inkscape:cx="2.9569298"
   inkscape:cy="10.253338"
   inkscape:window-x="489"
   inkscape:window-y="32"
   inkscape:window-maximized="0"
   inkscape:current-layer="svg2" />
<defs
   id="defs4">
</defs>
<rect
   x="-0.83043116"
   y="0.64675289"
   transform="matrix(-0.86608735,-0.4998927,0.4998927,-0.86608735,0,0)"
   width="1.2270179"
   height="0.22700332"
   id="rect6" />
<rect
   x="-1.3682026"
   y="-0.70820421"
   transform="matrix(-0.49981768,-0.86613064,0.86613064,-0.49981768,0,0)"
   width="0.22699197"
   height="1.2259566"
   id="rect8" />
<rect
   x="-2.1016352"
   y="3.6492069"
   transform="matrix(-0.49981768,-0.86613064,0.86613064,-0.49981768,0,0)"
   width="0.22699197"
   height="1.2269566"
   id="rect10" />
<rect
   x="-5.3906541"
   y="1.232829"
   transform="matrix(-0.86608735,-0.4998927,0.4998927,-0.86608735,0,0)"
   width="1.2270179"
   height="0.22700332"
   id="rect12" />
<path
   d="m 4.4609298,9.1780173 -0.794,-5.537 h 0.007 v -0.83 h 0.379 c 0.156,0 0.283,-0.127 0.283,-0.284 0,-0.157 -0.127,-0.284 -0.283,-0.284 h -0.376 l 0.146,-0.703 c 0,-0.96500002 -0.521,-1.72100002 -1.185,-1.72100002 -0.664,0 -1.184,0.757 -1.184,1.72200002 l 0.145,0.703 h -0.39 c -0.157,0 -0.28299999,0.127 -0.28299999,0.284 0,0.157 0.12599999,0.284 0.28299999,0.284 h 0.541 l -0.64,6.367 H 0.68392981 v 0.709 H 4.9359298 v -0.709 h -0.475 z m -1.822,-8.97300002 c 0.434,0 0.8,0.612 0.8,1.33600002 l -0.146,0.702 h -1.311 l -0.143,-0.702 c 0,-0.72500002 0.366,-1.33600002 0.8,-1.33600002 z m 0.954,5.90900002 h -1.748 l 0.249,-2.473 h 1.145 l 0.354,2.473 z m -1.945,1.959 h 2.226 l 0.159,1.104 h -2.496 l 0.111,-1.104 z"
   id="path14"
   inkscape:connector-curvature="0" />
<path
   d="m 4.4739793,10.718157 -0.794,5.537 0.007,0 0,0.83 0.379,0 c 0.156,0 0.283,0.127 0.283,0.284 0,0.157 -0.127,0.284 -0.283,0.284 l -0.376,0 0.146,0.703 c 0,0.965 -0.521,1.721 -1.185,1.721 -0.6640001,0 -1.1840001,-0.757 -1.1840001,-1.722 l 0.145,-0.703 -0.39,0 c -0.157,0 -0.283,-0.127 -0.283,-0.284 0,-0.157 0.126,-0.284 0.283,-0.284 l 0.541,0 -0.64,-6.367 -0.426,0 0,-0.709 4.2520002,0 0,0.709 -0.4750001,0 z m -1.822,8.973 c 0.434,0 0.8,-0.612 0.8,-1.336 l -0.146,-0.702 -1.3110001,0 -0.143,0.702 c 0,0.725 0.3660001,1.336 0.8000001,1.336 z m 0.954,-5.909 -1.7480001,0 0.249,2.473 1.1450001,0 0.354,-2.473 z m -1.9450001,-1.959 2.2260001,0 0.159,-1.104 -2.4960001,0 0.111,1.104 z"
   id="path14-1"
   inkscape:connector-curvature="0"
   style="fill:none" /></svg>