<?xml version="1.0" encoding="UTF-8" standalone="no"?>
<!-- Generator: Adobe Illustrator 13.0.0, SVG Export Plug-In . SVG Version: 6.00 Build 14948)  -->

<svg
   xmlns:dc="http://purl.org/dc/elements/1.1/"
   xmlns:cc="http://creativecommons.org/ns#"
   xmlns:rdf="http://www.w3.org/1999/02/22-rdf-syntax-ns#"
   xmlns:svg="http://www.w3.org/2000/svg"
   xmlns="http://www.w3.org/2000/svg"
   xmlns:xlink="http://www.w3.org/1999/xlink"
   xmlns:sodipodi="http://sodipodi.sourceforge.net/DTD/sodipodi-0.dtd"
   xmlns:inkscape="http://www.inkscape.org/namespaces/inkscape"
   version="1.1"
   id="Layer_4"
   x="0px"
   y="0px"
   width="8.5"
   height="58.959999"
   viewBox="0 0 8.4999997 58.959998"
   enable-background="new 0 0 65.19 115.65"
   xml:space="preserve"
   inkscape:version="0.48.0 r9654"
   sodipodi:docname="e1000_peage.svg"><metadata
   id="metadata15"><rdf:RDF><cc:Work
       rdf:about=""><dc:format>image/svg+xml</dc:format><dc:type
         rdf:resource="http://purl.org/dc/dcmitype/StillImage" /></cc:Work></rdf:RDF></metadata><sodipodi:namedview
   pagecolor="#ffffff"
   bordercolor="#666666"
   borderopacity="1"
   objecttolerance="10"
   gridtolerance="10"
   guidetolerance="10"
   inkscape:pageopacity="0"
   inkscape:pageshadow="2"
   inkscape:window-width="640"
   inkscape:window-height="480"
   id="namedview13"
   showgrid="false"
   fit-margin-top="0"
   fit-margin-left="0"
   fit-margin-right="0"
   fit-margin-bottom="0"
   inkscape:zoom="2.2568093"
   inkscape:cx="4.2449997"
   inkscape:cy="29.485"
   inkscape:window-x="0"
   inkscape:window-y="0"
   inkscape:window-maximized="0"
   inkscape:current-layer="Layer_4" />
<defs
   id="defs3">
	<polygon
   id="SVGID_1_"
   points="0,17.79 0,26.69 0,35.59 0,44.48 0,53.38 0,62.27 0,71.17 0,80.07 0,88.96 0,97.86 0,106.76 0,115.65 8.15,115.65 16.3,115.65 24.45,115.65 32.6,115.65 40.75,115.65 48.89,115.65 57.04,115.65 65.19,115.65 65.19,106.76 65.19,97.86 65.19,88.96 65.19,80.07 65.19,71.17 65.19,62.27 65.19,53.38 65.19,44.48 65.19,35.59 65.19,26.69 65.19,17.79 65.19,8.9 65.19,0 57.04,0 48.89,0 40.75,0 32.6,0 24.45,0 16.3,0 8.15,0 0,0 0,8.9 " />
</defs>
<clipPath
   id="SVGID_2_">
	<use
   xlink:href="#SVGID_1_"
   overflow="visible"
   id="use7"
   style="overflow:visible"
   x="0"
   y="0"
   width="65.190002"
   height="115.65" />
</clipPath>
<g
   id="clip"
   clip-path="url(#SVGID_2_)"
   transform="translate(-28.350001,-28.35)">
</g>
<g
   id="Surface"
   clip-path="url(#SVGID_2_)"
   transform="translate(-28.350001,-28.35)">
	<rect
   x="28.35"
   y="28.35"
   width="8.5"
   height="58.959999"
   id="rect11" />
</g>
</svg>