<?xml version="1.0" encoding="UTF-8" standalone="no"?>
<!-- Generator: Adobe Illustrator 13.0.0, SVG Export Plug-In  -->

<svg
   xmlns:dc="http://purl.org/dc/elements/1.1/"
   xmlns:cc="http://creativecommons.org/ns#"
   xmlns:rdf="http://www.w3.org/1999/02/22-rdf-syntax-ns#"
   xmlns:svg="http://www.w3.org/2000/svg"
   xmlns="http://www.w3.org/2000/svg"
   xmlns:sodipodi="http://sodipodi.sourceforge.net/DTD/sodipodi-0.dtd"
   xmlns:inkscape="http://www.inkscape.org/namespaces/inkscape"
   version="1.1"
   x="0px"
   y="0px"
   width="9.2125978"
   height="6.2340002"
   viewBox="-0.715 -0.647 9.2125979 6.2340002"
   enable-background="new -0.715 -0.647 10 7"
   xml:space="preserve"
   id="svg3735"
   inkscape:version="0.48.0 r9654"
   sodipodi:docname="e100_Stade.svg"><metadata
   id="metadata3743"><rdf:RDF><cc:Work
       rdf:about=""><dc:format>image/svg+xml</dc:format><dc:type
         rdf:resource="http://purl.org/dc/dcmitype/StillImage" /></cc:Work></rdf:RDF></metadata><sodipodi:namedview
   pagecolor="#ffffff"
   bordercolor="#666666"
   borderopacity="1"
   objecttolerance="10"
   gridtolerance="10"
   guidetolerance="10"
   inkscape:pageopacity="0"
   inkscape:pageshadow="2"
   inkscape:window-width="640"
   inkscape:window-height="480"
   id="namedview3741"
   showgrid="false"
   fit-margin-top="0"
   fit-margin-left="0"
   fit-margin-right="0"
   fit-margin-bottom="0"
   inkscape:zoom="41.571429"
   inkscape:cx="4.285"
   inkscape:cy="3.381"
   inkscape:window-x="0"
   inkscape:window-y="0"
   inkscape:window-maximized="0"
   inkscape:current-layer="svg3735"
   units="cm" />
<defs
   id="defs3737">
</defs>
<rect
   style="fill:#ffffff;stroke:#ffffff;stroke-width:1.07200003;stroke-miterlimit:4;stroke-opacity:1;stroke-dasharray:none"
   id="rect2984"
   width="7.8419242"
   height="4.7628865"
   x="-0.11362542"
   y="0.0062321392" /><path
   d="M -0.715,-0.64700042 V 5.5869996 h 9.07 v -6.23400002 h -9.07 z M 3.543,2.6759996 c -0.086,-0.078 -0.143,-0.188 -0.143,-0.313 0,-0.125 0.057,-0.235 0.143,-0.313 v 0.626 z m 0.566,-0.626 c 0.086,0.078 0.142,0.188 0.142,0.313 0,0.125 -0.056,0.234 -0.142,0.312 v -0.625 z m -4.258,-0.732 c 0.458,0.062 0.82,0.526 0.82,1.109 0,0.584 -0.362,1.049 -0.82,1.11 v -2.219 z m 0,2.8 c 0.772,-0.059 1.387,-0.79 1.387,-1.69 0,-0.899 -0.615,-1.63000002 -1.387,-1.68800002 v -0.82 H 3.542 V 1.4279996 c -0.406,0.124 -0.708,0.488 -0.708,0.935 0,0.446 0.302,0.811 0.709,0.935 v 1.724 h -3.692 v -0.904 z m 4.258,0.903 v -1.724 c 0.406,-0.124 0.708,-0.488 0.708,-0.934 0,-0.447 -0.302,-0.811 -0.708,-0.935 v -1.50900002 h 3.68 v 0.855 c -0.33,0.019 -0.65,0.149 -0.9,0.39800002 -0.325,0.321 -0.512,0.787 -0.514,1.279 -0.004,0.492 0.178,0.96 0.498,1.285 0.253,0.257 0.578,0.394 0.916,0.412 v 0.873 h -3.68 z m 3.68,-3.678 v 2.235 c -0.232,-0.022 -0.408,-0.135 -0.513,-0.241 -0.215,-0.219 -0.337,-0.54 -0.335,-0.883 0.002,-0.343 0.128,-0.664 0.347,-0.88 0.102,-0.101 0.278,-0.207 0.501,-0.231 z"
   id="path3739"
   inkscape:connector-curvature="0" />
</svg>
