<?xml version="1.0" encoding="UTF-8" standalone="no"?>
<!-- Generator: Adobe Illustrator 13.0.0, SVG Export Plug-In  -->

<svg
   xmlns:dc="http://purl.org/dc/elements/1.1/"
   xmlns:cc="http://creativecommons.org/ns#"
   xmlns:rdf="http://www.w3.org/1999/02/22-rdf-syntax-ns#"
   xmlns:svg="http://www.w3.org/2000/svg"
   xmlns="http://www.w3.org/2000/svg"
   xmlns:sodipodi="http://sodipodi.sourceforge.net/DTD/sodipodi-0.dtd"
   xmlns:inkscape="http://www.inkscape.org/namespaces/inkscape"
   version="1.1"
   x="0px"
   y="0px"
   width="11.622"
   height="11.622"
   viewBox="-0.188 -0.826 11.622 11.622"
   enable-background="new -0.188 -0.826 12 13"
   xml:space="preserve"
   id="svg2"
   inkscape:version="0.48.0 r9654"
   sodipodi:docname="e100_Port_de_plaisance.svg"><metadata
   id="metadata16"><rdf:RDF><cc:Work
       rdf:about=""><dc:format>image/svg+xml</dc:format><dc:type
         rdf:resource="http://purl.org/dc/dcmitype/StillImage" /></cc:Work></rdf:RDF></metadata><sodipodi:namedview
   pagecolor="#ffffff"
   bordercolor="#666666"
   borderopacity="1"
   objecttolerance="10"
   gridtolerance="10"
   guidetolerance="10"
   inkscape:pageopacity="0"
   inkscape:pageshadow="2"
   inkscape:window-width="640"
   inkscape:window-height="480"
   id="namedview14"
   showgrid="false"
   fit-margin-top="0"
   fit-margin-left="0"
   fit-margin-right="0"
   fit-margin-bottom="0"
   inkscape:zoom="22.384615"
   inkscape:cx="5.812"
   inkscape:cy="5.948"
   inkscape:window-x="0"
   inkscape:window-y="0"
   inkscape:window-maximized="0"
   inkscape:current-layer="svg2" />
<defs
   id="defs4">
</defs>
<path
   sodipodi:type="arc"
   style="fill:#ffffff;stroke:#ffffff;stroke-opacity:1"
   id="path2982"
   sodipodi:cx="8.1975946"
   sodipodi:cy="6.8195944"
   sodipodi:rx="4.5790377"
   sodipodi:ry="4.6237116"
   d="m 12.776632,6.8195944 a 4.5790377,4.6237116 0 1 1 -9.158075,0 4.5790377,4.6237116 0 1 1 9.158075,0 z"
   transform="matrix(0.98287722,0,0,0.97338083,-2.4376687,-1.6496228)" /><path
   d="m -0.188,4.984 c 0,3.205 2.607,5.812 5.812,5.812 3.203,0 5.81,-2.606 5.81,-5.812 0,-3.204 -2.606,-5.81 -5.81,-5.81 -3.205,0 -5.812,2.606 -5.812,5.81 z m 0.851,0 c 0,-2.735 2.226,-4.959 4.961,-4.959 2.734,0 4.96,2.225 4.96,4.959 0,2.735 -2.226,4.962 -4.96,4.962 -2.736,0 -4.961,-2.227 -4.961,-4.962 z"
   id="path6"
   inkscape:connector-curvature="0"
   style="fill:#646464" />
<polyline
   points="3.136,7.755 8.82,7.755 7.791,8.765 3.673,8.773 3.136,7.755 "
   id="polyline8"
   style="fill:#646464"
   transform="translate(-0.188,-0.826)" />
<polyline
   points="4.843,1.244 4.843,7.134 9.873,7.134 4.869,1.244 "
   id="polyline10"
   style="fill:#646464"
   transform="translate(-0.188,-0.826)" />
<polygon
   points="4.152,3.433 4.136,7.134 1.798,7.134 "
   id="polygon12"
   style="fill:#646464"
   transform="translate(-0.188,-0.826)" />
</svg>
