<?xml version="1.0" encoding="UTF-8" standalone="no"?>
<!-- Generator: Adobe Illustrator 13.0.0, SVG Export Plug-In . SVG Version: 6.00 Build 14948)  -->

<svg
   xmlns:dc="http://purl.org/dc/elements/1.1/"
   xmlns:cc="http://creativecommons.org/ns#"
   xmlns:rdf="http://www.w3.org/1999/02/22-rdf-syntax-ns#"
   xmlns:svg="http://www.w3.org/2000/svg"
   xmlns="http://www.w3.org/2000/svg"
   xmlns:xlink="http://www.w3.org/1999/xlink"
   xmlns:sodipodi="http://sodipodi.sourceforge.net/DTD/sodipodi-0.dtd"
   xmlns:inkscape="http://www.inkscape.org/namespaces/inkscape"
   version="1.1"
   id="Layer_4"
   x="0px"
   y="0px"
   width="9.9200001"
   height="9.9200001"
   viewBox="0 0 9.92 9.9200001"
   enable-background="new 0 0 66.61 66.61"
   xml:space="preserve"
   inkscape:version="0.48.0 r9654"
   sodipodi:docname="e1000_aeroport.svg"><metadata
   id="metadata29"><rdf:RDF><cc:Work
       rdf:about=""><dc:format>image/svg+xml</dc:format><dc:type
         rdf:resource="http://purl.org/dc/dcmitype/StillImage" /><dc:title></dc:title></cc:Work></rdf:RDF></metadata><sodipodi:namedview
   pagecolor="#ffffff"
   bordercolor="#666666"
   borderopacity="1"
   objecttolerance="10"
   gridtolerance="10"
   guidetolerance="10"
   inkscape:pageopacity="0"
   inkscape:pageshadow="2"
   inkscape:window-width="919"
   inkscape:window-height="480"
   id="namedview27"
   showgrid="false"
   showborder="true"
   fit-margin-top="0"
   fit-margin-left="0"
   fit-margin-right="0"
   fit-margin-bottom="0"
   units="mm"
   inkscape:zoom="3.9183305"
   inkscape:cx="4.955"
   inkscape:cy="4.965"
   inkscape:window-x="454"
   inkscape:window-y="45"
   inkscape:window-maximized="0"
   inkscape:current-layer="Layer_4" />
<defs
   id="defs3">
	<polygon
   id="SVGID_1_"
   points="0,49.96 0,58.29 0,66.61 8.33,66.61 16.65,66.61 24.98,66.61 33.31,66.61 41.63,66.61 49.96,66.61 58.29,66.61 66.61,66.61 66.61,58.29 66.61,49.96 66.61,41.63 66.61,33.31 66.61,24.98 66.61,16.65 66.61,8.33 66.61,0 58.29,0 49.96,0 41.63,0 33.31,0 24.98,0 16.65,0 8.33,0 0,0 0,8.33 0,16.65 0,24.98 0,33.31 0,41.63 " />
</defs>
<clipPath
   id="SVGID_2_">
	<use
   xlink:href="#SVGID_1_"
   overflow="visible"
   id="use7"
   style="overflow:visible"
   x="0"
   y="0"
   width="66.610001"
   height="66.610001" />
</clipPath>
<g
   id="clip"
   clip-path="url(#SVGID_2_)"
   transform="translate(-28.35,-28.349999)">
</g>
<g
   id="Surface"
   clip-path="url(#SVGID_2_)"
   transform="translate(-28.35,-28.349999)">
	<polygon
   points="37.13,36.46 37.42,36.08 37.67,35.67 37.88,35.24 38.04,34.78 38.17,34.31 38.24,33.81 38.27,33.31 38.24,32.8 38.17,32.31 38.04,31.83 37.88,31.38 37.67,30.94 37.42,30.53 37.13,30.15 36.81,29.8 36.46,29.48 36.08,29.19 35.67,28.95 35.24,28.74 34.78,28.57 34.31,28.45 33.81,28.37 33.31,28.35 32.8,28.37 32.31,28.45 31.83,28.57 31.38,28.74 30.94,28.95 30.53,29.19 30.15,29.48 29.8,29.8 29.48,30.15 29.19,30.53 28.95,30.94 28.74,31.38 28.57,31.83 28.45,32.31 28.37,32.8 28.35,33.31 28.37,33.81 28.45,34.31 28.57,34.78 28.74,35.24 28.95,35.67 29.19,36.08 29.48,36.46 29.8,36.81 30.15,37.14 30.53,37.42 30.94,37.67 31.38,37.88 31.83,38.05 32.31,38.17 32.8,38.24 33.31,38.27 33.81,38.24 34.31,38.17 34.78,38.05 35.24,37.88 35.67,37.67 36.08,37.42 36.46,37.14 36.81,36.81 "
   id="polygon11" />
	<polygon
   points="33.9,34.44 33.91,33.41 33.9,32.37 33.87,31.45 33.82,30.65 33.76,29.98 33.67,29.45 33.57,29.06 33.51,28.92 33.45,28.83 33.38,28.77 33.31,28.75 33.24,28.76 33.17,28.82 33.11,28.91 33.05,29.03 32.94,29.38 32.86,29.88 32.79,30.51 32.74,31.27 32.71,32.17 32.7,33.2 32.71,34.25 32.74,35.17 32.79,35.97 32.86,36.63 32.94,37.17 33.05,37.55 33.11,37.69 33.17,37.79 33.24,37.85 33.31,37.87 33.38,37.85 33.45,37.8 33.51,37.71 33.57,37.58 33.67,37.23 33.76,36.74 33.82,36.11 33.87,35.34 "
   id="polygon13"
   style="fill:#ffffff" />
	<polygon
   points="29.45,34.55 30.09,34.43 30.81,34.28 32.74,33.81 32.74,32.12 28.87,34.12 28.74,34.25 28.7,34.31 28.69,34.39 28.7,34.47 28.74,34.56 28.82,34.59 28.97,34.6 "
   id="polygon15"
   style="fill:#ffffff" />
	<polygon
   points="37.93,34.38 37.91,34.31 37.88,34.24 37.75,34.12 33.81,32.12 33.81,33.81 35.77,34.28 36.5,34.43 37.16,34.55 37.64,34.6 37.79,34.59 37.87,34.56 37.92,34.47 "
   id="polygon17"
   style="fill:#ffffff" />
	<polygon
   points="33,36.5 31.67,37.46 31.62,37.5 31.6,37.55 31.62,37.61 31.7,37.63 31.87,37.62 32.34,37.54 33,37.39 "
   id="polygon19"
   style="fill:#ffffff" />
	<polygon
   points="33.54,36.5 33.54,37.39 34.19,37.54 34.67,37.62 34.83,37.63 34.91,37.61 34.93,37.55 34.91,37.5 34.87,37.46 "
   id="polygon21"
   style="fill:#ffffff" />
	<polygon
   points="31.07,32.73 31.01,32.63 30.94,32.57 30.87,32.55 30.8,32.57 30.73,32.63 30.67,32.73 30.62,32.87 30.54,33.22 30.52,33.65 30.54,34.08 30.62,34.43 30.67,34.57 30.73,34.67 30.8,34.73 30.87,34.76 30.94,34.73 31.01,34.67 31.07,34.57 31.12,34.43 31.2,34.08 31.22,33.65 31.2,33.22 31.12,32.87 "
   id="polygon23"
   style="fill:#ffffff" />
	<polygon
   points="35.94,32.73 35.88,32.63 35.82,32.57 35.75,32.55 35.67,32.57 35.61,32.63 35.55,32.73 35.49,32.87 35.42,33.22 35.39,33.65 35.42,34.08 35.49,34.43 35.55,34.57 35.61,34.67 35.67,34.73 35.75,34.76 35.82,34.73 35.88,34.67 35.94,34.57 35.99,34.43 36.07,34.08 36.1,33.65 36.07,33.22 35.99,32.87 "
   id="polygon25"
   style="fill:#ffffff" />
</g>
</svg>