<?xml version="1.0" encoding="utf-8"?>
<!-- Generator: Adobe Illustrator 13.0.0, SVG Export Plug-In  -->
<!DOCTYPE svg PUBLIC "-//W3C//DTD SVG 1.1//EN" "http://www.w3.org/Graphics/SVG/1.1/DTD/svg11.dtd" [
	<!ENTITY ns_flows "http://ns.adobe.com/Flows/1.0/">
]>
<svg version="1.1"
	 xmlns="http://www.w3.org/2000/svg" xmlns:xlink="http://www.w3.org/1999/xlink" xmlns:a="http://ns.adobe.com/AdobeSVGViewerExtensions/3.0/"
	 x="0px" y="0px" width="78px" height="65px" viewBox="-0.71 -0.12 78 65" enable-background="new -0.71 -0.12 78 65"
	 xml:space="preserve">
<defs>
</defs>
<path fill="#646464" d="M58.174,24.679c1.719,0.684,2.568,1.113,4.111,2.012c1.689,0.938,2.549,1.514,4.854,3.184
	c0,0,1.27,1.182,2.139,1.865c2.207,2.197,3.223,3.555,4.834,5.352c-1.24,1.504-3.066,2.988-3.066,2.988
	c-3.682,3.369-5.576,4.395-10.771,6.357c-1.348,0.449-6.123,1.465-9.951,1.514c-4.346,0.068-7.705-0.859-7.705-0.82
	c-2.92-0.742-6.26-2.158-8.34-3.184c-1.201-0.527-3.057-1.65-4.375-2.656c-0.4-0.273-1.826-1.416-1.826-1.416
	c-0.977-0.859-3.525-3.408-3.525-3.408c1.299-1.523,5.371-5.02,5.293-5.02c1.914-1.621,2.568-1.973,3.281-2.402
	c0.801-0.557,1.465-1.035,2.207-1.426c3.916-2.275,8.018-4.453,12.891-4.404C48.223,23.214,54.258,22.618,58.174,24.679z"/>
<path fill="#FFFFFF" d="M62.959,30.851c1.729,0.752,6.279,3.428,7.256,4.238l2.109,1.914c0,0-2.158,1.689-3.574,2.51
	c-1.914,1.123-10.889,4.893-13.398,4.746c1.436-1.504,2.129-2.773,2.832-4.238c0,0,0.381-0.957,0.537-2.539
	c0.127-1.26,0.283-2.314-0.195-4.082c-0.342-1.367-1.094-2.51-1.719-3.76c-0.508-0.791-0.547-0.947-0.82-1.523
	C58.487,28.38,62.959,30.851,62.959,30.851z"/>
<path fill="#FFFFFF" d="M35.381,30.528c-1.719,0.742-6.279,3.428-7.246,4.229l-2.119,1.924c0,0,2.158,1.689,3.574,2.51
	c1.924,1.123,10.889,4.893,13.408,4.736c-1.455-1.494-2.139-2.764-2.832-4.229c0,0-0.381-0.957-0.547-2.549
	c-0.127-1.25-0.273-2.314,0.195-4.072c0.352-1.377,1.094-2.51,1.729-3.77c0.498-0.791,0.547-0.938,0.82-1.523
	C39.864,28.058,35.381,30.528,35.381,30.528z"/>
<path fill="#646464" d="M52.784,35.392c0,2.129-1.738,3.867-3.867,3.867s-3.848-1.738-3.848-3.867s1.719-3.857,3.848-3.857
	S52.784,33.263,52.784,35.392z"/>
<line fill="#646464" stroke="#646464" stroke-width="5.669" x1="49.122" y1="2.325" x2="1.622" y2="35.45"/>
<line fill="#646464" stroke="#646464" stroke-width="5.669" x1="18.077" y1="25.069" x2="18.077" y2="62.384"/>
<line fill="#646464" stroke="#646464" stroke-width="5.669" x1="6.309" y1="61.876" x2="76.387" y2="61.876"/>
</svg>
