<?xml version="1.0" encoding="UTF-8" standalone="no"?>
<!-- Generator: Adobe Illustrator 13.0.0, SVG Export Plug-In  -->

<svg
   xmlns:dc="http://purl.org/dc/elements/1.1/"
   xmlns:cc="http://creativecommons.org/ns#"
   xmlns:rdf="http://www.w3.org/1999/02/22-rdf-syntax-ns#"
   xmlns:svg="http://www.w3.org/2000/svg"
   xmlns="http://www.w3.org/2000/svg"
   xmlns:xlink="http://www.w3.org/1999/xlink"
   xmlns:sodipodi="http://sodipodi.sourceforge.net/DTD/sodipodi-0.dtd"
   xmlns:inkscape="http://www.inkscape.org/namespaces/inkscape"
   version="1.1"
   x="0px"
   y="0px"
   width="53.153"
   height="53.155998"
   viewBox="1.222 1.596 53.153 53.155998"
   enable-background="new 1.222 1.596 54 54"
   xml:space="preserve"
   id="svg4815"
   inkscape:version="0.48.0 r9654"
   sodipodi:docname="e250_RUINE.svg"><metadata
   id="metadata4837"><rdf:RDF><cc:Work
       rdf:about=""><dc:format>image/svg+xml</dc:format><dc:type
         rdf:resource="http://purl.org/dc/dcmitype/StillImage" /></cc:Work></rdf:RDF></metadata><sodipodi:namedview
   pagecolor="#ffffff"
   bordercolor="#666666"
   borderopacity="1"
   objecttolerance="10"
   gridtolerance="10"
   guidetolerance="10"
   inkscape:pageopacity="0"
   inkscape:pageshadow="2"
   inkscape:window-width="640"
   inkscape:window-height="480"
   id="namedview4835"
   showgrid="false"
   fit-margin-top="0"
   fit-margin-left="0"
   fit-margin-right="0"
   fit-margin-bottom="0"
   inkscape:zoom="4.8333333"
   inkscape:cx="26.452"
   inkscape:cy="26.328"
   inkscape:window-x="0"
   inkscape:window-y="0"
   inkscape:window-maximized="0"
   inkscape:current-layer="svg4815" />
<defs
   id="defs4817">
</defs>
<g
   id="g4819"
   transform="translate(-0.548,-0.172)">
	<defs
   id="defs4821">
		<rect
   id="SVGID_1_"
   width="56.693001"
   height="56.693001"
   x="0"
   y="0" />
	</defs>
	<clipPath
   id="SVGID_2_">
		<use
   xlink:href="#SVGID_1_"
   overflow="visible"
   id="use4825"
   style="overflow:visible"
   x="0"
   y="0"
   width="54"
   height="54" />
	</clipPath>
	<g
   clip-path="url(#SVGID_2_)"
   id="g4827">
		<path
   d="m 12.541,31.556 c 5.908,0 10.769,5.275 10.769,11.684 0,6.41 -4.861,11.684 -10.769,11.684 C 6.632,54.924 1.77,49.65 1.77,43.24 1.77,36.832 6.632,31.556 12.541,31.556 l 0,0 z"
   id="path4829"
   inkscape:connector-curvature="0"
   style="fill:#646464" />
		<path
   d="m 28.124,1.768 c 5.909,0 10.77,5.275 10.77,11.684 0,6.41 -4.861,11.685 -10.77,11.685 -5.908,0 -10.771,-5.275 -10.771,-11.685 0,-6.409 4.863,-11.684 10.771,-11.684 l 0,0 z"
   id="path4831"
   inkscape:connector-curvature="0"
   style="fill:#646464" />
		<path
   d="m 44.152,31.556 c 5.909,0 10.771,5.275 10.771,11.684 0,6.41 -4.862,11.684 -10.771,11.684 -5.907,0 -10.77,-5.274 -10.77,-11.684 0,-6.408 4.863,-11.684 10.77,-11.684 l 0,0 z"
   id="path4833"
   inkscape:connector-curvature="0"
   style="fill:#646464" />
	</g>
</g>
</svg>
