<?xml version="1.0" encoding="UTF-8" standalone="no"?>
<!-- Generator: Adobe Illustrator 13.0.0, SVG Export Plug-In  -->

<svg
   xmlns:dc="http://purl.org/dc/elements/1.1/"
   xmlns:cc="http://creativecommons.org/ns#"
   xmlns:rdf="http://www.w3.org/1999/02/22-rdf-syntax-ns#"
   xmlns:svg="http://www.w3.org/2000/svg"
   xmlns="http://www.w3.org/2000/svg"
   xmlns:sodipodi="http://sodipodi.sourceforge.net/DTD/sodipodi-0.dtd"
   xmlns:inkscape="http://www.inkscape.org/namespaces/inkscape"
   version="1.1"
   x="0px"
   y="0px"
   width="128.276"
   height="128.276"
   viewBox="-0.112 -0.362 128.276 128.276"
   enable-background="new -0.112 -0.362 129 129"
   xml:space="preserve"
   id="svg4474"
   inkscape:version="0.48.0 r9654"
   sodipodi:docname="e250_AEROPORT.svg"><metadata
   id="metadata4486"><rdf:RDF><cc:Work
       rdf:about=""><dc:format>image/svg+xml</dc:format><dc:type
         rdf:resource="http://purl.org/dc/dcmitype/StillImage" /></cc:Work></rdf:RDF></metadata><sodipodi:namedview
   pagecolor="#ffffff"
   bordercolor="#666666"
   borderopacity="1"
   objecttolerance="10"
   gridtolerance="10"
   guidetolerance="10"
   inkscape:pageopacity="0"
   inkscape:pageshadow="2"
   inkscape:window-width="640"
   inkscape:window-height="480"
   id="namedview4484"
   showgrid="false"
   fit-margin-top="0"
   fit-margin-left="0"
   fit-margin-right="0"
   fit-margin-bottom="0"
   inkscape:zoom="2.0232558"
   inkscape:cx="64.388001"
   inkscape:cy="64.138002"
   inkscape:window-x="0"
   inkscape:window-y="0"
   inkscape:window-maximized="0"
   inkscape:current-layer="svg4474" />
<defs
   id="defs4476">
</defs>
<circle
   cx="64.138"
   cy="64.138"
   r="62.366001"
   id="circle4478"
   sodipodi:cx="64.138"
   sodipodi:cy="64.138"
   sodipodi:rx="62.366001"
   sodipodi:ry="62.366001"
   style="stroke:#0c0c0c;stroke-width:3.54399991;stroke-linecap:round"
   transform="translate(-0.1119994,-0.3619994)" />
<path
   d="m 65.204001,7.5910006 c 0,0 -2.389,0.156 -3.57,6.1860004 -1.447,7.39 -0.39,31.635 -1.68,35.066 -0.876,2.33 -3.454,5.093 -6,7.25 -5.387,4.563 -9.935,7.446 -17.502,13.751 -0.296,0.247 -0.666,-4.083 -2.916,-3.333 -1.142,0.38 -0.928,7.239 -1.333,7.584 -13.251,11.25 -17.661,15.334 -19.751,17.25 -2.13,1.953 -2.281,3.772 1.5,2 3.499,-1.64 17.921,-8.971 19.584,-9.501 0,0 0.868,7.448 1.521,7.256 2.571,-0.756 2.336,-8.846 2.48,-8.923 1.989,-1.052 22.343,-11.992 23.335,-11 1.5,1.5 2.011,24.302 1.583,29.917999 -0.605,7.941 -11.372,9.195 -11.447,10.632 0,2.42 9.931,-0.57 11.447,0.119 3.025,1.375 1.994,2.028 2.75,4.75"
   id="path4480"
   inkscape:connector-curvature="0"
   style="fill:#ffffff;stroke:#ffffff;stroke-width:0;stroke-linecap:round" />
<path
   d="m 65.204001,7.5910006 c 0,0 2.345,-0.227 3.526,5.8030004 1.446,7.389 0.39,31.634 1.68,35.065 0.875,2.33 3.453,5.094 6,7.251 5.387,4.563 9.935,7.446 17.501,13.751 0.296,0.247 0.667,-4.084 2.917,-3.334 1.141,0.381 0.927,7.239 1.333,7.584 13.250999,11.251 17.661999,15.336 19.750999,17.251 2.131,1.953 2.282,3.773 -1.5,2 -3.498,-1.64 -17.919999,-8.971 -19.583999,-9.5 0,0 -0.868,7.447 -1.52,7.256 -2.572,-0.757 -2.336,-8.847 -2.48,-8.923 -1.989,-1.052 -22.344,-11.992 -23.334,-11.001 -1.5,1.5 -2.011,24.303 -1.584,29.918999 0.605,7.941 11.372,9.194 11.448,10.631 0,2.419 -9.931,-0.57 -11.448,0.119 -3.025,1.375 -1.993,2.028 -2.75,4.751"
   id="path4482"
   inkscape:connector-curvature="0"
   style="fill:#ffffff;stroke:#ffffff;stroke-width:0;stroke-linecap:round" />
</svg>