<?xml version="1.0" encoding="UTF-8" standalone="no"?>
<!-- Generator: Adobe Illustrator 13.0.0, SVG Export Plug-In  -->

<svg
   xmlns:dc="http://purl.org/dc/elements/1.1/"
   xmlns:cc="http://creativecommons.org/ns#"
   xmlns:rdf="http://www.w3.org/1999/02/22-rdf-syntax-ns#"
   xmlns:svg="http://www.w3.org/2000/svg"
   xmlns="http://www.w3.org/2000/svg"
   xmlns:sodipodi="http://sodipodi.sourceforge.net/DTD/sodipodi-0.dtd"
   xmlns:inkscape="http://www.inkscape.org/namespaces/inkscape"
   version="1.1"
   x="0px"
   y="0px"
   width="75.119003"
   height="60.945"
   viewBox="-0.69 -0.027 75.119003 60.945"
   enable-background="new -0.69 -0.027 76 61"
   xml:space="preserve"
   id="svg6502"
   inkscape:version="0.48.0 r9654"
   sodipodi:docname="e250_MUSEE_TOURISTIQUE.svg"><metadata
   id="metadata6512"><rdf:RDF><cc:Work
       rdf:about=""><dc:format>image/svg+xml</dc:format><dc:type
         rdf:resource="http://purl.org/dc/dcmitype/StillImage" /></cc:Work></rdf:RDF></metadata><sodipodi:namedview
   pagecolor="#ffffff"
   bordercolor="#666666"
   borderopacity="1"
   objecttolerance="10"
   gridtolerance="10"
   guidetolerance="10"
   inkscape:pageopacity="0"
   inkscape:pageshadow="2"
   inkscape:window-width="640"
   inkscape:window-height="480"
   id="namedview6510"
   showgrid="false"
   fit-margin-top="0"
   fit-margin-left="0"
   fit-margin-right="0"
   fit-margin-bottom="0"
   inkscape:zoom="4.2786885"
   inkscape:cx="37.31"
   inkscape:cy="30.472"
   inkscape:window-x="0"
   inkscape:window-y="0"
   inkscape:window-maximized="0"
   inkscape:current-layer="svg6502" />
<defs
   id="defs6504">
</defs>
<path
   d="M 11.942,48.246 21.883,48.214 21.887,28.179 36.86,48.353 51.693,30.714 v 17.5 h 9.988 c 0,0 0.014,-27.224 -0.012,-35.278 -3.945,0 -0.995,0 -9.904,0 -5.605,7.917 -15.041,20.139 -15.042,20.139 0,0 -9.923,-13.472 -14.87,-20.104 -5.195,0 -9.925,-0.035 -9.925,-0.035 l 0.014,35.31 0,0 z"
   id="path6506"
   inkscape:connector-curvature="0"
   style="fill:#646464" />
<polygon
   stroke-miterlimit="4.252"
   points="72.993,2.126 2.126,2.126 2.126,2.126 2.126,58.819 72.993,58.819 "
   id="polygon6508"
   style="fill:none;stroke:#646464;stroke-width:4.25199986;stroke-miterlimit:4.25199986"
   transform="translate(-0.69000007,-0.02700007)" />
</svg>
