<?xml version="1.0" encoding="UTF-8" standalone="no"?>
<!-- Generator: Adobe Illustrator 13.0.0, SVG Export Plug-In . SVG Version: 6.00 Build 14948)  -->

<svg
   xmlns:dc="http://purl.org/dc/elements/1.1/"
   xmlns:cc="http://creativecommons.org/ns#"
   xmlns:rdf="http://www.w3.org/1999/02/22-rdf-syntax-ns#"
   xmlns:svg="http://www.w3.org/2000/svg"
   xmlns="http://www.w3.org/2000/svg"
   xmlns:xlink="http://www.w3.org/1999/xlink"
   xmlns:sodipodi="http://sodipodi.sourceforge.net/DTD/sodipodi-0.dtd"
   xmlns:inkscape="http://www.inkscape.org/namespaces/inkscape"
   version="1.1"
   id="Layer_4"
   x="0px"
   y="0px"
   width="3.8299999"
   height="3.8299999"
   viewBox="0 0 3.8299999 3.83"
   enable-background="new 0 0 60.52 60.52"
   xml:space="preserve"
   inkscape:version="0.48.2 r9819"
   sodipodi:docname="e1000_e250_commune.svg"><metadata
   id="metadata18"><rdf:RDF><cc:Work
       rdf:about=""><dc:format>image/svg+xml</dc:format><dc:type
         rdf:resource="http://purl.org/dc/dcmitype/StillImage" /><dc:title></dc:title></cc:Work></rdf:RDF></metadata><sodipodi:namedview
   pagecolor="#ffffff"
   bordercolor="#666666"
   borderopacity="1"
   objecttolerance="10"
   gridtolerance="10"
   guidetolerance="10"
   inkscape:pageopacity="0"
   inkscape:pageshadow="2"
   inkscape:window-width="689"
   inkscape:window-height="719"
   id="namedview16"
   showgrid="false"
   units="mm"
   inkscape:zoom="68.146215"
   inkscape:cx="1.915"
   inkscape:cy="2.5019731"
   inkscape:window-x="484"
   inkscape:window-y="24"
   inkscape:window-maximized="0"
   inkscape:current-layer="Layer_4"
   fit-margin-top="0"
   fit-margin-left="0"
   fit-margin-right="0"
   fit-margin-bottom="0" />
<defs
   id="defs3">
	<polygon
   id="SVGID_1_"
   points="0,51.88 0,60.52 8.65,60.52 17.29,60.52 25.94,60.52 34.59,60.52 43.23,60.52 51.88,60.52 60.52,60.52 60.52,51.88 60.52,43.23 60.52,34.58 60.52,25.94 60.52,17.29 60.52,8.65 60.52,0 51.88,0 43.23,0 34.59,0 25.94,0 17.29,0 8.65,0 0,0 0,8.65 0,17.29 0,25.94 0,34.58 0,43.23 " />
<clipPath
   id="SVGID_2_-1"><use
     xlink:href="#SVGID_1_"
     overflow="visible"
     id="use7-7"
     style="overflow:visible"
     x="0"
     y="0"
     width="60.52"
     height="60.52" /></clipPath></defs>
<clipPath
   id="SVGID_2_">
	<use
   xlink:href="#SVGID_1_"
   overflow="visible"
   id="use7"
   style="overflow:visible"
   x="0"
   y="0"
   width="60.52"
   height="60.52" />
</clipPath>
<g
   id="clip"
   clip-path="url(#SVGID_2_)"
   transform="translate(-28.345,-28.345)">
</g>

<g
   id="Ligne_1_"
   clip-path="url(#SVGID_2_)"
   transform="translate(-28.286302,-28.330325)">
	<polyline
   points="30.26,31.96 30.6,31.93 30.92,31.83 31.21,31.67 31.46,31.47    31.67,31.21 31.83,30.93 31.93,30.61 31.96,30.26 31.93,29.92 31.83,29.6 31.67,29.31 31.46,29.06 31.21,28.85 30.92,28.7    30.6,28.6 30.26,28.56 29.92,28.6 29.6,28.7 29.31,28.85 29.06,29.06 28.85,29.31 28.69,29.6 28.6,29.92 28.56,30.26 28.6,30.61    28.69,30.93 28.85,31.21 29.06,31.47 29.31,31.67 29.6,31.83 29.92,31.93 30.26,31.96  "
   id="polyline14"
   style="fill:none;stroke:#0c0c0c;stroke-width:0.43000001" />
</g>
<g
   id="Ligne_1_-4"
   clip-path="url(#SVGID_2_-1)"
   transform="matrix(0.87260236,0,0,0.88534397,-24.424704,-24.846161)"
   style="fill:#ffffff;fill-opacity:1;stroke:#ffffff;stroke-opacity:1"><polyline
     points="30.26,31.96 30.6,31.93 30.92,31.83 31.21,31.67 31.46,31.47    31.67,31.21 31.83,30.93 31.93,30.61 31.96,30.26 31.93,29.92 31.83,29.6 31.67,29.31 31.46,29.06 31.21,28.85 30.92,28.7    30.6,28.6 30.26,28.56 29.92,28.6 29.6,28.7 29.31,28.85 29.06,29.06 28.85,29.31 28.69,29.6 28.6,29.92 28.56,30.26 28.6,30.61    28.69,30.93 28.85,31.21 29.06,31.47 29.31,31.67 29.6,31.83 29.92,31.93 30.26,31.96  "
     id="polyline14-0"
     style="fill:#ffffff;fill-opacity:1;stroke:#ffffff;stroke-width:0.43000001;stroke-opacity:1" /></g></svg>