<?xml version="1.0" encoding="utf-8"?>
<!-- Generator: Adobe Illustrator 13.0.0, SVG Export Plug-In  -->
<!DOCTYPE svg PUBLIC "-//W3C//DTD SVG 1.1//EN" "http://www.w3.org/Graphics/SVG/1.1/DTD/svg11.dtd" [
	<!ENTITY ns_flows "http://ns.adobe.com/Flows/1.0/">
]>
<svg version="1.1"
	 xmlns="http://www.w3.org/2000/svg" xmlns:xlink="http://www.w3.org/1999/xlink" xmlns:a="http://ns.adobe.com/AdobeSVGViewerExtensions/3.0/"
	 x="0px" y="0px" width="112px" height="106px" viewBox="1.106 4.053 112 106" enable-background="new 1.106 4.053 112 106"
	 xml:space="preserve">
<defs>
</defs>
<g>
	<defs>
		<rect id="SVGID_1_" width="113.386" height="113.386"/>
	</defs>
	<clipPath id="SVGID_2_">
		<use xlink:href="#SVGID_1_"  overflow="visible"/>
	</clipPath>
	<g clip-path="url(#SVGID_2_)">
		<circle fill="#AD4E81" cx="57.009" cy="57.928" r="4.251"/>
		<g>
			<path fill-rule="evenodd" clip-rule="evenodd" fill="#AD4E81" d="M33.694,8.649c-2.814,1.333-5.503,2.878-8.027,4.654
				l25.932,37.821L33.694,8.649z"/>
			<path fill-rule="evenodd" clip-rule="evenodd" fill="#AD4E81" d="M56.97,49.667l6.239-45.199
				c-3.385-0.3-6.719-0.311-10.003-0.139L56.97,49.667z"/>
			<path fill-rule="evenodd" clip-rule="evenodd" fill="#AD4E81" d="M91.881,15.97c-2.347-1.953-4.883-3.676-7.538-5.218
				L64.157,52.519L91.881,15.97z"/>
		</g>
		<g>
			<path fill-rule="evenodd" clip-rule="evenodd" fill="#AD4E81" d="M112.102,61.871c0.212-3.107,0.178-6.207-0.138-9.277
				l-45.67,4.138L112.102,61.871z"/>
			<path fill-rule="evenodd" clip-rule="evenodd" fill="#AD4E81" d="M64.94,62.129l36.383,27.534
				c1.917-2.806,3.556-5.71,5.011-8.659L64.94,62.129z"/>
			<path fill-rule="evenodd" clip-rule="evenodd" fill="#AD4E81" d="M77.276,109.057c2.851-1.093,5.594-2.463,8.237-4.026
				L58.94,67.006L77.276,109.057z"/>
		</g>
		<g>
			<path fill-rule="evenodd" clip-rule="evenodd" fill="#AD4E81" d="M27.241,104.26c2.657,1.626,5.421,3.031,8.288,4.171
				L52.994,66.03L27.241,104.26z"/>
			<path fill-rule="evenodd" clip-rule="evenodd" fill="#AD4E81" d="M48.835,62.332L7.591,81.844c1.6,2.998,3.416,5.795,5.357,8.449
				L48.835,62.332z"/>
			<path fill-rule="evenodd" clip-rule="evenodd" fill="#AD4E81" d="M1.526,51.553c-0.35,3.033-0.405,6.099-0.242,9.165
				l46.005-5.962L1.526,51.553z"/>
		</g>
	</g>
</g>
</svg>
