<?xml version="1.0" encoding="UTF-8" standalone="no"?>
<!-- Generator: Adobe Illustrator 13.0.0, SVG Export Plug-In  -->

<svg
   xmlns:dc="http://purl.org/dc/elements/1.1/"
   xmlns:cc="http://creativecommons.org/ns#"
   xmlns:rdf="http://www.w3.org/1999/02/22-rdf-syntax-ns#"
   xmlns:svg="http://www.w3.org/2000/svg"
   xmlns="http://www.w3.org/2000/svg"
   xmlns:xlink="http://www.w3.org/1999/xlink"
   xmlns:sodipodi="http://sodipodi.sourceforge.net/DTD/sodipodi-0.dtd"
   xmlns:inkscape="http://www.inkscape.org/namespaces/inkscape"
   version="1.1"
   x="0px"
   y="0px"
   width="42.52"
   height="76.370003"
   viewBox="-0.156 -0.7 42.52 76.370003"
   enable-background="new -0.156 -0.7 49 81"
   xml:space="preserve"
   id="svg3994"
   inkscape:version="0.48.0 r9654"
   sodipodi:docname="e250_LIEU_DIT_AVEC_EGLISE.svg"><metadata
   id="metadata4014"><rdf:RDF><cc:Work
       rdf:about=""><dc:format>image/svg+xml</dc:format><dc:type
         rdf:resource="http://purl.org/dc/dcmitype/StillImage" /></cc:Work></rdf:RDF></metadata><sodipodi:namedview
   pagecolor="#ffffff"
   bordercolor="#666666"
   borderopacity="1"
   objecttolerance="10"
   gridtolerance="10"
   guidetolerance="10"
   inkscape:pageopacity="0"
   inkscape:pageshadow="2"
   inkscape:window-width="640"
   inkscape:window-height="480"
   id="namedview4012"
   showgrid="false"
   inkscape:zoom="3.2222222"
   inkscape:cx="24.5"
   inkscape:cy="40.5"
   inkscape:window-x="0"
   inkscape:window-y="0"
   inkscape:window-maximized="0"
   inkscape:current-layer="svg3994" />
<defs
   id="defs3996">
</defs>
<g
   id="g3998"
   transform="translate(-2.7931035,-0.595539)">
	<defs
   id="defs4000">
		<path
   id="SVGID_1_"
   d="m 45.354,55.273 c 0,11.739 -9.512,21.26 -21.26,21.26 -11.738,0 -21.26,-9.521 -21.26,-21.26 0,-11.738 9.522,-21.259 21.26,-21.259 11.748,0 21.26,9.521 21.26,21.259 z"
   inkscape:connector-curvature="0" />
	</defs>
	<clipPath
   id="SVGID_2_">
		<use
   xlink:href="#SVGID_1_"
   overflow="visible"
   id="use4004"
   style="overflow:visible"
   x="0"
   y="0"
   width="49"
   height="81" />
	</clipPath>
	<path
   clip-path="url(#SVGID_2_)"
   d="m 45.354,55.273 c 0,11.739 -9.512,21.26 -21.26,21.26 -11.738,0 -21.26,-9.521 -21.26,-21.26 0,-11.738 9.522,-21.259 21.26,-21.259 11.748,0 21.26,9.521 21.26,21.259 z"
   id="path4006"
   inkscape:connector-curvature="0"
   style="fill:#ffffff;stroke:#0c0c0c;stroke-width:10.66890001" />
</g>
<line
   x1="21.60124"
   y1="-0.59553969"
   x2="21.60124"
   y2="33.418457"
   id="line4008"
   style="fill:#ffffff;stroke:#0c0c0c;stroke-width:5.66930008" />
<line
   x1="6.9344826"
   y1="11.993838"
   x2="35.279484"
   y2="11.993838"
   id="line4010"
   style="fill:#ffffff;stroke:#0c0c0c;stroke-width:5.66930008" />
</svg>