<?xml version="1.0" encoding="UTF-8" standalone="no"?>
<!-- Generator: Adobe Illustrator 13.0.0, SVG Export Plug-In  -->

<svg
   xmlns:dc="http://purl.org/dc/elements/1.1/"
   xmlns:cc="http://creativecommons.org/ns#"
   xmlns:rdf="http://www.w3.org/1999/02/22-rdf-syntax-ns#"
   xmlns:svg="http://www.w3.org/2000/svg"
   xmlns="http://www.w3.org/2000/svg"
   xmlns:sodipodi="http://sodipodi.sourceforge.net/DTD/sodipodi-0.dtd"
   xmlns:inkscape="http://www.inkscape.org/namespaces/inkscape"
   version="1.1"
   x="0px"
   y="0px"
   width="60.381001"
   height="67.362999"
   viewBox="-0.099 -0.293 60.381001 67.362999"
   enable-background="new -0.099 -0.293 61 68"
   xml:space="preserve"
   id="svg5095"
   inkscape:version="0.48.0 r9654"
   sodipodi:docname="e250_reserveed2.svg"><metadata
   id="metadata5115"><rdf:RDF><cc:Work
       rdf:about=""><dc:format>image/svg+xml</dc:format><dc:type
         rdf:resource="http://purl.org/dc/dcmitype/StillImage" /></cc:Work></rdf:RDF></metadata><sodipodi:namedview
   pagecolor="#ffffff"
   bordercolor="#666666"
   borderopacity="1"
   objecttolerance="10"
   gridtolerance="10"
   guidetolerance="10"
   inkscape:pageopacity="0"
   inkscape:pageshadow="2"
   inkscape:window-width="640"
   inkscape:window-height="480"
   id="namedview5113"
   showgrid="false"
   fit-margin-top="0"
   fit-margin-left="0"
   fit-margin-right="0"
   fit-margin-bottom="0"
   inkscape:zoom="3.8382353"
   inkscape:cx="30.401"
   inkscape:cy="33.656"
   inkscape:window-x="0"
   inkscape:window-y="0"
   inkscape:window-maximized="0"
   inkscape:current-layer="svg5095" />
<defs
   id="defs5097">
</defs>
<path
   d="m 30.506,44.326 c 5.85,0 10.596,-4.746 10.596,-10.596 0,-5.859 -4.746,-10.596 -10.596,-10.596 -5.859,0 -10.596,4.736 -10.596,10.596 0.001,5.85 4.737,10.596 10.596,10.596"
   id="path5099"
   inkscape:connector-curvature="0"
   style="fill:#646464" />
<path
   d="m 29.608,-0.293 c 0,0 0.449,14.961 0.449,17.197 0,2.246 3.33,4.336 5.723,3.74 2.393,-0.596 14.199,-6.729 14.199,-6.729 0,0 -9.004,0 -12.441,-2.695 C 34.1,8.535 29.608,-0.293 29.608,-0.293"
   id="path5101"
   inkscape:connector-curvature="0"
   style="fill:#646464" />
<path
   d="m 59.833,15.615 c 0,0 -12.725,7.861 -14.668,8.984 -1.943,1.123 -2.188,4.883 -0.469,6.66 1.709,1.768 12.93,8.936 12.93,8.936 0,0 -4.414,-7.637 -3.799,-11.963 0.605,-4.326 6.006,-12.617 6.006,-12.617"
   id="path5103"
   inkscape:connector-curvature="0"
   style="fill:#646464" />
<path
   d="m 60.282,50.488 c 0,0 -13.174,-7.09 -15.117,-8.213 -1.943,-1.123 -5.322,0.557 -6.006,2.92 -0.674,2.373 -1.27,15.664 -1.27,15.664 0,0 4.404,-7.637 8.457,-9.268 4.053,-1.631 13.936,-1.103 13.936,-1.103"
   id="path5105"
   inkscape:connector-curvature="0"
   style="fill:#646464" />
<path
   d="m 30.047,67.07 c 0,0 -0.449,-14.961 -0.449,-17.197 0,-2.246 -3.135,-4.336 -5.527,-3.74 -2.393,0.605 -14.209,6.729 -14.209,6.729 0,0 8.828,0 12.266,2.695 3.437,2.685 7.919,11.513 7.919,11.513"
   id="path5107"
   inkscape:connector-curvature="0"
   style="fill:#646464" />
<path
   d="m 0.643,51.855 c 0,0 12.725,-7.861 14.668,-8.984 1.943,-1.123 2.188,-4.883 0.469,-6.66 -1.709,-1.768 -12.93,-8.936 -12.93,-8.936 0,0 4.414,7.637 3.799,11.963 -0.605,4.326 -6.006,12.617 -6.006,12.617"
   id="path5109"
   inkscape:connector-curvature="0"
   style="fill:#646464" />
<path
   d="m -0.099,17.588 c 0,0 13.174,7.08 15.117,8.203 1.943,1.123 5.322,-0.547 5.996,-2.92 0.684,-2.373 1.28,-15.664 1.28,-15.664 0,0 -4.414,7.637 -8.457,9.268 -4.053,1.64 -13.936,1.113 -13.936,1.113"
   id="path5111"
   inkscape:connector-curvature="0"
   style="fill:#646464" />
</svg>
