<?xml version="1.0" encoding="utf-8"?>
<!-- Generator: Adobe Illustrator 13.0.0, SVG Export Plug-In  -->
<!DOCTYPE svg PUBLIC "-//W3C//DTD SVG 1.1//EN" "http://www.w3.org/Graphics/SVG/1.1/DTD/svg11.dtd" [
	<!ENTITY ns_flows "http://ns.adobe.com/Flows/1.0/">
]>
<svg version="1.1"
	 xmlns="http://www.w3.org/2000/svg" xmlns:xlink="http://www.w3.org/1999/xlink" xmlns:a="http://ns.adobe.com/AdobeSVGViewerExtensions/3.0/"
	 x="0px" y="0px" width="48px" height="79px" viewBox="-0.086 -0.992 48 79" enable-background="new -0.086 -0.992 48 79"
	 xml:space="preserve">
<defs>
</defs>
<path fill="none" stroke="#646464" stroke-width="4.252" d="M19.034,6.525c0,0-9.287,17.188-4.6,25.313"/>
<path fill="none" stroke="#646464" stroke-width="4.252" d="M25.841,29.182C20.528,18.4,28.565,7.307,28.565,7.307"/>
<path fill="none" stroke="#646464" stroke-width="4.252" d="M38.097,10.744c0,0-7.568,10.156-3.662,19.844"/>
<path fill="none" stroke="#646464" stroke-width="4.252" d="M45.128,20.275c0,0-6.162,10.156-2.256,15.469"/>
<path fill="#646464" d="M16.769,41.013c0,1.968-0.928,3.56-2.061,3.56s-2.061-1.592-2.061-3.56s0.928-3.564,2.061-3.564
	S16.769,39.045,16.769,41.013z"/>
<path fill="#646464" d="M33.438,41.008c0,1.968-0.928,3.564-2.061,3.564c-1.143,0-2.061-1.597-2.061-3.564s0.918-3.564,2.061-3.564
	C32.511,37.443,33.438,39.04,33.438,41.008z"/>
<path fill="#646464" stroke="#646464" stroke-width="2.268" stroke-linejoin="round" d="M32.755,59.523c0,0-1.885,3.589-6.348,4.702
	c-2.5,0.625-4.746,0.835-8.057-1.304c-5.068-3.271-5.85-10.728-5.85-10.728s1.23,3.271,4.512,5.552
	c3.721,2.588,7.217,2.715,7.734,2.715C29.269,60.461,28.341,60.617,32.755,59.523z"/>
<path fill="none" stroke="#646464" stroke-width="4.252" d="M3.185,32.932c-4.844-12.5,8.506-31.719,8.506-31.719"/>
<path fill="none" stroke="#646464" stroke-width="4.252" d="M43.37,44.831c0,18.789-6.191,30.972-20.078,30.972
	c-13.896,0-20.908-16.509-19.766-35.527"/>
<ellipse fill="#646464" cx="14.503" cy="40.9" rx="2.656" ry="4.219"/>
<ellipse fill="#646464" cx="31.378" cy="40.9" rx="2.656" ry="4.219"/>
</svg>
