<?xml version="1.0" encoding="utf-8"?>
<!-- Generator: Adobe Illustrator 13.0.0, SVG Export Plug-In . SVG Version: 6.00 Build 14948)  -->
<!DOCTYPE svg PUBLIC "-//W3C//DTD SVG 1.1//EN" "http://www.w3.org/Graphics/SVG/1.1/DTD/svg11.dtd" [
	<!ENTITY ns_flows "http://ns.adobe.com/Flows/1.0/">
	<!ENTITY ns_extend "http://ns.adobe.com/Extensibility/1.0/">
	<!ENTITY ns_ai "http://ns.adobe.com/AdobeIllustrator/10.0/">
	<!ENTITY ns_graphs "http://ns.adobe.com/Graphs/1.0/">
]>
<svg version="1.1" id="Layer_1" xmlns:x="&ns_extend;" xmlns:i="&ns_ai;" xmlns:graph="&ns_graphs;"
	 xmlns="http://www.w3.org/2000/svg" xmlns:xlink="http://www.w3.org/1999/xlink" xmlns:a="http://ns.adobe.com/AdobeSVGViewerExtensions/3.0/"
	 x="0px" y="0px" width="58px" height="256px" viewBox="-0.222 -0.294 58 256" enable-background="new -0.222 -0.294 58 256"
	 xml:space="preserve">
<path fill="#0F76B8" d="M28.292,0C12.643,0.028-0.025,12.736,0,28.393c0.033,15.661,12.75,28.331,28.396,28.3
	c15.659-0.032,28.327-12.742,28.297-28.399C56.664,12.634,43.945-0.036,28.292,0z M28.387,49.602
	c-11.743,0.025-21.273-9.478-21.299-21.22c-0.02-11.738,9.476-21.272,21.215-21.3c11.745-0.016,21.278,9.481,21.304,21.223
	C49.628,40.042,40.128,49.583,28.387,49.602z"/>
<line fill="none" stroke="#0F76B8" stroke-width="5.6689" x1="28.287" y1="56.692" x2="28.406" y2="127.558"/>
<path fill="none" d="M28.533,255.104c15.648-0.027,28.318-12.735,28.292-28.393c-0.033-15.661-12.75-28.331-28.396-28.3
	c-15.658,0.032-28.326,12.741-28.297,28.399C0.161,242.471,12.879,255.141,28.533,255.104z M28.438,205.503
	c11.744-0.024,21.272,9.478,21.298,21.22c0.02,11.737-9.477,21.271-21.215,21.299c-11.745,0.017-21.278-9.48-21.304-21.223
	C7.197,215.063,16.697,205.521,28.438,205.503z"/>
<line fill="none" x1="28.539" y1="198.412" x2="28.419" y2="127.546"/>
</svg>
