<?xml version="1.0" encoding="iso-8859-1"?>
<!-- Generator: Adobe Illustrator 13.0.0, SVG Export Plug-In . SVG Version: 6.00 Build 14948)  -->
<!DOCTYPE svg PUBLIC "-//W3C//DTD SVG 1.1//EN" "http://www.w3.org/Graphics/SVG/1.1/DTD/svg11.dtd">
<svg version="1.1" id="Layer_1" xmlns="http://www.w3.org/2000/svg" xmlns:xlink="http://www.w3.org/1999/xlink" x="0px" y="0px"
	 width="9.375px" height="9.916px" viewBox="0 0 9.375 9.916" style="enable-background:new 0 0 9.375 9.916;" xml:space="preserve"
	>
<polygon style="fill:#F9CBDF;stroke:#EC008C;stroke-width:0.5669;" points="4.687,1.403 5.651,4.318 8.585,4.381 6.246,6.245 
	7.096,9.198 4.687,7.437 2.278,9.198 3.128,6.245 0.79,4.381 3.723,4.318 "/>
<g>
	<path style="fill-rule:evenodd;clip-rule:evenodd;" d="M4.953,0v1.418h1.417v0.531H4.953V3.92l0.045,0.004L5.146,3.96l0.148,0.045
		L5.43,4.072l0.139,0.072L5.695,4.23l0.117,0.099l0.113,0.108l0.099,0.116l0.091,0.131l0.076,0.135l0.063,0.14l0.049,0.145
		l0.037,0.152l0.021,0.148l0.01,0.158V5.58l-0.01,0.157L6.343,5.886L6.308,6.039L6.263,6.188L6.195,6.322l-0.072,0.14L6.038,6.588
		L5.939,6.705L5.831,6.817l-0.117,0.1l-0.13,0.09L5.448,7.083l-0.14,0.063L5.165,7.195L5.012,7.231L4.863,7.254L4.706,7.263H4.688
		L4.53,7.254L4.381,7.236L4.229,7.2L4.08,7.155L3.945,7.088l-0.14-0.072L3.68,6.931l-0.117-0.1L3.45,6.724L3.351,6.606l-0.09-0.131
		L3.185,6.341l-0.063-0.14L3.072,6.053L3.036,5.904L3.014,5.756L3.004,5.599V5.58l0.009-0.157L3.032,5.27l0.036-0.148l0.045-0.148
		L3.18,4.838l0.072-0.14l0.085-0.126l0.099-0.117l0.108-0.112l0.117-0.099l0.13-0.091l0.135-0.076l0.139-0.063l0.148-0.05
		l0.149-0.036L4.422,3.92V1.949H3.004V1.418h1.417V0H4.953z M3.536,5.58l0.009,0.126l0.018,0.131l0.036,0.117l0.049,0.121
		l0.059,0.112l0.072,0.104l0.086,0.1l0.099,0.081l0.099,0.076L4.174,6.61l0.117,0.05L4.413,6.7l0.126,0.023l0.126,0.009h0.022
		l0.126-0.009l0.13-0.019l0.117-0.036L5.183,6.62l0.112-0.059l0.104-0.072l0.099-0.086l0.081-0.099l0.077-0.099l0.063-0.113
		l0.049-0.116l0.041-0.122l0.022-0.126l0.009-0.126V5.58L5.831,5.454L5.812,5.323L5.777,5.207L5.732,5.085L5.668,4.973L5.597,4.869
		L5.511,4.771L5.412,4.689L5.313,4.612L5.201,4.55L5.083,4.5L4.962,4.46L4.836,4.438L4.71,4.428H4.688l-0.126,0.01l-0.13,0.018
		L4.314,4.491L4.192,4.536L4.08,4.6L3.977,4.671L3.877,4.757L3.796,4.855l-0.076,0.1L3.657,5.067l-0.05,0.117L3.567,5.306
		L3.544,5.432L3.536,5.558V5.58z"/>
</g>
</svg>
