<?xml version="1.0" encoding="utf-8"?>
<!-- Generator: Adobe Illustrator 13.0.0, SVG Export Plug-In . SVG Version: 6.00 Build 14948)  -->
<!DOCTYPE svg PUBLIC "-//W3C//DTD SVG 1.1//EN" "http://www.w3.org/Graphics/SVG/1.1/DTD/svg11.dtd">
<svg version="1.1" id="Layer_1" xmlns="http://www.w3.org/2000/svg" xmlns:xlink="http://www.w3.org/1999/xlink" x="0px" y="0px"
	 width="3.104px" height="23.26px" viewBox="0 0 3.104 23.26" enable-background="new 0 0 3.104 23.26" xml:space="preserve">
<polygon fill="#CB5743" points="1.55,23.26 1.86,23.22 2.15,23.13 2.41,22.979 2.64,22.8 2.83,22.56 2.98,22.31 3.07,22.021 
	3.1,21.7 3.07,21.39 2.98,21.101 2.83,20.84 2.64,20.61 2.41,20.42 2.15,20.28 1.86,20.181 1.55,20.149 1.23,20.181 0.94,20.28 
	0.68,20.42 0.45,20.61 0.26,20.84 0.12,21.101 0.03,21.39 0,21.7 0.03,22.021 0.12,22.31 0.26,22.56 0.45,22.8 0.68,22.979 
	0.94,23.13 1.23,23.22 "/>
<line fill="none" stroke="#CB5743" stroke-width="0.3" x1="1.55" y1="11.65" x2="1.55" y2="21.659"/>
<polygon fill="#CB5743" points="1.55,23.26 1.86,23.22 2.15,23.13 2.41,22.979 2.64,22.8 2.83,22.56 2.98,22.31 3.07,22.021 
	3.1,21.7 3.07,21.39 2.98,21.101 2.83,20.84 2.64,20.61 2.41,20.42 2.15,20.28 1.86,20.181 1.55,20.149 1.23,20.181 0.94,20.28 
	0.68,20.42 0.45,20.61 0.26,20.84 0.12,21.101 0.03,21.39 0,21.7 0.03,22.021 0.12,22.31 0.26,22.56 0.45,22.8 0.68,22.979 
	0.94,23.13 1.23,23.22 "/>
<line fill="none" stroke="#CB5743" stroke-width="0.3" x1="1.55" y1="11.65" x2="1.55" y2="21.659"/>
<polygon fill="none" points="1.557,0.011 1.248,0.051 0.958,0.141 0.698,0.291 0.467,0.471 0.278,0.711 0.127,0.961 0.038,1.25 
	0.007,1.57 0.038,1.881 0.127,2.171 0.278,2.431 0.467,2.66 0.698,2.851 0.958,2.99 1.248,3.091 1.557,3.121 1.877,3.091 
	2.167,2.99 2.428,2.851 2.658,2.66 2.848,2.431 2.987,2.171 3.078,1.881 3.108,1.57 3.078,1.25 2.987,0.961 2.848,0.711 
	2.658,0.471 2.428,0.291 2.167,0.141 1.877,0.051 "/>
<line fill="none" x1="1.557" y1="11.62" x2="1.557" y2="1.611"/>
</svg>
