<?xml version="1.0" encoding="utf-8"?>
<!-- Generator: Adobe Illustrator 13.0.0, SVG Export Plug-In . SVG Version: 6.00 Build 14948)  -->
<!DOCTYPE svg PUBLIC "-//W3C//DTD SVG 1.1//EN" "http://www.w3.org/Graphics/SVG/1.1/DTD/svg11.dtd">
<svg version="1.1" id="Layer_1" xmlns="http://www.w3.org/2000/svg" xmlns:xlink="http://www.w3.org/1999/xlink" x="0px" y="0px"
	 width="4.57px" height="30.83px" viewBox="0 0 4.57 30.83" enable-background="new 0 0 4.57 30.83" xml:space="preserve">
<polyline fill="none" stroke="#a3a3a3" stroke-width="0.5" points="2.28,30.58 2.49,30.57 2.69,30.54 3.08,30.42 3.42,30.24 
	3.721,29.99 3.971,29.689 4.16,29.34 4.28,28.96 4.311,28.76 4.32,28.551 4.311,28.34 4.28,28.141 4.16,27.76 3.971,27.41 
	3.721,27.109 3.42,26.859 3.08,26.67 2.69,26.561 2.49,26.52 2.28,26.51 2.07,26.52 1.871,26.561 1.49,26.67 1.141,26.859 
	0.84,27.109 0.59,27.41 0.41,27.76 0.291,28.141 0.26,28.34 0.25,28.551 0.26,28.76 0.291,28.96 0.41,29.34 0.59,29.689 0.84,29.99 
	1.141,30.24 1.49,30.42 1.871,30.54 2.07,30.57 2.28,30.58 "/>
<line fill="none" stroke="#a3a3a3" stroke-width="0.3" x1="2.32" y1="15.18" x2="2.32" y2="26.551"/>
<polyline fill="none" points="2.375,0 2.165,0.01 1.965,0.04 1.575,0.16 1.235,0.34 0.935,0.59 0.685,0.891 0.495,1.24 0.375,1.62 
	0.345,1.82 0.335,2.029 0.345,2.24 0.375,2.439 0.495,2.82 0.685,3.17 0.935,3.471 1.235,3.721 1.575,3.91 1.965,4.02 2.165,4.061 
	2.375,4.07 2.585,4.061 2.785,4.02 3.165,3.91 3.515,3.721 3.815,3.471 4.065,3.17 4.245,2.82 4.365,2.439 4.396,2.24 4.405,2.029 
	4.396,1.82 4.365,1.62 4.245,1.24 4.065,0.891 3.815,0.59 3.515,0.34 3.165,0.16 2.785,0.04 2.585,0.01 2.375,0 "/>
<line fill="none" x1="2.335" y1="15.399" x2="2.335" y2="4.029"/>
</svg>
