<?xml version="1.0" encoding="iso-8859-1"?>
<!-- Generator: Adobe Illustrator 13.0.0, SVG Export Plug-In . SVG Version: 6.00 Build 14948)  -->
<!DOCTYPE svg PUBLIC "-//W3C//DTD SVG 1.1//EN" "http://www.w3.org/Graphics/SVG/1.1/DTD/svg11.dtd">
<svg version="1.1" id="Layer_1" xmlns="http://www.w3.org/2000/svg" xmlns:xlink="http://www.w3.org/1999/xlink" x="0px" y="0px"
	 width="3.013px" height="9.798px" viewBox="0 0 3.013 9.798" style="enable-background:new 0 0 3.013 9.798;" xml:space="preserve"
	>
<g>
	<path style="fill-rule:evenodd;clip-rule:evenodd;" d="M0.571,4.37v0.936v0.936h1.873V5.306V4.37H0.571z M2.38,0.022l0.071,0.05
		l0.109,0.094l0.098,0.112l0.086,0.117l0.081,0.122l0.063,0.13l0.049,0.135l0.037,0.144l0.021,0.145L3.01,1.215v0.027v0.005L3,1.391
		L2.979,1.534L2.942,1.679L2.897,1.817L2.834,1.948L2.758,2.069L2.672,2.191L2.579,2.3L2.47,2.398L2.354,2.483L2.227,2.565
		L2.096,2.628l-0.135,0.05l-0.139,0.04l-0.05,0.005v1.079H3.01v1.504v1.502H0.004V5.306V3.802h1.237V2.723L1.21,2.718l-0.14-0.035
		l-0.14-0.045l-0.13-0.063L0.674,2.502L0.557,2.417l-0.107-0.1L0.351,2.21l-0.09-0.117L0.185,1.966l-0.063-0.13l-0.05-0.135
		l-0.041-0.14L0.009,1.417L0,1.269V1.247V1.242l0.009-0.144L0.027,0.95l0.036-0.14l0.045-0.14l0.067-0.13l0.072-0.122l0.085-0.122
		l0.094-0.108L0.54,0.09l0.072-0.058L0.608,0.036L0.512,0.135l-0.09,0.108L0.355,0.355L0.292,0.481l-0.05,0.126l-0.036,0.13
		L0.189,0.873L0.18,1.013v0.004V1.04l0.014,0.135L0.211,1.31L0.252,1.44l0.049,0.125l0.063,0.122l0.077,0.117l0.085,0.104l0.1,0.095
		l0.107,0.09l0.113,0.072l0.125,0.063l0.127,0.045l0.131,0.036l0.135,0.022l0.139,0.004H1.53l0.135-0.008l0.135-0.023L1.93,2.269
		l0.126-0.05l0.122-0.067l0.117-0.072l0.104-0.09l0.094-0.1l0.09-0.107l0.072-0.113l0.063-0.121l0.045-0.131l0.037-0.13l0.021-0.136
		l0.005-0.135V1.013V0.985L2.817,0.851L2.794,0.715l-0.036-0.13L2.709,0.459L2.641,0.337L2.569,0.221l-0.09-0.104L2.38,0.022z
		 M0.657,0L0.612,0.032L0.657,0z"/>
</g>
<rect x="0.007" y="6.792" style="fill-rule:evenodd;clip-rule:evenodd;fill:none;" width="3.006" height="3.006"/>
</svg>
