<?xml version="1.0" encoding="UTF-8" standalone="no"?>
<!-- Generator: Adobe Illustrator 13.0.0, SVG Export Plug-In . SVG Version: 6.00 Build 14948)  -->
<svg
   xmlns:dc="http://purl.org/dc/elements/1.1/"
   xmlns:cc="http://creativecommons.org/ns#"
   xmlns:rdf="http://www.w3.org/1999/02/22-rdf-syntax-ns#"
   xmlns:svg="http://www.w3.org/2000/svg"
   xmlns="http://www.w3.org/2000/svg"
   xmlns:sodipodi="http://sodipodi.sourceforge.net/DTD/sodipodi-0.dtd"
   xmlns:inkscape="http://www.inkscape.org/namespaces/inkscape"
   version="1.1"
   id="Layer_1"
   x="0px"
   y="0px"
   width="9.176px"
   height="9.137px"
   viewBox="0 0 9.176 9.137"
   style="enable-background:new 0 0 9.176 9.137;"
   xml:space="preserve"
   inkscape:version="0.46"
   sodipodi:docname="olienne.svg"
   sodipodi:version="0.32"
   inkscape:output_extension="org.inkscape.output.svg.inkscape"><metadata
   id="metadata27"><rdf:RDF><cc:Work
       rdf:about=""><dc:format>image/svg+xml</dc:format><dc:type
         rdf:resource="http://purl.org/dc/dcmitype/StillImage" /><dc:title /></cc:Work></rdf:RDF></metadata><defs
   id="defs25"><inkscape:perspective
     sodipodi:type="inkscape:persp3d"
     inkscape:vp_x="0 : 4.5685 : 1"
     inkscape:vp_y="0 : 1000 : 0"
     inkscape:vp_z="9.1759996 : 4.5685 : 1"
     inkscape:persp3d-origin="4.5879998 : 3.0456667 : 1"
     id="perspective16" /></defs><sodipodi:namedview
   pagecolor="#ffffff"
   bordercolor="#666666"
   borderopacity="1"
   objecttolerance="10"
   gridtolerance="10"
   guidetolerance="10"
   inkscape:pageopacity="0"
   inkscape:pageshadow="2"
   inkscape:window-width="640"
   inkscape:window-height="480"
   id="namedview23"
   showgrid="false"
   inkscape:zoom="31.848528"
   inkscape:cx="4.5879998"
   inkscape:cy="4.5685"
   inkscape:window-x="0"
   inkscape:window-y="0"
   inkscape:window-maximized="0"
   inkscape:current-layer="Layer_1" />
<circle
   style="fill:#0c0c0c;fill-opacity:1"
   cx="4.726"
   cy="4.554"
   r="0.426"
   id="circle3" />
<path
   style="fill:#0c0c0c;fill-opacity:1"
   d="M8.584,2.296L8.009,1.514C7.962,1.45,7.884,1.449,7.82,1.495C7.757,1.542,7.754,1.644,7.8,1.706  l0.538,0.731c0.646,1.12,0.73,2.46,0.234,3.673c-0.03,0.072,0.006,0.156,0.077,0.185c0.072,0.03,0.156-0.006,0.185-0.077  C9.364,4.923,9.273,3.493,8.584,2.296z"
   id="path5" />
<path
   style="fill:#0c0c0c;fill-opacity:1"
   d="M7.619,5.518c0.233-0.825,0.119-1.731-0.314-2.483L7.057,2.667c-0.043-0.065-0.125-0.074-0.19-0.031  C6.801,2.68,6.79,2.775,6.833,2.841l0.226,0.335C7.461,3.872,7.563,4.677,7.346,5.44C7.324,5.516,7.368,5.594,7.443,5.615  C7.52,5.637,7.598,5.593,7.619,5.518z"
   id="path7" />
<path
   style="fill:#F5F4E2;"
   d="M4.131,3.3c0.033-0.019,0.058-0.049,0.094-0.063C4.177,3.255,4.152,3.272,4.131,3.3z"
   id="path9" />
<path
   style="fill:#0c0c0c;fill-opacity:1"
   d="M6.102,4.792c0.02-0.106,0.043-0.238,0.043-0.238S6.018,4.165,5.949,3.957  C5.993,3.821,6.99,0.729,6.99,0.729C7,0.701,7.004,0.672,7.004,0.644c0-0.113-0.066-0.218-0.176-0.263L5.953,0.021  C5.813-0.036,5.654,0.025,5.59,0.162L4.117,3.309C4.123,3.306,4.127,3.302,4.131,3.3c0.021-0.027,0.046-0.045,0.094-0.063  C4.188,3.251,4.164,3.281,4.131,3.3c-0.009,0.012-0.019,0.02-0.027,0.04l0.014-0.031C3.919,3.422,3.76,3.593,3.625,3.786  c-0.08,0.016-3.397,0.688-3.397,0.688C0.094,4.502,0,4.619,0,4.752c0,0.014,0.001,0.026,0.003,0.04l0.141,0.984  c0.021,0.15,0.158,0.257,0.309,0.242c0,0,3.45-0.342,3.514-0.348C4.13,5.781,4.309,5.854,4.502,5.89  c0.021,0.021,2.468,2.56,2.468,2.56c0.104,0.108,0.274,0.116,0.388,0.02l0.75-0.641c0.066-0.057,0.1-0.136,0.1-0.216  c0-0.061-0.02-0.122-0.059-0.174C8.148,7.438,6.247,4.98,6.102,4.792z M7.192,7.864C6.876,7.535,4.9,5.485,4.9,5.485  C4.848,5.432,4.777,5.4,4.703,5.398C4.502,5.393,4.314,5.315,4.162,5.177c-0.06-0.055-0.14-0.082-0.22-0.074  c0,0-2.815,0.279-3.276,0.325c-0.025-0.179-0.039-0.273-0.064-0.45c0.447-0.092,3.176-0.645,3.176-0.645  C3.864,4.315,3.938,4.26,3.977,4.182c0.096-0.193,0.256-0.341,0.45-0.415C4.496,3.74,4.59,3.638,4.621,3.571  c0,0,1.173-2.508,1.367-2.923C6.144,0.713,6.217,0.743,6.37,0.806C6.232,1.231,5.387,3.854,5.387,3.854  C5.383,3.866,5.381,3.882,5.381,3.899c0,0.063,0.023,0.152,0.039,0.199l0.158,0.455L5.536,4.753  C5.531,4.779,5.527,4.812,5.527,4.847c0,0.07,0.014,0.146,0.047,0.19c0,0,1.68,2.172,1.96,2.535  C7.398,7.688,7.327,7.749,7.192,7.864z"
   id="path11" />
<path
   d="M4.131,3.3C4.127,3.302,4.123,3.306,4.117,3.309L4.104,3.34C4.112,3.319,4.122,3.312,4.131,3.3z"
   id="path13" />
<path
   style="fill:#0c0c0c;fill-opacity:1"
   d="M0.735,3.181L0.893,2.76L1.1,2.351c0.326-0.565,0.77-1.033,1.315-1.391  c0.52-0.34,1.124-0.564,1.749-0.648C4.242,0.3,4.296,0.229,4.285,0.151C4.275,0.073,4.203,0.02,4.126,0.03  C3.46,0.12,2.814,0.36,2.26,0.723C1.676,1.104,1.203,1.604,0.854,2.209L0.633,2.646c0,0.001-0.168,0.45-0.168,0.45  C0.438,3.169,0.476,3.243,0.55,3.271C0.624,3.298,0.706,3.256,0.735,3.181z"
   id="path15" />
<path
   style="fill:#0c0c0c;fill-opacity:1"
   d="M4.128,1.432C3.282,1.646,2.574,2.184,2.134,2.947L1.939,3.343c0.004-0.01,0.016-0.013,0.021-0.021  c-0.012,0.021-0.026,0.04-0.026,0.065c0,0.079,0.063,0.142,0.142,0.142c0.063,0,0.107-0.045,0.126-0.102  C2.199,3.435,2.205,3.443,2.201,3.452l0.178-0.363c0.402-0.696,1.048-1.188,1.818-1.383C4.273,1.687,4.319,1.61,4.3,1.534  C4.281,1.458,4.203,1.412,4.128,1.432z"
   id="path17" />
<path
   style="fill:#0c0c0c;fill-opacity:1"
   d="M5.594,8.755l-0.9,0.099c-1.293,0-2.494-0.595-3.299-1.633C1.347,7.159,1.258,7.147,1.195,7.195  C1.134,7.243,1.123,7.332,1.171,7.395c0.857,1.107,2.142,1.742,3.522,1.742l0.962-0.104c0.078-0.009,0.119-0.076,0.11-0.154  C5.758,8.801,5.672,8.747,5.594,8.755z"
   id="path19" />
<path
   style="fill:#0c0c0c;fill-opacity:1"
   d="M2.383,6.692C2.991,7.316,3.812,7.66,4.693,7.66l0.439-0.028C5.09,7.635,5.25,7.559,5.25,7.48  S5.186,7.339,5.107,7.339c-0.012,0-0.02,0.01-0.031,0.013L4.693,7.377c-0.805,0-1.553-0.313-2.107-0.882  c-0.055-0.057-0.145-0.058-0.2-0.003S2.328,6.637,2.383,6.692z"
   id="path21" />
</svg>