<?xml version="1.0" encoding="UTF-8" standalone="no"?>
<!-- Generator: Adobe Illustrator 13.0.0, SVG Export Plug-In . SVG Version: 6.00 Build 14948)  -->

<svg
   xmlns:dc="http://purl.org/dc/elements/1.1/"
   xmlns:cc="http://creativecommons.org/ns#"
   xmlns:rdf="http://www.w3.org/1999/02/22-rdf-syntax-ns#"
   xmlns:svg="http://www.w3.org/2000/svg"
   xmlns="http://www.w3.org/2000/svg"
   xmlns:xlink="http://www.w3.org/1999/xlink"
   xmlns:sodipodi="http://sodipodi.sourceforge.net/DTD/sodipodi-0.dtd"
   xmlns:inkscape="http://www.inkscape.org/namespaces/inkscape"
   version="1.1"
   id="Layer_1"
   x="0px"
   y="0px"
   width="29.82"
   height="28.000999"
   viewBox="0 0 29.82 28.000999"
   xml:space="preserve"
   inkscape:version="0.48.0 r9654"
   sodipodi:docname="Pointdevuemultiple.svg"><metadata
   id="metadata3140"><rdf:RDF><cc:Work
       rdf:about=""><dc:format>image/svg+xml</dc:format><dc:type
         rdf:resource="http://purl.org/dc/dcmitype/StillImage" /></cc:Work></rdf:RDF></metadata><defs
   id="defs3138" /><sodipodi:namedview
   pagecolor="#ffffff"
   bordercolor="#666666"
   borderopacity="1"
   objecttolerance="10"
   gridtolerance="10"
   guidetolerance="10"
   inkscape:pageopacity="0"
   inkscape:pageshadow="2"
   inkscape:window-width="640"
   inkscape:window-height="480"
   id="namedview3136"
   showgrid="false"
   fit-margin-top="0"
   fit-margin-left="0"
   fit-margin-right="0"
   fit-margin-bottom="0"
   inkscape:zoom="2.7534259"
   inkscape:cx="16.05"
   inkscape:cy="12.5855"
   inkscape:window-x="353"
   inkscape:window-y="237"
   inkscape:window-maximized="0"
   inkscape:current-layer="Layer_1" />
<g
   id="g3096"
   transform="translate(-32.43,-31.980001)">
	<g
   id="g3098">
		<defs
   id="defs3100">
			<polyline
   id="SVGID_1_"
   points="0,0 0,8.62 0,17.23 0,25.85 0,34.47 0,43.09 0,51.699 0,60.32 0,68.939 0,77.561 0,86.17      0,94.791 8.8,94.791 17.61,94.791 26.41,94.791 35.21,94.791 44.01,94.791 52.82,94.791 61.62,94.791 70.42,94.791 79.23,94.791      88.03,94.791 96.83,94.791 96.83,86.17 96.83,77.561 96.83,68.939 96.83,60.32 96.83,51.699 96.83,43.09 96.83,34.47      96.83,25.85 96.83,17.23 96.83,8.62 96.83,0 88.03,0 79.23,0 70.42,0 61.62,0 52.82,0 44.01,0 35.21,0 26.41,0 17.61,0 8.8,0      0,0    " />
		</defs>
		<defs
   id="defs3103">
			<rect
   id="SVGID_2_"
   width="96.959999"
   height="94.560997"
   x="0"
   y="0" />
		</defs>
		<clipPath
   id="SVGID_3_">
			<use
   xlink:href="#SVGID_1_"
   style="overflow:visible"
   id="use3107"
   x="0"
   y="0"
   width="96.959999"
   height="94.791" />
		</clipPath>
		<clipPath
   id="SVGID_4_">
			<use
   xlink:href="#SVGID_2_"
   style="overflow:visible"
   id="use3110"
   x="0"
   y="0"
   width="96.959999"
   height="94.791" />
		</clipPath>
		<polygon
   points="47.63,31.98 46.72,32.89 46.72,32.89 47.4,45.13 48.19,33.11 "
   id="polygon3112"
   clip-path="url(#SVGID_4_)" />
		<polygon
   points="34.36,56.24 35.61,56.359 35.61,56.359 45.13,48.65 34.93,55.109 "
   id="polygon3114"
   clip-path="url(#SVGID_4_)" />
		<polygon
   points="39.12,59.98 40.26,59.641 40.26,59.641 45.7,48.53 39.12,58.74 "
   id="polygon3116"
   clip-path="url(#SVGID_4_)" />
		<polygon
   points="32.43,51.029 33.45,51.711 33.45,51.711 45.24,48.19 33.34,50.23 "
   id="polygon3118"
   clip-path="url(#SVGID_4_)" />
		<polygon
   points="60.32,55.561 59.98,54.32 59.98,54.32 49.33,48.31 59.08,55.449 "
   id="polygon3120"
   clip-path="url(#SVGID_4_)" />
		<polygon
   points="62.25,50.689 61.46,49.67 61.46,49.67 49.33,47.97 61.01,51.029 "
   id="polygon3122"
   clip-path="url(#SVGID_4_)" />
		<polygon
   points="56.811,59.08 57.04,57.83 57.04,57.83 48.99,48.53 55.681,58.51 "
   id="polygon3124"
   clip-path="url(#SVGID_4_)" />
		<polygon
   points="42.64,32.66 42.07,33.79 42.07,33.79 46.49,45.24 43.54,33.57 "
   id="polygon3126"
   clip-path="url(#SVGID_4_)" />
		<polygon
   points="52.61,32.89 51.48,33.45 51.48,33.45 48.08,45.24 52.73,34.13 "
   id="polygon3128"
   clip-path="url(#SVGID_4_)" />
		<polygon
   points="44.99,47.58 45.07,47.79 45.16,48 45.28,48.2 45.42,48.4 45.58,48.59 45.75,48.76 45.94,48.91 46.13,49.041 46.33,49.141 46.54,49.221 46.76,49.279 46.99,49.311 47.23,49.33 47.46,49.311 47.69,49.279 47.92,49.221 48.13,49.141 48.34,49.041 48.54,48.91 48.74,48.76 48.93,48.59 49.1,48.4 49.25,48.2 49.38,48 49.48,47.79 49.56,47.58 49.62,47.35 49.65,47.12 49.67,46.89 49.65,46.65 49.62,46.42 49.56,46.2 49.48,45.99 49.38,45.79 49.25,45.6 49.1,45.41 48.93,45.24 48.74,45.08 48.54,44.94 48.34,44.82 48.13,44.73 47.92,44.65 47.69,44.6 47.46,44.57 47.23,44.56 46.99,44.57 46.76,44.6 46.54,44.65 46.33,44.73 46.13,44.82 45.94,44.94 45.75,45.08 45.58,45.24 45.42,45.41 45.28,45.6 45.16,45.79 45.07,45.99 44.99,46.2 44.94,46.42 44.91,46.65 44.9,46.89 44.9,46.89 44.91,47.12 44.94,47.35 "
   id="polygon3130"
   clip-path="url(#SVGID_4_)" />
		
			<path
   style="fill:none;stroke:#0c0c0c;stroke-width:0.01;stroke-linecap:round;stroke-miterlimit:10"
   d="m 33.45,51.711 11.79,-3.521 -11.9,2.041 -0.91,0.799 1.02,0.681 0,0 z m 23.59,6.119 -8.05,-9.3 6.69,9.979 1.13,0.57 0.23,-1.249 0,0 z m -10.32,-24.94 0.68,12.24 0.79,-12.02 -0.56,-1.13 -0.91,0.91 0,0 z m -6.46,26.751 5.44,-11.11 -6.58,10.21 v 1.24 l 1.14,-0.34 0,0 z m 19.72,-5.321 -10.65,-6.01 9.75,7.139 1.24,0.111 -0.34,-1.24 0,0 z m 1.48,-4.65 -12.13,-1.7 11.68,3.059 1.24,-0.34 -0.79,-1.019 0,0 z m -25.85,6.689 9.52,-7.709 -10.2,6.459 -0.57,1.131 1.25,0.119 0,0 z m 6.46,-22.569 4.42,11.45 -2.95,-11.67 -0.9,-0.91 -0.57,1.13 0,0 z m 9.41,-0.34 -3.4,11.79 4.65,-11.11 -0.12,-1.24 -1.13,0.56 0,0 z m -6.58,13.44 0.01,0.23 0.03,0.23 0.05,0.23 0.08,0.21 0.09,0.21 0.12,0.2 0.14,0.2 0.16,0.19 0.17,0.17 0.19,0.15 0.19,0.131 0.2,0.1 0.21,0.08 0.22,0.059 0.23,0.031 0.24,0.02 0.23,-0.02 0.23,-0.031 0.23,-0.059 0.21,-0.08 0.21,-0.1 0.2,-0.131 0.2,-0.15 0.19,-0.17 0.17,-0.19 0.15,-0.2 0.13,-0.2 0.1,-0.21 0.08,-0.21 0.06,-0.23 0.03,-0.23 0.02,-0.23 -0.02,-0.24 -0.03,-0.23 -0.06,-0.22 -0.08,-0.21 -0.1,-0.2 -0.13,-0.19 -0.15,-0.19 -0.17,-0.17 -0.19,-0.16 -0.2,-0.14 -0.2,-0.12 -0.21,-0.09 -0.21,-0.08 -0.23,-0.05 -0.23,-0.03 -0.23,-0.01 -0.24,0.01 -0.23,0.03 -0.22,0.05 -0.21,0.08 -0.2,0.09 -0.19,0.12 -0.19,0.14 -0.17,0.16 -0.16,0.17 -0.14,0.19 -0.12,0.19 -0.09,0.2 -0.08,0.21 -0.05,0.22 -0.03,0.23 -0.01,0.24 0,0 z"
   id="path3132"
   clip-path="url(#SVGID_4_)"
   inkscape:connector-curvature="0" />
		<path
   style="fill:none;stroke:#0c0c0c;stroke-width:0.01;stroke-miterlimit:10"
   d="m 35.61,56.359 9.52,-7.709 -10.2,6.459 -0.57,1.131 1.25,0.119 m 24.37,-2.039 -10.65,-6.01 9.75,7.139 1.24,0.111 -0.34,-1.24 M 46.72,32.89 47.4,45.13 48.19,33.11 47.63,31.98 46.72,32.89 m -6.46,26.751 5.44,-11.11 -6.58,10.21 v 1.24 l 1.14,-0.34 m -6.81,-7.93 11.79,-3.521 -11.9,2.041 -0.91,0.799 1.02,0.681 m 28.01,-2.041 -12.13,-1.7 11.68,3.059 1.24,-0.34 -0.79,-1.019 m -4.42,8.16 -8.05,-9.3 6.69,9.979 1.13,0.57 0.23,-1.249 m -14.97,-24.04 4.42,11.45 -2.95,-11.67 -0.9,-0.91 -0.57,1.13 m 9.41,-0.34 -3.4,11.79 4.65,-11.11 -0.12,-1.24 -1.13,0.56 m -6.58,13.44 0.01,0.23 0.03,0.23 0.05,0.23 0.08,0.21 0.09,0.21 0.12,0.2 0.14,0.2 0.16,0.19 0.17,0.17 0.19,0.15 0.19,0.131 0.2,0.1 0.21,0.08 0.22,0.059 0.23,0.031 0.24,0.02 0.23,-0.02 0.23,-0.031 0.23,-0.059 0.21,-0.08 0.21,-0.1 0.2,-0.131 0.2,-0.15 0.19,-0.17 0.17,-0.19 0.15,-0.2 0.13,-0.2 0.1,-0.21 0.08,-0.21 0.06,-0.23 0.03,-0.23 0.02,-0.23 -0.02,-0.24 -0.03,-0.23 -0.06,-0.22 -0.08,-0.21 -0.1,-0.2 -0.13,-0.19 -0.15,-0.19 -0.17,-0.17 -0.19,-0.16 -0.2,-0.14 -0.2,-0.12 -0.21,-0.09 -0.21,-0.08 -0.23,-0.05 -0.23,-0.03 -0.23,-0.01 -0.24,0.01 -0.23,0.03 -0.22,0.05 -0.21,0.08 -0.2,0.09 -0.19,0.12 -0.19,0.14 -0.17,0.16 -0.16,0.17 -0.14,0.19 -0.12,0.19 -0.09,0.2 -0.08,0.21 -0.05,0.22 -0.03,0.23 -0.01,0.24"
   id="path3134"
   clip-path="url(#SVGID_4_)"
   inkscape:connector-curvature="0" />
	</g>
</g>
</svg>