<?xml version="1.0" encoding="iso-8859-1"?>
<!-- Generator: Adobe Illustrator 13.0.0, SVG Export Plug-In . SVG Version: 6.00 Build 14948)  -->
<!DOCTYPE svg PUBLIC "-//W3C//DTD SVG 1.1//EN" "http://www.w3.org/Graphics/SVG/1.1/DTD/svg11.dtd">
<svg version="1.1" id="Layer_1" xmlns="http://www.w3.org/2000/svg" xmlns:xlink="http://www.w3.org/1999/xlink" x="0px" y="0px"
	 width="4.428px" height="3.843px" viewBox="0 0 4.428 3.843" style="enable-background:new 0 0 4.428 3.843;" xml:space="preserve"
	>
<g>
	<path style="fill-rule:evenodd;clip-rule:evenodd;" d="M2.214,2.205l0.072,0.009l0.068,0.022l0.063,0.031L2.47,2.313l0.041,0.055
		l0.032,0.067l0.022,0.067l0.004,0.059L2.561,2.632L2.542,2.7L2.506,2.763L2.461,2.816L2.407,2.857L2.34,2.889L2.277,2.911
		L2.214,2.916L2.142,2.907L2.074,2.884L2.011,2.853L1.958,2.808L1.917,2.749L1.885,2.687L1.863,2.619L1.858,2.561l0.009-0.072
		L1.89,2.421l0.031-0.063l0.045-0.054l0.059-0.04l0.063-0.032l0.067-0.022L2.214,2.205z M2.214,0.711l1.602,2.771L0.612,3.487
		L2.214,0.711z M2.214,0l2.214,3.838L0,3.843L2.214,0z"/>
</g>
</svg>
