<?xml version="1.0" encoding="UTF-8" standalone="no"?>
<!-- Generator: Adobe Illustrator 13.0.0, SVG Export Plug-In . SVG Version: 6.00 Build 14948)  -->

<svg
   xmlns:dc="http://purl.org/dc/elements/1.1/"
   xmlns:cc="http://creativecommons.org/ns#"
   xmlns:rdf="http://www.w3.org/1999/02/22-rdf-syntax-ns#"
   xmlns:svg="http://www.w3.org/2000/svg"
   xmlns="http://www.w3.org/2000/svg"
   xmlns:sodipodi="http://sodipodi.sourceforge.net/DTD/sodipodi-0.dtd"
   xmlns:inkscape="http://www.inkscape.org/namespaces/inkscape"
   version="1.1"
   id="Layer_1"
   x="0px"
   y="0px"
   width="3.365"
   height="3.365"
   viewBox="0 0 3.3650001 3.3650001"
   xml:space="preserve"
   inkscape:version="0.48.0 r9654"
   sodipodi:docname="Rservoirgodsique.svg"><metadata
   id="metadata3063"><rdf:RDF><cc:Work
       rdf:about=""><dc:format>image/svg+xml</dc:format><dc:type
         rdf:resource="http://purl.org/dc/dcmitype/StillImage" /></cc:Work></rdf:RDF></metadata><defs
   id="defs3061" /><sodipodi:namedview
   pagecolor="#ffffff"
   bordercolor="#666666"
   borderopacity="1"
   objecttolerance="10"
   gridtolerance="10"
   guidetolerance="10"
   inkscape:pageopacity="0"
   inkscape:pageshadow="2"
   inkscape:window-width="640"
   inkscape:window-height="480"
   id="namedview3059"
   showgrid="false"
   fit-margin-top="0"
   fit-margin-left="0"
   fit-margin-right="0"
   fit-margin-bottom="0"
   inkscape:zoom="77.540108"
   inkscape:cx="1.683"
   inkscape:cy="1.6819999"
   inkscape:window-x="575"
   inkscape:window-y="311"
   inkscape:window-maximized="0"
   inkscape:current-layer="Layer_1" />
<g
   id="g3055">
	<path
   style="fill-rule:evenodd"
   d="M 0.355,0.355 V 3.01 H 3.01 V 0.355 H 0.355 z M 0.355,0 H 3.01 3.365 V 0.355 3.01 3.365 H 3.011 0.355 0 V 3.011 0.355 0 H 0.355 z M 1.683,1.417 1.742,1.427 1.8,1.444 1.854,1.475 1.895,1.525 1.927,1.575 1.945,1.634 1.95,1.683 1.939,1.741 1.921,1.8 1.89,1.854 1.841,1.894 1.791,1.925 1.732,1.944 1.683,1.948 1.625,1.939 1.566,1.922 1.512,1.891 1.471,1.841 1.44,1.791 1.422,1.732 1.418,1.682 1.427,1.623 1.445,1.564 1.477,1.511 1.526,1.47 1.576,1.439 1.635,1.42 1.683,1.417 z"
   id="path3057"
   inkscape:connector-curvature="0" />
</g>
</svg>