<?xml version="1.0" encoding="UTF-8" standalone="no"?>
<!-- Generator: Adobe Illustrator 13.0.0, SVG Export Plug-In . SVG Version: 6.00 Build 14948)  -->
<svg
   xmlns:dc="http://purl.org/dc/elements/1.1/"
   xmlns:cc="http://creativecommons.org/ns#"
   xmlns:rdf="http://www.w3.org/1999/02/22-rdf-syntax-ns#"
   xmlns:svg="http://www.w3.org/2000/svg"
   xmlns="http://www.w3.org/2000/svg"
   xmlns:xlink="http://www.w3.org/1999/xlink"
   xmlns:sodipodi="http://sodipodi.sourceforge.net/DTD/sodipodi-0.dtd"
   xmlns:inkscape="http://www.inkscape.org/namespaces/inkscape"
   version="1.1"
   id="Layer_1"
   x="0px"
   y="0px"
   width="11.94"
   height="12.57"
   viewBox="0 0 11.94 12.57"
   xml:space="preserve"
   inkscape:version="0.46"
   sodipodi:docname="Skidefond.svg"
   sodipodi:version="0.32"
   inkscape:output_extension="org.inkscape.output.svg.inkscape"><metadata
   id="metadata3033"><rdf:RDF><cc:Work
       rdf:about=""><dc:format>image/svg+xml</dc:format><dc:type
         rdf:resource="http://purl.org/dc/dcmitype/StillImage" /></cc:Work></rdf:RDF></metadata><defs
   id="defs3031"><inkscape:perspective
   sodipodi:type="inkscape:persp3d"
   inkscape:vp_x="0 : 6.2849998 : 1"
   inkscape:vp_y="0 : 1000 : 0"
   inkscape:vp_z="11.94 : 6.2849998 : 1"
   inkscape:persp3d-origin="5.9699998 : 4.1899999 : 1"
   id="perspective19" />
	

		<defs
   id="defs3011">
			<polyline
   id="SVGID_1_"
   points="0,0 0,8.62 0,17.23 0,25.85 0,34.47 0,43.09 0,51.699 0,60.32 0,68.939 0,77.561 0,86.17      0,94.791 8.8,94.791 17.61,94.791 26.41,94.791 35.21,94.791 44.01,94.791 52.82,94.791 61.62,94.791 70.42,94.791 79.23,94.791      88.03,94.791 96.83,94.791 96.83,86.17 96.83,77.561 96.83,68.939 96.83,60.32 96.83,51.699 96.83,43.09 96.83,34.47      96.83,25.85 96.83,17.23 96.83,8.62 96.83,0 88.03,0 79.23,0 70.42,0 61.62,0 52.82,0 44.01,0 35.21,0 26.41,0 17.61,0 8.8,0      0,0    " />
		</defs>
		<defs
   id="defs3014">
			<rect
   id="SVGID_2_"
   width="96.959999"
   height="94.560997"
   x="0"
   y="0" />
		</defs>
		<clipPath
   id="SVGID_3_">
			<use
   xlink:href="#SVGID_1_"
   style="overflow:visible"
   id="use3018"
   x="0"
   y="0"
   width="96.959999"
   height="94.791" />
		</clipPath>
		<clipPath
   id="SVGID_4_">
			<use
   xlink:href="#SVGID_2_"
   style="overflow:visible"
   id="use3021"
   x="0"
   y="0"
   width="96.959999"
   height="94.791" />
		</clipPath>
		
		
		
			
	</defs><sodipodi:namedview
   pagecolor="#ffffff"
   bordercolor="#666666"
   borderopacity="1"
   objecttolerance="10"
   gridtolerance="10"
   guidetolerance="10"
   inkscape:pageopacity="0"
   inkscape:pageshadow="2"
   inkscape:window-width="1063"
   inkscape:window-height="667"
   id="namedview3029"
   showgrid="false"
   fit-margin-top="0"
   fit-margin-left="0"
   fit-margin-right="0"
   fit-margin-bottom="0"
   inkscape:zoom="19.794914"
   inkscape:cx="6.0646891"
   inkscape:cy="6.0359217"
   inkscape:window-x="15"
   inkscape:window-y="100"
   inkscape:window-maximized="0"
   inkscape:current-layer="Layer_1" />
<path
   style="fill:#1C62A6;fill-opacity:1"
   d="M 58.53,44.16 L 58.3,44.59 L 57.601,44.89 L 55.531,44.87 L 55.081,44.64 L 55.432,43.8 L 55.612,42.87 L 55.192,42.19 L 54.782,41.68 L 54.282,41.17 L 55.392,39.58 L 56.662,39.59 L 57.372,39.53 L 56.393,43.7 L 56.132,43.66 L 56.082,43.94 L 56.322,43.98 L 56.192,44.51 L 56.471,44.58 L 56.602,44.03 L 56.912,44.08 L 56.962,43.8 L 56.672,43.75 L 57.672,39.5 L 58.012,39.44 L 57.762,39.18 L 57.752,39.18 L 57.832,38.83 L 57.562,38.76 L 57.461,39.17 L 55.821,39.08 L 55.401,38.73 L 54.901,38.56 L 54.141,38.55 L 53.46,38.71 L 52.78,39.29 L 52.27,39.96 L 52.179,40.68 L 49.869,43.13 L 49.659,42.96 L 49.479,43.18 L 49.679,43.34 L 49.319,43.71 L 49.529,43.91 L 49.889,43.52 L 50.089,43.69 L 50.27,43.47 L 50.089,43.32 L 52.48,40.78 L 52.68,40.81 L 52.68,40.56 L 53.19,40.02 L 52.98,39.83 L 52.969,39.84 L 53.199,39.47 L 53.879,39.31 L 53.619,39.98 L 53.18,41.07 L 52.5,41.99 L 51.13,43.33 L 50.71,43.83 L 50.28,44.24 L 50.78,44.76 L 50.93,44.8 L 49.6,44.78 L 49.6,45.21 L 57.681,45.3 L 58.611,44.93 L 58.901,44.36 L 58.53,44.16 M 54.84,43.88 L 54.5,44.85 L 51.25,44.81 L 50.95,44.51 L 50.96,44 L 51.38,43.67 L 51.981,43.34 L 52.401,43.09 L 52.831,42.75 L 53.421,42.26 L 53.852,42.17 L 54.852,43.12 L 54.84,43.88 M 55.61,38.38 L 55.759,38.37 L 55.909,38.33 L 56.039,38.26 L 56.149,38.16 L 56.249,38.05 L 56.319,37.92 L 56.369,37.78 L 56.379,37.62 L 56.369,37.47 L 56.329,37.33 L 56.259,37.2 L 56.169,37.08 L 56.049,36.99 L 55.929,36.92 L 55.78,36.87 L 55.63,36.85 L 55.47,36.87 L 55.33,36.91 L 55.2,36.98 L 55.09,37.07 L 54.99,37.18 L 54.92,37.31 L 54.87,37.46 L 54.85,37.61 L 54.87,37.76 L 54.91,37.91 L 54.98,38.04 L 55.07,38.15 L 55.179,38.25 L 55.31,38.32 L 55.459,38.37 L 55.61,38.38 L 55.61,38.38 L 55.61,38.38 z"
   id="path3023"
   clip-path="url(#SVGID_4_)"
   inkscape:connector-curvature="0"
   transform="translate(-48.09,-34.800001)" /><polygon
   style="fill:#1C62A6;fill-opacity:1"
   points="49.07,35.62 48.9,35.99 48.81,36.25 48.64,36.9 48.49,37.56 48.36,38.21 48.26,38.87 48.18,39.53 48.13,40.19 48.1,40.85 48.09,41.5 48.11,42.16 48.15,42.82 48.21,43.47 48.3,44.13 48.41,44.79 48.54,45.44 48.7,46.09 48.88,46.75 48.93,46.8 49.04,46.86 49.42,46.96 49.94,47.05 50.54,47.13 52.431,47.3 53.04,47.35 53.66,47.37 54.891,47.35 56.12,47.28 57.351,47.19 57.46,47.14 57.55,47.01 57.72,46.65 57.851,46.29 57.91,46.17 57.97,46.12 57.021,46.17 56.07,46.21 55.141,46.22 54.21,46.21 53.28,46.16 52.351,46.08 51.41,45.97 50.47,45.81 49.98,45.74 49.82,45.7 49.69,45.65 49.58,45.57 49.5,45.43 49.41,45.23 49.32,44.94 49.1,44.05 48.93,43.14 48.82,42.22 48.74,41.3 48.71,40.66 48.71,40.03 48.73,39.39 48.78,38.76 48.86,38.13 48.95,37.5 49.2,36.25 52.34,36 53.21,35.95 54.09,35.94 54.96,35.97 55.8,36.05 56.2,36.11 56.58,36.19 56.95,36.29 57.3,36.41 57.63,36.56 57.94,36.73 58.23,36.92 58.48,37.14 58.71,37.39 58.91,37.66 59.07,37.97 59.19,38.31 59.28,38.68 59.33,39.09 59.34,39.54 59.3,40.02 59.34,39.93 59.41,39.81 59.641,39.53 59.87,39.21 59.95,39.05 59.99,38.9 60.03,38.39 60.021,37.93 59.97,37.51 59.87,37.12 59.73,36.78 59.55,36.46 59.34,36.18 59.09,35.93 58.82,35.71 58.51,35.52 58.18,35.36 57.83,35.22 57.45,35.1 57.05,35.01 56.641,34.93 56.22,34.88 55.33,34.81 54.42,34.8 53.5,34.83 52.601,34.89 50.891,35.04 49.47,35.14 49.47,35.14 49.37,35.18 49.27,35.29 49.07,35.62 "
   id="polygon3025"
   clip-path="url(#SVGID_4_)"
   transform="translate(-48.09,-34.800001)" />
</svg>