<?xml version="1.0" encoding="iso-8859-1"?>
<!-- Generator: Adobe Illustrator 13.0.0, SVG Export Plug-In . SVG Version: 6.00 Build 14948)  -->
<!DOCTYPE svg PUBLIC "-//W3C//DTD SVG 1.1//EN" "http://www.w3.org/Graphics/SVG/1.1/DTD/svg11.dtd">
<svg version="1.1" id="Layer_1" xmlns="http://www.w3.org/2000/svg" xmlns:xlink="http://www.w3.org/1999/xlink" x="0px" y="0px"
	 width="12.8px" height="13.219px" viewBox="0 0 12.8 13.219" style="enable-background:new 0 0 12.8 13.219;" xml:space="preserve"
	>
<g>
	<g>
		<path style="fill-rule:evenodd;clip-rule:evenodd;fill:#FFFFFF;" d="M0.33,4.105L0.659,3.58l0.49-0.67
			c3.683-4.976,10.066-2.063,10.066-2.063l0.402,0.546l0.263,0.372l0.306,0.591l0.219,0.503l0.154,0.46l0.087,0.459l0.087,0.48
			L12.8,4.807c0,0,0.137,7.014-6.189,8.412H6.19C-0.137,11.82,0,4.807,0,4.807L0.33,4.105z"/>
	</g>
	<g>
		<path style="fill-rule:evenodd;clip-rule:evenodd;fill:#007A48;" d="M1.729,3.617L0,4.807c0,0-0.137,7.014,6.19,8.412
			c0,0-1.077-0.672-1.68-1.285C3.2,10.6,2.751,9.926,2.246,8.754C1.927,8.01,1.688,7.398,1.62,5.83
			C1.592,5.148,1.729,3.617,1.729,3.617z"/>
		<path style="fill-rule:evenodd;clip-rule:evenodd;fill:#007A48;" d="M11.069,3.617l1.73,1.189c0,0,0.137,7.014-6.189,8.412
			c0,0,1.075-0.672,1.678-1.285c1.311-1.334,1.762-2.008,2.266-3.18c0.32-0.744,0.557-1.355,0.625-2.924
			C11.208,5.148,11.069,3.617,11.069,3.617z"/>
	</g>
	<path style="fill-rule:evenodd;clip-rule:evenodd;fill:#007A48;" d="M11.649,2.832l-0.434-1.985c0,0-6.384-2.912-10.066,2.063
		c0,0,1.025-0.673,1.815-0.956c1.722-0.615,2.511-0.74,3.776-0.715c0.805,0.016,1.454,0.052,2.92,0.616
		C10.298,2.102,11.649,2.832,11.649,2.832z"/>
	<g>
		<g>
			<path style="fill:#007A48;" d="M3.111,4.786c0,0,1.485-2.968,4.87-1.671c1.225,0.469,2.423,2.295,2.308,3.388
				c-0.114,1.091-0.489,3.47-3.386,3.763c-0.994,0.101-3.297-0.089-4.033-1.937C2.515,7.443,2.458,6.099,3.111,4.786"/>
			<path style="fill:#FFFFFF;" d="M5.874,4.042c0.082,0.161,0.144,0.229,0.211,0.293c0.07,0.062,0.338,0.104,0.425,0.119
				c0.088,0.013,0.375,0,0.531-0.063C7.196,4.329,7.396,4.26,7.539,4.143c0.144-0.119,0.269-0.227,0.324-0.326
				c0.056-0.099,0.073-0.404,0.043-0.492C7.876,3.238,7.845,3.076,7.731,3C7.619,2.926,7.427,2.682,7.233,2.633
				C7.041,2.584,6.735,2.52,6.61,2.565C6.485,2.608,6.262,2.688,6.186,2.789c-0.073,0.1-0.188,0.262-0.28,0.299
				C5.591,3.213,5.855,4.005,5.874,4.042z"/>
			<path style="fill:#FFFFFF;" d="M4.97,4.534c0.312-0.024,0.5,0.075,0.748-0.013c0.25-0.086,0.388-0.174,0.388-0.174
				s0.285,0.112,0.536,0.1c0.25-0.012,0.721-0.148,1.047-0.262c0.324-0.113,0.785-0.199,1.135-0.388
				C9.171,3.611,9.472,3.412,9.62,3.312c0,0,0.175-0.138,0.324-0.248c0.15-0.112,0.339-0.375,0.389-0.388
				c0.049-0.012,0.109,0.025,0.073,0.113c-0.037,0.088-0.636,1.109-0.773,1.271S9.046,4.684,8.811,4.834
				c-0.237,0.148-0.397,0.25-0.462,0.412C8.288,5.408,8.138,5.793,8.138,5.955s0.086,0.923,0.086,1.048
				c0,0.126-0.324,0.948-0.434,1.198C7.675,8.449,7.552,9.246,7.353,9.51c-0.201,0.262-0.449,0.485-0.636,0.697
				c-0.188,0.213-0.201,0.338-0.376,0.512c-0.174,0.175-0.323,0.275-0.323,0.275s-0.089,0.098-0.062-0.201
				c0.024-0.299-0.015-0.312,0.123-0.523c0.137-0.211,0.375-0.647,0.5-0.91C6.702,9.098,6.84,8.549,6.892,8.4
				C6.94,8.25,6.965,8.039,6.929,7.938C6.892,7.838,6.915,7.739,6.702,7.926C6.491,8.113,6.553,8.201,6.268,8.351
				C5.98,8.5,4.782,9.111,4.709,9.136C4.634,9.16,4.147,9.311,4.034,9.285c-0.11-0.026-0.1-0.125-0.1-0.125s0.362-0.137,0.524-0.213
				c0.162-0.074,0.81-0.561,1.011-0.759C5.669,7.987,5.905,7.627,6.054,7.4c0.15-0.223,0.238-0.434,0.264-0.572
				c0.023-0.137,0.037-0.174-0.076-0.273C6.13,6.453,5.893,6.404,5.706,6.268c-0.188-0.139-0.91-0.661-1.072-0.924
				c-0.162-0.26-0.361-0.66-0.41-0.761C4.172,4.484,4.085,4.26,4.085,4.26L4.31,4.335C4.31,4.335,4.657,4.559,4.97,4.534z"/>
			<path d="M5.718,3.595c0.002,0.002,0.039,0.03,0.043,0.032c0.05,0.041,0.097,0.016,0.148,0.013c0.08-0.002,0.03-0.058,0.096-0.11
				C6.073,3.474,6.067,3.533,6.1,3.445c0.034-0.086,0.067-0.063,0.071-0.175s-0.02-0.079-0.004-0.161
				c0.017-0.085-0.004-0.059,0.029-0.121c0.035-0.063,0.088-0.109,0.112-0.15s0.05-0.078,0.125-0.115
				C6.508,2.684,6.583,2.66,6.657,2.647c0.076-0.013,0.125-0.009,0.22,0.004c0.097,0.013,0.192,0.032,0.259,0.058
				C7.202,2.735,7.31,2.768,7.39,2.834c0.078,0.067,0.158,0.129,0.219,0.203c0.064,0.076,0.13,0.172,0.158,0.233
				c0.029,0.062,0.068,0.162,0.064,0.238c-0.005,0.073-0.014,0.166-0.039,0.22C7.767,3.781,7.783,3.785,7.71,3.865
				C7.636,3.943,7.53,4.031,7.464,4.076C7.397,4.124,7.306,4.197,7.216,4.238C7.123,4.281,7.099,4.311,7.015,4.348
				C6.933,4.385,6.924,4.381,6.823,4.404C6.724,4.43,6.739,4.43,6.649,4.436C6.56,4.438,6.565,4.438,6.491,4.419
				C6.417,4.396,6.362,4.367,6.362,4.367H6.3c0,0-0.036,0.029,0.033,0.063c0.072,0.035,0.129,0.047,0.175,0.047
				c0.045,0,0.287,0.004,0.416-0.024c0.128-0.03,0.349-0.08,0.445-0.104c0.095-0.025,0.207-0.109,0.282-0.154
				c0.074-0.045,0.154-0.084,0.207-0.146c0.055-0.062,0.143-0.194,0.171-0.271C8.058,3.703,8.042,3.586,8.062,3.5
				c0.023-0.088,0.061-0.092,0.029-0.205C8.062,3.183,8.062,3.121,8.025,3.037C7.986,2.955,7.847,2.805,7.729,2.735
				c-0.117-0.071-0.268-0.134-0.377-0.17C7.243,2.526,7.166,2.465,7.034,2.465c-0.127,0-0.43-0.008-0.506,0.004
				C6.454,2.48,6.329,2.535,6.251,2.578c-0.08,0.041-0.174,0.118-0.233,0.178C5.96,2.813,5.903,2.86,5.852,2.922
				C5.802,2.983,5.798,2.996,5.786,3.06C5.771,3.121,5.777,3.15,5.743,3.172c-0.033,0.02-0.045-0.043-0.07,0.041
				C5.648,3.295,5.607,3.388,5.64,3.453C5.648,3.47,5.667,3.552,5.718,3.595z"/>
			<path d="M7.601,4.268c0,0,0.246-0.179,0.283-0.211c0.037-0.033,0.388-0.158,0.47-0.199c0.082-0.043,0.47-0.238,0.647-0.341
				C9.18,3.412,9.446,3.254,9.567,3.183C9.688,3.113,9.774,3.055,9.862,3c0.086-0.053,0.207-0.115,0.279-0.17
				c0.07-0.054,0.049-0.063,0.106-0.121c0.058-0.058,0.063-0.066,0.104-0.066s0.045-0.008,0.088,0.013
				c0.039,0.021,0.063,0.062,0.046,0.097c-0.017,0.033-0.024,0.062-0.063,0.108c-0.037,0.046-0.14,0.183-0.156,0.22
				c-0.019,0.037-0.076,0.19-0.121,0.256c-0.047,0.068-0.279,0.477-0.299,0.509C9.823,3.878,9.737,4.031,9.681,4.107
				C9.62,4.182,9.551,4.29,9.495,4.344c-0.053,0.053-0.231,0.25-0.301,0.315C9.122,4.725,8.948,4.846,8.868,4.914
				C8.79,4.979,8.641,5.092,8.587,5.137c-0.055,0.045-0.141,0.109-0.18,0.174C8.37,5.379,8.32,5.529,8.308,5.598
				c-0.012,0.07-0.066,0.221-0.071,0.283c-0.004,0.063-0.028,0.22-0.021,0.305c0.008,0.082,0.049,0.547,0.056,0.602
				C8.275,6.842,8.265,7.04,8.265,7.104c0,0.062-0.032,0.24-0.064,0.32C8.167,7.502,8.138,7.582,8.095,7.692
				C8.054,7.805,7.892,8.283,7.872,8.375c-0.021,0.09-0.221,0.619-0.26,0.709c-0.036,0.093-0.198,0.482-0.23,0.547
				C7.347,9.691,7.194,9.913,7.131,9.982c-0.062,0.072-0.336,0.361-0.392,0.417c-0.053,0.054-0.187,0.22-0.228,0.278
				c-0.041,0.058-0.065,0.111-0.146,0.179c-0.078,0.065-0.211,0.158-0.267,0.207c-0.054,0.05-0.136,0.076-0.136,0.076l-0.153-0.104
				c0,0,0.028-0.304,0.045-0.416c0.017-0.113,0.073-0.328,0.149-0.43c0.074-0.098,0.283-0.463,0.313-0.526
				c0.028-0.062,0.19-0.44,0.219-0.583C6.565,8.939,6.665,8.599,6.7,8.453c0.033-0.146,0.066-0.365,0.066-0.365
				S6.601,8.295,6.521,8.359C6.442,8.42,6.114,8.599,5.952,8.67C5.788,8.74,5.341,8.986,5.249,9.027
				C5.158,9.068,4.698,9.289,4.558,9.322c-0.14,0.033-0.439,0.066-0.564,0.041C3.868,9.339,3.774,9.303,3.774,9.303V9.111
				c0,0,0.377-0.164,0.469-0.197c0.091-0.032,0.432-0.213,0.568-0.303C4.985,8.5,5.423,8.1,5.349,8.178
				c-0.004,0.004,0.52-0.637,0.52-0.639c0,0,0.028-0.059,0.133-0.244C6.105,7.107,6.155,6.913,6.163,6.85
				c0.008-0.063,0.008-0.191-0.047-0.224C6.063,6.591,5.997,6.525,5.921,6.514C5.847,6.5,5.49,6.318,5.427,6.279
				C5.365,6.242,4.925,5.877,4.88,5.826c-0.048-0.049-0.453-0.472-0.546-0.66c0,0-0.065,0-0.091-0.037
				C4.219,5.092,4.042,4.76,3.989,4.704C3.935,4.65,3.694,4.285,3.657,4.238C3.62,4.193,3.573,4.072,3.565,4.007
				C3.557,3.939,3.604,3.761,3.604,3.761l0.445-0.065c0,0,0.265,0.324,0.651,0.437c0.387,0.11,0.661,0.183,0.793,0.203
				C5.628,4.355,5.73,4.363,5.811,4.344c0.077-0.021,0.228-0.063,0.228-0.063l0.096,0.107c0,0-0.08,0.059-0.121,0.108
				s-0.02,0.086-0.094,0.108C5.843,4.627,5.568,4.709,5.456,4.709c-0.111,0-0.466-0.025-0.604-0.05c0,0-0.338-0.065-0.39-0.097
				c-0.05-0.028-0.134-0.057-0.134-0.057s0.166,0.303,0.268,0.469c0.098,0.166,0.266,0.416,0.353,0.511
				c0.088,0.097,0.319,0.304,0.412,0.388c0.093,0.082,0.267,0.22,0.382,0.304c0.116,0.082,0.192,0.077,0.27,0.114
				c0.08,0.039,0.167,0.097,0.24,0.173c0.076,0.073,0.125,0.179,0.132,0.269C6.389,6.824,6.35,7.016,6.309,7.115
				S6.11,7.498,6.03,7.618c-0.078,0.121-0.191,0.296-0.283,0.39c-0.09,0.097-0.265,0.283-0.386,0.388s-0.3,0.259-0.437,0.349
				c-0.138,0.092-0.4,0.23-0.482,0.267C4.36,9.048,4.075,9.173,4.075,9.173s0.205,0.024,0.33-0.024
				C4.53,9.098,5.238,8.752,5.349,8.703C5.486,8.64,5.515,8.631,5.515,8.631s0.382-0.189,0.475-0.239c0,0,0.211-0.117,0.264-0.162
				c0.056-0.045,0.234-0.242,0.283-0.291c0.051-0.05,0.146-0.134,0.166-0.149c0.021-0.018,0.154-0.07,0.154-0.07l0.192,0.138
				c0,0,0.021,0.272-0.021,0.41C6.985,8.404,6.961,8.49,6.97,8.545c0.008,0.054,0.012,0.066,0.012,0.066S6.84,8.986,6.795,9.104
				C6.749,9.218,6.665,9.451,6.62,9.574C6.575,9.699,6.417,9.95,6.341,10.059c-0.073,0.107-0.202,0.308-0.219,0.382
				c-0.017,0.075-0.017,0.157-0.033,0.222c-0.016,0.061-0.016,0.143-0.016,0.143s0.053-0.023,0.141-0.118
				c0.086-0.097,0.236-0.32,0.294-0.384c0.058-0.062,0.287-0.32,0.349-0.39C6.92,9.842,7.024,9.747,7.073,9.672
				c0.05-0.074,0.296-0.615,0.337-0.715s0.282-0.744,0.308-0.812C7.742,8.08,7.917,7.547,7.943,7.489
				C7.968,7.432,8.05,7.053,8.058,6.962c0.009-0.093-0.016-0.628-0.016-0.708c0-0.077,0.012-0.314,0.024-0.385
				C8.079,5.797,8.15,5.537,8.179,5.461c0.029-0.074,0.093-0.283,0.134-0.336c0.041-0.054,0.216-0.207,0.315-0.283
				c0.099-0.074,0.328-0.24,0.425-0.313C9.147,4.46,9.381,4.21,9.446,4.124C9.513,4.035,9.683,3.813,9.745,3.72
				s0.21-0.287,0.264-0.38c0.053-0.09,0.105-0.166,0.157-0.239c0.05-0.076,0.095-0.19,0.103-0.207S10.24,2.854,10.24,2.854
				s-0.009,0.009-0.071,0.084c-0.063,0.073-0.141,0.149-0.24,0.242C9.83,3.271,9.592,3.429,9.506,3.479
				C9.417,3.529,9.297,3.615,9.196,3.67C9.098,3.725,8.96,3.796,8.864,3.845c-0.095,0.05-0.35,0.149-0.468,0.194
				C8.275,4.085,7.601,4.268,7.601,4.268z"/>
		</g>
	</g>
</g>
</svg>
