<?xml version="1.0" encoding="UTF-8" standalone="no"?>
<!-- Generator: Adobe Illustrator 13.0.0, SVG Export Plug-In . SVG Version: 6.00 Build 14948)  -->
<svg
   xmlns:dc="http://purl.org/dc/elements/1.1/"
   xmlns:cc="http://creativecommons.org/ns#"
   xmlns:rdf="http://www.w3.org/1999/02/22-rdf-syntax-ns#"
   xmlns:svg="http://www.w3.org/2000/svg"
   xmlns="http://www.w3.org/2000/svg"
   xmlns:sodipodi="http://sodipodi.sourceforge.net/DTD/sodipodi-0.dtd"
   xmlns:inkscape="http://www.inkscape.org/namespaces/inkscape"
   version="1.1"
   id="Layer_1"
   x="0px"
   y="0px"
   width="12.799px"
   height="13.22px"
   viewBox="0 0 12.799 13.22"
   style="enable-background:new 0 0 12.799 13.22;"
   xml:space="preserve"
   sodipodi:version="0.32"
   inkscape:version="0.46"
   sodipodi:docname="Stationbalnaire.svg"
   inkscape:output_extension="org.inkscape.output.svg.inkscape"><metadata
   id="metadata32"><rdf:RDF><cc:Work
       rdf:about=""><dc:format>image/svg+xml</dc:format><dc:type
         rdf:resource="http://purl.org/dc/dcmitype/StillImage" /></cc:Work></rdf:RDF></metadata><defs
   id="defs30"><inkscape:perspective
   sodipodi:type="inkscape:persp3d"
   inkscape:vp_x="0 : 6.6100001 : 1"
   inkscape:vp_y="0 : 1000 : 0"
   inkscape:vp_z="12.799 : 6.6100001 : 1"
   inkscape:persp3d-origin="6.3994999 : 4.4066668 : 1"
   id="perspective34" />
	
	

		
		
		
		
		
			
	
		
		
		
	
			
			
		</defs><sodipodi:namedview
   inkscape:window-height="667"
   inkscape:window-width="953"
   inkscape:pageshadow="2"
   inkscape:pageopacity="0.0"
   guidetolerance="10.0"
   gridtolerance="10.0"
   objecttolerance="10.0"
   borderopacity="1.0"
   bordercolor="#666666"
   pagecolor="#ffffff"
   id="base"
   showgrid="false"
   inkscape:zoom="34.947049"
   inkscape:cx="6.3994999"
   inkscape:cy="6.6100001"
   inkscape:window-x="336"
   inkscape:window-y="225"
   inkscape:current-layer="Layer_1" />
<path
   id="path11"
   d="M 1.729,3.616 L 0,4.806 C 0,4.806 -0.138,11.82 6.189,13.219 C 6.189,13.219 5.113,12.547 4.511,11.934 C 3.2,10.6 2.75,9.925 2.245,8.754 C 1.926,8.01 1.688,7.398 1.62,5.829 C 1.591,5.147 1.729,3.616 1.729,3.616 z"
   style="fill:#767676;fill-rule:evenodd;fill-opacity:1" /><path
   id="path13"
   d="M 11.07,3.616 L 12.799,4.805 C 12.799,4.805 12.936,11.819 6.61,13.218 C 6.61,13.218 7.686,12.546 8.29,11.933 C 9.601,10.599 10.05,9.924 10.554,8.753 C 10.874,8.009 11.113,7.398 11.181,5.828 C 11.208,5.147 11.07,3.616 11.07,3.616 z"
   style="fill:#767676;fill-rule:evenodd;fill-opacity:1" /><path
   style="fill:#767676;fill-rule:evenodd;fill-opacity:1"
   d="M 11.65,2.831 L 11.214,0.847 C 11.214,0.847 4.831,-2.065 1.148,2.91 C 1.148,2.91 2.173,2.238 2.963,1.955 C 4.686,1.34 5.474,1.215 6.741,1.24 C 7.544,1.256 8.194,1.292 9.661,1.855 C 10.298,2.101 11.65,2.831 11.65,2.831 z"
   id="path15" /><polygon
   style="fill:#767676;stroke:#767676;stroke-width:0.24750000000000000;stroke-miterlimit:3.86360001999999980;fill-opacity:1;stroke-opacity:1"
   points="2.304,6.502 10.177,4.2 9.08,3.3 7.691,2.995 6.613,2.785 5.923,2.806 5.433,2.544 5.139,3.139 4.156,3.755 3.278,4.401 2.649,5.353 2.304,6.502 "
   id="polygon19" /><polygon
   style="fill:#767676;stroke:#767676;stroke-width:0.24750000000000000;stroke-miterlimit:3.86360001999999980;fill-opacity:1;stroke-opacity:1"
   points="10.228,4.784 2.627,6.94 2.951,7.38 3.851,7.423 4.529,7.058 4.928,6.494 5.701,6.954 6.494,6.966 7.144,6.705 7.646,6.173 7.699,5.618 8.535,5.87 9.328,5.882 10.041,5.411 10.228,4.784 "
   id="polygon21" /><path
   style="fill:none;stroke:#767676;stroke-width:0.37119999999999997;stroke-miterlimit:3.86360001999999980;stroke-opacity:1"
   d="M 6.527,6.861 L 7.465,10.561"
   id="path23" /><path
   style="fill:none;stroke:#767676;stroke-width:0.74239999000000001;stroke-miterlimit:3.86360001999999980;stroke-opacity:1"
   d="M 2.583,9.728 C 3.27,9.636 3.687,9.716 4.349,9.917 C 4.972,10.106 5.199,10.513 5.822,10.702 C 6.404,10.88 6.777,10.913 7.381,10.829 C 8.276,10.706 8.668,10.245 9.492,9.87"
   id="path25" /><line
   style="fill:none;stroke:#ffffff;stroke-width:0.56690001;stroke-miterlimit:3.86360002"
   x1="10.406"
   y1="4.362"
   x2="2.289"
   y2="6.737"
   id="line27" />
</svg>
