<?xml version="1.0" encoding="UTF-8" standalone="no"?>
<!-- Generator: Adobe Illustrator 13.0.0, SVG Export Plug-In . SVG Version: 6.00 Build 14948)  -->
<svg
   xmlns:dc="http://purl.org/dc/elements/1.1/"
   xmlns:cc="http://creativecommons.org/ns#"
   xmlns:rdf="http://www.w3.org/1999/02/22-rdf-syntax-ns#"
   xmlns:svg="http://www.w3.org/2000/svg"
   xmlns="http://www.w3.org/2000/svg"
   xmlns:sodipodi="http://sodipodi.sourceforge.net/DTD/sodipodi-0.dtd"
   xmlns:inkscape="http://www.inkscape.org/namespaces/inkscape"
   version="1.1"
   id="Layer_1"
   x="0px"
   y="0px"
   width="12.799px"
   height="13.22px"
   viewBox="0 0 12.799 13.22"
   style="enable-background:new 0 0 12.799 13.22;"
   xml:space="preserve"
   sodipodi:version="0.32"
   inkscape:version="0.46"
   sodipodi:docname="Villedart.svg"
   inkscape:output_extension="org.inkscape.output.svg.inkscape"><metadata
   id="metadata28"><rdf:RDF><cc:Work
       rdf:about=""><dc:format>image/svg+xml</dc:format><dc:type
         rdf:resource="http://purl.org/dc/dcmitype/StillImage" /></cc:Work></rdf:RDF></metadata><defs
   id="defs26"><inkscape:perspective
   sodipodi:type="inkscape:persp3d"
   inkscape:vp_x="0 : 6.6100001 : 1"
   inkscape:vp_y="0 : 1000 : 0"
   inkscape:vp_z="12.799 : 6.6100001 : 1"
   inkscape:persp3d-origin="6.3994999 : 4.4066668 : 1"
   id="perspective30" />
	
	

		
		
		
	
		
		
		
	
			
			
		</defs><sodipodi:namedview
   inkscape:window-height="667"
   inkscape:window-width="695"
   inkscape:pageshadow="2"
   inkscape:pageopacity="0.0"
   guidetolerance="10.0"
   gridtolerance="10.0"
   objecttolerance="10.0"
   borderopacity="1.0"
   bordercolor="#666666"
   pagecolor="#ffffff"
   id="base"
   showgrid="false"
   inkscape:zoom="34.947049"
   inkscape:cx="5.9953925"
   inkscape:cy="5.8679124"
   inkscape:window-x="1534"
   inkscape:window-y="151"
   inkscape:current-layer="Layer_1" />
<path
   id="path11"
   d="M 1.73,3.616 L 0,4.806 C 0,4.806 -0.138,11.82 6.189,13.218 C 6.189,13.218 5.113,12.546 4.511,11.933 C 3.201,10.6 2.75,9.925 2.246,8.754 C 1.925,8.01 1.689,7.398 1.621,5.829 C 1.591,5.147 1.73,3.616 1.73,3.616 z"
   style="fill:#AA3976;fill-rule:evenodd;fill-opacity:1" /><path
   id="path13"
   d="M 11.07,3.616 L 12.799,4.805 C 12.799,4.805 12.936,11.819 6.61,13.217 C 6.61,13.217 7.686,12.545 8.29,11.932 C 9.601,10.599 10.05,9.924 10.554,8.753 C 10.874,8.009 11.113,7.398 11.181,5.828 C 11.208,5.147 11.07,3.616 11.07,3.616 z"
   style="fill:#AA3976;fill-rule:evenodd;fill-opacity:1" /><path
   style="fill:#AA3976;fill-rule:evenodd;fill-opacity:1"
   d="M 11.65,2.831 L 11.214,0.847 C 11.214,0.847 4.831,-2.065 1.148,2.91 C 1.148,2.91 2.173,2.238 2.964,1.955 C 4.687,1.34 5.474,1.215 6.741,1.24 C 7.544,1.256 8.194,1.292 9.661,1.855 C 10.298,2.101 11.65,2.831 11.65,2.831 z"
   id="path15" /><path
   style="fill-rule:evenodd"
   d="M 6.562,2.881 L 7.109,2.881 C 8.027,2.881 8.773,3.627 8.773,4.546 L 8.773,4.575 C 8.773,5.465 8.027,6.211 7.109,6.211 L 6.103,6.211 L 6.103,8.681 L 8.945,8.681 L 8.945,10.805 L 8.199,10.805 L 8.199,9.427 L 7.509,9.427 L 7.509,10.805 L 6.792,10.805 L 6.792,9.427 L 6.103,9.427 L 6.103,10.805 L 5.099,10.805 L 5.099,6.211 L 4.093,6.211 C 3.202,6.211 2.456,5.465 2.456,4.575 L 2.456,4.546 C 2.456,3.627 3.202,2.881 4.093,2.881 L 4.611,2.881 C 5.242,2.967 5.644,3.34 5.644,3.34 C 5.644,3.34 6.046,2.967 6.562,2.881"
   id="path19" /><path
   style="fill:#AA3976;fill-opacity:1"
   d="M 6.562,2.881 L 7.109,2.881 C 8.027,2.881 8.773,3.627 8.773,4.546 L 8.773,4.575 C 8.773,5.465 8.027,6.211 7.109,6.211 L 6.103,6.211 L 6.103,8.681 L 8.945,8.681 L 8.945,10.805 L 8.199,10.805 L 8.199,9.427 L 7.509,9.427 L 7.509,10.805 L 6.792,10.805 L 6.792,9.427 L 6.103,9.427 L 6.103,10.805 L 5.099,10.805 L 5.099,6.211 L 4.093,6.211 C 3.202,6.211 2.456,5.465 2.456,4.575 L 2.456,4.546 C 2.456,3.627 3.202,2.881 4.093,2.881 L 4.611,2.881 C 5.242,2.967 5.644,3.34 5.644,3.34 C 5.644,3.34 6.046,2.967 6.562,2.881 L 6.562,2.881 z"
   id="path21" /><path
   style="fill:#ffffff;fill-rule:evenodd"
   d="M 5.615,4.201 C 5.615,4.201 4.955,3.656 4.324,3.656 C 4.037,3.656 3.433,3.857 3.433,4.546 C 3.433,5.609 4.898,5.407 5.644,5.407 C 6.39,5.407 7.855,5.608 7.855,4.546 C 7.855,3.858 7.251,3.656 6.994,3.656 C 6.334,3.656 5.674,4.201 5.674,4.201 L 5.615,4.201"
   id="path23" />
</svg>