<?xml version="1.0" encoding="utf-8"?>
<!-- Generator: Adobe Illustrator 13.0.0, SVG Export Plug-In . SVG Version: 6.00 Build 14948)  -->
<!DOCTYPE svg PUBLIC "-//W3C//DTD SVG 1.1//EN" "http://www.w3.org/Graphics/SVG/1.1/DTD/svg11.dtd">
<svg version="1.1"
	 id="svg3000" xmlns:svg="http://www.w3.org/2000/svg" xmlns:dc="http://purl.org/dc/elements/1.1/" xmlns:cc="http://creativecommons.org/ns#" xmlns:sodipodi="http://sodipodi.sourceforge.net/DTD/sodipodi-0.dtd" xmlns:rdf="http://www.w3.org/1999/02/22-rdf-syntax-ns#" xmlns:inkscape="http://www.inkscape.org/namespaces/inkscape" sodipodi:docname="Airededtente2.svg" inkscape:version="0.48.3.1 r9886"
	 xmlns="http://www.w3.org/2000/svg" xmlns:xlink="http://www.w3.org/1999/xlink" x="0px" y="0px" width="11.944px"
	 height="12.57px" viewBox="0 0 11.944 12.57" enable-background="new 0 0 11.944 12.57" xml:space="preserve">
<sodipodi:namedview  id="namedview3009" inkscape:window-maximized="1" inkscape:cx="7.1286629" bordercolor="#666666" objecttolerance="10" pagecolor="#ffffff" inkscape:zoom="62.927607" guidetolerance="10" inkscape:cy="6.2849998" borderopacity="1" showgrid="false" gridtolerance="10" inkscape:current-layer="svg3000" inkscape:window-y="-4" inkscape:window-x="-4" inkscape:window-height="968" inkscape:window-width="1280" inkscape:pageshadow="2" inkscape:pageopacity="0">
	</sodipodi:namedview>
<path id="path3005" inkscape:connector-curvature="0" fill="#A3A3A3" d="M1.378,0.339C1.146,0.347,0.775,1.247,0.719,1.446
	c-0.982,3.494-0.959,7.024,0.07,10.5c0.094,0.317,3.148,0.52,3.551,0.558c1.635,0.151,3.288,0.019,4.919-0.114
	c0.295-0.024,0.478-1.062,0.617-1.07c-2.548,0.176-4.979,0.16-7.491-0.307c-0.821-0.152-0.894,0.019-1.155-0.87
	C0.883,8.958,0.743,7.722,0.652,6.5C0.525,4.802,0.73,3.105,1.113,1.453c3.475-0.209,10.738-1.6,10.1,3.768
	c0.024-0.205,0.646-0.739,0.691-1.125C12.569-1.495,4.676,0.221,1.378,0.339z"/>
<polygon id="polygon3007" fill="#A3A3A3" points="7.854,8.328 7.854,9.834 3.929,9.835 3.929,7.195 5.389,7.195 3.967,5.664 
	5.389,5.664 3.998,4.258 5.389,4.258 3.492,2.215 1.594,4.258 2.986,4.258 1.594,5.664 3.017,5.664 1.594,7.195 3.054,7.195 
	3.054,9.835 0.854,9.837 0.854,10.121 10.613,10.118 10.613,9.833 9.271,9.833 9.271,8.328 11.113,8.328 11.113,7.478 6.011,7.478 
	6.011,8.328 "/>
</svg>
