<?xml version="1.0" encoding="UTF-8" standalone="no"?>
<!-- Generator: Adobe Illustrator 13.0.0, SVG Export Plug-In . SVG Version: 6.00 Build 14948)  -->
<svg
   xmlns:dc="http://purl.org/dc/elements/1.1/"
   xmlns:cc="http://creativecommons.org/ns#"
   xmlns:rdf="http://www.w3.org/1999/02/22-rdf-syntax-ns#"
   xmlns:svg="http://www.w3.org/2000/svg"
   xmlns="http://www.w3.org/2000/svg"
   xmlns:xlink="http://www.w3.org/1999/xlink"
   xmlns:sodipodi="http://sodipodi.sourceforge.net/DTD/sodipodi-0.dtd"
   xmlns:inkscape="http://www.inkscape.org/namespaces/inkscape"
   version="1.1"
   id="Layer_1"
   x="0px"
   y="0px"
   width="8.4399996"
   height="11.559999"
   viewBox="0 0 8.4399997 11.559999"
   xml:space="preserve"
   inkscape:version="0.46"
   sodipodi:docname="Arbreremarquable.svg"
   sodipodi:version="0.32"
   inkscape:output_extension="org.inkscape.output.svg.inkscape"><metadata
   id="metadata27"><rdf:RDF><cc:Work
       rdf:about=""><dc:format>image/svg+xml</dc:format><dc:type
         rdf:resource="http://purl.org/dc/dcmitype/StillImage" /></cc:Work></rdf:RDF></metadata><defs
   id="defs25"><inkscape:perspective
   sodipodi:type="inkscape:persp3d"
   inkscape:vp_x="0 : 5.7799997 : 1"
   inkscape:vp_y="0 : 1000 : 0"
   inkscape:vp_z="8.4399996 : 5.7799997 : 1"
   inkscape:persp3d-origin="4.2199998 : 3.8533332 : 1"
   id="perspective18" />
	

		<defs
   id="defs7">
			<polyline
   id="SVGID_1_"
   points="0,0 0,8.62 0,17.23 0,25.85 0,34.47 0,43.09 0,51.699 0,60.32 0,68.939 0,77.561 0,86.17      0,94.791 8.8,94.791 17.61,94.791 26.41,94.791 35.21,94.791 44.01,94.791 52.82,94.791 61.62,94.791 70.42,94.791 79.23,94.791      88.03,94.791 96.83,94.791 96.83,86.17 96.83,77.561 96.83,68.939 96.83,60.32 96.83,51.699 96.83,43.09 96.83,34.47      96.83,25.85 96.83,17.23 96.83,8.62 96.83,0 88.03,0 79.23,0 70.42,0 61.62,0 52.82,0 44.01,0 35.21,0 26.41,0 17.61,0 8.8,0      0,0    " />
		</defs>
		<defs
   id="defs10">
			<rect
   id="SVGID_2_"
   width="96.959999"
   height="94.560997"
   x="0"
   y="0" />
		</defs>
		<clipPath
   id="SVGID_3_">
			<use
   xlink:href="#SVGID_1_"
   style="overflow:visible"
   id="use14"
   x="0"
   y="0"
   width="96.959999"
   height="94.791" />
		</clipPath>
		<clipPath
   id="SVGID_4_">
			<use
   xlink:href="#SVGID_2_"
   style="overflow:visible"
   id="use17"
   x="0"
   y="0"
   width="96.959999"
   height="94.791" />
		</clipPath>
		
		
			
	</defs><sodipodi:namedview
   pagecolor="#ffffff"
   bordercolor="#666666"
   borderopacity="1"
   objecttolerance="10"
   gridtolerance="10"
   guidetolerance="10"
   inkscape:pageopacity="0"
   inkscape:pageshadow="2"
   inkscape:window-width="695"
   inkscape:window-height="667"
   id="namedview23"
   showgrid="false"
   fit-margin-top="0"
   fit-margin-left="0"
   fit-margin-right="0"
   fit-margin-bottom="0"
   inkscape:zoom="23.321517"
   inkscape:cx="3.7346133"
   inkscape:cy="3.301672"
   inkscape:window-x="551"
   inkscape:window-y="266"
   inkscape:window-maximized="0"
   inkscape:current-layer="Layer_1" />
<path
   style="fill:#246138;fill-opacity:1"
   d="M 46.15,42.57 L 46.25,42.55 L 46.35,42.57 L 46.58,42.69 L 46.89,42.81 L 47.09,42.84 L 47.33,42.84 L 47.59,42.8 L 47.84,42.71 L 48.07,42.58 L 48.27,42.42 L 48.45,42.24 L 48.58,42.03 L 48.66,41.81 L 48.69,41.57 L 48.68,41.36 L 48.64,41.19 L 48.58,41.05 L 48.51,40.95 L 48.24,40.63 L 48.07,40.39 L 48.02,40.3 L 48,40.21 L 48.03,40.17 L 48.11,40.14 L 48.35,40.04 L 48.48,39.95 L 48.58,39.81 L 48.65,39.62 L 48.66,39.36 L 48.62,39.11 L 48.56,38.93 L 48.48,38.81 L 48.39,38.73 L 48.21,38.65 L 48.14,38.62 L 48.09,38.58 L 47.06,38.46 L 47.01,38.38 L 46.97,38.27 L 46.89,37.97 L 46.83,37.8 L 46.73,37.63 L 46.58,37.48 L 46.36,37.34 L 46.11,37.23 L 45.86,37.17 L 45.62,37.15 L 45.39,37.15 L 45.18,37.18 L 44.99,37.23 L 44.84,37.29 L 44.73,37.37 L 44.57,37.54 L 44.46,37.72 L 44.37,37.91 L 42.7,34.58 L 41.74,37.43 L 41.4,38.32 L 41.01,39.27 L 40.56,40.33 L 40.89,40.16 L 41.18,39.98 L 41.43,39.76 L 41.69,39.54 L 41.99,39.34 L 42.34,39.15 L 42.18,39.69 L 42.08,39.95 L 41.93,40.24 L 41.75,40.54 L 41.52,40.85 L 41.04,41.4 L 40.64,41.83 L 40.25,42.21 L 40.63,42.23 L 40.99,42.2 L 41.19,42.14 L 41.37,42.06 L 42.08,41.63 L 42.36,41.48 L 42.46,41.45 L 42.52,41.45 L 42.53,41.51 L 42.49,41.61 L 42.29,41.93 L 41.77,42.6 L 41.16,43.25 L 40.89,43.55 L 40.81,43.66 L 40.8,43.72 L 40.85,43.74 L 40.95,43.73 L 41.25,43.65 L 41.86,43.45 L 42.11,43.31 L 42.42,43.09 L 42.7,42.9 L 42.8,42.85 L 42.85,42.84 L 42.89,42.95 L 42.92,43.19 L 42.96,43.89 L 43.01,44.9 L 42.57,44.97 L 42.27,45.07 L 42.17,45.13 L 42.13,45.2 L 42.14,45.27 L 42.16,45.32 L 42.25,45.36 L 42.49,45.36 L 42.82,45.2 L 42.89,45.22 L 42.97,45.26 L 43.14,45.4 L 43.4,45.66 L 44.22,45.72 L 44.87,45.9 L 45.16,45.98 L 45.43,46.02 L 46.1,46.06 L 46.76,46.08 L 47.62,46.14 L 48.06,46.14 L 48.2,46.11 L 48.23,46.09 L 48.24,46.05 L 48.22,46.01 L 48.16,45.98 L 47.96,45.92 L 47.33,45.79 L 46.97,45.7 L 46.62,45.59 L 46.3,45.43 L 46.17,45.34 L 46.06,45.23 L 45.9,45.01 L 45.81,44.79 L 45.76,44.58 L 45.75,44.38 L 45.82,43.78 L 45.83,43.49 L 45.88,43.12 L 45.93,42.94 L 45.99,42.77 L 46.06,42.65 L 46.15,42.57 M 45.43,41.91 L 44.97,41.66 L 44.76,41.79 L 44.42,41.93 L 44.04,42.05 L 43.85,42.08 L 43.67,42.09 L 43.49,42.05 L 43.31,41.95 L 43.13,41.8 L 42.96,41.61 L 42.81,41.39 L 42.69,41.15 L 42.61,40.9 L 42.58,40.63 L 42.57,40.53 L 42.6,40.26 L 42.66,40.07 L 42.75,39.87 L 42.89,39.65 L 43.1,39.43 L 43.22,39.33 L 43.35,39.26 L 43.49,39.22 L 43.63,39.2 L 43.91,39.22 L 44.18,39.29 L 44.58,39.43 L 44.67,39.45 L 44.68,39.43 L 44.67,39.4 L 44.62,39.23 L 44.58,38.95 L 44.57,38.61 L 44.61,38.24 L 44.7,37.88 L 44.78,37.71 L 44.88,37.57 L 45,37.45 L 45.14,37.36 L 45.32,37.3 L 45.52,37.28 L 45.72,37.29 L 45.89,37.33 L 46.03,37.38 L 46.14,37.46 L 46.24,37.54 L 46.31,37.64 L 46.41,37.86 L 46.45,38.09 L 46.46,38.3 L 46.46,38.58 L 46.51,38.95 L 46.59,39.1 L 46.65,39.15 L 46.73,39.15 L 47.33,38.99 L 47.51,38.98 L 47.69,39.01 L 47.86,39.09 L 48,39.24 L 48.05,39.34 L 48.07,39.43 L 48.06,39.61 L 47.99,39.77 L 47.88,39.91 L 47.64,40.11 L 47.51,40.18 L 47.64,40.32 L 47.88,40.67 L 47.99,40.9 L 48.06,41.16 L 48.07,41.44 L 48.05,41.58 L 48,41.73 L 47.84,42.02 L 47.67,42.21 L 47.5,42.3 L 47.33,42.31 L 47.16,42.28 L 47.01,42.22 L 46.73,42.09 L 46.12,41.66 L 45.87,41.8 L 45.68,41.87 L 45.43,41.91 M 44.82,44.48 L 44.74,44.62 L 44.62,44.73 L 44.45,44.81 L 44.28,44.86 L 43.82,44.93 L 43.71,43.9 L 43.67,43.17 L 43.68,42.91 L 43.7,42.83 L 43.73,42.78 L 43.8,42.76 L 43.88,42.76 L 44.05,42.84 L 44.34,43.02 L 44.6,43.12 L 44.74,43.15 L 44.88,43.15 L 44.91,43.15 L 44.93,43.19 L 44.96,43.31 L 44.94,43.73 L 44.88,44.19 L 44.82,44.48 L 44.82,44.48 z"
   id="path19"
   clip-path="url(#SVGID_4_)"
   inkscape:connector-curvature="0"
   transform="translate(-40.25,-34.580001)" />
</svg>