<?xml version="1.0" encoding="UTF-8" standalone="no"?>
<!-- Generator: Adobe Illustrator 13.0.0, SVG Export Plug-In . SVG Version: 6.00 Build 14948)  -->

<svg
   xmlns:dc="http://purl.org/dc/elements/1.1/"
   xmlns:cc="http://creativecommons.org/ns#"
   xmlns:rdf="http://www.w3.org/1999/02/22-rdf-syntax-ns#"
   xmlns:svg="http://www.w3.org/2000/svg"
   xmlns="http://www.w3.org/2000/svg"
   xmlns:xlink="http://www.w3.org/1999/xlink"
   xmlns:sodipodi="http://sodipodi.sourceforge.net/DTD/sodipodi-0.dtd"
   xmlns:inkscape="http://www.inkscape.org/namespaces/inkscape"
   version="1.1"
   id="Layer_1"
   x="0px"
   y="0px"
   width="9.3970871"
   height="9.4422331"
   viewBox="0 0 9.397087 9.4422334"
   xml:space="preserve"
   inkscape:version="0.48.2 r9819"
   sodipodi:docname="carrlimite.svg"><metadata
   id="metadata25"><rdf:RDF><cc:Work
       rdf:about=""><dc:format>image/svg+xml</dc:format><dc:type
         rdf:resource="http://purl.org/dc/dcmitype/StillImage" /><dc:title></dc:title></cc:Work></rdf:RDF></metadata><defs
   id="defs23"><clipPath
     id="SVGID_4_-1"><use
       xlink:href="#SVGID_2_"
       style="overflow:visible"
       id="use3106"
       x="0"
       y="0"
       width="96.959999"
       height="94.791" /></clipPath></defs><sodipodi:namedview
   pagecolor="#ffffff"
   bordercolor="#666666"
   borderopacity="1"
   objecttolerance="10"
   gridtolerance="10"
   guidetolerance="10"
   inkscape:pageopacity="0"
   inkscape:pageshadow="2"
   inkscape:window-width="1920"
   inkscape:window-height="1138"
   id="namedview21"
   showgrid="false"
   fit-margin-top="0"
   fit-margin-left="0"
   fit-margin-right="0"
   fit-margin-bottom="0"
   inkscape:zoom="44.301078"
   inkscape:cx="5.4110243"
   inkscape:cy="7.8372561"
   inkscape:window-x="-8"
   inkscape:window-y="-8"
   inkscape:window-maximized="1"
   inkscape:current-layer="Layer_1" />
<g
   id="g3"
   transform="translate(-42.502575,-42.834486)">
	<g
   id="g5">
		<defs
   id="defs7">
			<polyline
   id="SVGID_1_"
   points="0,0 0,8.82 0,17.65 0,26.47 0,35.3 0,44.12 0,52.939 0,61.77 0,70.59 0,79.41 0,88.24 0,97.061      8.64,97.061 17.27,97.061 25.91,97.061 34.55,97.061 43.19,97.061 51.82,97.061 60.46,97.061 69.1,97.061 77.74,97.061      86.37,97.061 95.01,97.061 95.01,88.24 95.01,79.41 95.01,70.59 95.01,61.77 95.01,52.939 95.01,44.12 95.01,35.3 95.01,26.47      95.01,17.65 95.01,8.82 95.01,0 86.37,0 77.74,0 69.1,0 60.46,0 51.82,0 43.19,0 34.55,0 25.91,0 17.27,0 8.64,0 0,0    " />
		</defs>
		<defs
   id="defs10">
			<rect
   id="SVGID_2_"
   width="95.040001"
   height="96.959"
   x="0"
   y="0" />
		</defs>
		<clipPath
   id="SVGID_3_">
			<use
   xlink:href="#SVGID_1_"
   style="overflow:visible"
   id="use14"
   x="0"
   y="0"
   width="95.040001"
   height="97.060997" />
		</clipPath>
		<clipPath
   id="SVGID_4_">
			<use
   xlink:href="#SVGID_2_"
   style="overflow:visible"
   id="use17"
   x="0"
   y="0"
   width="95.040001"
   height="97.060997" />
		</clipPath>
		<polyline
   style="fill:none;stroke:#0c0c0c;stroke-width:0.01;stroke-miterlimit:10"
   points="    42.98,43.32 42.98,51.709 51.37,51.709 51.37,43.32 42.98,43.32   "
   id="polyline19"
   clip-path="url(#SVGID_4_)" />
	</g>
</g>
<path
   style="fill:none;stroke:#0c0c0c;stroke-width:1px;stroke-linecap:butt;stroke-linejoin:miter;stroke-opacity:1"
   d="m 0.49999984,0.50000002 8.39708716,0 0,8.39708718 -8.37451434,0.045146 z"
   id="path5074"
   inkscape:connector-curvature="0"
   sodipodi:nodetypes="ccccc" /><polygon
   style="fill:#0c0c0c;fill-opacity:1"
   points="35.83,52.189 36.2,52.77 36.6,53.33 37.03,53.881 37.49,54.41 37.99,54.939 38.5,55.439 39.03,55.91 39.57,56.34 40.13,56.75 40.7,57.121 41.28,57.461 41.87,57.77 42.48,58.041 43.1,58.279 43.73,58.49 44.38,58.67 45.03,58.82 45.71,58.93 46.39,59.01 47.09,59.061 47.8,59.08 48.5,59.061 49.2,59.01 49.88,58.93 50.561,58.82 51.22,58.67 51.86,58.49 52.5,58.279 53.12,58.041 53.73,57.77 54.33,57.461 54.91,57.121 55.49,56.75 56.05,56.34 56.601,55.91 57.13,55.439 57.66,54.939 58.16,54.41 58.63,53.881 59.061,53.33 59.47,52.77 59.84,52.189 60.181,51.609 60.49,51.01 60.76,50.4 61,49.779 61.21,49.141 61.391,48.49 61.54,47.83 61.65,47.16 61.73,46.47 61.78,45.78 61.8,45.07 61.78,44.36 61.73,43.66 61.65,42.98 61.54,42.31 61.391,41.65 61.21,41.01 61,40.38 60.76,39.76 60.49,39.15 60.181,38.56 59.84,37.98 59.47,37.41 59.061,36.85 58.63,36.31 58.16,35.78 57.66,35.27 57.13,34.77 56.601,34.31 56.05,33.88 55.49,33.48 54.91,33.11 54.33,32.78 53.73,32.47 53.12,32.2 52.5,31.96 51.86,31.75 51.22,31.58 50.561,31.43 49.88,31.32 49.2,31.24 48.5,31.19 47.8,31.18 47.09,31.19 46.39,31.24 45.71,31.32 45.03,31.43 44.38,31.58 43.73,31.75 43.1,31.96 42.48,32.2 41.87,32.47 41.28,32.78 40.7,33.11 40.13,33.48 39.57,33.88 39.03,34.31 38.5,34.77 37.99,35.27 37.49,35.78 37.03,36.31 36.6,36.85 36.2,37.41 35.83,37.98 35.5,38.56 35.2,39.15 34.93,39.76 34.69,40.38 34.48,41.01 34.3,41.65 34.16,42.31 34.05,42.98 33.97,43.66 33.92,44.36 33.91,45.07 33.91,45.07 33.92,45.78 33.97,46.47 34.05,47.16 34.05,47.16 34.16,47.83 34.3,48.49 34.48,49.141 34.69,49.779 34.93,50.4 35.2,51.01 35.5,51.609 "
   id="polygon3108"
   clip-path="url(#SVGID_4_-1)"
   transform="matrix(0.10161977,0,0,0.09953711,-0.19044196,0.13114259)" /></svg>