<?xml version="1.0" encoding="UTF-8" standalone="no"?>
<!-- Generator: Adobe Illustrator 13.0.0, SVG Export Plug-In . SVG Version: 6.00 Build 14948)  -->

<svg
   xmlns:dc="http://purl.org/dc/elements/1.1/"
   xmlns:cc="http://creativecommons.org/ns#"
   xmlns:rdf="http://www.w3.org/1999/02/22-rdf-syntax-ns#"
   xmlns:svg="http://www.w3.org/2000/svg"
   xmlns="http://www.w3.org/2000/svg"
   xmlns:xlink="http://www.w3.org/1999/xlink"
   xmlns:sodipodi="http://sodipodi.sourceforge.net/DTD/sodipodi-0.dtd"
   xmlns:inkscape="http://www.inkscape.org/namespaces/inkscape"
   version="1.1"
   id="Layer_1"
   x="0px"
   y="0px"
   width="9.3970871"
   height="9.4422331"
   viewBox="0 0 9.397087 9.4422334"
   xml:space="preserve"
   inkscape:version="0.48.0 r9654"
   sodipodi:docname="carrlimite.svg"><metadata
   id="metadata25"><rdf:RDF><cc:Work
       rdf:about=""><dc:format>image/svg+xml</dc:format><dc:type
         rdf:resource="http://purl.org/dc/dcmitype/StillImage" /></cc:Work></rdf:RDF></metadata><defs
   id="defs23" /><sodipodi:namedview
   pagecolor="#ffffff"
   bordercolor="#666666"
   borderopacity="1"
   objecttolerance="10"
   gridtolerance="10"
   guidetolerance="10"
   inkscape:pageopacity="0"
   inkscape:pageshadow="2"
   inkscape:window-width="640"
   inkscape:window-height="480"
   id="namedview21"
   showgrid="false"
   fit-margin-top="0"
   fit-margin-left="0"
   fit-margin-right="0"
   fit-margin-bottom="0"
   inkscape:zoom="44.301078"
   inkscape:cx="5.4110243"
   inkscape:cy="4.2582049"
   inkscape:window-x="761"
   inkscape:window-y="207"
   inkscape:window-maximized="1"
   inkscape:current-layer="Layer_1" />
<g
   id="g3"
   transform="translate(-42.502575,-42.834486)">
	<g
   id="g5">
		<defs
   id="defs7">
			<polyline
   id="SVGID_1_"
   points="0,0 0,8.82 0,17.65 0,26.47 0,35.3 0,44.12 0,52.939 0,61.77 0,70.59 0,79.41 0,88.24 0,97.061      8.64,97.061 17.27,97.061 25.91,97.061 34.55,97.061 43.19,97.061 51.82,97.061 60.46,97.061 69.1,97.061 77.74,97.061      86.37,97.061 95.01,97.061 95.01,88.24 95.01,79.41 95.01,70.59 95.01,61.77 95.01,52.939 95.01,44.12 95.01,35.3 95.01,26.47      95.01,17.65 95.01,8.82 95.01,0 86.37,0 77.74,0 69.1,0 60.46,0 51.82,0 43.19,0 34.55,0 25.91,0 17.27,0 8.64,0 0,0    " />
		</defs>
		<defs
   id="defs10">
			<rect
   id="SVGID_2_"
   width="95.040001"
   height="96.959"
   x="0"
   y="0" />
		</defs>
		<clipPath
   id="SVGID_3_">
			<use
   xlink:href="#SVGID_1_"
   style="overflow:visible"
   id="use14"
   x="0"
   y="0"
   width="95.040001"
   height="97.060997" />
		</clipPath>
		<clipPath
   id="SVGID_4_">
			<use
   xlink:href="#SVGID_2_"
   style="overflow:visible"
   id="use17"
   x="0"
   y="0"
   width="95.040001"
   height="97.060997" />
		</clipPath>
		<polyline
   style="fill:none;stroke:#0c0c0c;stroke-width:0.01;stroke-miterlimit:10"
   points="    42.98,43.32 42.98,51.709 51.37,51.709 51.37,43.32 42.98,43.32   "
   id="polyline19"
   clip-path="url(#SVGID_4_)" />
	</g>
</g>
<path
   style="fill:none;stroke:#0c0c0c;stroke-width:1px;stroke-linecap:butt;stroke-linejoin:miter;stroke-opacity:1"
   d="m 0.49999984,0.50000002 8.39708716,0 0,8.39708718 -8.37451434,0.045146 z"
   id="path5074"
   inkscape:connector-curvature="0"
   sodipodi:nodetypes="ccccc" /></svg>