<?xml version="1.0" encoding="UTF-8" standalone="no"?>
<!-- Generator: Adobe Illustrator 13.0.0, SVG Export Plug-In . SVG Version: 6.00 Build 14948)  -->
<svg
   xmlns:dc="http://purl.org/dc/elements/1.1/"
   xmlns:cc="http://creativecommons.org/ns#"
   xmlns:rdf="http://www.w3.org/1999/02/22-rdf-syntax-ns#"
   xmlns:svg="http://www.w3.org/2000/svg"
   xmlns="http://www.w3.org/2000/svg"
   xmlns:xlink="http://www.w3.org/1999/xlink"
   xmlns:sodipodi="http://sodipodi.sourceforge.net/DTD/sodipodi-0.dtd"
   xmlns:inkscape="http://www.inkscape.org/namespaces/inkscape"
   version="1.1"
   id="Layer_1"
   x="0px"
   y="0px"
   width="11.94"
   height="12.57"
   viewBox="0 0 11.94 12.57"
   xml:space="preserve"
   inkscape:version="0.46"
   sodipodi:docname="Centrequestre.svg"
   sodipodi:version="0.32"
   inkscape:output_extension="org.inkscape.output.svg.inkscape"><metadata
   id="metadata3089"><rdf:RDF><cc:Work
       rdf:about=""><dc:format>image/svg+xml</dc:format><dc:type
         rdf:resource="http://purl.org/dc/dcmitype/StillImage" /></cc:Work></rdf:RDF></metadata><defs
   id="defs3087"><inkscape:perspective
   sodipodi:type="inkscape:persp3d"
   inkscape:vp_x="0 : 6.2849998 : 1"
   inkscape:vp_y="0 : 1000 : 0"
   inkscape:vp_z="11.94 : 6.2849998 : 1"
   inkscape:persp3d-origin="5.9699998 : 4.1899999 : 1"
   id="perspective21" />
	

		<defs
   id="defs3063">
			<polyline
   id="SVGID_1_"
   points="0,0 0,8.62 0,17.23 0,25.85 0,34.47 0,43.09 0,51.699 0,60.32 0,68.939 0,77.561 0,86.17      0,94.791 8.8,94.791 17.61,94.791 26.41,94.791 35.21,94.791 44.01,94.791 52.82,94.791 61.62,94.791 70.42,94.791 79.23,94.791      88.03,94.791 96.83,94.791 96.83,86.17 96.83,77.561 96.83,68.939 96.83,60.32 96.83,51.699 96.83,43.09 96.83,34.47      96.83,25.85 96.83,17.23 96.83,8.62 96.83,0 88.03,0 79.23,0 70.42,0 61.62,0 52.82,0 44.01,0 35.21,0 26.41,0 17.61,0 8.8,0      0,0    " />
		</defs>
		<defs
   id="defs3066">
			<rect
   id="SVGID_2_"
   width="96.959999"
   height="94.560997"
   x="0"
   y="0" />
		</defs>
		<clipPath
   id="SVGID_3_">
			<use
   xlink:href="#SVGID_1_"
   style="overflow:visible"
   id="use3070"
   x="0"
   y="0"
   width="96.959999"
   height="94.791" />
		</clipPath>
		<clipPath
   id="SVGID_4_">
			<use
   xlink:href="#SVGID_2_"
   style="overflow:visible"
   id="use3073"
   x="0"
   y="0"
   width="96.959999"
   height="94.791" />
		</clipPath>
		
		
		
		
		
			
	</defs><sodipodi:namedview
   pagecolor="#ffffff"
   bordercolor="#666666"
   borderopacity="1"
   objecttolerance="10"
   gridtolerance="10"
   guidetolerance="10"
   inkscape:pageopacity="0"
   inkscape:pageshadow="2"
   inkscape:window-width="695"
   inkscape:window-height="667"
   id="namedview3085"
   showgrid="false"
   fit-margin-top="0"
   fit-margin-left="0"
   fit-margin-right="0"
   fit-margin-bottom="0"
   inkscape:zoom="18.969655"
   inkscape:cx="15.346647"
   inkscape:cy="2.6063787"
   inkscape:window-x="395"
   inkscape:window-y="320"
   inkscape:window-maximized="0"
   inkscape:current-layer="Layer_1" />
<polygon
   style="fill:#246138;fill-opacity:1"
   points="43.61,35.9 43.44,36.27 43.35,36.52 43.17,37.18 43.02,37.84 42.9,38.49 42.8,39.15 42.72,39.81 42.67,40.46 42.63,41.12 42.63,41.78 42.64,42.44 42.68,43.1 42.75,43.75 42.83,44.41 42.94,45.06 43.08,45.72 43.24,46.37 43.42,47.02 43.47,47.08 43.58,47.14 43.96,47.24 44.48,47.33 45.08,47.41 46.97,47.58 47.58,47.63 48.2,47.65 49.43,47.63 50.66,47.56 51.891,47.47 51.99,47.41 52.09,47.29 52.25,46.93 52.391,46.56 52.45,46.44 52.51,46.4 51.55,46.45 50.61,46.49 49.68,46.5 48.75,46.48 47.82,46.44 46.89,46.36 45.95,46.24 45.01,46.09 44.52,46.01 44.36,45.98 44.23,45.93 44.12,45.85 44.03,45.71 43.95,45.51 43.86,45.22 43.63,44.32 43.47,43.41 43.36,42.5 43.28,41.58 43.25,40.94 43.24,40.3 43.27,39.67 43.32,39.04 43.39,38.41 43.49,37.78 43.74,36.53 46.87,36.28 47.75,36.23 48.63,36.22 49.5,36.24 50.33,36.32 50.73,36.39 51.12,36.47 51.49,36.57 51.84,36.69 52.17,36.84 52.48,37 52.76,37.2 53.021,37.42 53.25,37.66 53.44,37.94 53.601,38.25 53.73,38.59 53.82,38.96 53.87,39.37 53.88,39.82 53.84,40.3 53.87,40.21 53.95,40.09 54.181,39.8 54.41,39.48 54.49,39.32 54.53,39.17 54.57,38.67 54.561,38.21 54.5,37.79 54.4,37.4 54.271,37.05 54.09,36.74 53.88,36.46 53.63,36.21 53.351,35.99 53.05,35.8 52.72,35.64 52.36,35.5 51.99,35.38 51.59,35.29 51.181,35.21 50.75,35.15 49.87,35.09 48.96,35.08 48.04,35.11 47.13,35.17 45.43,35.32 44,35.42 44,35.42 43.91,35.46 43.81,35.56 43.61,35.9 "
   id="polygon3075"
   clip-path="url(#SVGID_4_)"
   transform="translate(-42.63,-35.080001)" /><polygon
   style="fill:#246138;fill-opacity:1"
   points="44.26,42.38 44.62,42.66 44.7,42.72 45.26,42.52 44.96,43.05 45.18,43.25 45.57,43.19 45.88,43.05 44.7,41.43 44.7,41.43 44.28,41.65 44.17,41.93 44.26,42.38 "
   id="polygon3077"
   clip-path="url(#SVGID_4_)"
   transform="translate(-42.63,-35.080001)" /><path
   style="fill:#246138;fill-opacity:1"
   d="M 52.12,40.75 L 51.95,39.92 L 51.5,39.08 L 51.08,38.59 L 50.66,38.24 L 50.3,38.01 L 49.71,37.75 L 50.141,38.33 L 50.431,38.86 L 50.79,39.54 L 51.15,40.23 L 50.759,40.51 L 50.57,40.59 L 50.33,40.2 L 49.8,39.55 L 49.38,39.13 L 49.11,38.85 L 48.93,38.68 L 48.76,38.26 L 48.54,37.9 L 48.26,37.42 L 48.19,37.69 L 48.15,37.99 L 48.17,38.37 L 48.17,38.48 L 48.14,38.58 L 48.01,38.76 L 47.81,38.93 L 47.25,39.35 L 46.83,39.78 L 46.51,40.08 L 46.32,40.23 L 45.92,40.55 L 47.3,42.56 L 47.51,42.44 L 47.87,42.23 L 48.16,42.06 L 48.26,42.04 L 48.43,42.03 L 48.58,42.1 L 48.81,42.26 L 48.97,42.42 L 49.05,42.53 L 49.1,42.64 L 49.21,43.31 L 49.21,43.96 L 49.07,44.74 L 51.08,44.72 L 51.91,43.11 L 52.24,41.69 L 52.12,40.75 M 47.84,40.43 L 47.67,40.41 L 47.52,40.34 L 47.43,40.24 L 47.39,40.11 L 47.43,39.99 L 47.52,39.89 L 47.67,39.82 L 47.84,39.79 L 48.01,39.82 L 48.15,39.89 L 48.25,39.99 L 48.28,40.11 L 48.25,40.24 L 48.15,40.34 L 48.01,40.41 L 47.84,40.43 L 47.84,40.43 z"
   id="path3079"
   clip-path="url(#SVGID_4_)"
   inkscape:connector-curvature="0"
   transform="translate(-42.63,-35.080001)" /><polygon
   style="fill:#246138;fill-opacity:1"
   points="46.51,43.24 47.24,44.13 47.76,44.71 48.11,44.99 48.7,44.92 48.33,44.53 47.63,43.83 47.1,43.15 46.62,42.53 46.26,41.95 45.89,41.41 45.58,40.94 45.58,40.94 45.11,41.22 45.81,42.27 46.51,43.24 "
   id="polygon3081"
   clip-path="url(#SVGID_4_)"
   transform="translate(-42.63,-35.080001)" />
</svg>