<?xml version="1.0" encoding="UTF-8" standalone="no"?>
<!-- Generator: Adobe Illustrator 13.0.0, SVG Export Plug-In . SVG Version: 6.00 Build 14948)  -->

<svg
   xmlns:dc="http://purl.org/dc/elements/1.1/"
   xmlns:cc="http://creativecommons.org/ns#"
   xmlns:rdf="http://www.w3.org/1999/02/22-rdf-syntax-ns#"
   xmlns:svg="http://www.w3.org/2000/svg"
   xmlns="http://www.w3.org/2000/svg"
   xmlns:sodipodi="http://sodipodi.sourceforge.net/DTD/sodipodi-0.dtd"
   xmlns:inkscape="http://www.inkscape.org/namespaces/inkscape"
   version="1.1"
   id="Layer_1"
   x="0px"
   y="0px"
   width="5.6700001"
   height="5.6700001"
   viewBox="0 0 5.67 5.6699999"
   xml:space="preserve"
   inkscape:version="0.48.0 r9654"
   sodipodi:docname="Commune.svg"><metadata
   id="metadata3001"><rdf:RDF><cc:Work
       rdf:about=""><dc:format>image/svg+xml</dc:format><dc:type
         rdf:resource="http://purl.org/dc/dcmitype/StillImage" /></cc:Work></rdf:RDF></metadata><defs
   id="defs2999" /><sodipodi:namedview
   pagecolor="#ffffff"
   bordercolor="#666666"
   borderopacity="1"
   objecttolerance="10"
   gridtolerance="10"
   guidetolerance="10"
   inkscape:pageopacity="0"
   inkscape:pageshadow="2"
   inkscape:window-width="640"
   inkscape:window-height="480"
   id="namedview2997"
   showgrid="false"
   fit-margin-top="0"
   fit-margin-left="0"
   fit-margin-right="0"
   fit-margin-bottom="0"
   inkscape:zoom="46.039865"
   inkscape:cx="2.835"
   inkscape:cy="2.8355001"
   inkscape:window-x="556"
   inkscape:window-y="459"
   inkscape:window-maximized="0"
   inkscape:current-layer="Layer_1" />
<g
   id="g2993">
	<path
   style="fill-rule:evenodd"
   d="M 2.957,4.531 2.777,4.527 2.61,4.513 2.443,4.486 2.286,4.451 2.137,4.406 1.998,4.347 1.876,4.298 1.773,4.24 1.678,4.181 1.606,4.126 1.499,4.023 1.404,3.902 1.31,3.771 1.273,3.708 1.242,3.626 1.215,3.533 1.183,3.429 1.17,3.316 1.147,3.191 1.134,3.046 1.125,2.884 V 2.728 L 1.134,2.58 1.148,2.449 1.17,2.328 1.197,2.205 1.242,2.08 1.292,1.967 1.346,1.863 1.409,1.773 1.472,1.692 1.557,1.607 1.625,1.535 1.701,1.472 1.764,1.418 1.832,1.373 1.917,1.332 2.011,1.287 2.124,1.246 2.223,1.214 2.34,1.192 2.466,1.17 2.606,1.156 2.754,1.147 2.902,1.143 h 0.14 L 3.159,1.147 3.267,1.156 3.366,1.161 3.51,1.192 3.627,1.22 3.739,1.247 3.843,1.292 3.947,1.341 4.054,1.404 4.158,1.472 4.254,1.544 4.326,1.625 4.379,1.692 4.424,1.764 4.461,1.854 4.488,1.944 4.533,2.142 H 3.743 L 3.712,2.025 3.69,1.962 3.649,1.899 3.591,1.84 3.519,1.777 3.46,1.737 3.393,1.706 3.308,1.683 3.213,1.661 3.109,1.651 2.997,1.647 H 2.862 L 2.736,1.651 2.628,1.669 2.533,1.692 2.452,1.728 2.362,1.777 2.281,1.85 2.205,1.931 2.142,2.021 2.092,2.111 2.056,2.205 2.025,2.318 2.002,2.439 1.984,2.58 1.976,2.753 V 2.935 L 1.989,3.109 2.011,3.285 2.033,3.389 2.074,3.475 2.12,3.56 2.178,3.636 2.246,3.702 2.327,3.766 2.417,3.815 2.534,3.874 2.647,3.915 2.759,3.946 2.872,3.964 2.98,3.978 H 3.092 L 3.213,3.96 3.321,3.937 3.416,3.906 3.497,3.861 3.56,3.812 3.627,3.75 3.677,3.691 3.708,3.636 3.726,3.581 3.74,3.495 h 0.8 L 4.509,3.64 4.478,3.744 4.437,3.847 4.378,3.96 4.339,4.019 4.274,4.078 4.194,4.137 4.094,4.203 3.982,4.265 3.847,4.33 3.704,4.392 3.56,4.447 3.411,4.486 3.262,4.513 3.109,4.527 2.957,4.531 z M 0.283,0.284 V 5.387 H 5.387 V 0.284 H 0.283 z M 0.283,0 H 5.387 5.67 V 0.284 5.387 5.67 H 5.387 0.283 0 V 5.386 0.284 0 h 0.283 z"
   id="path2995"
   inkscape:connector-curvature="0" />
</g>
</svg>
