<?xml version="1.0" encoding="UTF-8" standalone="no"?>
<!-- Generator: Adobe Illustrator 13.0.0, SVG Export Plug-In . SVG Version: 6.00 Build 14948)  -->

<svg
   xmlns:dc="http://purl.org/dc/elements/1.1/"
   xmlns:cc="http://creativecommons.org/ns#"
   xmlns:rdf="http://www.w3.org/1999/02/22-rdf-syntax-ns#"
   xmlns:svg="http://www.w3.org/2000/svg"
   xmlns="http://www.w3.org/2000/svg"
   xmlns:xlink="http://www.w3.org/1999/xlink"
   xmlns:sodipodi="http://sodipodi.sourceforge.net/DTD/sodipodi-0.dtd"
   xmlns:inkscape="http://www.inkscape.org/namespaces/inkscape"
   version="1.1"
   id="Layer_1"
   x="0px"
   y="0px"
   width="7.2599998"
   height="4.882"
   viewBox="0 0 7.2599998 4.882"
   xml:space="preserve"
   inkscape:version="0.48.0 r9654"
   sodipodi:docname="Dolmen.svg"><metadata
   id="metadata3313"><rdf:RDF><cc:Work
       rdf:about=""><dc:format>image/svg+xml</dc:format><dc:type
         rdf:resource="http://purl.org/dc/dcmitype/StillImage" /></cc:Work></rdf:RDF></metadata><defs
   id="defs3311" /><sodipodi:namedview
   pagecolor="#ffffff"
   bordercolor="#666666"
   borderopacity="1"
   objecttolerance="10"
   gridtolerance="10"
   guidetolerance="10"
   inkscape:pageopacity="0"
   inkscape:pageshadow="2"
   inkscape:window-width="640"
   inkscape:window-height="480"
   id="namedview3309"
   showgrid="false"
   fit-margin-top="0"
   fit-margin-left="0"
   fit-margin-right="0"
   fit-margin-bottom="0"
   inkscape:zoom="2.7534259"
   inkscape:cx="1.99"
   inkscape:cy="3.9765"
   inkscape:window-x="359"
   inkscape:window-y="243"
   inkscape:window-maximized="0"
   inkscape:current-layer="Layer_1" />
<g
   id="g3289"
   transform="translate(-46.49,-46.490001)">
	<g
   id="g3291">
		<defs
   id="defs3293">
			<polyline
   id="SVGID_1_"
   points="0,0 0,8.62 0,17.23 0,25.85 0,34.47 0,43.09 0,51.699 0,60.32 0,68.939 0,77.561 0,86.17      0,94.791 8.8,94.791 17.61,94.791 26.41,94.791 35.21,94.791 44.01,94.791 52.82,94.791 61.62,94.791 70.42,94.791 79.23,94.791      88.03,94.791 96.83,94.791 96.83,86.17 96.83,77.561 96.83,68.939 96.83,60.32 96.83,51.699 96.83,43.09 96.83,34.47      96.83,25.85 96.83,17.23 96.83,8.62 96.83,0 88.03,0 79.23,0 70.42,0 61.62,0 52.82,0 44.01,0 35.21,0 26.41,0 17.61,0 8.8,0      0,0    " />
		</defs>
		<defs
   id="defs3296">
			<rect
   id="SVGID_2_"
   width="96.959999"
   height="94.560997"
   x="0"
   y="0" />
		</defs>
		<clipPath
   id="SVGID_3_">
			<use
   xlink:href="#SVGID_1_"
   style="overflow:visible"
   id="use3300"
   x="0"
   y="0"
   width="96.959999"
   height="94.791" />
		</clipPath>
		<clipPath
   id="SVGID_4_">
			<use
   xlink:href="#SVGID_2_"
   style="overflow:visible"
   id="use3303"
   x="0"
   y="0"
   width="96.959999"
   height="94.791" />
		</clipPath>
		<path
   d="m 53.521,47.56 -0.04,-0.11 h -0.71 l -0.32,-0.28 -0.03,-0.03 -0.04,-0.01 -0.939,-0.21 -0.79,-0.21 -0.952,-0.21 -0.04,-0.01 -0.04,0.01 -0.73,0.21 -0.95,0.32 -1.07,0.32 -0.15,0.04 0.03,0.14 0.14,1.06 v 0.02 l 0.01,0.03 0.37,0.741 0.04,0.08 0.09,0.01 0.06,0.01 -0.84,1.641 -0.13,0.25 h 2.17 l 0.02,-0.15 0.13,-1.461 0.08,0.02 0.03,0.012 h 0.78 l 0.03,-0.012 0.71,-0.309 0.569,-0.1 0.391,0.189 0.06,0.029 0.061,-0.02 0.449,-0.131 -0.01,0.021 -0.5,1.58 -0.08,0.229 h 2.33 L 53.67,51.06 53.3,49.371 53.28,49.26 l 0,0 0.26,-0.26 0.04,-0.029 0.01,-0.051 0.04,-0.17 0.07,-0.29 0.04,-0.17 0.01,-0.05 -0.02,-0.05 -0.209,-0.63 m -0.17,0.9 h -0.73 -0.02 l -0.75,0.1 -0.761,-0.2 -0.67,-0.11 H 50.4 49.71 l -0.06,0.07 -0.24,0.26 -0.98,0.19 -1.12,-0.2 -0.09,-0.06 -0.12,-0.88 0.95,-0.27 0.94,-0.32 0.68,-0.2 0.9,0.2 0.79,0.21 0.899,0.2 0.33,0.29 0.051,0.04 h 0.59 l 0.17,0.48 -0.049,0.2 m -0.061,2.47 h -1.439 l 0.399,-1.26 0.75,-0.08 0.29,1.34 m -4.94,0.099 h -1.3 l 0.69,-1.33 0.73,0.07 -0.12,1.26 0,0 z"
   id="path3305"
   clip-path="url(#SVGID_4_)"
   inkscape:connector-curvature="0" />
		
			<path
   style="fill:none;stroke:#0c0c0c;stroke-width:0.01;stroke-linecap:round;stroke-miterlimit:10"
   d="m 53.521,47.56 -0.04,-0.11 h -0.71 l -0.32,-0.28 -0.03,-0.03 -0.04,-0.01 -0.939,-0.21 -0.79,-0.21 -0.952,-0.21 -0.04,-0.01 -0.04,0.01 -0.73,0.21 -0.95,0.32 -1.07,0.32 -0.15,0.04 0.03,0.14 0.14,1.06 v 0.02 l 0.01,0.03 0.37,0.741 0.04,0.08 0.09,0.01 0.06,0.01 -0.84,1.641 -0.13,0.25 h 2.17 l 0.02,-0.15 0.13,-1.461 0.08,0.02 0.03,0.012 h 0.78 l 0.03,-0.012 0.71,-0.309 0.569,-0.1 0.391,0.189 0.06,0.029 0.061,-0.02 0.449,-0.131 -0.01,0.021 -0.5,1.58 -0.08,0.229 h 2.33 L 53.67,51.06 53.3,49.371 53.28,49.26 l 0,0 0.26,-0.26 0.04,-0.029 0.01,-0.051 0.04,-0.17 0.07,-0.29 0.04,-0.17 0.01,-0.05 -0.02,-0.05 -0.209,-0.63 m -0.17,0.9 h -0.73 -0.02 l -0.75,0.1 -0.761,-0.2 -0.67,-0.11 H 50.4 49.71 l -0.06,0.07 -0.24,0.26 -0.98,0.19 -1.12,-0.2 -0.09,-0.06 -0.12,-0.88 0.95,-0.27 0.94,-0.32 0.68,-0.2 0.9,0.2 0.79,0.21 0.899,0.2 0.33,0.29 0.051,0.04 h 0.59 l 0.17,0.48 -0.049,0.2 m -0.061,2.47 h -1.439 l 0.399,-1.26 0.75,-0.08 0.29,1.34 m -4.94,0.099 h -1.3 l 0.69,-1.33 0.73,0.07 -0.12,1.26 0,0 z"
   id="path3307"
   clip-path="url(#SVGID_4_)"
   inkscape:connector-curvature="0" />
	</g>
</g>
</svg>