<?xml version="1.0" encoding="UTF-8" standalone="no"?>
<!-- Generator: Adobe Illustrator 13.0.0, SVG Export Plug-In  -->

<svg
   xmlns:dc="http://purl.org/dc/elements/1.1/"
   xmlns:cc="http://creativecommons.org/ns#"
   xmlns:rdf="http://www.w3.org/1999/02/22-rdf-syntax-ns#"
   xmlns:svg="http://www.w3.org/2000/svg"
   xmlns="http://www.w3.org/2000/svg"
   xmlns:sodipodi="http://sodipodi.sourceforge.net/DTD/sodipodi-0.dtd"
   xmlns:inkscape="http://www.inkscape.org/namespaces/inkscape"
   version="1.1"
   x="0px"
   y="0px"
   width="10.771"
   height="10.809"
   viewBox="-0.482 -0.541 10.771 10.809"
   enable-background="new -0.482 -0.541 12 12"
   xml:space="preserve"
   id="svg3242"
   inkscape:version="0.48.0 r9654"
   sodipodi:docname="e100_Musee.svg"><metadata
   id="metadata3250"><rdf:RDF><cc:Work
       rdf:about=""><dc:format>image/svg+xml</dc:format><dc:type
         rdf:resource="http://purl.org/dc/dcmitype/StillImage" /></cc:Work></rdf:RDF></metadata><sodipodi:namedview
   pagecolor="#ffffff"
   bordercolor="#666666"
   borderopacity="1"
   objecttolerance="10"
   gridtolerance="10"
   guidetolerance="10"
   inkscape:pageopacity="0"
   inkscape:pageshadow="2"
   inkscape:window-width="640"
   inkscape:window-height="480"
   id="namedview3248"
   showgrid="false"
   fit-margin-top="0"
   fit-margin-left="0"
   fit-margin-right="0"
   fit-margin-bottom="0"
   inkscape:zoom="24.25"
   inkscape:cx="5.518"
   inkscape:cy="5.35"
   inkscape:window-x="281"
   inkscape:window-y="382"
   inkscape:window-maximized="0"
   inkscape:current-layer="svg3242" />
<defs
   id="defs3244">
</defs>
<rect
   style="fill:#ffffff;stroke:#ffffff;stroke-width:0.95170045;stroke-opacity:1"
   id="rect2984"
   width="9.4020615"
   height="7.0964704"
   x="0.21125796"
   y="0.14584795" /><rect
   style="fill:#ffffff;fill-opacity:1;stroke:#ffffff;stroke-width:1;stroke-opacity:1"
   id="rect2996"
   width="4.7422681"
   height="1.814433"
   x="1.3452238"
   y="8.1410246"
   transform="matrix(0.92338423,-0.38387701,0.38387701,0.92338423,0,0)"
   inkscape:transform-center-x="0.70828221"
   inkscape:transform-center-y="0.22582892" /><rect
   style="fill:#ffffff;fill-opacity:1;stroke:#ffffff;stroke-width:1;stroke-opacity:1"
   id="rect2996-8"
   width="4.7422681"
   height="1.814433"
   x="-7.7528491"
   y="-5.9829187"
   transform="matrix(-0.91136532,-0.41159841,0.41159841,-0.91136532,0,0)"
   inkscape:transform-center-x="-4.3774963"
   inkscape:transform-center-y="-0.10904665" /><path
   d="m -0.482,-0.541 0.023,8.409 5.375,2.4 5.373,-2.171 V -0.541 H -0.482 z M 9.439,7.523 C 8.98,7.709 5.228,9.225 4.933,9.344 4.641,9.213 0.827,7.51 0.39,7.315 0.389,6.834 0.372,1.042 0.37,0.31 H 9.439 V 7.523 z M 2.552,3.255 c 0,0 1.955,3.207 1.932,3.207 C 4.459,6.462 5.4,6.439 5.4,6.439 L 7.257,3.035 V 6.267 H 8.392 V 1.615 L 6.774,1.638 4.892,4.871 3.06,1.638 1.417,1.615 V 6.316 L 2.552,6.293 V 3.255 z"
   id="path3246"
   inkscape:connector-curvature="0"
   style="fill:#7d7d7d" />
</svg>
