<?xml version="1.0" encoding="UTF-8" standalone="no"?>
<!-- Generator: Adobe Illustrator 13.0.0, SVG Export Plug-In  -->

<svg
   xmlns:dc="http://purl.org/dc/elements/1.1/"
   xmlns:cc="http://creativecommons.org/ns#"
   xmlns:rdf="http://www.w3.org/1999/02/22-rdf-syntax-ns#"
   xmlns:svg="http://www.w3.org/2000/svg"
   xmlns="http://www.w3.org/2000/svg"
   xmlns:sodipodi="http://sodipodi.sourceforge.net/DTD/sodipodi-0.dtd"
   xmlns:inkscape="http://www.inkscape.org/namespaces/inkscape"
   version="1.1"
   x="0px"
   y="0px"
   width="10.771"
   height="10.809"
   viewBox="-0.906 -0.208 10.771 10.809"
   enable-background="new -0.906 -0.208 12 12"
   xml:space="preserve"
   id="svg3674"
   inkscape:version="0.48.0 r9654"
   sodipodi:docname="e100_Station_de_sports_d_hiver.svg"><metadata
   id="metadata3682"><rdf:RDF><cc:Work
       rdf:about=""><dc:format>image/svg+xml</dc:format><dc:type
         rdf:resource="http://purl.org/dc/dcmitype/StillImage" /></cc:Work></rdf:RDF></metadata><sodipodi:namedview
   pagecolor="#ffffff"
   bordercolor="#666666"
   borderopacity="1"
   objecttolerance="10"
   gridtolerance="10"
   guidetolerance="10"
   inkscape:pageopacity="0"
   inkscape:pageshadow="2"
   inkscape:window-width="640"
   inkscape:window-height="480"
   id="namedview3680"
   showgrid="false"
   fit-margin-top="0"
   fit-margin-left="0"
   fit-margin-right="0"
   fit-margin-bottom="0"
   inkscape:zoom="24.25"
   inkscape:cx="5.094"
   inkscape:cy="5.017"
   inkscape:window-x="233"
   inkscape:window-y="324"
   inkscape:window-maximized="0"
   inkscape:current-layer="svg3674" />
<defs
   id="defs3676">
</defs>
<rect
   style="fill:#ffffff;stroke:#ffffff;stroke-width:0.95170045;stroke-opacity:1"
   id="rect2984"
   width="9.4020615"
   height="7.0964704"
   x="-0.14189668"
   y="0.56442553" /><rect
   style="fill:#ffffff;fill-opacity:1;stroke:#ffffff;stroke-width:1;stroke-opacity:1"
   id="rect2996"
   width="4.7422681"
   height="1.814433"
   x="0.85844415"
   y="8.391964"
   transform="matrix(0.92338423,-0.38387701,0.38387701,0.92338423,0,0)"
   inkscape:transform-center-x="0.70828221"
   inkscape:transform-center-y="0.22582892" /><rect
   style="fill:#ffffff;fill-opacity:1;stroke:#ffffff;stroke-width:1;stroke-opacity:1"
   id="rect2996-8"
   width="4.7422681"
   height="1.814433"
   x="-7.6032825"
   y="-6.5097537"
   transform="matrix(-0.91136532,-0.41159841,0.41159841,-0.91136532,0,0)"
   inkscape:transform-center-x="-4.3774963"
   inkscape:transform-center-y="-0.10904665" /><path
   d="m -0.906,-0.208 0.023,8.409 5.375,2.4 L 9.865,8.43 V -0.208 H -0.906 z M 9.015,7.856 C 8.556,8.042 4.804,9.558 4.509,9.677 4.217,9.546 0.403,7.843 -0.034,7.648 -0.035,7.167 -0.052,1.375 -0.054,0.643 H 9.015 V 7.856 z M 1.033,4.085 2.259,3.811 3.174,4.448 V 5.196 L 2.28,5.944 1.065,5.76 0.989,6.264 c 0,0 0.417,0.063 0.77,0.116 L 1.294,6.77 1.621,7.161 2.101,6.759 C 2.086,7.112 2.066,7.545 2.066,7.545 L 2.576,7.568 2.633,6.313 3.379,5.688 4.26,6.233 4.273,7.282 3.361,8.108 3.704,8.487 c 0,0 0.313,-0.284 0.578,-0.523 L 4.29,8.57 4.8,8.564 4.791,7.938 C 5.054,8.174 5.376,8.462 5.376,8.462 L 5.716,8.081 4.782,7.245 4.769,6.255 5.664,5.631 6.472,6.12 6.69,7.329 7.192,7.239 c 0,0 -0.074,-0.416 -0.138,-0.768 L 7.572,6.784 7.836,6.348 7.299,6.025 C 7.639,5.925 8.055,5.804 8.055,5.804 L 7.912,5.314 6.706,5.666 5.848,5.147 5.806,4.3 6.674,3.623 7.883,3.848 7.977,3.346 c 0,0 -0.415,-0.077 -0.766,-0.142 L 7.689,2.831 7.374,2.428 6.881,2.813 C 6.908,2.46 6.943,2.03 6.943,2.03 L 6.434,1.99 6.336,3.239 5.53,3.868 4.679,3.371 V 2.374 L 5.601,1.561 5.263,1.178 c 0,0 -0.316,0.279 -0.584,0.515 V 1.088 H 4.169 V 1.713 C 3.909,1.475 3.589,1.182 3.589,1.182 L 3.244,1.558 4.169,2.407 V 3.444 L 3.373,3.965 2.523,3.374 2.381,2.153 1.874,2.211 c 0,0 0.049,0.419 0.09,0.773 L 1.467,2.639 1.176,3.058 1.69,3.416 C 1.344,3.493 0.922,3.587 0.922,3.587 l 0.111,0.498 z m 2.65,0.286 C 3.84,4.268 4.307,3.963 4.483,3.848 4.664,3.954 5.135,4.229 5.296,4.324 5.306,4.511 5.332,5.044 5.342,5.235 5.184,5.345 4.712,5.675 4.529,5.803 4.339,5.685 3.847,5.382 3.683,5.28 V 4.371 z M 4.841,4.625 4.497,4.454 4.153,4.625 V 5.004 L 4.497,5.193 4.823,5.004 4.841,4.625 z"
   id="path3678"
   inkscape:connector-curvature="0"
   style="fill:#1C62A6" />
</svg>