<?xml version="1.0" encoding="UTF-8" standalone="no"?>
<!-- Generator: Adobe Illustrator 13.0.0, SVG Export Plug-In . SVG Version: 6.00 Build 14948)  -->

<svg
   xmlns:dc="http://purl.org/dc/elements/1.1/"
   xmlns:cc="http://creativecommons.org/ns#"
   xmlns:rdf="http://www.w3.org/1999/02/22-rdf-syntax-ns#"
   xmlns:svg="http://www.w3.org/2000/svg"
   xmlns="http://www.w3.org/2000/svg"
   xmlns:xlink="http://www.w3.org/1999/xlink"
   xmlns:sodipodi="http://sodipodi.sourceforge.net/DTD/sodipodi-0.dtd"
   xmlns:inkscape="http://www.inkscape.org/namespaces/inkscape"
   version="1.1"
   id="Layer_4"
   x="0px"
   y="0px"
   width="5.3600001"
   height="5.3600001"
   viewBox="0 0 5.3600002 5.3600002"
   enable-background="new 0 0 62.05 62.05"
   xml:space="preserve"
   inkscape:version="0.48.0 r9654"
   sodipodi:docname="e1000_arrondissement.svg"><metadata
   id="metadata20"><rdf:RDF><cc:Work
       rdf:about=""><dc:format>image/svg+xml</dc:format><dc:type
         rdf:resource="http://purl.org/dc/dcmitype/StillImage" /></cc:Work></rdf:RDF></metadata><sodipodi:namedview
   pagecolor="#ffffff"
   bordercolor="#666666"
   borderopacity="1"
   objecttolerance="10"
   gridtolerance="10"
   guidetolerance="10"
   inkscape:pageopacity="0"
   inkscape:pageshadow="2"
   inkscape:window-width="640"
   inkscape:window-height="480"
   id="namedview18"
   showgrid="false"
   units="mm"
   inkscape:zoom="4.2062853"
   inkscape:cx="2.6800003"
   inkscape:cy="2.6800003"
   inkscape:window-x="0"
   inkscape:window-y="0"
   inkscape:window-maximized="0"
   inkscape:current-layer="Layer_4"
   fit-margin-top="0"
   fit-margin-left="0"
   fit-margin-right="0"
   fit-margin-bottom="0" />
<defs
   id="defs3">
	<polygon
   id="SVGID_1_"
   points="0,53.19 0,62.05 8.86,62.05 17.73,62.05 26.59,62.05 35.46,62.05 44.32,62.05 53.19,62.05 62.05,62.05 62.05,53.19 62.05,44.32 62.05,35.46 62.05,26.59 62.05,17.73 62.05,8.86 62.05,0 53.19,0 44.32,0 35.46,0 26.59,0 17.73,0 8.86,0 0,0 0,8.86 0,17.73 0,26.59 0,35.46 0,44.32 " />
</defs>
<clipPath
   id="SVGID_2_">
	<use
   xlink:href="#SVGID_1_"
   overflow="visible"
   id="use7"
   style="overflow:visible"
   x="0"
   y="0"
   width="62.049999"
   height="62.049999" />
</clipPath>
<g
   id="clip"
   clip-path="url(#SVGID_2_)"
   transform="translate(-28.345,-28.345)">
</g>
<g
   id="Surface"
   clip-path="url(#SVGID_2_)"
   transform="translate(-28.345,-28.345)">
	<polygon
   points="32.93,32.59 33.07,32.4 33.2,32.2 33.3,31.98 33.38,31.76 33.44,31.52 33.48,31.27 33.49,31.02 33.48,30.77 33.44,30.52 33.38,30.29 33.3,30.06 33.2,29.85 33.07,29.64 32.93,29.45 32.77,29.28 32.6,29.12 32.41,28.98 32.2,28.85 31.99,28.75 31.76,28.67 31.52,28.61 31.28,28.57 31.03,28.56 30.77,28.57 30.53,28.61 30.29,28.67 30.07,28.75 29.85,28.85 29.65,28.98 29.46,29.12 29.28,29.28 29.12,29.45 28.98,29.64 28.86,29.85 28.75,30.06 28.67,30.29 28.61,30.52 28.57,30.77 28.56,31.02 28.57,31.27 28.61,31.52 28.67,31.76 28.75,31.98 28.86,32.2 28.98,32.4 29.12,32.59 29.28,32.77 29.46,32.92 29.65,33.07 29.85,33.19 30.07,33.29 30.29,33.38 30.53,33.44 30.77,33.47 31.03,33.49 31.28,33.47 31.52,33.44 31.76,33.38 31.99,33.29 32.2,33.19 32.41,33.07 32.6,32.92 32.77,32.77 "
   id="polygon11"
   style="fill:#ffffff" />
	<polygon
   points="32.41,30.74 32.33,30.47 32.2,30.23 32.03,30.02 31.82,29.85 31.58,29.72 31.31,29.63 31.03,29.6 30.74,29.63 30.47,29.72 30.23,29.85 30.02,30.02 29.85,30.23 29.72,30.47 29.64,30.74 29.61,31.02 29.64,31.31 29.72,31.57 29.85,31.81 30.02,32.02 30.23,32.2 30.47,32.33 30.74,32.41 31.03,32.44 31.31,32.41 31.58,32.33 31.82,32.2 32.03,32.02 32.2,31.81 32.33,31.57 32.41,31.31 32.44,31.02 "
   id="polygon13"
   style="fill:none;stroke:#0c0c0c;stroke-width:0.43090001" />
</g>
<g
   id="Ligne_1_"
   clip-path="url(#SVGID_2_)"
   transform="translate(-28.345,-28.345)">
	<polyline
   points="31.03,33.49 31.28,33.47 31.52,33.44 31.76,33.38 31.99,33.29    32.2,33.19 32.41,33.07 32.6,32.92 32.77,32.77 32.93,32.59 33.07,32.4 33.2,32.2 33.3,31.98 33.38,31.76 33.44,31.52 33.48,31.27    33.49,31.02 33.48,30.77 33.44,30.52 33.38,30.29 33.3,30.06 33.2,29.85 33.07,29.64 32.93,29.45 32.77,29.28 32.6,29.12    32.41,28.98 32.2,28.85 31.99,28.75 31.76,28.67 31.52,28.61 31.28,28.57 31.03,28.56 30.77,28.57 30.53,28.61 30.29,28.67    30.07,28.75 29.85,28.85 29.65,28.98 29.46,29.12 29.28,29.28 29.12,29.45 28.98,29.64 28.86,29.85 28.75,30.06 28.67,30.29    28.61,30.52 28.57,30.77 28.56,31.02 28.57,31.27 28.61,31.52 28.67,31.76 28.75,31.98 28.86,32.2 28.98,32.4 29.12,32.59    29.28,32.77 29.46,32.92 29.65,33.07 29.85,33.19 30.07,33.29 30.29,33.38 30.53,33.44 30.77,33.47 31.03,33.49  "
   id="polyline16"
   style="fill:none;stroke:#0c0c0c;stroke-width:0.43000001" />
</g>
</svg>