<?xml version="1.0" encoding="UTF-8" standalone="no"?>
<!-- Generator: Adobe Illustrator 13.0.0, SVG Export Plug-In  -->

<svg
   xmlns:dc="http://purl.org/dc/elements/1.1/"
   xmlns:cc="http://creativecommons.org/ns#"
   xmlns:rdf="http://www.w3.org/1999/02/22-rdf-syntax-ns#"
   xmlns:svg="http://www.w3.org/2000/svg"
   xmlns="http://www.w3.org/2000/svg"
   xmlns:sodipodi="http://sodipodi.sourceforge.net/DTD/sodipodi-0.dtd"
   xmlns:inkscape="http://www.inkscape.org/namespaces/inkscape"
   version="1.1"
   x="0px"
   y="0px"
   width="5.9499998"
   height="17.25"
   viewBox="-0.085 -0.94 5.9499998 17.25"
   enable-background="new -0.085 -0.94 7 13"
   xml:space="preserve"
   id="svg4488"
   inkscape:version="0.48.0 r9654"
   sodipodi:docname="e100_Eglise_touristique.svg"><metadata
   id="metadata4496"><rdf:RDF><cc:Work
       rdf:about=""><dc:format>image/svg+xml</dc:format><dc:type
         rdf:resource="http://purl.org/dc/dcmitype/StillImage" /></cc:Work></rdf:RDF></metadata><sodipodi:namedview
   pagecolor="#ffffff"
   bordercolor="#666666"
   borderopacity="1"
   objecttolerance="10"
   gridtolerance="10"
   guidetolerance="10"
   inkscape:pageopacity="0"
   inkscape:pageshadow="2"
   inkscape:window-width="652"
   inkscape:window-height="733"
   id="namedview4494"
   showgrid="false"
   fit-margin-top="0"
   fit-margin-left="0"
   fit-margin-right="0"
   fit-margin-bottom="0"
   inkscape:zoom="22.384615"
   inkscape:cx="3.415"
   inkscape:cy="6.777215"
   inkscape:window-x="411"
   inkscape:window-y="101"
   inkscape:window-maximized="0"
   inkscape:current-layer="svg4488" />
<defs
   id="defs4490">
</defs>
<path
   d="m 3.2616735,4.5230206 v -2.745 h 1.799 V 0.92802062 h -1.799 v -1.873 h -0.851 v 1.873 H 0.51167354 V 1.7790206 H 2.4106735 v 2.765 c -1.39,0.249 -2.45099996,1.462 -2.45099996,2.924 0,1.641 1.33499996,2.9760004 2.97599996,2.9760004 1.641,0 2.976,-1.3350004 2.976,-2.9760004 0,-1.531 -1.164,-2.78 -2.65,-2.945 z m -0.326,5.071 c -1.172,0 -2.12499996,-0.954 -2.12499996,-2.126 0,-1.173 0.95399996,-2.127 2.12499996,-2.127 1.171,0 2.126,0.954 2.126,2.127 0,1.171 -0.954,2.126 -2.126,2.126 z"
   id="path4492"
   inkscape:connector-curvature="0"
   style="fill:#7d7d7d"
   inkscape:transform-center-y="-2.725086" />
<path
   sodipodi:type="arc"
   style="fill:#ffffff"
   id="path2986"
   sodipodi:cx="2.9553266"
   sodipodi:cy="5.8568525"
   sodipodi:rx="0.94845361"
   sodipodi:ry="0.8797251"
   d="m 3.9037802,5.8568525 a 0.94845361,0.8797251 0 1 1 -1.8969072,0 0.94845361,0.8797251 0 1 1 1.8969072,0 z"
   transform="matrix(2.2669302,-0.25112415,0.26558211,2.397444,-5.3692038,-5.9601)" /></svg>
