<?xml version="1.0" encoding="UTF-8" standalone="no"?>
<!-- Generator: Adobe Illustrator 13.0.0, SVG Export Plug-In . SVG Version: 6.00 Build 14948)  -->

<svg
   xmlns:dc="http://purl.org/dc/elements/1.1/"
   xmlns:cc="http://creativecommons.org/ns#"
   xmlns:rdf="http://www.w3.org/1999/02/22-rdf-syntax-ns#"
   xmlns:svg="http://www.w3.org/2000/svg"
   xmlns="http://www.w3.org/2000/svg"
   xmlns:xlink="http://www.w3.org/1999/xlink"
   xmlns:sodipodi="http://sodipodi.sourceforge.net/DTD/sodipodi-0.dtd"
   xmlns:inkscape="http://www.inkscape.org/namespaces/inkscape"
   version="1.1"
   id="Layer_4"
   x="0px"
   y="0px"
   width="28.379999"
   height="28.24"
   viewBox="0 0 28.379999 28.239999"
   enable-background="new 0 0 85.07 84.93"
   xml:space="preserve"
   inkscape:version="0.48.2 r9819"
   sodipodi:docname="e1000_croisillon.svg"><metadata
   id="metadata17"><rdf:RDF><cc:Work
       rdf:about=""><dc:format>image/svg+xml</dc:format><dc:type
         rdf:resource="http://purl.org/dc/dcmitype/StillImage" /></cc:Work></rdf:RDF></metadata><sodipodi:namedview
   pagecolor="#ffffff"
   bordercolor="#666666"
   borderopacity="1"
   objecttolerance="10"
   gridtolerance="10"
   guidetolerance="10"
   inkscape:pageopacity="0"
   inkscape:pageshadow="2"
   inkscape:window-width="640"
   inkscape:window-height="480"
   id="namedview15"
   showgrid="false"
   units="mm"
   inkscape:zoom="3.073119"
   inkscape:cx="14.184999"
   inkscape:cy="14.124995"
   inkscape:window-x="399"
   inkscape:window-y="81"
   inkscape:window-maximized="0"
   inkscape:current-layer="Layer_4"
   fit-margin-top="0"
   fit-margin-left="0"
   fit-margin-right="0"
   fit-margin-bottom="0" />
<defs
   id="defs3">
	<polygon
   id="SVGID_1_"
   points="0,50.96 0,59.45 0,67.95 0,76.44 0,84.93 8.51,84.93 17.01,84.93 25.52,84.93 34.03,84.93 42.54,84.93 51.04,84.93 59.55,84.93 68.06,84.93 76.56,84.93 85.07,84.93 85.07,76.44 85.07,67.95 85.07,59.45 85.07,50.96 85.07,42.47 85.07,33.97 85.07,25.48 85.07,16.99 85.07,8.49 85.07,0 76.56,0 68.06,0 59.55,0 51.04,0 42.54,0 34.03,0 25.52,0 17.01,0 8.51,0 0,0 0,8.49 0,16.99 0,25.48 0,33.97 0,42.47 " />
</defs>
<clipPath
   id="SVGID_2_">
	<use
   xlink:href="#SVGID_1_"
   overflow="visible"
   id="use7"
   style="overflow:visible"
   x="0"
   y="0"
   width="85.07"
   height="84.93" />
</clipPath>
<g
   id="clip"
   clip-path="url(#SVGID_2_)"
   transform="translate(-28.35,-28.350001)">
</g>
<g
   id="Surface"
   clip-path="url(#SVGID_2_)"
   transform="translate(-28.35,-28.350001)"
   style="fill:#1C62A6">
	<rect
   x="28.35"
   y="41.959999"
   width="28.379999"
   height="1.66"
   id="rect11"
   style="fill:#1C62A6" />
	<rect
   x="41.389999"
   y="28.35"
   width="1.66"
   height="28.24"
   id="rect13"
   style="fill:#1C62A6" />
</g>
</svg>