<?xml version="1.0" encoding="UTF-8" standalone="no"?>
<!-- Generator: Adobe Illustrator 13.0.0, SVG Export Plug-In  -->

<svg
   xmlns:dc="http://purl.org/dc/elements/1.1/"
   xmlns:cc="http://creativecommons.org/ns#"
   xmlns:rdf="http://www.w3.org/1999/02/22-rdf-syntax-ns#"
   xmlns:svg="http://www.w3.org/2000/svg"
   xmlns="http://www.w3.org/2000/svg"
   xmlns:sodipodi="http://sodipodi.sourceforge.net/DTD/sodipodi-0.dtd"
   xmlns:inkscape="http://www.inkscape.org/namespaces/inkscape"
   version="1.1"
   x="0px"
   y="0px"
   width="7.2859998"
   height="6.9559999"
   viewBox="-0.855 -0.747 7.2859998 6.9559999"
   enable-background="new -0.855 -0.747 9 8"
   xml:space="preserve"
   id="svg4410"
   inkscape:version="0.48.1 "
   sodipodi:docname="e100_Curiosites.svg"><metadata
   id="metadata4420"><rdf:RDF><cc:Work
       rdf:about=""><dc:format>image/svg+xml</dc:format><dc:type
         rdf:resource="http://purl.org/dc/dcmitype/StillImage" /></cc:Work></rdf:RDF></metadata><sodipodi:namedview
   pagecolor="#ffffff"
   bordercolor="#666666"
   borderopacity="1"
   objecttolerance="10"
   gridtolerance="10"
   guidetolerance="10"
   inkscape:pageopacity="0"
   inkscape:pageshadow="2"
   inkscape:window-width="640"
   inkscape:window-height="480"
   id="namedview4418"
   showgrid="false"
   fit-margin-top="0"
   fit-margin-left="0"
   fit-margin-right="0"
   fit-margin-bottom="0"
   inkscape:zoom="36.375"
   inkscape:cx="3.645"
   inkscape:cy="3.703"
   inkscape:window-x="171"
   inkscape:window-y="140"
   inkscape:window-maximized="0"
   inkscape:current-layer="svg4410" />
<defs
   id="defs4412">
</defs>
<polygon
   points="5.097,4.322 5.89,6.946 3.64,5.381 1.391,6.946 2.184,4.322 0,2.668 2.74,2.611 3.64,0.023 4.54,2.611 7.28,2.668 "
   id="polygon4414"
   style="fill:#7d7d7d"
   transform="translate(-0.855,-0.747)" />
<path
   d="M 2.777,-0.726 2.721,-0.564 2.665,-0.403 2.608,-0.241 2.552,-0.079 2.496,0.083 2.44,0.245 2.384,0.406 2.328,0.568 2.271,0.73 2.215,0.891 2.159,1.053 2.103,1.215 2.047,1.377 1.991,1.539 1.934,1.7 1.878,1.862 1.708,1.865 1.537,1.868 1.366,1.872 1.195,1.875 1.024,1.878 0.853,1.881 0.682,1.884 0.511,1.887 0.34,1.89 0.169,1.894 -0.001,1.897 -0.171,1.9 -0.342,1.903 -0.513,1.907 -0.684,1.91 l -0.171,0.003 0.136,0.104 0.136,0.104 0.136,0.104 0.136,0.104 0.136,0.104 0.136,0.104 L 0.099,2.643 0.235,2.748 0.371,2.852 0.507,2.956 0.643,3.06 0.779,3.164 0.915,3.268 1.052,3.373 1.188,3.477 1.324,3.581 1.275,3.746 1.225,3.909 1.175,4.072 1.125,4.236 1.075,4.399 1.025,4.562 0.975,4.726 0.925,4.889 0.875,5.052 0.825,5.216 0.775,5.379 0.727,5.543 0.677,5.707 0.627,5.87 0.578,6.033 0.528,6.197 0.669,6.099 0.811,6.003 0.952,5.906 1.093,5.808 1.235,5.711 1.376,5.613 1.517,5.515 1.659,5.418 1.801,5.321 1.942,5.223 2.083,5.125 2.225,5.027 2.365,4.931 2.506,4.834 2.648,4.737 2.789,4.639 l 0.14,0.098 0.14,0.098 0.14,0.098 0.14,0.098 0.14,0.098 0.141,0.098 0.141,0.098 0.14,0.099 0.14,0.099 0.141,0.098 0.141,0.098 0.14,0.098 0.14,0.098 0.141,0.098 0.141,0.098 0.14,0.098 L 4.985,6.045 4.932,5.876 4.883,5.711 4.834,5.546 4.786,5.382 4.737,5.217 4.688,5.052 4.639,4.888 4.59,4.724 4.541,4.559 4.493,4.394 4.444,4.23 4.395,4.066 4.346,3.902 4.297,3.738 4.249,3.573 4.385,3.47 4.521,3.367 4.657,3.264 4.794,3.161 4.931,3.058 5.068,2.955 5.204,2.853 5.34,2.75 5.475,2.647 5.612,2.544 5.749,2.441 5.885,2.338 6.022,2.235 6.158,2.133 6.294,2.03 6.431,1.927 6.258,1.923 6.086,1.919 5.915,1.914 5.744,1.91 5.573,1.905 5.401,1.901 5.229,1.897 5.057,1.892 4.885,1.888 4.714,1.883 4.543,1.879 4.372,1.875 4.2,1.87 4.028,1.866 3.856,1.861 3.685,1.857 3.629,1.694 3.573,1.531 3.516,1.368 3.459,1.206 3.403,1.043 3.347,0.88 3.291,0.717 3.235,0.555 3.179,0.392 3.123,0.229 3.066,0.066 3.01,-0.096 2.954,-0.259 2.897,-0.421 2.841,-0.584 2.785,-0.747 l 0,0.001 0,0.001 0,0.001 0,0.001 0,0.001 0,0.001 0,0.001 0,0.001 0,0.001 0,0.001 0,0.001 0,0.001 0,0.001 0,0.001 v 0.006 l -0.008,0.001 0,0 z M 1.336,3.578 1.2,3.474 1.063,3.37 0.926,3.266 0.79,3.162 0.653,3.058 0.516,2.955 0.379,2.851 0.243,2.747 0.106,2.643 -0.031,2.539 -0.167,2.435 -0.304,2.331 -0.441,2.227 -0.578,2.123 -0.714,2.019 -0.851,1.915 -0.679,1.913 -0.508,1.91 -0.337,1.907 -0.166,1.905 0.005,1.903 0.175,1.899 0.346,1.896 0.517,1.894 0.688,1.892 0.859,1.889 1.03,1.886 1.201,1.883 1.372,1.881 1.543,1.878 1.714,1.875 1.885,1.872 1.895,1.844 1.923,1.763 1.967,1.638 2.024,1.476 2.091,1.284 2.166,1.069 2.247,0.839 2.33,0.601 2.413,0.363 2.494,0.132 2.57,-0.085 2.638,-0.28 l 0.058,-0.167 0.046,-0.13 0.03,-0.086 0.013,-0.037 0.013,0.036 0.03,0.086 0.045,0.13 0.058,0.167 0.067,0.194 L 3.074,0.13 3.154,0.361 3.237,0.599 3.32,0.836 3.399,1.065 3.473,1.279 3.54,1.471 3.597,1.633 3.64,1.758 3.668,1.839 3.678,1.867 3.85,1.871 4.022,1.875 4.194,1.879 4.365,1.882 4.536,1.886 4.708,1.89 4.88,1.894 5.052,1.898 5.224,1.902 5.395,1.906 5.567,1.91 5.739,1.914 5.911,1.918 6.083,1.922 6.255,1.926 6.425,1.929 6.288,2.031 6.151,2.134 6.014,2.236 5.877,2.339 5.741,2.441 5.604,2.544 5.467,2.647 5.331,2.749 5.194,2.852 5.057,2.954 4.92,3.057 4.784,3.159 4.647,3.262 4.51,3.364 4.374,3.467 4.237,3.569 l 0.049,0.165 0.05,0.164 0.05,0.164 0.049,0.165 0.05,0.165 0.05,0.164 0.049,0.164 0.05,0.165 0.05,0.165 0.049,0.164 0.05,0.164 0.05,0.164 0.049,0.164 0.05,0.165 0.05,0.165 L 5.031,6.2 4.888,6.103 4.748,6.004 4.608,5.906 4.468,5.808 4.328,5.709 4.188,5.611 4.048,5.513 3.908,5.414 3.768,5.315 3.628,5.217 3.489,5.12 3.349,5.021 3.209,4.923 3.069,4.824 2.929,4.725 2.789,4.627 2.648,4.726 2.507,4.824 2.366,4.921 2.225,5.019 2.083,5.117 1.942,5.214 1.801,5.312 1.66,5.411 1.519,5.509 1.378,5.607 1.237,5.705 1.096,5.802 0.955,5.9 0.813,5.998 0.672,6.095 0.531,6.193 0.581,6.029 0.631,5.866 0.681,5.703 0.731,5.539 0.781,5.376 0.831,5.213 0.881,5.049 0.931,4.886 0.981,4.723 1.031,4.559 1.081,4.396 1.131,4.233 1.181,4.069 1.231,3.906 1.281,3.743 1.336,3.578 l 0,0 z"
   id="path4416"
   inkscape:connector-curvature="0"
   style="fill:#7d7d7d" />
</svg>
