<?xml version="1.0" encoding="UTF-8" standalone="no"?>
<!-- Generator: Adobe Illustrator 13.0.0, SVG Export Plug-In . SVG Version: 6.00 Build 14948)  -->

<svg
   xmlns:dc="http://purl.org/dc/elements/1.1/"
   xmlns:cc="http://creativecommons.org/ns#"
   xmlns:rdf="http://www.w3.org/1999/02/22-rdf-syntax-ns#"
   xmlns:svg="http://www.w3.org/2000/svg"
   xmlns="http://www.w3.org/2000/svg"
   xmlns:xlink="http://www.w3.org/1999/xlink"
   xmlns:sodipodi="http://sodipodi.sourceforge.net/DTD/sodipodi-0.dtd"
   xmlns:inkscape="http://www.inkscape.org/namespaces/inkscape"
   version="1.1"
   id="Layer_4"
   x="0px"
   y="0px"
   width="48.189999"
   height="60.949997"
   viewBox="0 0 48.19 60.949997"
   enable-background="new 0 0 104.88 117.64"
   xml:space="preserve"
   inkscape:version="0.48.0 r9654"
   sodipodi:docname="e1000_caisson_partiel_tres_etroit_ech.svg"><metadata
   id="metadata18"><rdf:RDF><cc:Work
       rdf:about=""><dc:format>image/svg+xml</dc:format><dc:type
         rdf:resource="http://purl.org/dc/dcmitype/StillImage" /></cc:Work></rdf:RDF></metadata><sodipodi:namedview
   pagecolor="#ffffff"
   bordercolor="#666666"
   borderopacity="1"
   objecttolerance="10"
   gridtolerance="10"
   guidetolerance="10"
   inkscape:pageopacity="0"
   inkscape:pageshadow="2"
   inkscape:window-width="640"
   inkscape:window-height="480"
   id="namedview16"
   showgrid="false"
   fit-margin-top="0"
   fit-margin-left="0"
   fit-margin-right="0"
   fit-margin-bottom="0"
   inkscape:zoom="2.2186331"
   inkscape:cx="24.094999"
   inkscape:cy="30.474999"
   inkscape:window-x="0"
   inkscape:window-y="0"
   inkscape:window-maximized="0"
   inkscape:current-layer="Layer_4" />
<defs
   id="defs3">
	<polygon
   id="SVGID_1_"
   points="0,18.1 0,27.15 0,36.2 0,45.25 0,54.29 0,63.34 0,72.39 0,81.44 0,90.49 0,99.54 0,108.59 0,117.64 8.74,117.64 17.48,117.64 26.22,117.64 34.96,117.64 43.7,117.64 52.44,117.64 61.18,117.64 69.92,117.64 78.66,117.64 87.4,117.64 96.14,117.64 104.88,117.64 104.88,108.59 104.88,99.54 104.88,90.49 104.88,81.44 104.88,72.39 104.88,63.34 104.88,54.29 104.88,45.25 104.88,36.2 104.88,27.15 104.88,18.1 104.88,9.05 104.88,0 96.14,0 87.4,0 78.66,0 69.92,0 61.18,0 52.44,0 43.7,0 34.96,0 26.22,0 17.48,0 8.74,0 0,0 0,9.05 " />
</defs>
<clipPath
   id="SVGID_2_">
	<use
   xlink:href="#SVGID_1_"
   overflow="visible"
   id="use7"
   style="overflow:visible"
   x="0"
   y="0"
   width="104.88"
   height="117.64" />
</clipPath>
<g
   id="clip"
   clip-path="url(#SVGID_2_)"
   transform="translate(-28.345,-28.345001)">
</g>
<g
   id="Surface"
   clip-path="url(#SVGID_2_)"
   transform="translate(-28.345,-28.345001)">
	<polygon
   points="58.5,87.02 59.39,86.84 60.26,86.59 61.12,86.27 61.96,85.89 62.79,85.45 63.59,84.94 64.38,84.37 65.14,83.74 65.88,83.06 66.6,82.32 67.29,81.53 67.96,80.69 68.61,79.8 69.22,78.86 69.81,77.88 70.36,76.85 70.89,75.78 71.38,74.67 71.84,73.52 72.27,72.33 72.66,71.11 73.02,69.85 73.33,68.57 73.61,67.25 73.85,65.9 74.05,64.53 74.2,63.14 74.32,61.72 74.39,60.28 74.41,58.82 74.39,57.36 74.32,55.92 74.2,54.5 74.05,53.11 73.85,51.73 73.61,50.39 73.33,49.07 73.02,47.78 72.66,46.53 72.27,45.31 71.84,44.12 71.38,42.97 70.89,41.86 70.36,40.79 69.81,39.76 69.22,38.77 68.61,37.84 67.96,36.94 67.29,36.1 66.6,35.31 65.88,34.58 65.14,33.89 64.38,33.27 63.59,32.7 62.79,32.19 61.96,31.75 61.12,31.36 60.26,31.05 59.39,30.8 58.5,30.62 57.6,30.51 56.69,30.47 48.19,30.47 48.19,30.47 48.19,30.47 47.28,30.51 46.38,30.62 45.49,30.8 44.62,31.05 43.76,31.36 42.92,31.75 42.1,32.19 41.29,32.7 40.51,33.27 39.74,33.89 39,34.58 38.28,35.31 37.59,36.1 36.92,36.94 36.28,37.84 35.66,38.77 35.08,39.76 34.52,40.79 33.99,41.86 33.5,42.97 33.04,44.12 32.61,45.31 32.22,46.53 31.86,47.78 31.55,49.07 31.27,50.39 31.03,51.73 30.83,53.11 30.68,54.5 30.56,55.92 30.5,57.36 30.47,58.82 30.5,60.28 30.56,61.72 30.68,63.14 30.83,64.53 31.03,65.9 31.27,67.25 31.55,68.57 31.86,69.85 32.22,71.11 32.61,72.33 33.04,73.52 33.5,74.67 33.99,75.78 34.52,76.85 35.08,77.88 35.66,78.86 36.28,79.8 36.92,80.69 37.59,81.53 38.28,82.32 39,83.06 39.74,83.74 40.51,84.37 41.29,84.94 42.1,85.45 42.92,85.89 43.76,86.27 44.62,86.59 45.49,86.84 46.38,87.02 47.28,87.13 48.19,87.17 56.69,87.17 57.6,87.13 "
   id="polygon11"
   style="fill:#ffffff" />
</g>
<g
   id="Ligne_1_"
   clip-path="url(#SVGID_2_)"
   transform="translate(-28.345,-28.345001)">
	<polyline
   points="48.19,87.17 56.69,87.17 57.6,87.13 58.5,87.02 59.39,86.84    60.26,86.59 61.12,86.27 61.96,85.89 62.79,85.45 63.59,84.94 64.38,84.37 65.14,83.74 65.88,83.06 66.6,82.32 67.29,81.53    67.96,80.69 68.61,79.8 69.22,78.86 69.81,77.88 70.36,76.85 70.89,75.78 71.38,74.67 71.84,73.52 72.27,72.33 72.66,71.11    73.02,69.85 73.33,68.57 73.61,67.25 73.85,65.9 74.05,64.53 74.2,63.14 74.32,61.72 74.39,60.28 74.41,58.82 74.39,57.36    74.32,55.92 74.2,54.5 74.05,53.11 73.85,51.73 73.61,50.39 73.33,49.07 73.02,47.78 72.66,46.53 72.27,45.31 71.84,44.12    71.38,42.97 70.89,41.86 70.36,40.79 69.81,39.76 69.22,38.77 68.61,37.84 67.96,36.94 67.29,36.1 66.6,35.31 65.88,34.58    65.14,33.89 64.38,33.27 63.59,32.7 62.79,32.19 61.96,31.75 61.12,31.36 60.26,31.05 59.39,30.8 58.5,30.62 57.6,30.51    56.69,30.47 48.19,30.47 48.19,30.47 48.19,30.47 47.28,30.51 46.38,30.62 45.49,30.8 44.62,31.05 43.76,31.36 42.92,31.75    42.1,32.19 41.29,32.7 40.51,33.27 39.74,33.89 39,34.58 38.28,35.31 37.59,36.1 36.92,36.94 36.28,37.84 35.66,38.77 35.08,39.76    34.52,40.79 33.99,41.86 33.5,42.97 33.04,44.12 32.61,45.31 32.22,46.53 31.86,47.78 31.55,49.07 31.27,50.39 31.03,51.73    30.83,53.11 30.68,54.5 30.56,55.92 30.5,57.36 30.47,58.82 30.5,60.28 30.56,61.72 30.68,63.14 30.83,64.53 31.03,65.9    31.27,67.25 31.55,68.57 31.86,69.85 32.22,71.11 32.61,72.33 33.04,73.52 33.5,74.67 33.99,75.78 34.52,76.85 35.08,77.88    35.66,78.86 36.28,79.8 36.92,80.69 37.59,81.53 38.28,82.32 39,83.06 39.74,83.74 40.51,84.37 41.29,84.94 42.1,85.45    42.92,85.89 43.76,86.27 44.62,86.59 45.49,86.84 46.38,87.02 47.28,87.13 48.19,87.17  "
   id="polyline14"
   style="fill:none;stroke:#0c0c0c;stroke-width:4.25" />
</g>
</svg>