<?xml version="1.0" encoding="UTF-8" standalone="no"?>
<!-- Generator: Adobe Illustrator 13.0.0, SVG Export Plug-In . SVG Version: 6.00 Build 14948)  -->

<svg
   xmlns:dc="http://purl.org/dc/elements/1.1/"
   xmlns:cc="http://creativecommons.org/ns#"
   xmlns:rdf="http://www.w3.org/1999/02/22-rdf-syntax-ns#"
   xmlns:svg="http://www.w3.org/2000/svg"
   xmlns="http://www.w3.org/2000/svg"
   xmlns:xlink="http://www.w3.org/1999/xlink"
   xmlns:sodipodi="http://sodipodi.sourceforge.net/DTD/sodipodi-0.dtd"
   xmlns:inkscape="http://www.inkscape.org/namespaces/inkscape"
   version="1.1"
   id="Layer_4"
   x="0px"
   y="0px"
   width="75.119995"
   height="60.950001"
   viewBox="0 0 75.119997 60.950001"
   enable-background="new 0 0 131.81 117.64"
   xml:space="preserve"
   inkscape:version="0.48.0 r9654"
   sodipodi:docname="e1000_caisson_partiel_ech.svg"><metadata
   id="metadata18"><rdf:RDF><cc:Work
       rdf:about=""><dc:format>image/svg+xml</dc:format><dc:type
         rdf:resource="http://purl.org/dc/dcmitype/StillImage" /></cc:Work></rdf:RDF></metadata><sodipodi:namedview
   pagecolor="#ffffff"
   bordercolor="#666666"
   borderopacity="1"
   objecttolerance="10"
   gridtolerance="10"
   guidetolerance="10"
   inkscape:pageopacity="0"
   inkscape:pageshadow="2"
   inkscape:window-width="640"
   inkscape:window-height="480"
   id="namedview16"
   showgrid="false"
   fit-margin-top="0"
   fit-margin-left="0"
   fit-margin-right="0"
   fit-margin-bottom="0"
   inkscape:zoom="2.2186331"
   inkscape:cx="37.559999"
   inkscape:cy="30.474999"
   inkscape:window-x="475"
   inkscape:window-y="302"
   inkscape:window-maximized="0"
   inkscape:current-layer="Layer_4" />
<defs
   id="defs3">
	<polygon
   id="SVGID_1_"
   points="0,18.1 0,27.15 0,36.2 0,45.25 0,54.29 0,63.34 0,72.39 0,81.44 0,90.49 0,99.54 0,108.59 0,117.64 8.79,117.64 17.57,117.64 26.36,117.64 35.15,117.64 43.94,117.64 52.72,117.64 61.51,117.64 70.3,117.64 79.09,117.64 87.87,117.64 96.66,117.64 105.45,117.64 114.24,117.64 123.02,117.64 131.81,117.64 131.81,108.59 131.81,99.54 131.81,90.49 131.81,81.44 131.81,72.39 131.81,63.34 131.81,54.29 131.81,45.25 131.81,36.2 131.81,27.15 131.81,18.1 131.81,9.05 131.81,0 123.02,0 114.24,0 105.45,0 96.66,0 87.87,0 79.09,0 70.3,0 61.51,0 52.72,0 43.94,0 35.15,0 26.36,0 17.57,0 8.79,0 0,0 0,9.05 " />
</defs>
<clipPath
   id="SVGID_2_">
	<use
   xlink:href="#SVGID_1_"
   overflow="visible"
   id="use7"
   style="overflow:visible"
   x="0"
   y="0"
   width="131.81"
   height="117.64" />
</clipPath>
<g
   id="clip"
   clip-path="url(#SVGID_2_)"
   transform="translate(-28.345,-28.345001)">
</g>
<g
   id="Surface"
   clip-path="url(#SVGID_2_)"
   transform="translate(-28.345,-28.345001)">
	<polygon
   points="47.28,30.51 46.38,30.62 45.49,30.8 44.62,31.05 43.76,31.36 42.92,31.75 42.1,32.19 41.29,32.7 40.51,33.27 39.74,33.89 39,34.58 38.28,35.31 37.59,36.1 36.92,36.94 36.28,37.84 35.66,38.77 35.08,39.76 34.52,40.79 33.99,41.86 33.5,42.97 33.04,44.12 32.61,45.31 32.22,46.53 31.86,47.78 31.55,49.07 31.27,50.39 31.03,51.73 30.83,53.11 30.68,54.5 30.56,55.92 30.49,57.36 30.47,58.82 30.49,60.28 30.56,61.72 30.68,63.14 30.83,64.53 31.03,65.9 31.27,67.25 31.55,68.57 31.86,69.85 32.22,71.11 32.61,72.33 33.04,73.52 33.5,74.67 33.99,75.78 34.52,76.85 35.08,77.88 35.66,78.86 36.28,79.8 36.92,80.69 37.59,81.53 38.28,82.32 39,83.06 39.74,83.74 40.51,84.37 41.29,84.94 42.1,85.45 42.92,85.89 43.76,86.27 44.62,86.59 45.49,86.84 46.38,87.02 47.28,87.13 48.19,87.17 48.19,87.17 83.62,87.17 84.53,87.13 85.43,87.02 86.32,86.84 87.19,86.59 88.05,86.27 88.89,85.89 89.72,85.45 90.52,84.94 91.3,84.37 92.07,83.74 92.81,83.06 93.53,82.32 94.22,81.53 94.89,80.69 95.54,79.8 96.15,78.86 96.74,77.88 97.29,76.85 97.82,75.78 98.31,74.67 98.77,73.52 99.2,72.33 99.59,71.11 99.95,69.85 100.26,68.57 100.54,67.25 100.78,65.9 100.98,64.53 101.13,63.14 101.25,61.72 101.32,60.28 101.34,58.82 101.32,57.36 101.25,55.92 101.13,54.5 100.98,53.11 100.78,51.73 100.54,50.39 100.26,49.07 99.95,47.78 99.59,46.53 99.2,45.31 98.77,44.12 98.31,42.97 97.82,41.86 97.29,40.79 96.74,39.76 96.15,38.77 95.54,37.84 94.89,36.94 94.22,36.1 93.53,35.31 92.81,34.58 92.07,33.89 91.3,33.27 90.52,32.7 89.72,32.19 88.89,31.75 88.05,31.36 87.19,31.05 86.32,30.8 85.43,30.62 84.53,30.51 83.62,30.47 48.19,30.47 48.19,30.47 "
   id="polygon11"
   style="fill:#ffffff" />
</g>
<g
   id="Ligne_1_"
   clip-path="url(#SVGID_2_)"
   transform="translate(-28.345,-28.345001)">
	<polyline
   points="83.62,30.47 48.19,30.47 48.19,30.47 47.28,30.51 46.38,30.62    45.49,30.8 44.62,31.05 43.76,31.36 42.92,31.75 42.1,32.19 41.29,32.7 40.51,33.27 39.74,33.89 39,34.58 38.28,35.31 37.59,36.1    36.92,36.94 36.28,37.84 35.66,38.77 35.08,39.76 34.52,40.79 33.99,41.86 33.5,42.97 33.04,44.12 32.61,45.31 32.22,46.53    31.86,47.78 31.55,49.07 31.27,50.39 31.03,51.73 30.83,53.11 30.68,54.5 30.56,55.92 30.49,57.36 30.47,58.82 30.49,60.28    30.56,61.72 30.68,63.14 30.83,64.53 31.03,65.9 31.27,67.25 31.55,68.57 31.86,69.85 32.22,71.11 32.61,72.33 33.04,73.52    33.5,74.67 33.99,75.78 34.52,76.85 35.08,77.88 35.66,78.86 36.28,79.8 36.92,80.69 37.59,81.53 38.28,82.32 39,83.06    39.74,83.74 40.51,84.37 41.29,84.94 42.1,85.45 42.92,85.89 43.76,86.27 44.62,86.59 45.49,86.84 46.38,87.02 47.28,87.13    48.19,87.17 48.19,87.17 83.62,87.17 84.53,87.13 85.43,87.02 86.32,86.84 87.19,86.59 88.05,86.27 88.89,85.89 89.72,85.45    90.52,84.94 91.3,84.37 92.07,83.74 92.81,83.06 93.53,82.32 94.22,81.53 94.89,80.69 95.54,79.8 96.15,78.86 96.74,77.88    97.29,76.85 97.82,75.78 98.31,74.67 98.77,73.52 99.2,72.33 99.59,71.11 99.95,69.85 100.26,68.57 100.54,67.25 100.78,65.9    100.98,64.53 101.13,63.14 101.25,61.72 101.32,60.28 101.34,58.82 101.32,57.36 101.25,55.92 101.13,54.5 100.98,53.11    100.78,51.73 100.54,50.39 100.26,49.07 99.95,47.78 99.59,46.53 99.2,45.31 98.77,44.12 98.31,42.97 97.82,41.86 97.29,40.79    96.74,39.76 96.15,38.77 95.54,37.84 94.89,36.94 94.22,36.1 93.53,35.31 92.81,34.58 92.07,33.89 91.3,33.27 90.52,32.7    89.72,32.19 88.89,31.75 88.05,31.36 87.19,31.05 86.32,30.8 85.43,30.62 84.53,30.51 83.62,30.47  "
   id="polyline14"
   style="fill:none;stroke:#0c0c0c;stroke-width:4.25" />
</g>
</svg>