<?xml version="1.0" encoding="UTF-8" standalone="no"?>
<!-- Generator: Adobe Illustrator 13.0.0, SVG Export Plug-In  -->

<svg
   xmlns:dc="http://purl.org/dc/elements/1.1/"
   xmlns:cc="http://creativecommons.org/ns#"
   xmlns:rdf="http://www.w3.org/1999/02/22-rdf-syntax-ns#"
   xmlns:svg="http://www.w3.org/2000/svg"
   xmlns="http://www.w3.org/2000/svg"
   xmlns:sodipodi="http://sodipodi.sourceforge.net/DTD/sodipodi-0.dtd"
   xmlns:inkscape="http://www.inkscape.org/namespaces/inkscape"
   version="1.1"
   x="0px"
   y="0px"
   width="11.623"
   height="11.622"
   viewBox="-0.259 -0.826 11.623 11.622"
   enable-background="new -0.259 -0.826 12 13"
   xml:space="preserve"
   id="svg3385"
   inkscape:version="0.48.0 r9654"
   sodipodi:docname="e100_Hippodrome.svg"><metadata
   id="metadata3393"><rdf:RDF><cc:Work
       rdf:about=""><dc:format>image/svg+xml</dc:format><dc:type
         rdf:resource="http://purl.org/dc/dcmitype/StillImage" /></cc:Work></rdf:RDF></metadata><sodipodi:namedview
   pagecolor="#ffffff"
   bordercolor="#666666"
   borderopacity="1"
   objecttolerance="10"
   gridtolerance="10"
   guidetolerance="10"
   inkscape:pageopacity="0"
   inkscape:pageshadow="2"
   inkscape:window-width="640"
   inkscape:window-height="480"
   id="namedview3391"
   showgrid="false"
   fit-margin-top="0"
   fit-margin-left="0"
   fit-margin-right="0"
   fit-margin-bottom="0"
   inkscape:zoom="22.384615"
   inkscape:cx="5.741"
   inkscape:cy="5.948"
   inkscape:window-x="233"
   inkscape:window-y="175"
   inkscape:window-maximized="0"
   inkscape:current-layer="svg3385" />
<defs
   id="defs3387">
</defs>
<path
   sodipodi:type="arc"
   style="fill:#ffffff;stroke:#ffffff;stroke-opacity:1"
   id="path2982"
   sodipodi:cx="8.1975946"
   sodipodi:cy="6.8195944"
   sodipodi:rx="4.5790377"
   sodipodi:ry="4.6237116"
   d="m 12.776632,6.8195944 a 4.5790377,4.6237116 0 1 1 -9.158075,0 4.5790377,4.6237116 0 1 1 9.158075,0 z"
   transform="matrix(0.99287981,0,0,0.95913219,-2.6576766,-1.5524527)" /><path
   d="m 5.552,-0.826 c -3.204,0 -5.811,2.607 -5.811,5.812 0,3.204 2.607,5.81 5.811,5.81 3.205,0 5.812,-2.605 5.812,-5.81 0,-3.205 -2.607,-5.812 -5.812,-5.812 z M 9.491,7.968 9.701,7.558 9.93,7.113 10.024,6.718 10.21,5.931 10.304,5.536 10.271,5.274 10.207,4.75 10.171,4.488 10.122,4.258 10.022,3.798 9.973,3.568 9.851,3.336 9.607,2.871 9.484,2.638 9.366,2.503 9.13,2.231 9.013,2.095 8.777,1.895 8.66,1.795 8.541,1.695 8.441,1.632 8.142,1.442 7.49,1.152 7.726,1.478 7.843,1.641 7.961,1.804 8.042,1.949 8.206,2.239 8.287,2.384 8.388,2.574 9.085,3.907 8.652,4.218 8.441,4.312 8.183,3.875 8.034,3.695 7.74,3.337 7.591,3.158 7.474,3.041 7.241,2.806 7.124,2.689 6.827,2.379 6.624,2.191 6.437,1.724 6.189,1.318 5.876,0.789 5.849,0.867 5.796,1.087 5.76,1.422 5.782,1.848 5.739,2.084 5.598,2.283 5.448,2.421 5.378,2.473 4.755,2.939 4.691,3.002 4.545,3.145 4.387,3.301 4.286,3.406 4.114,3.583 3.931,3.744 3.785,3.861 3.725,3.906 3.281,4.265 4.81,6.495 4.87,6.464 4.99,6.4 5.05,6.369 5.441,6.134 5.767,5.946 5.8,5.936 5.88,5.918 5.978,5.906 6.064,5.914 6.143,5.944 6.24,5.994 6.353,6.065 6.484,6.166 6.561,6.235 6.664,6.34 6.757,6.464 6.812,6.586 6.845,6.77 6.886,7.02 6.921,7.24 6.937,7.336 V 8.053 L 6.781,8.924 8.562,8.903 c -0.838,0.645 -1.873,1.044 -3.01,1.044 -2.735,0 -4.96,-2.226 -4.96,-4.96 0,-2.736 2.225,-4.961 4.96,-4.961 2.735,0 4.962,2.226 4.962,4.961 0,1.123 -0.391,2.149 -1.023,2.981 z M 5.906,3.781 5.866,3.92 5.76,4.032 5.602,4.107 5.409,4.134 5.217,4.107 5.059,4.032 4.952,3.92 4.913,3.781 4.952,3.642 5.058,3.529 5.216,3.453 5.409,3.425 5.602,3.453 5.76,3.529 5.866,3.642 5.906,3.781 z M 1.81,5.304 1.576,5.429 1.459,5.492 1.428,5.57 1.366,5.724 1.334,5.802 1.357,5.927 1.404,6.175 1.427,6.3 1.831,6.613 1.854,6.629 1.902,6.66 1.925,6.676 2.548,6.457 2.464,6.605 2.293,6.902 2.207,7.05 2.27,7.105 2.394,7.212 2.457,7.267 2.566,7.251 2.784,7.22 2.893,7.204 2.979,7.165 3.15,7.089 3.236,7.05 1.927,5.242 1.81,5.304 z M 2.904,4.697 2.374,5.009 3.153,6.177 3.932,7.251 4.135,7.501 4.541,8 4.744,8.25 4.888,8.41 5.176,8.728 5.32,8.888 5.711,9.201 6.365,9.123 6.263,9.013 6.06,8.797 5.958,8.687 5.763,8.492 5.373,8.103 5.179,7.908 5.031,7.72 4.735,7.347 4.587,7.16 4.058,6.472 3.956,6.308 3.753,5.982 3.652,5.818 3.551,5.67 3.449,5.522 3.247,5.226 2.904,4.697 z"
   id="path3389"
   inkscape:connector-curvature="0"
   style="fill:#246138" />
</svg>