<?xml version="1.0" encoding="UTF-8" standalone="no"?>
<!-- Generator: Adobe Illustrator 13.0.0, SVG Export Plug-In  -->

<svg
   xmlns:dc="http://purl.org/dc/elements/1.1/"
   xmlns:cc="http://creativecommons.org/ns#"
   xmlns:rdf="http://www.w3.org/1999/02/22-rdf-syntax-ns#"
   xmlns:svg="http://www.w3.org/2000/svg"
   xmlns="http://www.w3.org/2000/svg"
   xmlns:sodipodi="http://sodipodi.sourceforge.net/DTD/sodipodi-0.dtd"
   xmlns:inkscape="http://www.inkscape.org/namespaces/inkscape"
   version="1.1"
   x="0px"
   y="0px"
   width="7.4790001"
   height="4.1700001"
   viewBox="-0.891 -0.967 7.4790001 4.1700001"
   enable-background="new -0.891 -0.967 9 6"
   xml:space="preserve"
   id="svg3405"
   inkscape:version="0.48.1 "
   sodipodi:docname="e100_Grotte.svg"><metadata
   id="metadata3413"><rdf:RDF><cc:Work
       rdf:about=""><dc:format>image/svg+xml</dc:format><dc:type
         rdf:resource="http://purl.org/dc/dcmitype/StillImage" /></cc:Work></rdf:RDF></metadata><sodipodi:namedview
   pagecolor="#ffffff"
   bordercolor="#666666"
   borderopacity="1"
   objecttolerance="10"
   gridtolerance="10"
   guidetolerance="10"
   inkscape:pageopacity="0"
   inkscape:pageshadow="2"
   inkscape:window-width="640"
   inkscape:window-height="480"
   id="namedview3411"
   showgrid="false"
   fit-margin-top="0"
   fit-margin-left="0"
   fit-margin-right="0"
   fit-margin-bottom="0"
   inkscape:zoom="48.5"
   inkscape:cx="3.609"
   inkscape:cy="2.137"
   inkscape:window-x="0"
   inkscape:window-y="0"
   inkscape:window-maximized="0"
   inkscape:current-layer="svg3405" />
<defs
   id="defs3407">
</defs>
<polygon
   points="7.103,2.196 6.914,1.855 6.695,1.536 6.449,1.239 6.182,0.969 5.896,0.726 5.596,0.514 5.285,0.335 4.969,0.192 4.648,0.087 4.331,0.022 4.019,0 3.702,0.024 3.373,0.093 3.036,0.205 2.696,0.357 2.356,0.545 2.023,0.767 1.7,1.019 1.392,1.299 1.103,1.604 0.837,1.93 0.601,2.274 0.396,2.634 0.23,3.007 0.105,3.389 0.027,3.778 0,4.17 2.747,4.156 2.741,4.137 2.723,4.071 2.706,4.002 2.699,3.967 2.691,3.933 2.679,3.863 2.673,3.828 2.668,3.792 2.659,3.721 2.652,3.651 2.65,3.615 2.647,3.58 2.646,3.543 2.645,3.508 2.644,3.438 2.646,3.347 2.654,3.253 2.667,3.158 2.685,3.06 2.707,2.959 2.733,2.858 2.764,2.756 2.798,2.653 2.836,2.55 2.878,2.447 2.924,2.344 2.973,2.243 3.025,2.143 3.08,2.044 3.137,1.948 3.196,1.854 3.258,1.762 3.323,1.674 3.389,1.59 3.457,1.51 3.525,1.434 3.596,1.363 3.667,1.297 3.74,1.237 3.813,1.183 3.887,1.134 3.961,1.093 4.036,1.059 4.11,1.032 4.185,1.013 4.258,1.002 4.331,1 4.451,1.01 4.567,1.033 4.682,1.067 4.794,1.112 4.903,1.168 5.01,1.233 5.114,1.308 5.216,1.391 5.314,1.482 5.409,1.581 5.501,1.685 5.59,1.796 5.676,1.912 5.758,2.032 5.837,2.156 5.911,2.284 5.981,2.415 6.049,2.547 6.112,2.681 6.172,2.815 6.227,2.95 6.277,3.084 6.323,3.216 6.365,3.348 6.402,3.476 6.436,3.602 6.463,3.723 6.486,3.84 6.505,3.952 6.518,4.058 6.523,4.134 7.458,4.129 7.479,3.72 7.449,3.32 7.374,2.931 7.258,2.555 "
   id="polygon3409"
   style="fill:#AD4E81"
   transform="translate(-0.891,-0.967)" />
</svg>