<?xml version="1.0" encoding="UTF-8" standalone="no"?>
<!-- Generator: Adobe Illustrator 13.0.0, SVG Export Plug-In . SVG Version: 6.00 Build 14948)  -->

<svg
   xmlns:dc="http://purl.org/dc/elements/1.1/"
   xmlns:cc="http://creativecommons.org/ns#"
   xmlns:rdf="http://www.w3.org/1999/02/22-rdf-syntax-ns#"
   xmlns:svg="http://www.w3.org/2000/svg"
   xmlns="http://www.w3.org/2000/svg"
   xmlns:xlink="http://www.w3.org/1999/xlink"
   xmlns:sodipodi="http://sodipodi.sourceforge.net/DTD/sodipodi-0.dtd"
   xmlns:inkscape="http://www.inkscape.org/namespaces/inkscape"
   version="1.1"
   id="Layer_4"
   x="0px"
   y="0px"
   width="4.5100002"
   height="4.5100002"
   viewBox="0 0 4.5100002 4.5100001"
   enable-background="new 0 0 61.2 61.2"
   xml:space="preserve"
   inkscape:version="0.48.0 r9654"
   sodipodi:docname="e1000_canton.svg"><metadata
   id="metadata20"><rdf:RDF><cc:Work
       rdf:about=""><dc:format>image/svg+xml</dc:format><dc:type
         rdf:resource="http://purl.org/dc/dcmitype/StillImage" /></cc:Work></rdf:RDF></metadata><sodipodi:namedview
   pagecolor="#ffffff"
   bordercolor="#666666"
   borderopacity="1"
   objecttolerance="10"
   gridtolerance="10"
   guidetolerance="10"
   inkscape:pageopacity="0"
   inkscape:pageshadow="2"
   inkscape:window-width="640"
   inkscape:window-height="480"
   id="namedview18"
   showgrid="false"
   units="mm"
   inkscape:zoom="4.2647058"
   inkscape:cx="2.2549994"
   inkscape:cy="2.2550051"
   inkscape:window-x="454"
   inkscape:window-y="56"
   inkscape:window-maximized="0"
   inkscape:current-layer="Layer_4"
   fit-margin-top="0"
   fit-margin-left="0"
   fit-margin-right="0"
   fit-margin-bottom="0" />
<defs
   id="defs3">
	<polygon
   id="SVGID_1_"
   points="0,52.46 0,61.2 8.74,61.2 17.49,61.2 26.23,61.2 34.97,61.2 43.72,61.2 52.46,61.2 61.2,61.2 61.2,52.46 61.2,43.72 61.2,34.97 61.2,26.23 61.2,17.49 61.2,8.74 61.2,0 52.46,0 43.72,0 34.97,0 26.23,0 17.49,0 8.74,0 0,0 0,8.74 0,17.49 0,26.23 0,34.97 0,43.72 " />
</defs>
<clipPath
   id="SVGID_2_">
	<use
   xlink:href="#SVGID_1_"
   overflow="visible"
   id="use7"
   style="overflow:visible"
   x="0"
   y="0"
   width="61.200001"
   height="61.200001" />
</clipPath>
<g
   id="clip"
   clip-path="url(#SVGID_2_)"
   transform="translate(-28.345,-28.345)">
</g>
<g
   id="Surface"
   clip-path="url(#SVGID_2_)"
   transform="translate(-28.345,-28.345)">
	<polygon
   points="32.63,30.81 32.64,30.6 32.63,30.39 32.6,30.19 32.48,29.81 32.29,29.46 32.04,29.16 31.74,28.91 31.39,28.72 31.01,28.6 30.81,28.57 30.6,28.56 30.39,28.57 30.19,28.6 29.8,28.72 29.46,28.91 29.16,29.16 28.91,29.46 28.72,29.81 28.6,30.19 28.57,30.39 28.56,30.6 28.57,30.81 28.6,31.01 28.72,31.39 28.91,31.74 29.16,32.04 29.46,32.29 29.8,32.48 30.19,32.6 30.39,32.63 30.6,32.64 30.81,32.63 31.01,32.6 31.39,32.48 31.74,32.29 32.04,32.04 32.29,31.74 32.48,31.39 32.6,31.01 "
   id="polygon11"
   style="fill:#ffffff" />
	<polygon
   points="30.43,30.21 30.3,30.3 30.21,30.43 30.17,30.6 30.21,30.77 30.3,30.9 30.43,30.99 30.6,31.02 30.76,30.99 30.9,30.9 30.99,30.77 31.02,30.6 30.99,30.43 30.9,30.3 30.76,30.21 30.6,30.17 "
   id="polygon13" />
</g>
<g
   id="Ligne_1_"
   clip-path="url(#SVGID_2_)"
   transform="translate(-28.345,-28.345)">
	<polyline
   points="30.6,32.64 30.81,32.63 31.01,32.6 31.39,32.48 31.74,32.29    32.04,32.04 32.29,31.74 32.48,31.39 32.6,31.01 32.63,30.81 32.64,30.6 32.63,30.39 32.6,30.19 32.48,29.81 32.29,29.46    32.04,29.16 31.74,28.91 31.39,28.72 31.01,28.6 30.81,28.57 30.6,28.56 30.39,28.57 30.19,28.6 29.8,28.72 29.46,28.91    29.16,29.16 28.91,29.46 28.72,29.81 28.6,30.19 28.57,30.39 28.56,30.6 28.57,30.81 28.6,31.01 28.72,31.39 28.91,31.74    29.16,32.04 29.46,32.29 29.8,32.48 30.19,32.6 30.39,32.63 30.6,32.64  "
   id="polyline16"
   style="fill:none;stroke:#0c0c0c;stroke-width:0.43000001" />
</g>
</svg>