<?xml version="1.0" encoding="UTF-8" standalone="no"?>
<!-- Generator: Adobe Illustrator 13.0.0, SVG Export Plug-In  -->

<svg
   xmlns:dc="http://purl.org/dc/elements/1.1/"
   xmlns:cc="http://creativecommons.org/ns#"
   xmlns:rdf="http://www.w3.org/1999/02/22-rdf-syntax-ns#"
   xmlns:svg="http://www.w3.org/2000/svg"
   xmlns="http://www.w3.org/2000/svg"
   xmlns:sodipodi="http://sodipodi.sourceforge.net/DTD/sodipodi-0.dtd"
   xmlns:inkscape="http://www.inkscape.org/namespaces/inkscape"
   version="1.1"
   x="0px"
   y="0px"
   width="10.205"
   height="5.9530001"
   viewBox="-0.146 -0.073 10.205 5.9530001"
   enable-background="new -0.146 -0.073 11 7"
   xml:space="preserve"
   id="svg4388"
   inkscape:version="0.48.1 "
   sodipodi:docname="e100_CT.svg"><metadata
   id="metadata4396"><rdf:RDF><cc:Work
       rdf:about=""><dc:format>image/svg+xml</dc:format><dc:type
         rdf:resource="http://purl.org/dc/dcmitype/StillImage" /></cc:Work></rdf:RDF></metadata><sodipodi:namedview
   pagecolor="#ffffff"
   bordercolor="#666666"
   borderopacity="1"
   objecttolerance="10"
   gridtolerance="10"
   guidetolerance="10"
   inkscape:pageopacity="0"
   inkscape:pageshadow="2"
   inkscape:window-width="640"
   inkscape:window-height="480"
   id="namedview4394"
   showgrid="false"
   fit-margin-top="0"
   fit-margin-left="0"
   fit-margin-right="0"
   fit-margin-bottom="0"
   inkscape:zoom="41.571429"
   inkscape:cx="5.354"
   inkscape:cy="2.526"
   inkscape:window-x="0"
   inkscape:window-y="0"
   inkscape:window-maximized="0"
   inkscape:current-layer="svg4388" />
<defs
   id="defs4390">
</defs>
<path
   d="M -0.146,-0.073 V 5.88 H 10.059 V -0.073 H -0.146 z M 9.776,5.596 H 0.137 V 0.21 H 9.776 V 5.596 z M 6.696,5.236 H 7.563 V 1.666 H 8.829 V 0.939 H 5.431 v 0.727 h 1.266 v 3.57 z M 3.204,5.306 C 3.667,5.306 4.049,5.192 4.35,4.961 4.651,4.732 4.866,4.381 4.996,3.907 L 4.152,3.65 C 4.079,3.966 3.959,4.197 3.792,4.344 3.624,4.491 3.425,4.565 3.192,4.565 2.877,4.565 2.621,4.45 2.424,4.219 2.228,3.988 2.129,3.6 2.129,3.057 c 0,-0.512 0.1,-0.883 0.3,-1.111 0.199,-0.229 0.46,-0.343 0.78,-0.343 0.232,0 0.43,0.064 0.592,0.192 C 3.963,1.924 4.07,2.1 4.121,2.321 L 4.98,2.118 C 4.883,1.775 4.735,1.511 4.54,1.327 4.21,1.016 3.782,0.861 3.255,0.861 2.651,0.861 2.164,1.059 1.794,1.455 1.424,1.851 1.238,2.407 1.238,3.122 c 0,0.677 0.185,1.21 0.554,1.6 0.368,0.389 0.839,0.584 1.412,0.584 z"
   id="path4392"
   inkscape:connector-curvature="0" />
</svg>