<?xml version="1.0" encoding="UTF-8" standalone="no"?>
<!-- Generator: Adobe Illustrator 13.0.0, SVG Export Plug-In . SVG Version: 6.00 Build 14948)  -->

<svg
   xmlns:dc="http://purl.org/dc/elements/1.1/"
   xmlns:cc="http://creativecommons.org/ns#"
   xmlns:rdf="http://www.w3.org/1999/02/22-rdf-syntax-ns#"
   xmlns:svg="http://www.w3.org/2000/svg"
   xmlns="http://www.w3.org/2000/svg"
   xmlns:xlink="http://www.w3.org/1999/xlink"
   xmlns:sodipodi="http://sodipodi.sourceforge.net/DTD/sodipodi-0.dtd"
   xmlns:inkscape="http://www.inkscape.org/namespaces/inkscape"
   version="1.1"
   id="Layer_4"
   x="0px"
   y="0px"
   width="70.860001"
   height="56.689999"
   viewBox="0 0 70.860002 56.689999"
   enable-background="new 0 0 127.56 113.39"
   xml:space="preserve"
   inkscape:version="0.48.0 r9654"
   sodipodi:docname="e1000_caisson_complet_ech.svg"><metadata
   id="metadata15"><rdf:RDF><cc:Work
       rdf:about=""><dc:format>image/svg+xml</dc:format><dc:type
         rdf:resource="http://purl.org/dc/dcmitype/StillImage" /></cc:Work></rdf:RDF></metadata><sodipodi:namedview
   pagecolor="#ffffff"
   bordercolor="#666666"
   borderopacity="1"
   objecttolerance="10"
   gridtolerance="10"
   guidetolerance="10"
   inkscape:pageopacity="0"
   inkscape:pageshadow="2"
   inkscape:window-width="640"
   inkscape:window-height="480"
   id="namedview13"
   showgrid="false"
   fit-margin-top="0"
   fit-margin-left="0"
   fit-margin-right="0"
   fit-margin-bottom="0"
   inkscape:zoom="2.3017903"
   inkscape:cx="35.429999"
   inkscape:cy="28.344999"
   inkscape:window-x="0"
   inkscape:window-y="0"
   inkscape:window-maximized="0"
   inkscape:current-layer="Layer_4" />
<defs
   id="defs3">
	<polygon
   id="SVGID_1_"
   points="0,17.44 0,26.17 0,34.89 0,43.61 0,52.33 0,61.05 0,69.78 0,78.5 0,87.22 0,95.94 0,104.66 0,113.39 8.5,113.39 17.01,113.39 25.51,113.39 34.02,113.39 42.52,113.39 51.02,113.39 59.53,113.39 68.03,113.39 76.54,113.39 85.04,113.39 93.54,113.39 102.05,113.39 110.55,113.39 119.05,113.39 127.56,113.39 127.56,104.66 127.56,95.94 127.56,87.22 127.56,78.5 127.56,69.78 127.56,61.05 127.56,52.33 127.56,43.61 127.56,34.89 127.56,26.17 127.56,17.44 127.56,8.72 127.56,0 119.05,0 110.55,0 102.05,0 93.54,0 85.04,0 76.54,0 68.03,0 59.53,0 51.02,0 42.52,0 34.02,0 25.51,0 17.01,0 8.5,0 0,0 0,8.72 " />
</defs>
<clipPath
   id="SVGID_2_">
	<use
   xlink:href="#SVGID_1_"
   overflow="visible"
   id="use7"
   style="overflow:visible"
   x="0"
   y="0"
   width="127.56"
   height="113.39" />
</clipPath>
<g
   id="clip"
   clip-path="url(#SVGID_2_)"
   transform="translate(-28.35,-28.350001)">
</g>
<g
   id="Surface"
   clip-path="url(#SVGID_2_)"
   transform="translate(-28.35,-28.350001)">
	<polygon
   points="44.25,28.49 43.36,28.67 42.49,28.92 41.64,29.24 40.79,29.62 39.97,30.07 39.17,30.57 38.38,31.14 37.62,31.77 36.88,32.45 36.16,33.19 35.46,33.98 34.79,34.82 34.15,35.71 33.54,36.65 32.95,37.63 32.39,38.66 31.87,39.73 31.37,40.84 30.91,41.99 30.48,43.18 30.09,44.4 29.74,45.66 29.42,46.95 29.14,48.26 28.9,49.61 28.71,50.98 28.55,52.38 28.44,53.79 28.37,55.23 28.35,56.69 28.37,58.15 28.44,59.59 28.55,61.01 28.71,62.41 28.9,63.78 29.14,65.12 29.42,66.44 29.74,67.73 30.09,68.98 30.48,70.21 30.91,71.39 31.37,72.54 31.87,73.65 32.39,74.72 32.95,75.75 33.54,76.74 34.15,77.68 34.79,78.57 35.46,79.41 36.16,80.2 36.88,80.94 37.62,81.62 38.38,82.24 39.17,82.81 39.97,83.32 40.79,83.77 41.64,84.15 42.49,84.46 43.36,84.71 44.25,84.89 45.15,85 46.06,85.04 81.49,85.04 82.41,85 83.31,84.89 84.19,84.71 85.07,84.46 85.92,84.15 86.77,83.77 87.59,83.32 88.39,82.81 89.18,82.24 89.94,81.62 90.68,80.94 91.4,80.2 92.1,79.41 92.77,78.57 93.41,77.68 94.03,76.74 94.61,75.75 95.17,74.72 95.69,73.65 96.19,72.54 96.65,71.39 97.08,70.21 97.47,68.98 97.82,67.73 98.14,66.44 98.42,65.12 98.66,63.78 98.85,62.41 99.01,61.01 99.12,59.59 99.19,58.15 99.21,56.69 99.19,55.23 99.12,53.79 99.01,52.38 98.85,50.98 98.66,49.61 98.42,48.26 98.14,46.95 97.82,45.66 97.47,44.4 97.08,43.18 96.65,41.99 96.19,40.84 95.69,39.73 95.17,38.66 94.61,37.63 94.03,36.65 93.41,35.71 92.77,34.82 92.1,33.98 91.4,33.19 90.68,32.45 89.94,31.77 89.18,31.14 88.39,30.57 87.59,30.07 86.77,29.62 85.92,29.24 85.07,28.92 84.19,28.67 83.31,28.49 82.41,28.38 81.49,28.35 46.06,28.35 45.15,28.38 "
   id="polygon11" />
</g>
</svg>