<?xml version="1.0" encoding="UTF-8" standalone="no"?>
<!-- Generator: Adobe Illustrator 13.0.0, SVG Export Plug-In  -->

<svg
   xmlns:dc="http://purl.org/dc/elements/1.1/"
   xmlns:cc="http://creativecommons.org/ns#"
   xmlns:rdf="http://www.w3.org/1999/02/22-rdf-syntax-ns#"
   xmlns:svg="http://www.w3.org/2000/svg"
   xmlns="http://www.w3.org/2000/svg"
   xmlns:sodipodi="http://sodipodi.sourceforge.net/DTD/sodipodi-0.dtd"
   xmlns:inkscape="http://www.inkscape.org/namespaces/inkscape"
   version="1.1"
   x="0px"
   y="0px"
   width="11.126"
   height="11.126"
   viewBox="-0.257 -0.766 11.126 11.126"
   enable-background="new -0.257 -0.766 12 12"
   xml:space="preserve"
   id="svg3019"
   inkscape:version="0.48.1 "
   sodipodi:docname="e100_aerodrome.svg"><metadata
   id="metadata3029"><rdf:RDF><cc:Work
       rdf:about=""><dc:format>image/svg+xml</dc:format><dc:type
         rdf:resource="http://purl.org/dc/dcmitype/StillImage" /></cc:Work></rdf:RDF></metadata><sodipodi:namedview
   pagecolor="#ffffff"
   bordercolor="#666666"
   borderopacity="1"
   objecttolerance="10"
   gridtolerance="10"
   guidetolerance="10"
   inkscape:pageopacity="0"
   inkscape:pageshadow="2"
   inkscape:window-width="640"
   inkscape:window-height="480"
   id="namedview3027"
   showgrid="false"
   fit-margin-top="0"
   fit-margin-left="0"
   fit-margin-right="0"
   fit-margin-bottom="0"
   inkscape:zoom="24.25"
   inkscape:cx="5.743"
   inkscape:cy="5.892"
   inkscape:window-x="0"
   inkscape:window-y="0"
   inkscape:window-maximized="0"
   inkscape:current-layer="svg3019" />
<defs
   id="defs3021">
</defs>
<path
   d="m -0.257,4.797 c 0,3.068 2.496,5.563 5.563,5.563 3.067,0 5.563,-2.495 5.563,-5.563 -10e-4,-3.067 -2.496,-5.563 -5.563,-5.563 -3.067,0 -5.563,2.496 -5.563,5.563 z m 0.354,0 c 0,-2.872 2.336,-5.208 5.208,-5.208 2.872,0 5.209,2.336 5.209,5.208 0,2.873 -2.337,5.21 -5.209,5.21 -2.872,0 -5.208,-2.337 -5.208,-5.21 z"
   id="path3023"
   inkscape:connector-curvature="0" />
<path
   d="M 9.624,3.024 C 9.611,2.886 9.512,2.702 9.122,2.609 8.618,2.488 6.426,2.359 5.968,2.334 5.957,2.067 5.91,0.94 5.91,0.94 5.836,0.506 5.488,0.413 5.313,0.424 c 0,0 -10e-4,0.001 -10e-4,0.001 C 5.307,0.424 5.305,0.42 5.3,0.419 5.126,0.408 4.776,0.5 4.702,0.932 4.702,0.933 4.659,1.96 4.643,2.328 4.186,2.354 1.993,2.483 1.49,2.603 1.1,2.697 1.002,2.881 0.989,3.019 0.987,3.03 0.986,3.042 0.986,3.054 c 0,0.162 0.112,0.391 0.6,0.617 l 0.695,0.286 c 0.743,0.293 2.125,0.84 2.338,1.18 0.113,0.18 0.134,0.807 0.134,1.343 0,0.208 -0.003,0.401 -0.006,0.55 L 4.744,7.353 c 0,0.23 -0.276,0.468 -0.441,0.609 L 4.007,8.119 4.251,8.368 4.341,8.415 4.517,8.499 C 4.765,8.61 5.074,8.748 5.113,9.02 5.124,9.101 5.193,9.15 5.27,9.16 5.281,9.163 5.288,9.174 5.299,9.176 5.396,9.19 5.486,9.122 5.5,9.026 5.538,8.755 5.848,8.617 6.096,8.506 L 6.273,8.421 C 6.419,8.345 6.512,8.296 6.512,8.185 6.512,8.18 6.504,8.073 6.504,8.073 L 6.324,7.979 C 6.145,7.827 5.867,7.589 5.867,7.359 L 5.864,7.035 C 5.862,6.886 5.859,6.692 5.859,6.485 5.859,5.949 5.88,5.321 5.993,5.141 6.206,4.801 7.588,4.254 8.33,3.961 L 9.027,3.675 C 9.514,3.449 9.627,3.221 9.627,3.058 9.626,3.047 9.625,3.035 9.624,3.024 z"
   id="path3025"
   inkscape:connector-curvature="0" />
</svg>