<?xml version="1.0" encoding="UTF-8" standalone="no"?>
<!-- Generator: Adobe Illustrator 13.0.0, SVG Export Plug-In  -->

<svg
   xmlns:dc="http://purl.org/dc/elements/1.1/"
   xmlns:cc="http://creativecommons.org/ns#"
   xmlns:rdf="http://www.w3.org/1999/02/22-rdf-syntax-ns#"
   xmlns:svg="http://www.w3.org/2000/svg"
   xmlns="http://www.w3.org/2000/svg"
   xmlns:sodipodi="http://sodipodi.sourceforge.net/DTD/sodipodi-0.dtd"
   xmlns:inkscape="http://www.inkscape.org/namespaces/inkscape"
   version="1.1"
   x="0px"
   y="0px"
   width="10.773"
   height="10.809"
   viewBox="-0.519 -0.208 10.773 10.809"
   enable-background="new -0.519 -0.208 12 12"
   xml:space="preserve"
   id="svg3632"
   inkscape:version="0.48.0 r9654"
   sodipodi:docname="e100_Station_thermale.svg"><metadata
   id="metadata3642"><rdf:RDF><cc:Work
       rdf:about=""><dc:format>image/svg+xml</dc:format><dc:type
         rdf:resource="http://purl.org/dc/dcmitype/StillImage" /></cc:Work></rdf:RDF></metadata><sodipodi:namedview
   pagecolor="#ffffff"
   bordercolor="#666666"
   borderopacity="1"
   objecttolerance="10"
   gridtolerance="10"
   guidetolerance="10"
   inkscape:pageopacity="0"
   inkscape:pageshadow="2"
   inkscape:window-width="640"
   inkscape:window-height="480"
   id="namedview3640"
   showgrid="false"
   fit-margin-top="0"
   fit-margin-left="0"
   fit-margin-right="0"
   fit-margin-bottom="0"
   inkscape:zoom="24.25"
   inkscape:cx="5.481"
   inkscape:cy="5.017"
   inkscape:window-x="200"
   inkscape:window-y="444"
   inkscape:window-maximized="0"
   inkscape:current-layer="svg3632" />
<defs
   id="defs3634">
</defs>
<rect
   style="fill:#ffffff;stroke:#ffffff;stroke-width:0.95170045;stroke-opacity:1"
   id="rect2984"
   width="9.4020615"
   height="7.0964704"
   x="0.21973228"
   y="0.44071415" /><rect
   style="fill:#ffffff;fill-opacity:1;stroke:#ffffff;stroke-width:1;stroke-opacity:1"
   id="rect2996"
   width="4.7422681"
   height="1.814433"
   x="1.2398567"
   y="8.4165516"
   transform="matrix(0.92338423,-0.38387701,0.38387701,0.92338423,0,0)"
   inkscape:transform-center-x="0.70828221"
   inkscape:transform-center-y="0.22582892" /><rect
   style="fill:#ffffff;fill-opacity:1;stroke:#ffffff;stroke-width:1;stroke-opacity:1"
   id="rect2996-8"
   width="4.7422681"
   height="1.814433"
   x="-7.8819394"
   y="-6.2481613"
   transform="matrix(-0.91136532,-0.41159841,0.41159841,-0.91136532,0,0)"
   inkscape:transform-center-x="-4.3774963"
   inkscape:transform-center-y="-0.10904665" /><path
   d="M 9.829,-0.208 H -0.519 l 0.025,8.409 5.374,2.4 5.374,-2.171 V -0.208 H 9.829 z M 9.404,0.643 c 0,0.732 0,6.71 0,7.213 C 8.945,8.042 5.192,9.558 4.897,9.677 4.605,9.546 0.792,7.843 0.355,7.648 0.354,7.167 0.336,1.375 0.334,0.643 c 0.746,0 8.326,0 9.07,0 z"
   id="path3636"
   inkscape:connector-curvature="0"
   style="fill:#1C62A6" />
<polygon
   points="9.133,3.843 9.118,3.866 9.102,3.888 9.087,3.911 9.073,3.933 9.057,3.955 9.02,4.007 8.982,4.06 8.944,4.112 8.907,4.165 8.87,4.217 8.832,4.269 8.793,4.321 8.756,4.374 8.708,4.434 8.661,4.495 8.613,4.556 8.565,4.617 8.517,4.677 8.469,4.738 8.421,4.798 8.374,4.859 8.328,4.907 8.282,4.955 8.236,5.002 8.19,5.049 8.144,5.097 8.098,5.145 8.052,5.192 8.006,5.24 7.958,5.277 7.908,5.314 7.858,5.351 7.809,5.388 7.76,5.424 7.71,5.461 7.661,5.499 7.612,5.536 7.561,5.566 7.509,5.597 7.458,5.628 7.407,5.659 7.356,5.689 7.305,5.72 7.254,5.751 7.203,5.782 7.149,5.805 7.096,5.829 7.043,5.852 6.991,5.875 6.938,5.899 6.884,5.922 6.831,5.946 6.778,5.969 6.722,5.984 6.667,6 6.612,6.014 6.556,6.029 6.5,6.043 6.446,6.058 6.39,6.073 6.334,6.087 6.319,6.09 6.303,6.093 6.288,6.095 6.271,6.098 6.254,6.101 6.239,6.103 6.223,6.106 6.208,6.109 6.194,6.111 6.179,6.114 6.165,6.117 6.151,6.119 6.136,6.121 6.122,6.124 6.108,6.126 6.093,6.128 6.081,6.13 6.067,6.132 6.054,6.134 6.042,6.137 6.029,6.14 6.016,6.142 6.002,6.144 5.99,6.146 5.977,6.148 5.965,6.15 5.954,6.152 5.941,6.154 5.928,6.156 5.917,6.158 5.905,6.16 5.892,6.162 5.891,6.061 5.891,5.96 5.89,5.86 5.889,5.759 5.888,5.659 5.887,5.558 5.887,5.458 5.886,5.357 5.886,5.257 5.886,5.157 5.886,5.056 5.886,4.956 5.886,4.855 5.886,4.755 5.886,4.655 5.886,4.554 5.887,4.454 5.887,4.353 5.887,4.252 5.887,4.152 5.887,4.051 5.887,3.951 5.887,3.85 5.887,3.75 5.887,3.649 5.886,3.548 5.885,3.448 5.885,3.347 5.885,3.247 5.885,3.146 5.885,3.045 5.884,2.945 5.887,2.931 5.889,2.917 5.892,2.902 5.895,2.888 5.898,2.874 5.901,2.86 5.904,2.846 5.907,2.832 5.917,2.817 5.926,2.802 5.936,2.787 5.945,2.772 5.954,2.757 5.963,2.742 5.973,2.727 5.983,2.711 5.997,2.698 6.009,2.684 6.022,2.669 6.036,2.656 6.049,2.642 6.063,2.628 6.077,2.614 6.089,2.6 6.104,2.59 6.119,2.58 6.133,2.569 6.148,2.559 6.163,2.548 6.177,2.538 6.192,2.527 6.207,2.517 6.233,2.51 6.258,2.503 6.284,2.496 6.309,2.489 6.334,2.482 6.36,2.475 6.385,2.468 6.411,2.461 6.434,2.458 6.457,2.457 6.479,2.454 6.502,2.452 6.526,2.449 6.549,2.447 6.573,2.445 6.595,2.442 6.618,2.445 6.639,2.447 6.661,2.449 6.682,2.452 6.704,2.454 6.725,2.457 6.747,2.458 6.768,2.461 6.79,2.468 6.811,2.475 6.833,2.482 6.853,2.489 6.874,2.496 6.895,2.503 6.917,2.51 6.938,2.517 6.961,2.533 6.984,2.548 7.006,2.563 7.03,2.579 7.053,2.594 7.076,2.609 7.098,2.625 7.122,2.64 7.139,2.661 7.158,2.682 7.176,2.704 7.194,2.725 7.211,2.747 7.23,2.768 7.249,2.79 7.266,2.811 7.278,2.835 7.291,2.859 7.303,2.883 7.315,2.907 7.327,2.931 7.339,2.956 7.352,2.979 7.364,3.003 7.369,3.027 7.374,3.05 7.379,3.074 7.384,3.097 7.389,3.121 7.395,3.144 7.4,3.167 7.405,3.191 7.417,3.169 7.427,3.147 7.438,3.125 7.45,3.104 7.461,3.083 7.473,3.061 7.485,3.039 7.496,3.017 7.499,3.01 7.5,3.002 7.502,2.996 7.504,2.988 7.506,2.981 7.508,2.974 7.51,2.967 7.512,2.959 7.511,2.959 7.51,2.958 7.51,2.958 7.509,2.958 7.508,2.957 7.508,2.957 7.507,2.956 7.506,2.956 7.509,2.954 7.512,2.953 7.515,2.952 7.518,2.95 7.521,2.949 7.524,2.948 7.528,2.946 7.531,2.945 7.533,2.925 7.535,2.905 7.537,2.884 7.539,2.864 7.541,2.844 7.542,2.824 7.544,2.804 7.546,2.784 7.542,2.765 7.538,2.747 7.533,2.729 7.528,2.71 7.523,2.692 7.518,2.673 7.513,2.655 7.508,2.637 7.498,2.621 7.487,2.604 7.477,2.588 7.466,2.572 7.456,2.555 7.446,2.539 7.435,2.523 7.424,2.506 7.409,2.493 7.393,2.479 7.377,2.465 7.363,2.451 7.348,2.437 7.333,2.423 7.317,2.41 7.301,2.396 7.268,2.378 7.235,2.36 7.202,2.342 7.168,2.324 7.135,2.306 7.102,2.288 7.069,2.27 7.036,2.252 6.998,2.243 6.959,2.233 6.921,2.223 6.883,2.213 6.845,2.204 6.807,2.194 6.77,2.185 6.732,2.175 6.692,2.174 6.653,2.173 6.613,2.172 6.573,2.172 6.534,2.171 6.494,2.17 6.454,2.169 6.415,2.168 6.376,2.176 6.338,2.184 6.3,2.192 6.262,2.2 6.224,2.208 6.186,2.216 6.148,2.224 6.11,2.232 6.087,2.243 6.065,2.253 6.043,2.264 6.021,2.275 5.999,2.286 5.977,2.296 5.955,2.307 5.932,2.317 5.917,2.329 5.901,2.34 5.885,2.352 5.87,2.363 5.854,2.375 5.838,2.386 5.823,2.397 5.806,2.409 5.797,2.417 5.788,2.427 5.778,2.436 5.768,2.445 5.758,2.454 5.75,2.463 5.741,2.472 5.731,2.481 5.728,2.485 5.725,2.489 5.722,2.493 5.719,2.497 5.716,2.5 5.713,2.504 5.709,2.507 5.707,2.511 5.704,2.501 5.702,2.491 5.699,2.481 5.696,2.471 5.693,2.461 5.69,2.451 5.688,2.441 5.685,2.431 5.676,2.406 5.667,2.381 5.658,2.356 5.649,2.331 5.64,2.305 5.631,2.28 5.622,2.255 5.613,2.23 5.596,2.197 5.581,2.164 5.564,2.13 5.547,2.097 5.531,2.063 5.514,2.03 5.498,1.997 5.481,1.963 5.456,1.929 5.431,1.895 5.406,1.861 5.38,1.826 5.355,1.792 5.33,1.757 5.305,1.723 5.28,1.689 5.248,1.665 5.216,1.64 5.185,1.616 5.153,1.591 5.121,1.567 5.089,1.542 5.058,1.518 5.026,1.493 4.994,1.476 4.96,1.458 4.928,1.441 4.895,1.423 4.862,1.406 4.83,1.389 4.797,1.372 4.764,1.354 4.728,1.344 4.692,1.335 4.656,1.326 4.62,1.316 4.583,1.306 4.547,1.296 4.511,1.287 4.475,1.277 4.433,1.276 4.391,1.275 4.349,1.273 4.307,1.272 4.265,1.271 4.223,1.27 4.181,1.268 4.139,1.267 4.123,1.269 4.107,1.27 4.091,1.271 4.075,1.272 4.059,1.274 4.043,1.275 4.027,1.276 4.011,1.278 3.989,1.282 3.967,1.285 3.945,1.289 3.923,1.292 3.901,1.296 3.879,1.3 3.857,1.303 3.835,1.307 3.806,1.32 3.778,1.333 3.75,1.347 3.721,1.36 3.693,1.374 3.665,1.387 3.636,1.4 3.607,1.414 3.573,1.444 3.538,1.474 3.502,1.504 3.467,1.535 3.432,1.565 3.397,1.595 3.362,1.625 3.327,1.656 3.318,1.674 3.309,1.692 3.3,1.71 3.292,1.729 3.283,1.747 3.274,1.765 3.265,1.783 3.256,1.801 3.252,1.816 3.25,1.832 3.247,1.847 3.244,1.862 3.241,1.877 3.237,1.892 3.234,1.907 3.231,1.922 3.231,1.932 3.23,1.941 3.23,1.95 3.23,1.959 3.23,1.969 3.229,1.978 3.229,1.988 3.229,1.997 3.229,1.998 3.228,1.999 3.228,2 3.228,2 3.227,2.001 3.227,2.002 3.227,2.002 3.226,2.003 3.242,1.989 3.257,1.974 3.272,1.959 3.288,1.944 3.303,1.929 3.318,1.915 3.333,1.9 3.349,1.885 3.364,1.874 3.378,1.862 3.393,1.851 3.408,1.839 3.422,1.828 3.438,1.817 3.453,1.805 3.467,1.794 3.485,1.785 3.502,1.775 3.52,1.766 3.538,1.756 3.555,1.747 3.573,1.738 3.59,1.729 3.608,1.719 3.632,1.711 3.656,1.703 3.68,1.694 3.704,1.686 3.727,1.677 3.751,1.668 3.775,1.66 3.798,1.652 3.833,1.645 3.867,1.639 3.901,1.632 3.935,1.625 3.969,1.619 4.003,1.613 4.038,1.606 4.072,1.6 4.105,1.6 4.139,1.6 4.173,1.6 4.207,1.601 4.24,1.601 4.274,1.601 4.307,1.601 4.341,1.602 4.374,1.608 4.406,1.615 4.438,1.622 4.47,1.628 4.502,1.635 4.535,1.642 4.567,1.649 4.599,1.656 4.629,1.668 4.66,1.682 4.69,1.695 4.72,1.708 4.75,1.72 4.781,1.733 4.811,1.747 4.841,1.759 4.872,1.788 4.902,1.815 4.932,1.843 4.962,1.872 4.993,1.9 5.023,1.928 5.053,1.957 5.084,1.984 5.105,2.013 5.125,2.042 5.146,2.072 5.167,2.101 5.188,2.13 5.209,2.16 5.23,2.189 5.251,2.218 5.264,2.25 5.277,2.282 5.291,2.314 5.303,2.346 5.316,2.377 5.329,2.41 5.342,2.441 5.355,2.473 5.361,2.509 5.368,2.545 5.374,2.582 5.38,2.618 5.387,2.655 5.393,2.691 5.399,2.727 5.406,2.763 5.406,2.871 5.406,2.978 5.406,3.085 5.406,3.193 5.406,3.3 5.406,3.408 5.406,3.515 5.406,3.622 5.406,3.729 5.406,3.836 5.406,3.944 5.406,4.051 5.406,4.159 5.406,4.266 5.406,4.374 5.406,4.481 5.406,4.588 5.406,4.696 5.406,4.803 5.406,4.911 5.406,5.018 5.406,5.125 5.406,5.233 5.406,5.34 5.406,5.447 5.406,5.554 5.406,5.662 5.406,5.769 5.406,5.876 5.406,5.984 5.406,6.091 5.406,6.199 5.388,6.199 5.37,6.198 5.352,6.197 5.333,6.197 5.315,6.197 5.297,6.197 5.279,6.197 5.261,6.196 5.241,6.195 5.22,6.193 5.2,6.192 5.179,6.191 5.159,6.19 5.138,6.189 5.118,6.187 5.097,6.186 5.073,6.185 5.048,6.183 5.024,6.181 5,6.179 4.977,6.177 4.953,6.175 4.929,6.173 4.905,6.171 4.876,6.168 4.849,6.166 4.821,6.164 4.792,6.161 4.764,6.158 4.736,6.156 4.708,6.153 4.68,6.15 4.576,6.119 4.471,6.086 4.367,6.054 4.262,6.023 4.158,5.992 4.053,5.96 3.949,5.929 3.845,5.897 3.755,5.842 3.666,5.788 3.576,5.733 3.487,5.678 3.397,5.624 3.308,5.569 3.218,5.514 3.128,5.459 3.066,5.407 3.003,5.355 2.941,5.303 2.878,5.251 2.816,5.2 2.753,5.147 2.691,5.095 2.628,5.043 2.605,5.021 2.582,4.998 2.558,4.974 2.534,4.951 2.51,4.928 2.487,4.905 2.463,4.882 2.44,4.859 2.414,4.828 2.387,4.797 2.361,4.766 2.334,4.735 2.308,4.704 2.282,4.672 2.255,4.641 2.229,4.61 2.203,4.58 2.176,4.548 2.15,4.517 2.124,4.486 2.097,4.455 2.071,4.424 2.044,4.393 2.018,4.362 1.991,4.331 1.964,4.3 1.938,4.269 1.912,4.238 1.885,4.207 1.859,4.175 1.833,4.144 1.806,4.113 1.78,4.083 1.753,4.051 1.727,4.02 1.701,3.989 1.674,3.958 1.648,3.927 1.622,3.896 1.595,3.865 1.631,4.041 1.667,4.217 1.702,4.393 1.738,4.569 1.773,4.745 1.809,4.921 1.845,5.097 1.88,5.273 1.974,5.42 2.068,5.567 2.163,5.714 2.256,5.862 2.35,6.009 2.444,6.156 2.538,6.303 2.632,6.451 2.764,6.558 2.896,6.665 3.029,6.771 3.161,6.878 3.293,6.985 3.426,7.091 3.558,7.199 3.69,7.305 3.841,7.361 3.993,7.416 4.144,7.47 4.295,7.525 4.447,7.58 4.598,7.634 4.749,7.689 4.9,7.744 4.897,7.744 4.894,7.744 4.891,7.744 4.888,7.744 4.884,7.744 4.881,7.744 4.878,7.744 4.875,7.744 4.873,7.744 4.869,7.744 4.866,7.744 4.863,7.744 4.86,7.744 4.857,7.744 4.854,7.744 4.851,7.744 4.847,7.744 4.844,7.744 4.841,7.744 4.838,7.744 4.835,7.744 4.832,7.744 4.829,7.744 4.826,7.744 4.823,7.744 4.82,7.744 4.817,7.744 4.813,7.744 4.81,7.744 4.807,7.744 4.804,7.744 4.801,7.744 4.801,7.746 4.802,7.747 4.802,7.748 4.802,7.75 4.803,7.751 4.803,7.752 4.803,7.753 4.804,7.755 4.804,7.757 4.804,7.758 4.805,7.759 4.805,7.761 4.805,7.763 4.806,7.765 4.806,7.767 4.806,7.768 4.806,7.769 4.807,7.771 4.807,7.773 4.807,7.775 4.808,7.777 4.808,7.778 4.808,7.779 4.809,7.781 4.809,7.783 4.809,7.784 4.81,7.785 4.81,7.787 4.81,7.789 4.811,7.79 4.811,7.791 4.811,7.792 4.795,7.821 4.78,7.849 4.764,7.877 4.749,7.906 4.733,7.934 4.717,7.962 4.702,7.992 4.686,8.02 4.67,8.048 4.655,8.078 4.639,8.106 4.624,8.134 4.608,8.163 4.592,8.191 4.577,8.219 4.561,8.248 4.544,8.276 4.529,8.304 4.513,8.333 4.498,8.361 4.482,8.389 4.466,8.417 4.451,8.447 4.435,8.475 4.419,8.503 4.404,8.533 4.388,8.561 4.373,8.589 4.357,8.618 4.341,8.646 4.326,8.674 4.31,8.703 4.377,8.703 4.445,8.704 4.512,8.705 4.579,8.705 4.646,8.705 4.713,8.706 4.781,8.707 4.848,8.707 4.916,8.707 4.983,8.708 5.05,8.708 5.118,8.708 5.185,8.708 5.252,8.709 5.32,8.71 5.387,8.71 5.454,8.71 5.521,8.711 5.588,8.712 5.656,8.712 5.723,8.712 5.791,8.713 5.858,8.714 5.925,8.714 5.993,8.714 6.059,8.715 6.126,8.716 6.194,8.716 6.261,8.716 6.329,8.717 6.396,8.718 6.463,8.718 6.448,8.688 6.431,8.658 6.415,8.626 6.399,8.596 6.383,8.566 6.368,8.535 6.352,8.504 6.335,8.474 6.319,8.444 6.303,8.414 6.288,8.382 6.272,8.352 6.256,8.322 6.24,8.291 6.223,8.26 6.208,8.23 6.192,8.2 6.175,8.169 6.159,8.138 6.143,8.108 6.127,8.078 6.111,8.046 6.094,8.016 6.079,7.986 6.063,7.956 6.046,7.925 6.03,7.894 6.014,7.864 5.999,7.833 5.983,7.802 5.967,7.772 5.951,7.742 5.946,7.742 5.942,7.742 5.938,7.742 5.934,7.742 5.93,7.742 5.926,7.742 5.922,7.742 5.917,7.742 5.913,7.742 5.909,7.742 5.905,7.742 5.901,7.742 5.897,7.742 5.893,7.742 5.889,7.742 5.884,7.742 5.879,7.742 5.875,7.742 5.872,7.742 5.868,7.742 5.864,7.742 5.86,7.742 5.856,7.742 5.851,7.742 5.846,7.742 5.842,7.742 5.838,7.742 5.834,7.742 5.831,7.742 5.827,7.742 5.823,7.742 5.818,7.742 5.971,7.685 6.124,7.628 6.276,7.572 6.428,7.514 6.581,7.457 6.734,7.4 6.887,7.343 7.04,7.287 7.174,7.176 7.309,7.066 7.444,6.956 7.579,6.845 7.713,6.735 7.848,6.625 7.983,6.514 8.118,6.404 8.213,6.253 8.31,6.103 8.407,5.953 8.502,5.801 8.598,5.651 8.694,5.5 8.79,5.35 8.886,5.199 8.922,5.021 8.959,4.843 8.997,4.666 9.033,4.488 9.069,4.31 9.106,4.132 9.143,3.955 9.179,3.777 9.179,3.777 9.179,3.777 9.179,3.777 9.179,3.777 9.179,3.777 9.179,3.777 9.179,3.777 9.179,3.777 9.179,3.777 9.179,3.777 9.179,3.777 9.165,3.799 9.149,3.821 "
   id="polygon3638"
   style="fill:#1C62A6"
   transform="translate(-0.519,-0.208)" />
</svg>