<?xml version="1.0" encoding="UTF-8" standalone="no"?>
<!-- Generator: Adobe Illustrator 13.0.0, SVG Export Plug-In  -->

<svg
   xmlns:dc="http://purl.org/dc/elements/1.1/"
   xmlns:cc="http://creativecommons.org/ns#"
   xmlns:rdf="http://www.w3.org/1999/02/22-rdf-syntax-ns#"
   xmlns:svg="http://www.w3.org/2000/svg"
   xmlns="http://www.w3.org/2000/svg"
   xmlns:sodipodi="http://sodipodi.sourceforge.net/DTD/sodipodi-0.dtd"
   xmlns:inkscape="http://www.inkscape.org/namespaces/inkscape"
   version="1.1"
   x="0px"
   y="0px"
   width="11.623"
   height="11.622"
   viewBox="-0.564 -0.662 11.623 11.622"
   enable-background="new -0.564 -0.662 13 13"
   xml:space="preserve"
   id="svg3807"
   inkscape:version="0.48.0 r9654"
   sodipodi:docname="e100_Site_d'escalade.svg"><metadata
   id="metadata3817"><rdf:RDF><cc:Work
       rdf:about=""><dc:format>image/svg+xml</dc:format><dc:type
         rdf:resource="http://purl.org/dc/dcmitype/StillImage" /></cc:Work></rdf:RDF></metadata><sodipodi:namedview
   pagecolor="#ffffff"
   bordercolor="#666666"
   borderopacity="1"
   objecttolerance="10"
   gridtolerance="10"
   guidetolerance="10"
   inkscape:pageopacity="0"
   inkscape:pageshadow="2"
   inkscape:window-width="640"
   inkscape:window-height="480"
   id="namedview3815"
   showgrid="false"
   fit-margin-top="0"
   fit-margin-left="0"
   fit-margin-right="0"
   fit-margin-bottom="0"
   inkscape:zoom="22.384615"
   inkscape:cx="5.936"
   inkscape:cy="5.784"
   inkscape:window-x="276"
   inkscape:window-y="61"
   inkscape:window-maximized="0"
   inkscape:current-layer="svg3807" />
<defs
   id="defs3809">
</defs>
<path
   sodipodi:type="arc"
   style="fill:#ffffff;stroke:#ffffff;stroke-opacity:1"
   id="path2982"
   sodipodi:cx="8.1975946"
   sodipodi:cy="6.8195944"
   sodipodi:rx="4.5790377"
   sodipodi:ry="4.6237116"
   d="m 12.776632,6.8195944 a 4.5790377,4.6237116 0 1 1 -9.158075,0 4.5790377,4.6237116 0 1 1 9.158075,0 z"
   transform="matrix(0.98287722,0,0,0.97338083,-2.8136689,-1.4856228)" /><path
   d="m -0.564,5.148 c 0,3.205 2.607,5.812 5.811,5.812 3.205,0 5.812,-2.606 5.812,-5.812 0,-3.204 -2.607,-5.81 -5.812,-5.81 -3.204,0 -5.811,2.606 -5.811,5.81 z m 0.851,0 c 0,-2.735 2.225,-4.959 4.96,-4.959 2.735,0 4.962,2.225 4.962,4.959 0,2.735 -2.227,4.962 -4.962,4.962 -2.735,0 -4.96,-2.227 -4.96,-4.962 z"
   id="path3811"
   inkscape:connector-curvature="0"
   style="fill:#404040" />
<polygon
   points="7.728,4.085 6.811,5.644 5.069,1.794 2.594,8.806 9.607,8.806 "
   id="polygon3813"
   style="fill:#404040"
   transform="translate(-0.564,-0.662)" />
</svg>
