<?xml version="1.0" encoding="UTF-8" standalone="no"?>
<!-- Generator: Adobe Illustrator 13.0.0, SVG Export Plug-In . SVG Version: 6.00 Build 14948)  -->

<svg
   xmlns:dc="http://purl.org/dc/elements/1.1/"
   xmlns:cc="http://creativecommons.org/ns#"
   xmlns:rdf="http://www.w3.org/1999/02/22-rdf-syntax-ns#"
   xmlns:svg="http://www.w3.org/2000/svg"
   xmlns="http://www.w3.org/2000/svg"
   xmlns:xlink="http://www.w3.org/1999/xlink"
   xmlns:sodipodi="http://sodipodi.sourceforge.net/DTD/sodipodi-0.dtd"
   xmlns:inkscape="http://www.inkscape.org/namespaces/inkscape"
   version="1.1"
   id="Layer_4"
   x="0px"
   y="0px"
   width="117.64"
   height="60.950001"
   viewBox="0 0 117.64 60.950001"
   enable-background="new 0 0 174.33 117.64"
   xml:space="preserve"
   inkscape:version="0.48.0 r9654"
   sodipodi:docname="e1000_caisson_partiel_large_ech.svg"><metadata
   id="metadata18"><rdf:RDF><cc:Work
       rdf:about=""><dc:format>image/svg+xml</dc:format><dc:type
         rdf:resource="http://purl.org/dc/dcmitype/StillImage" /></cc:Work></rdf:RDF></metadata><sodipodi:namedview
   pagecolor="#ffffff"
   bordercolor="#666666"
   borderopacity="1"
   objecttolerance="10"
   gridtolerance="10"
   guidetolerance="10"
   inkscape:pageopacity="0"
   inkscape:pageshadow="2"
   inkscape:window-width="640"
   inkscape:window-height="480"
   id="namedview16"
   showgrid="false"
   fit-margin-top="0"
   fit-margin-left="0"
   fit-margin-right="0"
   fit-margin-bottom="0"
   inkscape:zoom="2.2186331"
   inkscape:cx="58.82"
   inkscape:cy="30.475"
   inkscape:window-x="0"
   inkscape:window-y="0"
   inkscape:window-maximized="0"
   inkscape:current-layer="Layer_4" />
<defs
   id="defs3">
	<polygon
   id="SVGID_1_"
   points="0,18.1 0,27.15 0,36.2 0,45.25 0,54.29 0,63.34 0,72.39 0,81.44 0,90.49 0,99.54 0,108.59 0,117.64 8.72,117.64 17.43,117.64 26.15,117.64 34.87,117.64 43.58,117.64 52.3,117.64 61.02,117.64 69.73,117.64 78.45,117.64 87.17,117.64 95.88,117.64 104.6,117.64 113.31,117.64 122.03,117.64 130.75,117.64 139.46,117.64 148.18,117.64 156.9,117.64 165.61,117.64 174.33,117.64 174.33,108.59 174.33,99.54 174.33,90.49 174.33,81.44 174.33,72.39 174.33,63.34 174.33,54.29 174.33,45.25 174.33,36.2 174.33,27.15 174.33,18.1 174.33,9.05 174.33,0 165.61,0 156.9,0 148.18,0 139.46,0 130.75,0 122.03,0 113.31,0 104.6,0 95.88,0 87.17,0 78.45,0 69.73,0 61.02,0 52.3,0 43.58,0 34.87,0 26.15,0 17.43,0 8.72,0 0,0 0,9.05 " />
</defs>
<clipPath
   id="SVGID_2_">
	<use
   xlink:href="#SVGID_1_"
   overflow="visible"
   id="use7"
   style="overflow:visible"
   x="0"
   y="0"
   width="174.33"
   height="117.64" />
</clipPath>
<g
   id="clip"
   clip-path="url(#SVGID_2_)"
   transform="translate(-28.345001,-28.345)">
</g>
<g
   id="Surface"
   clip-path="url(#SVGID_2_)"
   transform="translate(-28.345001,-28.345)">
	<polygon
   points="57.36,30.51 55.92,30.62 54.5,30.8 53.11,31.05 51.73,31.36 50.39,31.75 49.07,32.19 47.79,32.7 46.53,33.27 45.31,33.89 44.12,34.58 42.97,35.31 41.86,36.1 40.79,36.94 39.76,37.84 38.78,38.77 37.84,39.76 36.95,40.79 36.1,41.86 35.31,42.97 34.58,44.12 33.89,45.31 33.27,46.53 32.7,47.78 32.19,49.07 31.75,50.39 31.36,51.73 31.05,53.11 30.8,54.5 30.62,55.92 30.51,57.36 30.47,58.82 30.51,60.28 30.62,61.72 30.8,63.14 31.05,64.53 31.36,65.9 31.75,67.25 32.19,68.57 32.7,69.85 33.27,71.11 33.89,72.33 34.58,73.52 35.31,74.67 36.1,75.78 36.95,76.85 37.84,77.88 38.78,78.86 39.76,79.8 40.79,80.69 41.86,81.53 42.97,82.32 44.12,83.06 45.31,83.74 46.53,84.37 47.79,84.94 49.07,85.45 50.39,85.89 51.73,86.27 53.11,86.59 54.5,86.84 55.92,87.02 57.36,87.13 58.82,87.17 58.82,87.17 115.51,87.17 116.97,87.13 118.41,87.02 119.83,86.84 121.23,86.59 122.6,86.27 123.94,85.89 125.26,85.45 126.55,84.94 127.8,84.37 129.03,83.74 130.21,83.06 131.36,82.32 132.48,81.53 133.55,80.69 134.57,79.8 135.56,78.86 136.5,77.88 137.39,76.85 138.23,75.78 139.02,74.67 139.76,73.52 140.44,72.33 141.06,71.11 141.63,69.85 142.14,68.57 142.58,67.25 142.97,65.9 143.28,64.53 143.53,63.14 143.71,61.72 143.82,60.28 143.86,58.82 143.82,57.36 143.71,55.92 143.53,54.5 143.28,53.11 142.97,51.73 142.58,50.39 142.14,49.07 141.63,47.78 141.06,46.53 140.44,45.31 139.76,44.12 139.02,42.97 138.23,41.86 137.39,40.79 136.5,39.76 135.56,38.77 134.57,37.84 133.55,36.94 132.48,36.1 131.36,35.31 130.21,34.58 129.03,33.89 127.8,33.27 126.55,32.7 125.26,32.19 123.94,31.75 122.6,31.36 121.23,31.05 119.83,30.8 118.41,30.62 116.97,30.51 115.51,30.47 58.82,30.47 58.82,30.47 "
   id="polygon11"
   style="fill:#ffffff" />
</g>
<g
   id="Ligne_1_"
   clip-path="url(#SVGID_2_)"
   transform="translate(-28.345001,-28.345)">
	<polyline
   points="115.51,30.47 58.82,30.47 58.82,30.47 57.36,30.51    55.92,30.62 54.5,30.8 53.11,31.05 51.73,31.36 50.39,31.75 49.07,32.19 47.79,32.7 46.53,33.27 45.31,33.89 44.12,34.58    42.97,35.31 41.86,36.1 40.79,36.94 39.76,37.84 38.78,38.77 37.84,39.76 36.95,40.79 36.1,41.86 35.31,42.97 34.58,44.12    33.89,45.31 33.27,46.53 32.7,47.78 32.19,49.07 31.75,50.39 31.36,51.73 31.05,53.11 30.8,54.5 30.62,55.92 30.51,57.36    30.47,58.82 30.51,60.28 30.62,61.72 30.8,63.14 31.05,64.53 31.36,65.9 31.75,67.25 32.19,68.57 32.7,69.85 33.27,71.11    33.89,72.33 34.58,73.52 35.31,74.67 36.1,75.78 36.95,76.85 37.84,77.88 38.78,78.86 39.76,79.8 40.79,80.69 41.86,81.53    42.97,82.32 44.12,83.06 45.31,83.74 46.53,84.37 47.79,84.94 49.07,85.45 50.39,85.89 51.73,86.27 53.11,86.59 54.5,86.84    55.92,87.02 57.36,87.13 58.82,87.17 58.82,87.17 115.51,87.17 116.97,87.13 118.41,87.02 119.83,86.84 121.23,86.59 122.6,86.27    123.94,85.89 125.26,85.45 126.55,84.94 127.8,84.37 129.03,83.74 130.21,83.06 131.36,82.32 132.48,81.53 133.55,80.69    134.57,79.8 135.56,78.86 136.5,77.88 137.39,76.85 138.23,75.78 139.02,74.67 139.76,73.52 140.44,72.33 141.06,71.11    141.63,69.85 142.14,68.57 142.58,67.25 142.97,65.9 143.28,64.53 143.53,63.14 143.71,61.72 143.82,60.28 143.86,58.82    143.82,57.36 143.71,55.92 143.53,54.5 143.28,53.11 142.97,51.73 142.58,50.39 142.14,49.07 141.63,47.78 141.06,46.53    140.44,45.31 139.76,44.12 139.02,42.97 138.23,41.86 137.39,40.79 136.5,39.76 135.56,38.77 134.57,37.84 133.55,36.94    132.48,36.1 131.36,35.31 130.21,34.58 129.03,33.89 127.8,33.27 126.55,32.7 125.26,32.19 123.94,31.75 122.6,31.36 121.23,31.05    119.83,30.8 118.41,30.62 116.97,30.51 115.51,30.47  "
   id="polyline14"
   style="fill:none;stroke:#0c0c0c;stroke-width:4.25" />
</g>
</svg>