<?xml version="1.0" encoding="UTF-8" standalone="no"?>
<!-- Generator: Adobe Illustrator 13.0.0, SVG Export Plug-In  -->

<svg
   xmlns:dc="http://purl.org/dc/elements/1.1/"
   xmlns:cc="http://creativecommons.org/ns#"
   xmlns:rdf="http://www.w3.org/1999/02/22-rdf-syntax-ns#"
   xmlns:svg="http://www.w3.org/2000/svg"
   xmlns="http://www.w3.org/2000/svg"
   xmlns:sodipodi="http://sodipodi.sourceforge.net/DTD/sodipodi-0.dtd"
   xmlns:inkscape="http://www.inkscape.org/namespaces/inkscape"
   version="1.1"
   x="0px"
   y="0px"
   width="11.622"
   height="11.622"
   viewBox="-0.026 -0.662 11.622 11.622"
   enable-background="new -0.026 -0.662 12 13"
   xml:space="preserve"
   id="svg2"
   inkscape:version="0.48.2 r9819"
   sodipodi:docname="e100_Site_de_vol_libre.svg"><metadata
   id="metadata14"><rdf:RDF><cc:Work
       rdf:about=""><dc:format>image/svg+xml</dc:format><dc:type
         rdf:resource="http://purl.org/dc/dcmitype/StillImage" /><dc:title></dc:title></cc:Work></rdf:RDF></metadata><sodipodi:namedview
   pagecolor="#ffffff"
   bordercolor="#666666"
   borderopacity="1"
   objecttolerance="10"
   gridtolerance="10"
   guidetolerance="10"
   inkscape:pageopacity="0"
   inkscape:pageshadow="2"
   inkscape:window-width="640"
   inkscape:window-height="456"
   id="namedview12"
   showgrid="false"
   fit-margin-top="0"
   fit-margin-left="0"
   fit-margin-right="0"
   fit-margin-bottom="0"
   inkscape:zoom="22.384615"
   inkscape:cx="5.974"
   inkscape:cy="5.784"
   inkscape:window-x="39"
   inkscape:window-y="193"
   inkscape:window-maximized="0"
   inkscape:current-layer="svg2" />
<defs
   id="defs4">
</defs>
<path
   sodipodi:type="arc"
   style="fill:#ffffff;stroke:#ffffff;stroke-opacity:1"
   id="path2982"
   sodipodi:cx="8.1975946"
   sodipodi:cy="6.8195944"
   sodipodi:rx="4.5790377"
   sodipodi:ry="4.6237116"
   d="m 12.776632,6.8195944 a 4.5790377,4.6237116 0 1 1 -9.158075,0 4.5790377,4.6237116 0 1 1 9.158075,0 z"
   transform="matrix(0.98287722,0,0,0.97338083,-2.2756686,-1.5749698)"
   inkscape:export-filename="C:\Users\dchandler\Desktop\path2982.png"
   inkscape:export-xdpi="600"
   inkscape:export-ydpi="600" /><path
   d="m -0.026,5.148 c 0,3.205 2.607,5.812 5.811,5.812 3.204,0 5.811,-2.606 5.811,-5.812 0,-3.204 -2.607,-5.81 -5.811,-5.81 -3.204,0 -5.811,2.606 -5.811,5.81 z m 0.851,0 c 0,-2.735 2.225,-4.959 4.96,-4.959 2.735,0 4.961,2.225 4.961,4.959 0,2.735 -2.226,4.962 -4.961,4.962 -2.735,0 -4.96,-2.227 -4.96,-4.962 z"
   id="path6"
   inkscape:connector-curvature="0"
   style="fill:#1C62A6" />
<polygon
   points="9,8.33 8.871,8.259 8.741,8.189 8.578,8.124 8.416,8.058 8.253,7.993 8.09,7.927 7.982,7.895 7.873,7.863 7.763,7.831 7.655,7.798 7.552,7.788 7.449,7.777 7.345,7.766 7.243,7.755 7.156,7.771 7.07,7.788 6.984,7.804 6.897,7.82 6.81,7.847 6.723,7.874 6.636,7.9 6.549,7.927 6.484,7.976 6.419,8.025 6.355,8.074 6.29,8.123 6.218,8.199 6.148,8.275 6.078,8.351 6.006,8.427 5.963,8.498 5.92,8.568 5.877,8.638 5.834,8.708 5.802,8.828 5.769,8.948 5.736,9.068 5.704,9.187 5.704,7.305 5.704,5.423 5.704,3.542 5.704,1.66 5.704,1.66 5.704,1.66 6.593,3.362 7.482,5.065 8.371,6.767 9.26,8.47 9.13,8.4 "
   id="polygon8"
   style="fill:#1C62A6"
   transform="translate(-0.026,-0.662)" />
<polygon
   points="2.428,8.373 2.558,8.302 2.688,8.232 2.851,8.167 3.014,8.102 3.177,8.037 3.34,7.972 3.449,7.939 3.557,7.907 3.666,7.875 3.774,7.841 3.877,7.831 3.98,7.82 4.083,7.809 4.186,7.798 4.272,7.814 4.359,7.831 4.445,7.847 4.532,7.863 4.619,7.89 4.706,7.917 4.792,7.945 4.879,7.972 4.945,8.021 5.01,8.07 5.076,8.119 5.141,8.167 5.211,8.244 5.282,8.319 5.352,8.394 5.422,8.47 5.466,8.541 5.509,8.611 5.553,8.681 5.596,8.751 5.623,8.861 5.65,8.969 5.677,9.078 5.704,9.187 5.709,7.316 5.714,5.445 5.72,3.574 5.725,1.703 5.725,1.703 5.725,1.703 4.836,3.405 3.947,5.108 3.058,6.81 2.168,8.513 2.298,8.443 "
   id="polygon10"
   style="fill:#1C62A6"
   transform="translate(-0.026,-0.662)" />
<path
   sodipodi:type="arc"
   style="opacity:0;fill:#0c0c0c;stroke:none"
   id="path2984"
   sodipodi:cx="7.7061858"
   sodipodi:cy="7.5120339"
   sodipodi:rx="1.8092784"
   sodipodi:ry="1.652921"
   d="m 9.5154642,7.5120339 a 1.8092784,1.652921 0 1 1 -3.6185568,0 1.8092784,1.652921 0 1 1 3.6185568,0 z"
   transform="translate(-0.026,-0.662)" /></svg>