<?xml version="1.0" encoding="UTF-8" standalone="no"?>
<!-- Generator: Adobe Illustrator 13.0.0, SVG Export Plug-In  -->

<svg
   xmlns:dc="http://purl.org/dc/elements/1.1/"
   xmlns:cc="http://creativecommons.org/ns#"
   xmlns:rdf="http://www.w3.org/1999/02/22-rdf-syntax-ns#"
   xmlns:svg="http://www.w3.org/2000/svg"
   xmlns="http://www.w3.org/2000/svg"
   xmlns:sodipodi="http://sodipodi.sourceforge.net/DTD/sodipodi-0.dtd"
   xmlns:inkscape="http://www.inkscape.org/namespaces/inkscape"
   version="1.1"
   x="0px"
   y="0px"
   width="10.205"
   height="5.9530001"
   viewBox="-0.677 -0.073 10.205 5.9530001"
   enable-background="new -0.677 -0.073 11 7"
   xml:space="preserve"
   id="svg3755"
   inkscape:version="0.48.1 "
   sodipodi:docname="e100_SP.svg"><metadata
   id="metadata3763"><rdf:RDF><cc:Work
       rdf:about=""><dc:format>image/svg+xml</dc:format><dc:type
         rdf:resource="http://purl.org/dc/dcmitype/StillImage" /></cc:Work></rdf:RDF></metadata><sodipodi:namedview
   pagecolor="#ffffff"
   bordercolor="#666666"
   borderopacity="1"
   objecttolerance="10"
   gridtolerance="10"
   guidetolerance="10"
   inkscape:pageopacity="0"
   inkscape:pageshadow="2"
   inkscape:window-width="640"
   inkscape:window-height="480"
   id="namedview3761"
   showgrid="false"
   fit-margin-top="0"
   fit-margin-left="0"
   fit-margin-right="0"
   fit-margin-bottom="0"
   inkscape:zoom="41.571429"
   inkscape:cx="4.823"
   inkscape:cy="2.5259999"
   inkscape:window-x="0"
   inkscape:window-y="0"
   inkscape:window-maximized="0"
   inkscape:current-layer="svg3755" />
<defs
   id="defs3757">
</defs>
<path
   d="M -0.677,-0.07300001 V 5.88 H 9.528 V -0.07300001 H -0.677 z M 9.245,5.596 H -0.394 V 0.20999999 H 9.245 V 5.596 z M 5.733,3.619 H 6.298 C 6.691,3.619 6.99,3.598 7.197,3.557 7.349,3.524 7.5,3.455 7.646,3.353 7.794,3.25 7.916,3.109 8.011,2.929 8.107,2.749 8.154,2.527 8.154,2.262 8.154,1.92 8.072,1.641 7.906,1.424 7.74,1.209 7.533,1.068 7.287,1.004 c -0.16,-0.043 -0.504,-0.064 -1.03,-0.064 H 4.865 V 5.237 H 5.733 V 3.619 z m 0,-1.953 h 0.419 c 0.313,0 0.522,0.01 0.625,0.029 0.141,0.026 0.258,0.09 0.35,0.192 0.092,0.102 0.136,0.232 0.136,0.389 0,0.128 -0.033,0.24 -0.098,0.336 C 7.099,2.709 7.01,2.779 6.894,2.825 6.779,2.87 6.55,2.892 6.208,2.892 H 5.733 V 1.666 z M 2.418,4.572 C 2.154,4.572 1.944,4.506 1.79,4.374 1.634,4.241 1.531,4.034 1.48,3.752 L 0.637,3.838 c 0.057,0.481 0.23,0.848 0.521,1.1 0.291,0.251 0.708,0.377 1.251,0.377 0.373,0 0.685,-0.053 0.935,-0.157 C 3.594,5.054 3.787,4.893 3.924,4.679 4.061,4.463 4.129,4.233 4.129,3.987 4.129,3.715 4.072,3.486 3.958,3.301 3.844,3.114 3.687,2.969 3.486,2.862 3.283,2.756 2.973,2.652 2.552,2.552 2.131,2.454 1.866,2.358 1.758,2.265 1.672,2.193 1.629,2.105 1.629,2.003 1.629,1.891 1.675,1.802 1.766,1.735 1.908,1.631 2.104,1.579 2.354,1.579 2.597,1.579 2.779,1.628 2.9,1.725 3.021,1.823 3.1,1.983 3.137,2.204 L 4.004,2.173 C 3.99,1.775 3.848,1.458 3.576,1.219 3.305,0.97999999 2.901,0.86099999 2.364,0.86099999 c -0.329,0 -0.61,0.05 -0.843,0.14900001 C 1.288,1.109 1.11,1.256 0.987,1.446 0.863,1.637 0.801,1.842 0.801,2.061 c 0,0.34 0.132,0.629 0.394,0.865 0.188,0.168 0.513,0.31 0.976,0.425 0.36,0.09 0.591,0.151 0.692,0.187 C 3.01,3.591 3.114,3.653 3.173,3.723 3.232,3.794 3.262,3.88 3.262,3.982 3.262,4.139 3.191,4.278 3.05,4.395 2.907,4.513 2.698,4.572 2.418,4.572 z"
   id="path3759"
   inkscape:connector-curvature="0" />
</svg>