<?xml version="1.0" encoding="UTF-8" standalone="no"?>
<!-- Generator: Adobe Illustrator 13.0.0, SVG Export Plug-In  -->

<svg
   xmlns:dc="http://purl.org/dc/elements/1.1/"
   xmlns:cc="http://creativecommons.org/ns#"
   xmlns:rdf="http://www.w3.org/1999/02/22-rdf-syntax-ns#"
   xmlns:svg="http://www.w3.org/2000/svg"
   xmlns="http://www.w3.org/2000/svg"
   xmlns:sodipodi="http://sodipodi.sourceforge.net/DTD/sodipodi-0.dtd"
   xmlns:inkscape="http://www.inkscape.org/namespaces/inkscape"
   version="1.1"
   x="0px"
   y="0px"
   width="11.126"
   height="11.127"
   viewBox="-0.07 -0.704 11.126 11.127"
   enable-background="new -0.07 -0.704 12 12"
   xml:space="preserve"
   id="svg3157"
   inkscape:version="0.48.1 "
   sodipodi:docname="e100_aeroport.svg"><metadata
   id="metadata3165"><rdf:RDF><cc:Work
       rdf:about=""><dc:format>image/svg+xml</dc:format><dc:type
         rdf:resource="http://purl.org/dc/dcmitype/StillImage" /></cc:Work></rdf:RDF></metadata><sodipodi:namedview
   pagecolor="#ffffff"
   bordercolor="#666666"
   borderopacity="1"
   objecttolerance="10"
   gridtolerance="10"
   guidetolerance="10"
   inkscape:pageopacity="0"
   inkscape:pageshadow="2"
   inkscape:window-width="640"
   inkscape:window-height="480"
   id="namedview3163"
   showgrid="false"
   fit-margin-top="0"
   fit-margin-left="0"
   fit-margin-right="0"
   fit-margin-bottom="0"
   inkscape:zoom="24.25"
   inkscape:cx="5.93"
   inkscape:cy="5.831"
   inkscape:window-x="0"
   inkscape:window-y="0"
   inkscape:window-maximized="0"
   inkscape:current-layer="svg3157" />
<defs
   id="defs3159">
</defs>
<path
   d="m 5.493,-0.704 c -3.067,0 -5.563,2.496 -5.563,5.564 0,3.067 2.496,5.563 5.563,5.563 3.067,0 5.563,-2.495 5.563,-5.563 C 11.055,1.792 8.56,-0.704 5.493,-0.704 z M 10.201,7.441 10.124,7.423 10.017,7.379 9.863,7.305 9.645,7.198 9.388,7.07 9.112,6.933 8.845,6.801 8.608,6.686 8.428,6.601 8.326,6.559 8.323,6.587 8.313,6.66 8.299,6.761 8.281,6.879 8.261,6.995 8.239,7.095 8.218,7.165 8.195,7.186 8.122,7.134 8.069,7.039 8.032,6.915 8.009,6.778 7.995,6.644 7.988,6.529 7.985,6.447 7.981,6.415 7.848,6.345 7.606,6.216 7.291,6.051 6.941,5.873 6.596,5.703 6.293,5.565 6.07,5.478 5.966,5.465 5.921,5.593 5.885,5.855 5.855,6.212 5.835,6.624 5.822,7.052 5.816,7.459 5.818,7.805 5.828,8.05 5.885,8.281 6.004,8.465 6.161,8.608 6.34,8.718 6.515,8.802 6.667,8.866 6.774,8.919 6.817,8.966 6.78,9.025 6.68,9.048 6.539,9.046 6.372,9.028 6.199,9.004 6.039,8.981 5.909,8.969 5.829,8.978 5.748,9.018 5.693,9.056 5.658,9.094 5.637,9.134 5.626,9.179 5.618,9.232 5.61,9.294 5.594,9.367 V 9.421 L 5.576,9.34 5.567,9.274 5.56,9.218 5.55,9.171 5.53,9.13 5.496,9.091 5.441,9.052 5.358,9.01 5.278,9.002 5.148,9.013 4.987,9.036 4.814,9.061 4.647,9.08 4.505,9.082 4.406,9.058 4.369,9.001 4.411,8.954 4.518,8.901 4.67,8.837 4.846,8.752 5.024,8.642 5.182,8.498 5.301,8.314 5.358,8.083 5.368,7.838 5.37,7.492 5.365,7.087 5.351,6.658 5.33,6.246 5.302,5.889 5.265,5.627 5.221,5.499 5.117,5.511 4.894,5.598 4.591,5.738 4.246,5.908 3.896,6.086 3.581,6.25 3.338,6.379 3.206,6.449 3.202,6.481 3.198,6.563 3.191,6.678 3.177,6.812 3.154,6.949 3.117,7.073 3.064,7.168 2.991,7.219 2.97,7.198 2.947,7.129 2.925,7.028 2.905,6.912 2.887,6.795 2.873,6.693 2.864,6.62 2.86,6.592 2.759,6.634 2.578,6.719 2.342,6.835 2.074,6.966 1.799,7.103 1.54,7.231 1.322,7.338 1.168,7.413 1.061,7.457 0.985,7.474 0.936,7.469 0.912,7.447 0.912,7.409 0.935,7.359 0.977,7.302 1.038,7.239 1.116,7.168 1.22,7.073 1.356,6.951 1.53,6.797 1.75,6.605 2.021,6.37 2.351,6.087 2.746,5.751 2.757,5.716 2.765,5.641 2.77,5.539 2.778,5.425 2.79,5.309 2.806,5.207 2.829,5.132 2.86,5.096 2.925,5.09 2.977,5.116 3.018,5.163 3.049,5.222 3.072,5.284 3.089,5.337 3.102,5.373 3.112,5.382 3.345,5.191 3.558,5.023 3.755,4.872 3.939,4.733 4.114,4.601 4.284,4.471 4.453,4.337 4.625,4.195 4.707,4.123 4.788,4.047 4.865,3.968 4.938,3.887 5.004,3.806 5.06,3.726 5.107,3.646 5.142,3.569 5.175,3.38 5.194,3.061 5.204,2.649 5.21,2.184 5.216,1.702 5.228,1.243 5.25,0.844 5.288,0.543 5.33,0.37 5.378,0.239 5.429,0.144 5.479,0.08 5.524,0.039 5.561,0.018 5.586,0.009 5.595,0.008 H 5.604 L 5.628,0.013 5.664,0.029 5.709,0.063 5.758,0.122 5.809,0.211 5.857,0.338 5.899,0.509 5.936,0.81 5.958,1.21 5.97,1.669 5.977,2.151 5.983,2.617 5.993,3.029 6.012,3.348 6.045,3.537 6.08,3.614 6.127,3.693 6.185,3.774 6.25,3.855 6.322,3.936 6.4,4.015 6.48,4.092 6.562,4.164 6.734,4.306 6.903,4.439 7.073,4.569 7.248,4.701 7.432,4.84 7.628,4.991 7.841,5.16 8.074,5.351 8.084,5.342 8.097,5.306 8.114,5.252 8.137,5.19 8.167,5.131 8.208,5.083 8.261,5.057 8.326,5.062 8.358,5.099 8.38,5.175 8.396,5.276 8.407,5.391 8.415,5.506 8.423,5.607 8.43,5.682 l 0.011,0.034 0.395,0.336 0.329,0.284 0.271,0.235 0.22,0.192 0.174,0.154 0.136,0.122 0.104,0.095 0.078,0.071 0.061,0.063 0.041,0.058 0.022,0.05 10e-4,0.038 -0.022,0.022 -0.05,0.005 z"
   id="path3161"
   inkscape:connector-curvature="0" />
</svg>