<?xml version="1.0" encoding="utf-8"?>
<!-- Generator: Adobe Illustrator 13.0.0, SVG Export Plug-In  -->
<!DOCTYPE svg PUBLIC "-//W3C//DTD SVG 1.1//EN" "http://www.w3.org/Graphics/SVG/1.1/DTD/svg11.dtd" [
	<!ENTITY ns_flows "http://ns.adobe.com/Flows/1.0/">
]>
<svg version="1.1"
	 xmlns="http://www.w3.org/2000/svg" xmlns:xlink="http://www.w3.org/1999/xlink" xmlns:a="http://ns.adobe.com/AdobeSVGViewerExtensions/3.0/"
	 x="0px" y="0px" width="64px" height="72px" viewBox="-0.531 -0.726 64 72" enable-background="new -0.531 -0.726 64 72"
	 xml:space="preserve">
<defs>
</defs>
<path d="M47.295,52.174c-1.328,0.332-2.715,0.273-4.15,0.059C44.072,51.92,45.967,51.979,47.295,52.174z"/>
<path fill="#1C62A6" d="M29.736,49.928V14.361c-0.273-3.965-1.377-6.719-4.199-9.609c-2.305-1.621-5.059-2.051-7.773-1.016
	c-2.217,0.84-2.93,1.66-4.258,3.359c0.107,0.449-0.264-1.387,0.742-3.32c3.066-4.219,5.02-3.477,6.055-3.73
	c3.633-0.332,5.967,1.191,8.496,4.043c2.383,3.301,3.184,7.871,3.184,7.871s0.986-1.719,3.008-2.676
	c2.871-1.25,6.504-0.684,8.867,1.582c1.387,1.27,2.178,3.105,1.719,5.234c-0.576,0.449,0.508-0.859-0.938,2.363
	c-0.107-2.246-1.484-5.313-3.477-6.445c-1.699-0.957-3.301-0.957-5.449,0c-1.152,0.82-2.52,2.793-2.402,4.082
	c0.059,11.543-0.117,22.988,0.068,34.531"/>
<path fill="#1C62A6" d="M63.359,31.295c0,16.68-17.061,30.781-31.895,30.781S0,48.619,0,31.959l7.061,7.598
	c0,0,9.092,8.965,18.711,9.902c7.607,0.703,8.516,0.352,13.828-0.488c5.039-0.82,9.648-3.242,13.965-6.484
	C57.227,39.732,63.359,31.295,63.359,31.295z"/>
<polyline fill="#1C62A6" points="26.436,62.018 21.885,70.357 41.465,70.494 36.797,61.549 26.348,61.568 "/>
</svg>
