<?xml version="1.0" encoding="utf-8"?>
<!-- Generator: Adobe Illustrator 13.0.0, SVG Export Plug-In  -->
<!DOCTYPE svg PUBLIC "-//W3C//DTD SVG 1.1//EN" "http://www.w3.org/Graphics/SVG/1.1/DTD/svg11.dtd" [
	<!ENTITY ns_flows "http://ns.adobe.com/Flows/1.0/">
]>
<svg version="1.1"
	 xmlns="http://www.w3.org/2000/svg" xmlns:xlink="http://www.w3.org/1999/xlink" xmlns:a="http://ns.adobe.com/AdobeSVGViewerExtensions/3.0/"
	 x="0px" y="0px" width="90px" height="64px" viewBox="-0.878 -0.999 90 64" enable-background="new -0.878 -0.999 90 64"
	 xml:space="preserve">
<defs>
</defs>
<path fill="#AD4E81" stroke="#AD4E81" stroke-width="0.342" d="M0.631,26.034l12.031-7.031l1.992-1.65c0,0,1.992-7.246,4.395-8.535
	c1.875-1.006,3.223-2.178,5.508-2.393s4.551,0.117,6.543,1.338c1.875,1.143,2.051,2.178,4.57,4.854
	c1.426,1.523,3.145,2.666,5.41,1.24c1.992-1.25,3.965-1.436,5.469-1.729c2.109-0.42,5.605-0.947,8.945-0.762
	c2.305,0.117,4.063-0.313,5.957-0.361s2.129-0.752,4.922-1.182c3.34-0.527,2.285-0.713,5.957-1.934
	c3.008-1.006,2.988-1.23,5.957-3.75c3.555-3.057,4.727-3.34,7.93-3.906c-0.645,1.084,0.996,6.641,1.699,8.516
	c1.113,2.91-3.594,3.203-1.699,2.637c0.664-0.195-3.691,1.67-7.656,2.871c-2.5,0.762,0.801-0.322-4.805,1.162
	c-5.547,1.475-2.305,0.498-6.387,1.807c-2.266,0.723-8.184,1.748-6.074,2.588c3.652,1.455,5.488,4.238,7.598,3.818
	c4.512-0.879,8.066-1.836,9.063-2.109c2.715-0.752-3.398,5.146-6.016,7.305c-4.414,3.633-1.777,1.523-5.977,4.57
	c-2.676,1.934-3.75,3.066-8.75,5.508c-4.395,2.139-3.223,0.488-6.152,1.797c-2.129,0.948-2.773,0.811-6.055,1.7
	c-3.281,0.898-7.051-0.918-11.68-2.051c-0.996-0.244-1.953-0.898-2.676-1.172c-2.52-1.006-5.313-2.891-6.992-4.336
	c-2.129-1.875-3.887-3.184-4.531-4.746s-3.359-3.867-3.359-3.867C6.881,26.034,0.631,26.034,0.631,26.034z"/>
<path fill="#FFFFFF" stroke="#AD4E81" stroke-width="1.701" d="M26.803,53.701l10.879-12.197L26.803,53.701z"/>
<path fill="#FFFFFF" stroke="#AD4E81" stroke-width="1.701" d="M52.663,40.624l-1.934,14.61c0,0-5.156-3.496-6.367-2.813
	c-1.191,0.684-2.734,3.506-2.734,3.506"/>
<polyline fill="#FFFFFF" stroke="#AD4E81" stroke-width="1.701" points="59.928,55.8 57.526,54.248 51.862,56.308 47.194,58.955 
	44.694,61.455 "/>
<polyline fill="#FFFFFF" stroke="#AD4E81" stroke-width="1.701" points="33.424,58.623 30.768,55.781 26.803,56.308 21.999,57.998 
	19.538,60.566 "/>
<path fill="#FFFFFF" stroke="#AD4E81" stroke-width="1.701" d="M27.331,54.57c-0.859,0-5.898-2.617-5.898-2.617L16.53,54.96"/>
<path fill="#FFFFFF" stroke="#FFFFFF" stroke-width="0.311" d="M30.514,19.286c0,2.188-1.826,3.955-4.092,3.955
	c-2.256,0-4.082-1.768-4.082-3.955s1.826-3.955,4.082-3.955C28.688,15.331,30.514,17.099,30.514,19.286z"/>
</svg>
