<?xml version="1.0" encoding="UTF-8" standalone="no"?>
<!-- Generator: Adobe Illustrator 13.0.0, SVG Export Plug-In  -->

<svg
   xmlns:dc="http://purl.org/dc/elements/1.1/"
   xmlns:cc="http://creativecommons.org/ns#"
   xmlns:rdf="http://www.w3.org/1999/02/22-rdf-syntax-ns#"
   xmlns:svg="http://www.w3.org/2000/svg"
   xmlns="http://www.w3.org/2000/svg"
   xmlns:sodipodi="http://sodipodi.sourceforge.net/DTD/sodipodi-0.dtd"
   xmlns:inkscape="http://www.inkscape.org/namespaces/inkscape"
   version="1.1"
   x="0px"
   y="0px"
   width="85.07515"
   height="85.041"
   viewBox="-0.712 -0.979 85.07515 85.041"
   enable-background="new -0.712 -0.979 86 87"
   xml:space="preserve"
   id="svg4425"
   inkscape:version="0.48.0 r9654"
   sodipodi:docname="e250_AERODROME.svg"><metadata
   id="metadata4433"><rdf:RDF><cc:Work
       rdf:about=""><dc:format>image/svg+xml</dc:format><dc:type
         rdf:resource="http://purl.org/dc/dcmitype/StillImage" /></cc:Work></rdf:RDF></metadata><sodipodi:namedview
   pagecolor="#ffffff"
   bordercolor="#666666"
   borderopacity="1"
   objecttolerance="10"
   gridtolerance="10"
   guidetolerance="10"
   inkscape:pageopacity="0"
   inkscape:pageshadow="2"
   inkscape:window-width="640"
   inkscape:window-height="480"
   id="namedview4431"
   showgrid="false"
   fit-margin-top="0"
   fit-margin-left="0"
   fit-margin-right="0"
   fit-margin-bottom="0"
   inkscape:zoom="3"
   inkscape:cx="42.288024"
   inkscape:cy="42.52"
   inkscape:window-x="0"
   inkscape:window-y="0"
   inkscape:window-maximized="0"
   inkscape:current-layer="svg4425" />
<defs
   id="defs4427">
</defs>
<path
   d="m 82.531024,25.989 h -33.197 c -0.114,-0.297 -0.207,-0.636 -0.329,-0.918 0.158,-2.023 -1.687,-26.05 -6.21,-26.05 -4.847,0 -6.965,24.697 -6.696,26.968 H 1.1200242 c -2.585,0 -2.585,3.511 0.969,5.106 2.52,1.131 21.4029998,8.502 32.2009998,12.706 0.462,7.913 1.803,19.905 3.649,28.748 -4.346,1.694 -10.164,3.972 -11.039,4.365 -1.421,0.639 -1.421,2.043 -0.387,2.043 h 13.06 c 0.997,3.116 2.082,5.105 3.222,5.105 1.141,0 2.227,-1.988 3.224,-5.105 h 13.058 c 1.034,0 1.034,-1.404 -0.387,-2.043 -0.876,-0.393 -6.695,-2.671 -11.043,-4.366 1.908,-9.138 3.134,-20.806 3.547,-28.69 10.984,-4.278 27.997,-11.699 30.369,-12.763 3.553,-1.595 3.553,-5.106 0.968,-5.106"
   id="path4429"
   inkscape:connector-curvature="0" />
</svg>