<?xml version="1.0" encoding="UTF-8" standalone="no"?>
<!-- Generator: Adobe Illustrator 13.0.0, SVG Export Plug-In  -->

<svg
   xmlns:dc="http://purl.org/dc/elements/1.1/"
   xmlns:cc="http://creativecommons.org/ns#"
   xmlns:rdf="http://www.w3.org/1999/02/22-rdf-syntax-ns#"
   xmlns:svg="http://www.w3.org/2000/svg"
   xmlns="http://www.w3.org/2000/svg"
   xmlns:sodipodi="http://sodipodi.sourceforge.net/DTD/sodipodi-0.dtd"
   xmlns:inkscape="http://www.inkscape.org/namespaces/inkscape"
   version="1.1"
   x="0px"
   y="0px"
   width="69.169998"
   height="76.333"
   viewBox="-0.069 -0.988 69.169998 76.333"
   enable-background="new -0.069 -0.988 70 78"
   xml:space="preserve"
   id="svg4108"
   inkscape:version="0.48.0 r9654"
   sodipodi:docname="e250_moulined2.svg"><metadata
   id="metadata4128"><rdf:RDF><cc:Work
       rdf:about=""><dc:format>image/svg+xml</dc:format><dc:type
         rdf:resource="http://purl.org/dc/dcmitype/StillImage" /></cc:Work></rdf:RDF></metadata><sodipodi:namedview
   pagecolor="#ffffff"
   bordercolor="#666666"
   borderopacity="1"
   objecttolerance="10"
   gridtolerance="10"
   guidetolerance="10"
   inkscape:pageopacity="0"
   inkscape:pageshadow="2"
   inkscape:window-width="640"
   inkscape:window-height="480"
   id="namedview4126"
   showgrid="false"
   fit-margin-top="0"
   fit-margin-left="0"
   fit-margin-right="0"
   fit-margin-bottom="0"
   inkscape:zoom="3.3461538"
   inkscape:cx="34.8685"
   inkscape:cy="38.3925"
   inkscape:window-x="310"
   inkscape:window-y="250"
   inkscape:window-maximized="0"
   inkscape:current-layer="svg4108" />
<defs
   id="defs4110">
</defs>
<polygon
   points="12.284,75.486 22.665,45.711 46.103,45.555 57.978,75.359 "
   id="polygon4112"
   style="fill:#f69679;stroke:#AD4E81;stroke-width:1.83700001"
   transform="translate(-0.1315,-1.0595)" />
<polygon
   points="24.579,25.076 34.306,3.318 44.13,25.076 "
   id="polygon4114"
   style="fill:#f69679;stroke:#AD4E81;stroke-width:2.04099989"
   transform="translate(-0.1315,-1.0595)" />
<polygon
   points="3.29,10.418 23.114,27.205 29.989,20.838 14.071,0.438 "
   id="polygon4116"
   style="fill:#AD4E81;stroke:#AD4E81;stroke-width:0.28299999"
   transform="translate(-0.1315,-1.0595)" />
<polygon
   points="55.067,0.213 38.974,20.584 45.575,27.234 65.419,10.633 "
   id="polygon4118"
   style="fill:#AD4E81;stroke:#AD4E81;stroke-width:0.28299999"
   transform="translate(-0.1315,-1.0595)" />
<polygon
   points="69.091,45.877 46.552,32.947 40.946,40.457 60.282,57.645 "
   id="polygon4120"
   style="fill:#AD4E81;stroke:#AD4E81;stroke-width:0.28299999"
   transform="translate(-0.1315,-1.0595)" />
<polygon
   points="8.544,57.898 27.997,40.691 22.685,32.967 0.204,45.809 "
   id="polygon4122"
   style="fill:#AD4E81;stroke:#AD4E81;stroke-width:0.28299999"
   transform="translate(-0.1315,-1.0595)" />
<path
   d="m 38.1785,32.4445 c 0,2.119 -1.641,3.828 -3.672,3.828 -2.031,0 -3.672,-1.709 -3.672,-3.828 0,-2.109 1.641,-3.828 3.672,-3.828 2.031,0 3.672,1.719 3.672,3.828 z"
   id="path4124"
   inkscape:connector-curvature="0"
   style="fill:#AD4E81;stroke:#AD4E81;stroke-width:0.28299999" />
</svg>