<?xml version="1.0" encoding="UTF-8" standalone="no"?>
<!-- Generator: Adobe Illustrator 13.0.0, SVG Export Plug-In  -->

<svg
   xmlns:dc="http://purl.org/dc/elements/1.1/"
   xmlns:cc="http://creativecommons.org/ns#"
   xmlns:rdf="http://www.w3.org/1999/02/22-rdf-syntax-ns#"
   xmlns:svg="http://www.w3.org/2000/svg"
   xmlns="http://www.w3.org/2000/svg"
   xmlns:sodipodi="http://sodipodi.sourceforge.net/DTD/sodipodi-0.dtd"
   xmlns:inkscape="http://www.inkscape.org/namespaces/inkscape"
   version="1.1"
   x="0px"
   y="0px"
   width="60.122002"
   height="71.036003"
   viewBox="-0.152 -0.901 60.122002 71.036003"
   enable-background="new -0.152 -0.901 61 72"
   xml:space="preserve"
   id="svg5381"
   inkscape:version="0.48.0 r9654"
   sodipodi:docname="e250_abbayeed2.svg"><metadata
   id="metadata5443"><rdf:RDF><cc:Work
       rdf:about=""><dc:format>image/svg+xml</dc:format><dc:type
         rdf:resource="http://purl.org/dc/dcmitype/StillImage" /></cc:Work></rdf:RDF></metadata><sodipodi:namedview
   pagecolor="#ffffff"
   bordercolor="#666666"
   borderopacity="1"
   objecttolerance="10"
   gridtolerance="10"
   guidetolerance="10"
   inkscape:pageopacity="0"
   inkscape:pageshadow="2"
   inkscape:window-width="640"
   inkscape:window-height="480"
   id="namedview5441"
   showgrid="false"
   fit-margin-top="0"
   fit-margin-left="0"
   fit-margin-right="0"
   fit-margin-bottom="0"
   inkscape:zoom="3.625"
   inkscape:cx="30.348"
   inkscape:cy="35.937"
   inkscape:window-x="0"
   inkscape:window-y="0"
   inkscape:window-maximized="0"
   inkscape:current-layer="svg5381" />
<defs
   id="defs5383">
</defs>
<polygon
   points="8.469,49.569 20.715,42.694 40.52,42.694 54.29,49.422 54.29,66.61 8.469,66.61 "
   id="polygon5385"
   style="fill:#AD4E81"
   transform="translate(-0.152,-0.901)" />
<path
   d="m 54.013,48.521 v 17.188 l 0.125,-0.125 H 8.317 l 0.125,0.125 V 48.668 l -0.064,0.108 12.246,-6.875 -0.061,0.016 h 19.805 l -0.055,-0.013 13.77,6.729 -0.07,-0.112 z M 40.368,41.668 H 20.563 20.53 l -0.028,0.016 -12.246,6.875 -0.063,0.036 v 0.073 17.041 0.125 h 0.125 45.82 0.125 V 65.709 48.521 48.443 l -0.07,-0.034 -13.77,-6.729 -0.026,-0.013 h -0.029 z"
   id="path5387"
   inkscape:connector-curvature="0"
   style="fill:#AD4E81" />
<path
   d="m 10.544,63.619 c 0,-6.533 1.895,-11.387 4.785,-11.387 2.89,0 4.316,4.854 4.316,11.387"
   id="path5389"
   inkscape:connector-curvature="0"
   style="fill:#ffffff" />
<path
   d="m 10.668,63.619 c 0,-6.631 1.917,-11.262 4.661,-11.262 2.585,0 4.192,4.315 4.192,11.262 h 0.249 c 0,-7.208 -1.66,-11.511 -4.441,-11.511 -2.891,0 -4.91,4.733 -4.91,11.511 h 0.249 z"
   id="path5391"
   inkscape:connector-curvature="0"
   style="fill:#ffffff" />
<path
   d="m 39.977,63.228 c 0,-6.523 1.895,-11.816 4.766,-11.816 2.91,0 5.254,5.293 5.254,11.816"
   id="path5393"
   inkscape:connector-curvature="0"
   style="fill:#ffffff" />
<path
   d="m 40.102,63.228 c 0,-6.775 1.952,-11.692 4.641,-11.692 2.828,0 5.129,5.245 5.129,11.692 h 0.249 c 0,-3.174 -0.549,-6.159 -1.546,-8.405 -1.013,-2.28 -2.374,-3.536 -3.832,-3.536 -2.833,0 -4.89,5.022 -4.89,11.941 h 0.249 z"
   id="path5395"
   inkscape:connector-curvature="0"
   style="fill:#ffffff" />
<rect
   x="20.563"
   y="37.593998"
   width="19.805"
   height="3.984"
   id="rect5397"
   style="fill:#AD4E81" />
<path
   d="M 40.368,41.459 H 20.563 l 0.119,0.119 v -3.984 l -0.119,0.119 h 19.805 l -0.119,-0.119 v 3.984 l 0.119,-0.119 z m 0,-3.985 H 20.563 20.444 v 0.119 3.984 0.119 h 0.119 19.805 0.119 v -0.119 -3.984 -0.119 h -0.119 z"
   id="path5399"
   inkscape:connector-curvature="0"
   style="fill:#AD4E81" />
<path
   d="m 22.79,63.58 c -0.254,-1.719 -0.43,-3.506 -0.43,-5.43 0,-9.434 3.379,-17.08 7.539,-17.08 4.18,0 7.539,7.646 7.539,17.08 0,1.992 0,3.066 -0.43,5.537"
   id="path5401"
   inkscape:connector-curvature="0"
   style="fill:#ffffff" />
<path
   d="m 22.901,63.563 c -0.292,-1.979 -0.429,-3.699 -0.429,-5.413 0,-9.356 3.332,-16.968 7.427,-16.968 4.095,0 7.427,7.612 7.427,16.968 0,1.971 0,3.057 -0.428,5.518 l 0.221,0.038 c 0.431,-2.48 0.431,-3.573 0.431,-5.556 0,-4.582 -0.785,-8.887 -2.211,-12.123 -1.441,-3.269 -3.373,-5.069 -5.439,-5.069 -2.06,0 -3.989,1.8 -5.432,5.069 -1.431,3.241 -2.219,7.546 -2.219,12.123 0,1.726 0.137,3.456 0.431,5.446 l 0.221,-0.033 z"
   id="path5403"
   inkscape:connector-curvature="0"
   style="fill:#ffffff" />
<polygon
   points="0.149,50.438 14.524,42.186 45.891,42.186 59.973,50.262 59.973,70.887 0.149,70.887 "
   id="polygon5405"
   style="fill:#AD4E81"
   transform="translate(-0.152,-0.901)" />
<path
   d="m 59.672,49.361 v 20.625 l 0.149,-0.149 H -0.003 l 0.149,0.149 V 49.537 l -0.075,0.129 14.375,-8.252 -0.074,0.02 h 31.367 l -0.074,-0.02 14.082,8.076 -0.075,-0.129 z M 45.739,41.136 h -31.367 -0.04 l -0.035,0.02 -14.374,8.252 -0.075,0.043 v 0.086 20.449 0.149 h 0.149 59.824 0.149 V 69.986 49.361 49.275 l -0.075,-0.043 -14.082,-8.076 -0.035,-0.02 h -0.039 z"
   id="path5407"
   inkscape:connector-curvature="0"
   style="fill:#AD4E81" />
<path
   d="m 4.391,67.476 c 0,-7.832 2.246,-13.662 5.742,-13.662 3.457,0 5.176,5.83 5.176,13.662"
   id="path5409"
   inkscape:connector-curvature="0"
   style="fill:#ffffff" />
<path
   d="m 4.54,67.476 c 0,-7.957 2.3,-13.513 5.593,-13.513 3.101,0 5.027,5.178 5.027,13.513 h 0.298 c 0,-8.648 -1.991,-13.811 -5.325,-13.811 -1.757,0 -3.251,1.378 -4.32,3.986 C 4.8,60.124 4.242,63.612 4.242,67.476 H 4.54 z"
   id="path5411"
   inkscape:connector-curvature="0"
   style="fill:#ffffff" />
<path
   d="m 43.766,67.017 c 0,-7.842 2.266,-14.18 5.723,-14.18 3.477,0 6.289,6.338 6.289,14.18"
   id="path5413"
   inkscape:connector-curvature="0"
   style="fill:#ffffff" />
<path
   d="m 43.915,67.017 c 0,-8.13 2.344,-14.031 5.574,-14.031 3.386,0 6.14,6.294 6.14,14.031 h 0.298 c 0,-3.813 -0.658,-7.396 -1.854,-10.091 -1.212,-2.733 -2.84,-4.238 -4.584,-4.238 -3.402,0 -5.872,6.026 -5.872,14.329 h 0.298 z"
   id="path5415"
   inkscape:connector-curvature="0"
   style="fill:#ffffff" />
<polygon
   points="30.11,0.262 14.075,23.641 46.204,23.446 "
   id="polygon5417"
   style="fill:#AD4E81"
   transform="translate(-0.152,-0.901)" />
<path
   d="M 29.835,-0.723 13.8,22.656 13.639,22.891 13.924,22.889 46.053,22.694 46.336,22.693 46.175,22.461 30.08,-0.724 29.957,-0.901 29.835,-0.723 z m 16.216,23.119 -32.129,0.195 0.124,0.233 16.035,-23.378 -0.246,0 16.094,23.184 0.122,-0.234 z"
   id="path5419"
   inkscape:connector-curvature="0"
   style="fill:#AD4E81" />
<rect
   x="14.177"
   y="22.603001"
   width="31.483999"
   height="18.427999"
   id="rect5421"
   style="fill:#AD4E81" />
<path
   d="M 45.661,40.889 H 14.177 l 0.143,0.143 V 22.603 l -0.143,0.143 h 31.484 l -0.143,-0.143 v 18.428 l 0.143,-0.142 z m 0,-18.428 H 14.177 14.034 v 0.143 18.428 0.143 h 0.143 31.484 0.143 V 41.032 22.603 22.46 h -0.143 z"
   id="path5423"
   inkscape:connector-curvature="0"
   style="fill:#AD4E81" />
<path
   d="m 21.11,67.428 c -0.313,-2.061 -0.508,-4.209 -0.508,-6.504 0,-11.328 4.043,-20.498 9.043,-20.498 5,0 9.043,9.17 9.043,20.498 0,2.383 0,3.672 -0.508,6.631"
   id="path5425"
   inkscape:connector-curvature="0"
   style="fill:#ffffff" />
<path
   d="m 21.243,67.408 c -0.34,-2.247 -0.506,-4.367 -0.506,-6.484 0,-11.229 3.997,-20.364 8.909,-20.364 4.912,0 8.909,9.135 8.909,20.364 0,2.36 0,3.661 -0.506,6.608 l 0.265,0.046 c 0.51,-2.971 0.51,-4.279 0.51,-6.654 0,-5.498 -0.944,-10.666 -2.658,-14.551 -1.729,-3.921 -4.045,-6.081 -6.52,-6.081 -2.475,0 -4.79,2.16 -6.52,6.081 -1.714,3.886 -2.658,9.054 -2.658,14.551 0,2.13 0.167,4.264 0.509,6.524 l 0.266,-0.04 z"
   id="path5427"
   inkscape:connector-curvature="0"
   style="fill:#ffffff" />
<path
   d="m 34.743,19.928 c 0,2.734 -2.207,4.961 -4.961,4.961 -2.734,0 -4.961,-2.227 -4.961,-4.961 0,-2.744 2.227,-4.961 4.961,-4.961 2.754,0 4.961,2.216 4.961,4.961 z"
   id="path5429"
   inkscape:connector-curvature="0"
   style="fill:#ffffff" />
<path
   d="m 34.54,19.928 c 0,2.624 -2.134,4.758 -4.758,4.758 -2.624,0 -4.758,-2.134 -4.758,-4.758 0,-2.624 2.134,-4.758 4.758,-4.758 2.624,0 4.758,2.134 4.758,4.758 z m -4.758,-5.164 c -2.847,0 -5.164,2.316 -5.164,5.164 0,2.848 2.316,5.164 5.164,5.164 2.848,0 5.164,-2.316 5.164,-5.164 0,-2.848 -2.317,-5.164 -5.164,-5.164 z"
   id="path5431"
   inkscape:connector-curvature="0"
   style="fill:#ffffff" />
<path
   d="m 41.677,30.982 c 0,2.734 -2.227,4.961 -4.961,4.961 -2.754,0 -4.961,-2.227 -4.961,-4.961 0,-2.744 2.207,-4.961 4.961,-4.961 2.734,0 4.961,2.217 4.961,4.961 z"
   id="path5433"
   inkscape:connector-curvature="0"
   style="fill:#ffffff" />
<path
   d="m 41.474,30.982 c 0,2.624 -2.134,4.758 -4.758,4.758 -2.624,0 -4.758,-2.134 -4.758,-4.758 0,-2.624 2.134,-4.758 4.758,-4.758 2.624,0 4.758,2.134 4.758,4.758 z m -4.758,-5.163 c -2.847,0 -5.164,2.316 -5.164,5.164 0,2.848 2.316,5.164 5.164,5.164 2.848,0 5.164,-2.316 5.164,-5.164 0,-2.848 -2.317,-5.164 -5.164,-5.164 z"
   id="path5435"
   inkscape:connector-curvature="0"
   style="fill:#ffffff" />
<path
   d="m 28.044,30.982 c 0,2.734 -2.207,4.961 -4.961,4.961 -2.734,0 -4.961,-2.227 -4.961,-4.961 0,-2.744 2.227,-4.961 4.961,-4.961 2.754,0 4.961,2.217 4.961,4.961 z"
   id="path5437"
   inkscape:connector-curvature="0"
   style="fill:#ffffff" />
<path
   d="m 27.841,30.982 c 0,2.624 -2.134,4.758 -4.758,4.758 -2.624,0 -4.758,-2.134 -4.758,-4.758 0,-2.624 2.134,-4.758 4.758,-4.758 2.624,0 4.758,2.134 4.758,4.758 z m -4.758,-5.163 c -2.847,0 -5.164,2.316 -5.164,5.164 0,2.848 2.316,5.164 5.164,5.164 2.848,0 5.164,-2.316 5.164,-5.164 0,-2.848 -2.317,-5.164 -5.164,-5.164 z"
   id="path5439"
   inkscape:connector-curvature="0"
   style="fill:#ffffff" />
</svg>