<?xml version="1.0" encoding="utf-8"?>
<!-- Generator: Adobe Illustrator 13.0.0, SVG Export Plug-In  -->
<!DOCTYPE svg PUBLIC "-//W3C//DTD SVG 1.1//EN" "http://www.w3.org/Graphics/SVG/1.1/DTD/svg11.dtd" [
	<!ENTITY ns_flows "http://ns.adobe.com/Flows/1.0/">
]>
<svg version="1.1"
	 xmlns="http://www.w3.org/2000/svg" xmlns:xlink="http://www.w3.org/1999/xlink" xmlns:a="http://ns.adobe.com/AdobeSVGViewerExtensions/3.0/"
	 x="0px" y="0px" width="66px" height="63px" viewBox="-0.734 -0.941 66 63" enable-background="new -0.734 -0.941 66 63"
	 xml:space="preserve">
<defs>
</defs>
<path fill="#AD4E81" stroke="#AD4E81" stroke-width="0.283" d="M3.569,24.24c0,0,2.539,0.703,9.414,0.283
	c10.898-0.654,9.141-0.186,18.281-0.938c12.715-1.035,17.188,0.313,20.938-0.313s9.707,1.387,10.742-2.158
	c1.055-3.535,0.215-4.58,1.465-10.83c1.074-5.371-0.645-7.627-3.75-8.33c-4.59-1.045-8.018-2.607-12.627-1.338
	c-3.848,1.064-6.484,3.906-9.219,5.938c-1.523,1.133-3.74,2.93-6.094,3.125c-2.363,0.195-4.873-1.221-7.188-1.094
	c-7.5,0.42-8.408,2.744-11.963,2.744c-3.75,0-5.82,0.205-7.91,1.67c-2.09,1.455-3.75,3.535-5,4.785
	C-1.45,19.894,3.569,24.24,3.569,24.24z"/>
<path fill="#AD4E81" stroke="#AD4E81" stroke-width="0.311" d="M20.708,40.812c0,0-1.104-5.898-3.613-5.625s-1.914-7.91-4.639-6.494
	C9.722,30.119,8.315,33,8.853,37.58c0.518,4.57,1.23,7.578,1.768,10.508c0.752,4.111,0.586,3.643,1.318,5.703
	c0.879,2.646,0.869,7.627,2.236,7.734c6.123,0.498,7.598-0.186,7.559-4.814c-0.029-3.779,3.164-4.395,4.531-10.137
	C26.694,44.787,20.708,40.812,20.708,40.812z"/>
<path fill="#AD4E81" stroke="#AD4E81" stroke-width="0.311" d="M54.468,35.939c0,0-1.152-2.852-3.438-3.955
	c-3.105-1.504-9.941-2.324-12.646-0.908c-2.734,1.416,2.998,6.309,3.535,10.879c0.518,4.57-0.186,7.041,0.352,9.971
	c0.752,4.111,0.117,9.395,2.412,9.58c6.123,0.498,7.607-0.234,6.982-7.676c-0.391-4.609,3.174-8.33,3.145-10.156
	C54.771,41.847,54.468,35.939,54.468,35.939z"/>
</svg>
