<?xml version="1.0" encoding="UTF-8" standalone="no"?>
<!-- Generator: Adobe Illustrator 13.0.0, SVG Export Plug-In . SVG Version: 6.00 Build 14948)  -->

<svg
   xmlns:dc="http://purl.org/dc/elements/1.1/"
   xmlns:cc="http://creativecommons.org/ns#"
   xmlns:rdf="http://www.w3.org/1999/02/22-rdf-syntax-ns#"
   xmlns:svg="http://www.w3.org/2000/svg"
   xmlns="http://www.w3.org/2000/svg"
   xmlns:sodipodi="http://sodipodi.sourceforge.net/DTD/sodipodi-0.dtd"
   xmlns:inkscape="http://www.inkscape.org/namespaces/inkscape"
   version="1.1"
   id="Layer_1"
   x="0px"
   y="0px"
   width="113.387"
   height="56.693001"
   viewBox="-0.771 -0.457 113.387 56.693001"
   enable-background="new -0.771 -0.457 115 58"
   xml:space="preserve"
   inkscape:version="0.48.0 r9654"
   sodipodi:docname="e250_ECHANGEUR_CAISSON_ROUTE.svg"><metadata
   id="metadata5675"><rdf:RDF><cc:Work
       rdf:about=""><dc:format>image/svg+xml</dc:format><dc:type
         rdf:resource="http://purl.org/dc/dcmitype/StillImage" /></cc:Work></rdf:RDF></metadata><defs
   id="defs5673" /><sodipodi:namedview
   pagecolor="#ffffff"
   bordercolor="#666666"
   borderopacity="1"
   objecttolerance="10"
   gridtolerance="10"
   guidetolerance="10"
   inkscape:pageopacity="0"
   inkscape:pageshadow="2"
   inkscape:window-width="640"
   inkscape:window-height="480"
   id="namedview5671"
   showgrid="false"
   fit-margin-top="0"
   fit-margin-left="0"
   fit-margin-right="0"
   fit-margin-bottom="0"
   inkscape:zoom="4.4347826"
   inkscape:cx="56.729"
   inkscape:cy="28.150001"
   inkscape:window-x="0"
   inkscape:window-y="0"
   inkscape:window-maximized="0"
   inkscape:current-layer="Layer_1" />
<path
   d="m 55.922,27.89 c 0,15.657 -12.683,28.346 -28.348,28.346 -15.65,0 -28.345,-12.689 -28.345,-28.346 0,-15.658 12.695,-28.347 28.346,-28.347 15.664,0 28.347,12.689 28.347,28.347 z"
   id="path5665"
   inkscape:connector-curvature="0" />
<path
   d="m 112.616,27.89 c 0,15.657 -12.684,28.346 -28.348,28.346 -15.65,0 -28.347,-12.688 -28.347,-28.346 10e-4,-15.658 12.697,-28.347 28.348,-28.347 15.664,0 28.347,12.689 28.347,28.347 z"
   id="path5667"
   inkscape:connector-curvature="0" />
<rect
   x="27.576"
   width="56.693001"
   height="56.693001"
   id="rect5669"
   y="-0.45699999" />
</svg>