<?xml version="1.0" encoding="UTF-8" standalone="no"?>
<!-- Generator: Adobe Illustrator 13.0.0, SVG Export Plug-In . SVG Version: 6.00 Build 14948)  -->

<svg
   xmlns:dc="http://purl.org/dc/elements/1.1/"
   xmlns:cc="http://creativecommons.org/ns#"
   xmlns:rdf="http://www.w3.org/1999/02/22-rdf-syntax-ns#"
   xmlns:svg="http://www.w3.org/2000/svg"
   xmlns="http://www.w3.org/2000/svg"
   xmlns:xlink="http://www.w3.org/1999/xlink"
   xmlns:sodipodi="http://sodipodi.sourceforge.net/DTD/sodipodi-0.dtd"
   xmlns:inkscape="http://www.inkscape.org/namespaces/inkscape"
   version="1.1"
   id="Layer_1"
   x="0px"
   y="0px"
   width="155.9055"
   height="155.9055"
   viewBox="0 0 155.9055 155.9055"
   xml:space="preserve"
   inkscape:version="0.48.3.1 r9886"
   sodipodi:docname="EscalierCourt.svg"
   sodipodi:version="0.32"
   inkscape:output_extension="org.inkscape.output.svg.inkscape"><metadata
   id="metadata3027"><rdf:RDF><cc:Work
       rdf:about=""><dc:format>image/svg+xml</dc:format><dc:type
         rdf:resource="http://purl.org/dc/dcmitype/StillImage" /><dc:title /></cc:Work></rdf:RDF></metadata><defs
   id="defs3025"><inkscape:perspective
   sodipodi:type="inkscape:persp3d"
   inkscape:vp_x="0 : 15.1405 : 1"
   inkscape:vp_y="0 : 1000 : 0"
   inkscape:vp_z="4.0799999 : 15.1405 : 1"
   inkscape:persp3d-origin="2.04 : 10.093667 : 1"
   id="perspective18" />
	

		<defs
   id="defs3007">
			<polyline
   id="SVGID_1_"
   points="0,0 0,8.62 0,17.23 0,25.85 0,34.47 0,43.09 0,51.699 0,60.32 0,68.939 0,77.561 0,86.17      0,94.791 8.8,94.791 17.61,94.791 26.41,94.791 35.21,94.791 44.01,94.791 52.82,94.791 61.62,94.791 70.42,94.791 79.23,94.791      88.03,94.791 96.83,94.791 96.83,86.17 96.83,77.561 96.83,68.939 96.83,60.32 96.83,51.699 96.83,43.09 96.83,34.47      96.83,25.85 96.83,17.23 96.83,8.62 96.83,0 88.03,0 79.23,0 70.42,0 61.62,0 52.82,0 44.01,0 35.21,0 26.41,0 17.61,0 8.8,0      0,0    " />
		</defs>
		<defs
   id="defs3010">
			<rect
   id="SVGID_2_"
   width="96.959999"
   height="94.560997"
   x="0"
   y="0" />
		</defs>
		<clipPath
   id="SVGID_3_">
			<use
   xlink:href="#SVGID_1_"
   style="overflow:visible"
   id="use3014"
   x="0"
   y="0"
   width="96.959999"
   height="94.791" />
		</clipPath>
		<clipPath
   id="SVGID_4_">
			<use
   xlink:href="#SVGID_2_"
   style="overflow:visible"
   id="use3017"
   x="0"
   y="0"
   width="96.959999"
   height="94.791" />
		</clipPath>
		
		
			
	</defs><sodipodi:namedview
   pagecolor="#ffffff"
   bordercolor="#666666"
   borderopacity="1"
   objecttolerance="10"
   gridtolerance="10"
   guidetolerance="10"
   inkscape:pageopacity="0"
   inkscape:pageshadow="2"
   inkscape:window-width="1280"
   inkscape:window-height="968"
   id="namedview3023"
   showgrid="false"
   fit-margin-top="0"
   fit-margin-left="0"
   fit-margin-right="0"
   fit-margin-bottom="0"
   inkscape:zoom="3.1445388"
   inkscape:cx="1.4880163"
   inkscape:cy="83.917592"
   inkscape:window-x="-4"
   inkscape:window-y="-4"
   inkscape:window-maximized="0"
   inkscape:current-layer="Layer_1"
   units="mm"
   inkscape:document-units="mm" />

<rect
   style="opacity:0.70758122;fill:#ffffff;fill-opacity:1;stroke:none"
   id="rect3013"
   width="155.90552"
   height="155.9055"
   x="-155.90552"
   y="1.1444092e-005"
   transform="matrix(0,-1,1,0,0,0)" /><rect
   style="fill:#808080;fill-opacity:1;stroke:none"
   id="rect3783"
   width="42.519684"
   height="155.9055"
   x="-155.90552"
   y="3.8146973e-006"
   transform="matrix(0,-1,1,0,0,0)" /><rect
   style="fill:#808080;fill-opacity:1;stroke:none"
   id="rect3783-1"
   width="42.519684"
   height="155.9055"
   x="-42.519703"
   y="3.8146973e-006"
   transform="matrix(0,-1,1,0,0,0)" /><rect
   style="fill:#808080;fill-opacity:1;stroke:none"
   id="rect3803-1"
   width="155.9055"
   height="42.519684"
   x="-155.90552"
   y="56.692905"
   transform="matrix(0,-1,1,0,0,0)" /></svg>