<?xml version="1.0" encoding="UTF-8" standalone="no"?>
<!-- Generator: Adobe Illustrator 13.0.0, SVG Export Plug-In . SVG Version: 6.00 Build 14948)  -->

<svg
   xmlns:dc="http://purl.org/dc/elements/1.1/"
   xmlns:cc="http://creativecommons.org/ns#"
   xmlns:rdf="http://www.w3.org/1999/02/22-rdf-syntax-ns#"
   xmlns:svg="http://www.w3.org/2000/svg"
   xmlns="http://www.w3.org/2000/svg"
   xmlns:xlink="http://www.w3.org/1999/xlink"
   xmlns:sodipodi="http://sodipodi.sourceforge.net/DTD/sodipodi-0.dtd"
   xmlns:inkscape="http://www.inkscape.org/namespaces/inkscape"
   version="1.1"
   id="Layer_1"
   x="0px"
   y="0px"
   width="7.0910001"
   height="7.0889997"
   viewBox="0 0 7.0910001 7.0889997"
   xml:space="preserve"
   inkscape:version="0.48.0 r9654"
   sodipodi:docname="Feu.svg"><metadata
   id="metadata3242"><rdf:RDF><cc:Work
       rdf:about=""><dc:format>image/svg+xml</dc:format><dc:type
         rdf:resource="http://purl.org/dc/dcmitype/StillImage" /></cc:Work></rdf:RDF></metadata><defs
   id="defs3240" /><sodipodi:namedview
   pagecolor="#ffffff"
   bordercolor="#666666"
   borderopacity="1"
   objecttolerance="10"
   gridtolerance="10"
   guidetolerance="10"
   inkscape:pageopacity="0"
   inkscape:pageshadow="2"
   inkscape:window-width="640"
   inkscape:window-height="480"
   id="namedview3238"
   showgrid="false"
   fit-margin-top="0"
   fit-margin-left="0"
   fit-margin-right="0"
   fit-margin-bottom="0"
   inkscape:zoom="2.7534259"
   inkscape:cx="5.3899999"
   inkscape:cy="5.6134999"
   inkscape:window-x="487"
   inkscape:window-y="274"
   inkscape:window-maximized="0"
   inkscape:current-layer="Layer_1" />
<g
   id="g3218"
   transform="translate(-43.09,-45.920001)">
	<g
   id="g3220">
		<defs
   id="defs3222">
			<polyline
   id="SVGID_1_"
   points="0,0 0,8.62 0,17.23 0,25.85 0,34.47 0,43.09 0,51.699 0,60.32 0,68.939 0,77.561 0,86.17      0,94.791 8.8,94.791 17.61,94.791 26.41,94.791 35.21,94.791 44.01,94.791 52.82,94.791 61.62,94.791 70.42,94.791 79.23,94.791      88.03,94.791 96.83,94.791 96.83,86.17 96.83,77.561 96.83,68.939 96.83,60.32 96.83,51.699 96.83,43.09 96.83,34.47      96.83,25.85 96.83,17.23 96.83,8.62 96.83,0 88.03,0 79.23,0 70.42,0 61.62,0 52.82,0 44.01,0 35.21,0 26.41,0 17.61,0 8.8,0      0,0    " />
		</defs>
		<defs
   id="defs3225">
			<rect
   id="SVGID_2_"
   width="96.959999"
   height="94.560997"
   x="0"
   y="0" />
		</defs>
		<clipPath
   id="SVGID_3_">
			<use
   xlink:href="#SVGID_1_"
   style="overflow:visible"
   id="use3229"
   x="0"
   y="0"
   width="96.959999"
   height="94.791" />
		</clipPath>
		<clipPath
   id="SVGID_4_">
			<use
   xlink:href="#SVGID_2_"
   style="overflow:visible"
   id="use3232"
   x="0"
   y="0"
   width="96.959999"
   height="94.791" />
		</clipPath>
		<path
   d="m 50.181,48.63 -2.451,-0.37 -1.1,-2.34 -1.09,2.34 -2.45,0.37 1.77,1.809 -0.42,2.57 2.19,-1.209 2.19,1.209 -0.42,-2.57 1.781,-1.809 m -3.551,2.911 -0.34,-0.031 -0.32,-0.1 -0.29,-0.16 -0.25,-0.199 -0.21,-0.26 -0.16,-0.281 -0.09,-0.32 -0.04,-0.35 0.04,-0.34 0.09,-0.32 0.16,-0.289 0.21,-0.25 0.25,-0.21 0.29,-0.15 0.32,-0.1 0.34,-0.04 0.34,0.04 0.32,0.1 0.29,0.15 0.25,0.21 0.21,0.25 0.16,0.289 0.1,0.32 0.03,0.34 -0.03,0.35 -0.1,0.32 -0.16,0.281 -0.21,0.26 -0.25,0.199 -0.29,0.16 -0.32,0.1 -0.34,0.031 0,0 z"
   id="path3234"
   clip-path="url(#SVGID_4_)"
   inkscape:connector-curvature="0" />
		
			<path
   style="fill:none;stroke:#0c0c0c;stroke-width:0.01;stroke-linecap:round;stroke-miterlimit:10"
   d="m 50.181,48.63 -2.451,-0.37 -1.1,-2.34 -1.09,2.34 -2.45,0.37 1.77,1.809 -0.42,2.57 2.19,-1.209 2.19,1.209 -0.42,-2.57 1.781,-1.809 m -3.551,2.911 -0.34,-0.031 -0.32,-0.1 -0.29,-0.16 -0.25,-0.199 -0.21,-0.26 -0.16,-0.281 -0.09,-0.32 -0.04,-0.35 0.04,-0.34 0.09,-0.32 0.16,-0.289 0.21,-0.25 0.25,-0.21 0.29,-0.15 0.32,-0.1 0.34,-0.04 0.34,0.04 0.32,0.1 0.29,0.15 0.25,0.21 0.21,0.25 0.16,0.289 0.1,0.32 0.03,0.34 -0.03,0.35 -0.1,0.32 -0.16,0.281 -0.21,0.26 -0.25,0.199 -0.29,0.16 -0.32,0.1 -0.34,0.031 0,0 z"
   id="path3236"
   clip-path="url(#SVGID_4_)"
   inkscape:connector-curvature="0" />
	</g>
</g>
</svg>