<?xml version="1.0" encoding="UTF-8" standalone="no"?>
<!-- Generator: Adobe Illustrator 13.0.0, SVG Export Plug-In . SVG Version: 6.00 Build 14948)  -->
<svg
   xmlns:dc="http://purl.org/dc/elements/1.1/"
   xmlns:cc="http://creativecommons.org/ns#"
   xmlns:rdf="http://www.w3.org/1999/02/22-rdf-syntax-ns#"
   xmlns:svg="http://www.w3.org/2000/svg"
   xmlns="http://www.w3.org/2000/svg"
   xmlns:xlink="http://www.w3.org/1999/xlink"
   xmlns:sodipodi="http://sodipodi.sourceforge.net/DTD/sodipodi-0.dtd"
   xmlns:inkscape="http://www.inkscape.org/namespaces/inkscape"
   version="1.1"
   id="Layer_1"
   x="0px"
   y="0px"
   width="11.94"
   height="12.562"
   viewBox="0 0 11.94 12.562"
   xml:space="preserve"
   inkscape:version="0.46"
   sodipodi:docname="Golf.svg"
   sodipodi:version="0.32"
   inkscape:output_extension="org.inkscape.output.svg.inkscape"><metadata
   id="metadata3271"><rdf:RDF><cc:Work
       rdf:about=""><dc:format>image/svg+xml</dc:format><dc:type
         rdf:resource="http://purl.org/dc/dcmitype/StillImage" /></cc:Work></rdf:RDF></metadata><defs
   id="defs3269"><inkscape:perspective
   sodipodi:type="inkscape:persp3d"
   inkscape:vp_x="0 : 6.2810001 : 1"
   inkscape:vp_y="0 : 1000 : 0"
   inkscape:vp_z="11.94 : 6.2810001 : 1"
   inkscape:persp3d-origin="5.9699998 : 4.1873334 : 1"
   id="perspective19" />
	

		<defs
   id="defs3249">
			<polyline
   id="SVGID_1_"
   points="0,0 0,8.62 0,17.23 0,25.85 0,34.47 0,43.09 0,51.699 0,60.32 0,68.939 0,77.561 0,86.17      0,94.791 8.8,94.791 17.61,94.791 26.41,94.791 35.21,94.791 44.01,94.791 52.82,94.791 61.62,94.791 70.42,94.791 79.23,94.791      88.03,94.791 96.83,94.791 96.83,86.17 96.83,77.561 96.83,68.939 96.83,60.32 96.83,51.699 96.83,43.09 96.83,34.47      96.83,25.85 96.83,17.23 96.83,8.62 96.83,0 88.03,0 79.23,0 70.42,0 61.62,0 52.82,0 44.01,0 35.21,0 26.41,0 17.61,0 8.8,0      0,0    " />
		</defs>
		<defs
   id="defs3252">
			<rect
   id="SVGID_2_"
   width="96.959999"
   height="94.560997"
   x="0"
   y="0" />
		</defs>
		<clipPath
   id="SVGID_3_">
			<use
   xlink:href="#SVGID_1_"
   style="overflow:visible"
   id="use3256"
   x="0"
   y="0"
   width="96.959999"
   height="94.791" />
		</clipPath>
		<clipPath
   id="SVGID_4_">
			<use
   xlink:href="#SVGID_2_"
   style="overflow:visible"
   id="use3259"
   x="0"
   y="0"
   width="96.959999"
   height="94.791" />
		</clipPath>
		
		
		
			
	</defs><sodipodi:namedview
   pagecolor="#ffffff"
   bordercolor="#666666"
   borderopacity="1"
   objecttolerance="10"
   gridtolerance="10"
   guidetolerance="10"
   inkscape:pageopacity="0"
   inkscape:pageshadow="2"
   inkscape:window-width="941"
   inkscape:window-height="667"
   id="namedview3267"
   showgrid="false"
   fit-margin-top="0"
   fit-margin-left="0"
   fit-margin-right="0"
   fit-margin-bottom="0"
   inkscape:zoom="13.271513"
   inkscape:cx="12.348253"
   inkscape:cy="5.0845748"
   inkscape:window-x="246"
   inkscape:window-y="82"
   inkscape:window-maximized="0"
   inkscape:current-layer="Layer_1" />
<path
   style="fill:#246138;fill-opacity:1"
   d="M 47.44,42.07 L 50.61,41.15 L 47.44,39.51 L 47.44,39.43 L 47.29,39.43 L 47.28,39.42 L 47.28,39.43 L 46.94,39.43 L 46.94,46.47 L 47.44,46.47 L 47.44,42.07 M 51.271,44.87 L 51.161,44.72 L 50.991,44.54 L 50.761,44.35 L 50.471,44.16 L 50.11,44 L 49.68,43.89 L 49.17,43.83 L 48.89,43.82 L 48.58,43.84 L 48.46,43.85 L 48.48,44.1 L 48.61,44.09 L 49.15,44.08 L 49.62,44.13 L 50.01,44.23 L 50.34,44.38 L 50.601,44.54 L 50.811,44.71 L 50.96,44.87 L 51.07,45.01 L 51.2,45.24 L 51.26,45.43 L 51.29,45.59 L 51.27,45.69 L 51.12,45.93 L 50.95,46.13 L 50.75,46.3 L 50.53,46.44 L 50.3,46.56 L 50.061,46.65 L 49.601,46.77 L 49.041,46.84 L 48.471,46.86 L 47.911,46.82 L 47.371,46.73 L 46.861,46.6 L 46.411,46.44 L 46.031,46.26 L 45.741,46.05 L 45.651,45.96 L 45.481,46.15 L 45.581,46.24 L 45.741,46.36 L 45.921,46.48 L 46.351,46.69 L 46.841,46.86 L 47.381,46.99 L 47.951,47.07 L 48.531,47.11 L 49.101,47.09 L 49.651,47.01 L 49.981,46.93 L 50.281,46.83 L 50.551,46.71 L 50.801,46.57 L 51.022,46.41 L 51.211,46.22 L 51.361,46.02 L 51.491,45.8 L 51.521,45.71 L 51.531,45.61 L 51.51,45.39 L 51.42,45.13 L 51.271,44.87 M 48.83,45.93 L 49.06,45.9 L 49.26,45.8 L 49.33,45.74 L 49.39,45.66 L 49.43,45.57 L 49.44,45.48 L 49.43,45.39 L 49.39,45.31 L 49.33,45.23 L 49.26,45.17 L 49.06,45.07 L 48.83,45.04 L 48.59,45.07 L 48.39,45.17 L 48.31,45.23 L 48.26,45.31 L 48.22,45.39 L 48.21,45.48 L 48.22,45.57 L 48.26,45.66 L 48.31,45.74 L 48.39,45.8 L 48.59,45.9 L 48.83,45.93 L 48.83,45.93 z"
   id="path3261"
   clip-path="url(#SVGID_4_)"
   inkscape:connector-curvature="0"
   transform="translate(-42.52,-36.850001)" /><polygon
   style="fill:#246138;fill-opacity:1"
   points="43.5,37.67 43.33,38.04 43.24,38.29 43.07,38.95 42.92,39.61 42.79,40.26 42.69,40.92 42.61,41.58 42.56,42.23 42.53,42.89 42.52,43.55 42.54,44.21 42.58,44.87 42.64,45.52 42.73,46.18 42.84,46.83 42.97,47.49 43.13,48.14 43.31,48.791 43.36,48.85 43.47,48.91 43.85,49.01 44.37,49.1 44.97,49.18 46.86,49.35 47.47,49.391 48.09,49.41 49.32,49.4 50.55,49.33 51.78,49.24 51.88,49.18 51.98,49.061 52.15,48.7 52.28,48.33 52.34,48.21 52.4,48.17 51.45,48.22 50.5,48.26 49.57,48.27 48.64,48.25 47.71,48.21 46.78,48.13 45.84,48.01 44.9,47.86 44.41,47.78 44.25,47.75 44.12,47.7 44.01,47.61 43.93,47.48 43.84,47.28 43.75,46.99 43.53,46.09 43.36,45.18 43.25,44.27 43.17,43.35 43.14,42.71 43.14,42.07 43.16,41.44 43.21,40.81 43.29,40.18 43.38,39.55 43.63,38.3 46.77,38.05 47.64,38 48.52,37.99 49.39,38.01 50.23,38.09 50.63,38.16 51.01,38.24 51.38,38.34 51.73,38.46 52.061,38.61 52.37,38.77 52.66,38.97 52.91,39.19 53.141,39.43 53.34,39.71 53.5,40.02 53.62,40.36 53.71,40.73 53.76,41.14 53.771,41.58 53.73,42.07 53.771,41.98 53.84,41.86 54.07,41.57 54.3,41.25 54.38,41.09 54.42,40.94 54.46,40.44 54.45,39.98 54.4,39.56 54.3,39.17 54.16,38.82 53.98,38.51 53.771,38.23 53.521,37.98 53.25,37.76 52.94,37.57 52.61,37.41 52.25,37.27 51.88,37.15 51.48,37.06 51.07,36.98 50.65,36.93 49.76,36.86 48.85,36.85 47.93,36.88 47.03,36.94 45.32,37.09 43.9,37.19 43.9,37.19 43.81,37.23 43.7,37.34 43.5,37.67 "
   id="polygon3263"
   clip-path="url(#SVGID_4_)"
   transform="translate(-42.52,-36.850001)" />
</svg>