<?xml version="1.0" encoding="UTF-8" standalone="no"?>
<!-- Generator: Adobe Illustrator 13.0.0, SVG Export Plug-In . SVG Version: 6.00 Build 14948)  -->
<svg
   xmlns:dc="http://purl.org/dc/elements/1.1/"
   xmlns:cc="http://creativecommons.org/ns#"
   xmlns:rdf="http://www.w3.org/1999/02/22-rdf-syntax-ns#"
   xmlns:svg="http://www.w3.org/2000/svg"
   xmlns="http://www.w3.org/2000/svg"
   xmlns:xlink="http://www.w3.org/1999/xlink"
   xmlns:sodipodi="http://sodipodi.sourceforge.net/DTD/sodipodi-0.dtd"
   xmlns:inkscape="http://www.inkscape.org/namespaces/inkscape"
   version="1.1"
   id="Layer_1"
   x="0px"
   y="0px"
   width="7.9379997"
   height="7.941"
   viewBox="0 0 7.9379998 7.941"
   xml:space="preserve"
   inkscape:version="0.46"
   sodipodi:docname="Parking.svg"
   sodipodi:version="0.32"
   inkscape:output_extension="org.inkscape.output.svg.inkscape"><metadata
   id="metadata3561"><rdf:RDF><cc:Work
       rdf:about=""><dc:format>image/svg+xml</dc:format><dc:type
         rdf:resource="http://purl.org/dc/dcmitype/StillImage" /></cc:Work></rdf:RDF></metadata><defs
   id="defs3559"><inkscape:perspective
   sodipodi:type="inkscape:persp3d"
   inkscape:vp_x="0 : 3.9705 : 1"
   inkscape:vp_y="0 : 1000 : 0"
   inkscape:vp_z="7.9379997 : 3.9705 : 1"
   inkscape:persp3d-origin="3.9689999 : 2.647 : 1"
   id="perspective19" />
	

		<defs
   id="defs3539">
			<polyline
   id="SVGID_1_"
   points="0,0 0,8.62 0,17.23 0,25.85 0,34.47 0,43.09 0,51.699 0,60.32 0,68.939 0,77.561 0,86.17      0,94.791 8.8,94.791 17.61,94.791 26.41,94.791 35.21,94.791 44.01,94.791 52.82,94.791 61.62,94.791 70.42,94.791 79.23,94.791      88.03,94.791 96.83,94.791 96.83,86.17 96.83,77.561 96.83,68.939 96.83,60.32 96.83,51.699 96.83,43.09 96.83,34.47      96.83,25.85 96.83,17.23 96.83,8.62 96.83,0 88.03,0 79.23,0 70.42,0 61.62,0 52.82,0 44.01,0 35.21,0 26.41,0 17.61,0 8.8,0      0,0    " />
		</defs>
		<defs
   id="defs3542">
			<rect
   id="SVGID_2_"
   width="96.959999"
   height="94.560997"
   x="0"
   y="0" />
		</defs>
		<clipPath
   id="SVGID_3_">
			<use
   xlink:href="#SVGID_1_"
   style="overflow:visible"
   id="use3546"
   x="0"
   y="0"
   width="96.959999"
   height="94.791" />
		</clipPath>
		<clipPath
   id="SVGID_4_">
			<use
   xlink:href="#SVGID_2_"
   style="overflow:visible"
   id="use3549"
   x="0"
   y="0"
   width="96.959999"
   height="94.791" />
		</clipPath>
		
		
		
			
	</defs><sodipodi:namedview
   pagecolor="#ffffff"
   bordercolor="#666666"
   borderopacity="1"
   objecttolerance="10"
   gridtolerance="10"
   guidetolerance="10"
   inkscape:pageopacity="0"
   inkscape:pageshadow="2"
   inkscape:window-width="695"
   inkscape:window-height="667"
   id="namedview3557"
   showgrid="false"
   fit-margin-top="0"
   fit-margin-left="0"
   fit-margin-right="0"
   fit-margin-bottom="0"
   inkscape:zoom="24.7982"
   inkscape:cx="2.5269802"
   inkscape:cy="0.67801595"
   inkscape:window-x="1551"
   inkscape:window-y="154"
   inkscape:window-maximized="0"
   inkscape:current-layer="Layer_1" />
<path
   style="fill:#1C62A6;fill-opacity:1"
   d="M 51.311,42.52 L 47.341,42.52 L 47.141,42.53 L 46.941,42.56 L 46.571,42.68 L 46.231,42.86 L 45.941,43.1 L 45.691,43.39 L 45.511,43.73 L 45.391,44.1 L 45.361,44.3 L 45.351,44.5 L 45.351,48.47 L 45.361,48.67 L 45.391,48.871 L 45.511,49.24 L 45.691,49.58 L 45.941,49.871 L 46.231,50.121 L 46.571,50.301 L 46.941,50.42 L 47.141,50.449 L 47.341,50.461 L 51.311,50.461 L 51.51,50.449 L 51.71,50.42 L 52.08,50.301 L 52.42,50.121 L 52.71,49.871 L 52.95,49.58 L 53.14,49.24 L 53.249,48.871 L 53.279,48.67 L 53.289,48.47 L 53.289,44.5 L 53.279,44.3 L 53.249,44.1 L 53.14,43.73 L 52.95,43.39 L 52.71,43.1 L 52.42,42.86 L 52.08,42.68 L 51.71,42.56 L 51.51,42.53 L 51.311,42.52 M 50.351,47.16 L 48.591,47.16 L 48.591,49.301 L 47.241,49.301 L 47.241,43.341 L 50.351,43.341 L 50.63,43.371 L 50.92,43.441 L 51.26,43.571 L 51.43,43.671 L 51.59,43.801 L 51.74,43.951 L 51.88,44.141 L 52,44.35 L 52.09,44.61 L 52.141,44.9 L 52.161,45.24 L 52.141,45.58 L 52.09,45.88 L 52,46.13 L 51.88,46.35 L 51.74,46.54 L 51.59,46.69 L 51.43,46.82 L 51.26,46.92 L 50.92,47.06 L 50.63,47.13 L 50.351,47.16 L 50.351,47.16 L 50.351,47.16 z"
   id="path3551"
   clip-path="url(#SVGID_4_)"
   inkscape:connector-curvature="0"
   transform="translate(-45.351,-42.520001)" /><polygon
   style="fill:#1C62A6;fill-opacity:1"
   points="50.15,45.95 50.28,45.94 50.41,45.91 50.57,45.85 50.72,45.75 50.851,45.6 50.95,45.38 50.99,45.08 50.95,44.79 50.851,44.57 50.72,44.41 50.57,44.31 50.41,44.25 50.28,44.23 50.15,44.22 50.15,44.22 48.76,44.22 48.76,45.95 50.15,45.95 "
   id="polygon3553"
   clip-path="url(#SVGID_4_)"
   transform="translate(-45.351,-42.520001)" />
</svg>