<?xml version="1.0" encoding="UTF-8" standalone="no"?>
<!-- Created with Inkscape (http://www.inkscape.org/) -->

<svg
   xmlns:dc="http://purl.org/dc/elements/1.1/"
   xmlns:cc="http://creativecommons.org/ns#"
   xmlns:rdf="http://www.w3.org/1999/02/22-rdf-syntax-ns#"
   xmlns:svg="http://www.w3.org/2000/svg"
   xmlns="http://www.w3.org/2000/svg"
   xmlns:sodipodi="http://sodipodi.sourceforge.net/DTD/sodipodi-0.dtd"
   xmlns:inkscape="http://www.inkscape.org/namespaces/inkscape"
   id="svg2"
   version="1.1"
   inkscape:version="0.48.2 r9819"
   width="15"
   height="16.25"
   xml:space="preserve"
   sodipodi:docname="pelotebasque.eps"><metadata
     id="metadata8"><rdf:RDF><cc:Work
         rdf:about=""><dc:format>image/svg+xml</dc:format><dc:type
           rdf:resource="http://purl.org/dc/dcmitype/StillImage" /><dc:title></dc:title></cc:Work></rdf:RDF></metadata><defs
     id="defs6"><clipPath
       clipPathUnits="userSpaceOnUse"
       id="clipPath20"><path
         d="m 0,125.73 119.434,0 L 119.434,0 0,0 0,125.73"
         id="path22" /></clipPath></defs><sodipodi:namedview
     pagecolor="#ffffff"
     bordercolor="#666666"
     borderopacity="1"
     objecttolerance="10"
     gridtolerance="10"
     guidetolerance="10"
     inkscape:pageopacity="0"
     inkscape:pageshadow="2"
     inkscape:window-width="640"
     inkscape:window-height="480"
     id="namedview4"
     showgrid="false"
     inkscape:zoom="14.523077"
     inkscape:cx="7.5"
     inkscape:cy="8.125"
     inkscape:window-x="0"
     inkscape:window-y="0"
     inkscape:window-maximized="0"
     inkscape:current-layer="g10" /><g
     id="g10"
     inkscape:groupmode="layer"
     inkscape:label="ink_ext_XXXXXX"
     transform="matrix(1.25,0,0,-1.25,0,16.25)"><g
       id="g12"
       transform="scale(0.1,0.1)"><path
         d="m 78.7617,118.961 c -1.5429,0 -2.4453,-0.07 -2.4453,-0.07 l -65.9648,-2.25 C -0.359375,81.6328 0.8125,43.5625 10.9805,11.7852 29.8984,8.26172 41.6992,5.61328 62.543,5.61328 c 8.9101,0 19.4687,0.48047 32.9453,1.58203 0,0 8.7307,22.32419 11.5237,32.76559 2.519,9.3555 8.457,39.1485 8.457,39.1485 6.191,37.2456 -27.2542,39.8516 -36.7073,39.8516"
         style="fill:none;fill-opacity:1;fill-rule:nonzero;stroke:none"
         id="path14" /><g
         id="g16"><g
           id="g18"
           clip-path="url(#clipPath20)"><path
             d="m 112.129,73.4961 c 0.242,2.0469 6.457,7.3828 6.914,11.2461 C 125.691,140.637 46.7617,123.484 13.7852,122.313 11.4648,122.23 7.75,113.23 7.19141,111.246 -2.62891,76.3086 -2.39844,40.9961 7.89453,6.23828 8.83984,3.06641 39.375,1.05469 43.4063,0.683594 59.7578,-0.851563 76.2891,0.488281 92.5977,1.81641 95.5469,2.0625 97.3633,12.4219 98.7695,12.5195 73.2891,10.7617 48.9844,10.9297 23.8672,15.5859 15.6523,17.1172 14.9336,15.3984 12.3086,24.2852 8.82813,36.1055 7.4375,48.4766 6.51953,60.7031 5.25,77.7148 7.21094,94.75 11.0586,111.309 c 0,0 107.4884,16.074 101.0704,-37.8129"
             style="fill:#246138;fill-opacity:1;fill-rule:nonzero;stroke:none"
             id="path24" /><path
             d="m 62.3789,96.6719 2.0547,-0.2188 2.0547,-0.2812 2.0195,-0.3516 1.9805,-0.4648 1.9922,-0.5274 1.2031,-0.3554 1.0625,-0.3555 0.957,-0.3516 0.8516,-0.3593 0.7031,-0.3868 0.5625,-0.3554 1.5664,-1.1719 1.4531,-1.1992 1.3086,-1.1367 2.0625,-3.1875 0.8086,-1.5586 0.3516,-0.7813 0.2539,-0.7773 0.1758,-0.7461 0.039,-0.711 0,-1.414 14.1722,0 0,-51.0274 -79.3714,0 0,51.0274 14.168,0 0,1.414 0.0391,0.711 0.1406,0.7812 0.2461,0.7813 0.3554,0.8125 0.5665,1.0625 0.707,1.0273 0.7812,0.957 1.3086,1.3829 1.3828,1.3086 1.4219,1.2734 1.5938,1.1719 0.5625,0.3554 0.6406,0.3868 0.8164,0.3593 0.8828,0.3907 0.9922,0.3515 1.1367,0.3906 1.8438,0.5313 1.914,0.4609 1.9453,0.3555 2.0586,0.2812 2.086,0.1758 2.0586,0.0352"
             style="fill:#246138;fill-opacity:1;fill-rule:nonzero;stroke:none"
             id="path26" /></g></g></g></g></svg>