<?xml version="1.0" encoding="UTF-8" standalone="no"?>
<!-- Generator: Adobe Illustrator 13.0.0, SVG Export Plug-In . SVG Version: 6.00 Build 14948)  -->
<svg
   xmlns:dc="http://purl.org/dc/elements/1.1/"
   xmlns:cc="http://creativecommons.org/ns#"
   xmlns:rdf="http://www.w3.org/1999/02/22-rdf-syntax-ns#"
   xmlns:svg="http://www.w3.org/2000/svg"
   xmlns="http://www.w3.org/2000/svg"
   xmlns:xlink="http://www.w3.org/1999/xlink"
   xmlns:sodipodi="http://sodipodi.sourceforge.net/DTD/sodipodi-0.dtd"
   xmlns:inkscape="http://www.inkscape.org/namespaces/inkscape"
   version="1.1"
   id="Layer_1"
   x="0px"
   y="0px"
   width="12.19"
   height="12.58"
   viewBox="0 0 12.19 12.58"
   xml:space="preserve"
   inkscape:version="0.46"
   sodipodi:docname="Pointdinfotouristique.svg"
   sodipodi:version="0.32"
   inkscape:output_extension="org.inkscape.output.svg.inkscape"><metadata
   id="metadata3175"><rdf:RDF><cc:Work
       rdf:about=""><dc:format>image/svg+xml</dc:format><dc:type
         rdf:resource="http://purl.org/dc/dcmitype/StillImage" /></cc:Work></rdf:RDF></metadata><defs
   id="defs3173"><inkscape:perspective
   sodipodi:type="inkscape:persp3d"
   inkscape:vp_x="0 : 6.29 : 1"
   inkscape:vp_y="0 : 1000 : 0"
   inkscape:vp_z="12.19 : 6.29 : 1"
   inkscape:persp3d-origin="6.0949998 : 4.1933333 : 1"
   id="perspective22" />
	

		<defs
   id="defs3147">
			<polyline
   id="SVGID_1_"
   points="0,0 0,8.62 0,17.23 0,25.85 0,34.47 0,43.09 0,51.699 0,60.32 0,68.939 0,77.561 0,86.17      0,94.791 8.8,94.791 17.61,94.791 26.41,94.791 35.21,94.791 44.01,94.791 52.82,94.791 61.62,94.791 70.42,94.791 79.23,94.791      88.03,94.791 96.83,94.791 96.83,86.17 96.83,77.561 96.83,68.939 96.83,60.32 96.83,51.699 96.83,43.09 96.83,34.47      96.83,25.85 96.83,17.23 96.83,8.62 96.83,0 88.03,0 79.23,0 70.42,0 61.62,0 52.82,0 44.01,0 35.21,0 26.41,0 17.61,0 8.8,0      0,0    " />
		</defs>
		<defs
   id="defs3150">
			<rect
   id="SVGID_2_"
   width="96.959999"
   height="94.560997"
   x="0"
   y="0" />
		</defs>
		<clipPath
   id="SVGID_3_">
			<use
   xlink:href="#SVGID_1_"
   style="overflow:visible"
   id="use3154"
   x="0"
   y="0"
   width="96.959999"
   height="94.791" />
		</clipPath>
		<clipPath
   id="SVGID_4_">
			<use
   xlink:href="#SVGID_2_"
   style="overflow:visible"
   id="use3157"
   x="0"
   y="0"
   width="96.959999"
   height="94.791" />
		</clipPath>
		
		
		
		
		
		
			
	</defs><sodipodi:namedview
   pagecolor="#ffffff"
   bordercolor="#666666"
   borderopacity="1"
   objecttolerance="10"
   gridtolerance="10"
   guidetolerance="10"
   inkscape:pageopacity="0"
   inkscape:pageshadow="2"
   inkscape:window-width="695"
   inkscape:window-height="667"
   id="namedview3171"
   showgrid="false"
   fit-margin-top="0"
   fit-margin-left="0"
   fit-margin-right="0"
   fit-margin-bottom="0"
   inkscape:zoom="24.279197"
   inkscape:cx="8.0478254"
   inkscape:cy="4.5783185"
   inkscape:window-x="583"
   inkscape:window-y="216"
   inkscape:window-maximized="0"
   inkscape:current-layer="Layer_1" />
<polygon
   style="fill:#AD4E81;fill-opacity:1"
   points="51.891,41.33 52.01,41.27 52.12,41.19 52.22,41.09 52.311,40.96 52.38,40.82 52.42,40.66 52.45,40.51 52.44,40.36 52.42,40.21 52.37,40.09 52.311,39.98 52.22,39.89 52.12,39.82 52,39.79 51.88,39.78 51.76,39.81 51.641,39.86 51.53,39.95 51.43,40.05 51.34,40.18 51.271,40.32 51.23,40.48 51.2,40.63 51.2,40.78 51.23,40.92 51.271,41.05 51.34,41.16 51.43,41.25 51.53,41.31 51.53,41.31 51.65,41.35 51.771,41.35 51.891,41.33 "
   id="polygon3159"
   clip-path="url(#SVGID_4_)"
   transform="translate(-44.17,-37.120001)" /><polygon
   style="fill:#AD4E81;fill-opacity:1"
   points="48.8,44.09 48.68,44.45 48.61,44.83 48.58,45.21 48.59,45.57 48.63,45.89 48.69,46.14 48.85,46.54 48.96,46.7 49.1,46.83 49.29,46.91 49.54,46.92 49.88,46.85 50.311,46.68 50.78,46.44 51.23,46.18 51.62,45.91 51.92,45.67 52.101,45.48 52.13,45.41 52.11,45.36 52.05,45.34 51.94,45.35 51.54,45.46 51.061,45.66 50.67,45.86 50.37,46.03 50.141,46.13 50.061,46.14 49.99,46.12 49.95,46.07 49.92,45.98 49.91,45.66 49.97,45.13 50.09,44.52 50.271,43.98 50.47,43.52 50.68,43.12 51.021,42.53 51.101,42.33 51.11,42.26 51.101,42.19 51.05,42.15 50.98,42.13 50.75,42.15 50.431,42.25 50.05,42.4 49.62,42.61 49.19,42.85 48.76,43.11 48.37,43.38 48.12,43.6 48.08,43.67 48.08,43.72 48.12,43.75 48.2,43.76 48.41,43.74 48.92,43.63 49.19,43.55 49.19,43.55 49.07,43.66 48.97,43.78 48.8,44.09 "
   id="polygon3161"
   clip-path="url(#SVGID_4_)"
   transform="translate(-44.17,-37.120001)" /><polygon
   style="fill:#AD4E81;fill-opacity:1"
   points="44.24,42.76 44.32,43.28 44.44,43.87 44.62,44.52 44.85,45.2 45.16,45.89 45.55,46.58 45.77,46.92 46.02,47.25 46.3,47.58 46.6,47.89 46.92,48.19 47.28,48.47 47.66,48.73 48.08,48.98 48.52,49.199 49,49.391 49.51,49.561 50.061,49.699 49.48,49.311 48.95,48.92 48.46,48.48 47.67,47.63 47.36,47.26 47.1,46.91 46.87,46.56 46.67,46.21 46.31,45.45 46.09,44.93 45.92,44.35 45.85,44.02 45.79,43.63 45.71,42.66 45.71,42.06 45.75,41.37 45.81,40.56 45.81,40.56 44.17,41.69 44.17,41.98 44.24,42.76 "
   id="polygon3163"
   clip-path="url(#SVGID_4_)"
   transform="translate(-44.17,-37.120001)" /><polygon
   style="fill:#AD4E81;fill-opacity:1"
   points="54.811,42.66 54.73,43.63 54.681,44.02 54.601,44.35 54.43,44.93 54.22,45.45 53.851,46.21 53.65,46.56 53.431,46.91 53.16,47.26 52.86,47.63 52.061,48.48 51.57,48.92 51.04,49.311 50.46,49.699 51.01,49.561 51.521,49.391 52,49.199 52.44,48.98 52.86,48.73 53.24,48.47 53.601,48.19 53.92,47.89 54.22,47.58 54.5,47.25 54.75,46.92 54.97,46.58 55.36,45.89 55.67,45.2 55.9,44.52 56.08,43.87 56.2,43.28 56.28,42.76 56.351,41.98 56.36,41.69 54.71,40.56 54.71,40.56 54.771,41.37 54.811,42.06 54.811,42.66 "
   id="polygon3165"
   clip-path="url(#SVGID_4_)"
   transform="translate(-44.17,-37.120001)" /><polygon
   style="fill:#AD4E81;fill-opacity:1"
   points="53.84,37.56 53.33,37.42 52.74,37.29 52.08,37.19 51.37,37.12 50.62,37.12 49.83,37.18 49.44,37.24 49.04,37.33 48.64,37.44 48.24,37.58 47.84,37.74 47.45,37.94 47.06,38.17 46.68,38.44 46.31,38.74 45.95,39.08 45.6,39.46 45.26,39.88 45.84,39.53 46.4,39.23 46.99,38.97 48.07,38.62 48.53,38.49 48.95,38.4 49.35,38.34 49.75,38.31 50.59,38.29 51.15,38.31 51.74,38.39 52.45,38.56 53.37,38.88 53.92,39.12 54.54,39.43 55.26,39.81 55.26,39.81 54.851,37.92 54.58,37.81 53.84,37.56 "
   id="polygon3167"
   clip-path="url(#SVGID_4_)"
   transform="translate(-44.17,-37.120001)" />
</svg>