<?xml version="1.0" encoding="UTF-8" standalone="no"?>
<!-- Generator: Adobe Illustrator 13.0.0, SVG Export Plug-In . SVG Version: 6.00 Build 14948)  -->
<svg
   xmlns:dc="http://purl.org/dc/elements/1.1/"
   xmlns:cc="http://creativecommons.org/ns#"
   xmlns:rdf="http://www.w3.org/1999/02/22-rdf-syntax-ns#"
   xmlns:svg="http://www.w3.org/2000/svg"
   xmlns="http://www.w3.org/2000/svg"
   xmlns:xlink="http://www.w3.org/1999/xlink"
   xmlns:sodipodi="http://sodipodi.sourceforge.net/DTD/sodipodi-0.dtd"
   xmlns:inkscape="http://www.inkscape.org/namespaces/inkscape"
   version="1.1"
   id="Layer_1"
   x="0px"
   y="0px"
   width="11.94"
   height="12.559999"
   viewBox="0 0 11.94 12.559999"
   xml:space="preserve"
   inkscape:version="0.46"
   sodipodi:docname="Portdeplaisance.svg"
   sodipodi:version="0.32"
   inkscape:output_extension="org.inkscape.output.svg.inkscape"><metadata
   id="metadata3239"><rdf:RDF><cc:Work
       rdf:about=""><dc:format>image/svg+xml</dc:format><dc:type
         rdf:resource="http://purl.org/dc/dcmitype/StillImage" /></cc:Work></rdf:RDF></metadata><defs
   id="defs3237"><inkscape:perspective
   sodipodi:type="inkscape:persp3d"
   inkscape:vp_x="0 : 6.2799997 : 1"
   inkscape:vp_y="0 : 1000 : 0"
   inkscape:vp_z="11.94 : 6.2799997 : 1"
   inkscape:persp3d-origin="5.9699998 : 4.1866665 : 1"
   id="perspective21" />
	

		<defs
   id="defs3213">
			<polyline
   id="SVGID_1_"
   points="0,0 0,8.62 0,17.23 0,25.85 0,34.47 0,43.09 0,51.699 0,60.32 0,68.939 0,77.561 0,86.17      0,94.791 8.8,94.791 17.61,94.791 26.41,94.791 35.21,94.791 44.01,94.791 52.82,94.791 61.62,94.791 70.42,94.791 79.23,94.791      88.03,94.791 96.83,94.791 96.83,86.17 96.83,77.561 96.83,68.939 96.83,60.32 96.83,51.699 96.83,43.09 96.83,34.47      96.83,25.85 96.83,17.23 96.83,8.62 96.83,0 88.03,0 79.23,0 70.42,0 61.62,0 52.82,0 44.01,0 35.21,0 26.41,0 17.61,0 8.8,0      0,0    " />
		</defs>
		<defs
   id="defs3216">
			<rect
   id="SVGID_2_"
   width="96.959999"
   height="94.560997"
   x="0"
   y="0" />
		</defs>
		<clipPath
   id="SVGID_3_">
			<use
   xlink:href="#SVGID_1_"
   style="overflow:visible"
   id="use3220"
   x="0"
   y="0"
   width="96.959999"
   height="94.791" />
		</clipPath>
		<clipPath
   id="SVGID_4_">
			<use
   xlink:href="#SVGID_2_"
   style="overflow:visible"
   id="use3223"
   x="0"
   y="0"
   width="96.959999"
   height="94.791" />
		</clipPath>
		
		
		
		
		
			
	</defs><sodipodi:namedview
   pagecolor="#ffffff"
   bordercolor="#666666"
   borderopacity="1"
   objecttolerance="10"
   gridtolerance="10"
   guidetolerance="10"
   inkscape:pageopacity="0"
   inkscape:pageshadow="2"
   inkscape:window-width="695"
   inkscape:window-height="667"
   id="namedview3235"
   showgrid="false"
   fit-margin-top="0"
   fit-margin-left="0"
   fit-margin-right="0"
   fit-margin-bottom="0"
   inkscape:zoom="13.982631"
   inkscape:cx="5.3639592"
   inkscape:cy="2.5119108"
   inkscape:window-x="1631"
   inkscape:window-y="170"
   inkscape:window-maximized="0"
   inkscape:current-layer="Layer_1" />
<polygon
   style="fill:#767676;fill-opacity:1"
   points="47.28,40.64 47,40.04 46.73,39.42 46.48,38.76 46.48,45.47 51.4,45.47 50.79,45.22 50.29,44.95 49.89,44.67 49.56,44.38 49.3,44.08 49.08,43.77 48.68,43.12 48.68,43.12 48.15,42.24 47.57,41.2 47.28,40.64 "
   id="polygon3225"
   clip-path="url(#SVGID_4_)"
   transform="translate(-40.86,-36.870001)" /><polygon
   style="fill:#767676;fill-opacity:1"
   points="45.39,41.01 44.69,43.29 44.49,43.79 44.24,44.29 43.91,44.8 43.5,45.33 43.5,45.33 43.04,45.53 45.39,45.53 45.39,41.01 "
   id="polygon3227"
   clip-path="url(#SVGID_4_)"
   transform="translate(-40.86,-36.870001)" /><polygon
   style="fill:#767676;fill-opacity:1"
   points="43.82,46.78 44.32,46.96 44.83,47.11 45.35,47.23 45.89,47.31 46.43,47.36 46.98,47.38 47.53,47.36 48.07,47.31 48.61,47.23 49.13,47.11 49.64,46.96 50.141,46.78 50.61,46.56 51.061,46.31 51.061,46.31 42.9,46.31 43.35,46.56 43.82,46.78 "
   id="polygon3229"
   clip-path="url(#SVGID_4_)"
   transform="translate(-40.86,-36.870001)" /><polygon
   style="fill:#767676;fill-opacity:1"
   points="41.85,37.68 41.68,38.05 41.58,38.31 41.41,38.96 41.26,39.62 41.14,40.28 41.03,40.94 40.96,41.59 40.9,42.25 40.87,42.91 40.86,43.57 40.88,44.22 40.92,44.88 40.98,45.54 41.07,46.19 41.18,46.85 41.31,47.5 41.47,48.16 41.65,48.811 41.7,48.871 41.81,48.92 42.19,49.029 42.71,49.121 43.31,49.189 45.2,49.359 45.82,49.41 46.43,49.43 47.66,49.42 48.9,49.35 50.12,49.25 50.23,49.199 50.32,49.08 50.49,48.71 50.63,48.35 50.69,48.23 50.74,48.18 49.79,48.24 48.85,48.27 47.91,48.28 46.98,48.27 46.05,48.22 45.12,48.14 44.19,48.03 43.25,47.87 42.76,47.8 42.59,47.77 42.46,47.72 42.36,47.63 42.27,47.5 42.18,47.29 42.09,47.01 41.87,46.11 41.71,45.2 41.59,44.28 41.51,43.36 41.48,42.73 41.48,42.09 41.5,41.46 41.55,40.82 41.63,40.19 41.72,39.56 41.98,38.32 45.11,38.06 45.99,38.02 46.87,38 47.73,38.03 48.57,38.11 48.97,38.17 49.35,38.26 49.72,38.36 50.08,38.48 50.41,38.62 50.72,38.79 51,38.98 51.25,39.2 51.48,39.45 51.681,39.73 51.84,40.03 51.97,40.37 52.061,40.75 52.101,41.16 52.11,41.6 52.07,42.08 52.11,41.99 52.19,41.88 52.41,41.59 52.641,41.27 52.72,41.11 52.771,40.96 52.8,40.46 52.79,40 52.74,39.57 52.641,39.19 52.5,38.84 52.32,38.53 52.11,38.25 51.87,38 51.59,37.78 51.28,37.59 50.95,37.42 50.601,37.28 50.22,37.17 49.83,37.07 49.42,37 48.99,36.94 48.11,36.88 47.2,36.87 46.28,36.9 45.37,36.95 43.67,37.1 42.24,37.2 42.24,37.2 42.15,37.24 42.05,37.35 41.85,37.68 "
   id="polygon3231"
   clip-path="url(#SVGID_4_)"
   transform="translate(-40.86,-36.870001)" />
</svg>
