<?xml version="1.0" encoding="UTF-8" standalone="no"?>
<!-- Generator: Adobe Illustrator 13.0.0, SVG Export Plug-In  -->

<svg
   xmlns:dc="http://purl.org/dc/elements/1.1/"
   xmlns:cc="http://creativecommons.org/ns#"
   xmlns:rdf="http://www.w3.org/1999/02/22-rdf-syntax-ns#"
   xmlns:svg="http://www.w3.org/2000/svg"
   xmlns="http://www.w3.org/2000/svg"
   xmlns:sodipodi="http://sodipodi.sourceforge.net/DTD/sodipodi-0.dtd"
   xmlns:inkscape="http://www.inkscape.org/namespaces/inkscape"
   version="1.1"
   x="0px"
   y="0px"
   width="10.205"
   height="5.9520001"
   viewBox="-0.396 -0.156 10.205 5.9520001"
   enable-background="new -0.396 -0.156 11 7"
   xml:space="preserve"
   id="svg2"
   inkscape:version="0.48.0 r9654"
   sodipodi:docname="e100_PF.svg"><metadata
   id="metadata10"><rdf:RDF><cc:Work
       rdf:about=""><dc:format>image/svg+xml</dc:format><dc:type
         rdf:resource="http://purl.org/dc/dcmitype/StillImage" /><dc:title></dc:title></cc:Work></rdf:RDF></metadata><sodipodi:namedview
   pagecolor="#ffffff"
   bordercolor="#666666"
   borderopacity="1"
   objecttolerance="10"
   gridtolerance="10"
   guidetolerance="10"
   inkscape:pageopacity="0"
   inkscape:pageshadow="2"
   inkscape:window-width="640"
   inkscape:window-height="480"
   id="namedview8"
   showgrid="false"
   fit-margin-top="0"
   fit-margin-left="0"
   fit-margin-right="0"
   fit-margin-bottom="0"
   inkscape:zoom="41.571429"
   inkscape:cx="5.104"
   inkscape:cy="2.608"
   inkscape:window-x="100"
   inkscape:window-y="100"
   inkscape:window-maximized="0"
   inkscape:current-layer="svg2" />
<defs
   id="defs4">
</defs>
<path
   d="M -0.396,-0.156 V 5.796 H 9.809 V -0.156 H -0.396 z M 9.526,5.512 H -0.113 V 0.127 H 9.526 V 5.512 z M 6.014,3.325 H 7.811 V 2.598 H 6.014 V 1.583 H 8.093 V 0.856 H 5.146 V 5.153 H 6.014 V 3.325 z M 2.012,3.536 H 2.577 C 2.97,3.536 3.268,3.515 3.475,3.474 3.627,3.441 3.778,3.372 3.925,3.27 4.072,3.168 4.194,3.026 4.29,2.846 4.386,2.666 4.434,2.444 4.434,2.179 4.434,1.837 4.351,1.558 4.185,1.341 4.019,1.126 3.812,0.985 3.566,0.921 3.406,0.878 3.062,0.857 2.536,0.857 H 1.145 V 5.154 H 2.012 V 3.536 z m 0,-1.953 h 0.419 c 0.313,0 0.521,0.01 0.625,0.029 0.141,0.026 0.258,0.09 0.35,0.192 0.092,0.102 0.138,0.231 0.138,0.389 0,0.128 -0.033,0.24 -0.099,0.336 C 3.379,2.626 3.289,2.696 3.173,2.742 3.058,2.787 2.829,2.809 2.487,2.809 H 2.012 V 1.583 z"
   id="path6"
   inkscape:connector-curvature="0" />
</svg>
