<?xml version="1.0" encoding="UTF-8" standalone="no"?>
<!-- Generator: Adobe Illustrator 13.0.0, SVG Export Plug-In . SVG Version: 6.00 Build 14948)  -->

<svg
   xmlns:dc="http://purl.org/dc/elements/1.1/"
   xmlns:cc="http://creativecommons.org/ns#"
   xmlns:rdf="http://www.w3.org/1999/02/22-rdf-syntax-ns#"
   xmlns:svg="http://www.w3.org/2000/svg"
   xmlns="http://www.w3.org/2000/svg"
   xmlns:sodipodi="http://sodipodi.sourceforge.net/DTD/sodipodi-0.dtd"
   xmlns:inkscape="http://www.inkscape.org/namespaces/inkscape"
   version="1.1"
   id="Layer_1"
   x="0px"
   y="0px"
   width="3.366px"
   height="3.366px"
   viewBox="0 0 3.366 3.366"
   style="enable-background:new 0 0 3.366 3.366;"
   xml:space="preserve"
   inkscape:version="0.48.1 "
   sodipodi:docname="Untitled-9.svg"><metadata
   id="metadata11"><rdf:RDF><cc:Work
       rdf:about=""><dc:format>image/svg+xml</dc:format><dc:type
         rdf:resource="http://purl.org/dc/dcmitype/StillImage" /><dc:title></dc:title></cc:Work></rdf:RDF></metadata><defs
   id="defs9" /><sodipodi:namedview
   pagecolor="#ffffff"
   bordercolor="#666666"
   borderopacity="1"
   objecttolerance="10"
   gridtolerance="10"
   guidetolerance="10"
   inkscape:pageopacity="0"
   inkscape:pageshadow="2"
   inkscape:window-width="640"
   inkscape:window-height="480"
   id="namedview7"
   showgrid="false"
   inkscape:zoom="86.452765"
   inkscape:cx="1.683"
   inkscape:cy="1.683"
   inkscape:window-x="0"
   inkscape:window-y="0"
   inkscape:window-maximized="0"
   inkscape:current-layer="Layer_1" />
<g
   id="g3">
	<path
   style="fill-rule:evenodd;clip-rule:evenodd;"
   d="M2.673,2.569L2.66,2.583L2.561,2.678l-0.104,0.09L2.34,2.84L2.219,2.902   L2.088,2.947l-0.13,0.036L1.823,3.006l-0.14,0.005H1.656l-0.14-0.009L1.381,2.975l-0.13-0.031L1.125,2.889L1.003,2.826L0.887,2.75   L0.783,2.66l-0.09-0.091H2.673z M2.997,1.858L2.975,1.984L2.943,2.115L2.898,2.214H0.463L0.418,2.088l-0.036-0.13l-0.014-0.1H2.997   z M2.903,1.152l0.045,0.126l0.035,0.131l0.014,0.099H0.369l0.022-0.126l0.032-0.131l0.045-0.099H2.903z M1.71,0.355l0.14,0.009   l0.135,0.027l0.13,0.031l0.126,0.055L2.363,0.54l0.117,0.076l0.104,0.09l0.09,0.09h-1.98l0.014-0.013l0.099-0.095l0.104-0.09   l0.117-0.072l0.121-0.063l0.131-0.045l0.13-0.036L1.543,0.36l0.14-0.005H1.71z M1.683,0l0.158,0.009l0.153,0.018l0.148,0.037   l0.148,0.045l0.135,0.067l0.139,0.071l0.126,0.086l0.117,0.1L2.92,0.54l0.1,0.117l0.09,0.131l0.076,0.135L3.25,1.062l0.049,0.145   l0.036,0.152l0.022,0.149l0.009,0.157v0.018L3.357,1.841L3.339,1.989L3.303,2.142L3.258,2.291L3.191,2.426l-0.072,0.14L3.034,2.691   l-0.1,0.116L2.827,2.921L2.709,3.02l-0.131,0.09L2.444,3.187l-0.14,0.063L2.16,3.299L2.007,3.335L1.859,3.357L1.701,3.366H1.683   L1.526,3.357L1.377,3.339L1.224,3.303L1.076,3.258L0.94,3.19L0.801,3.118L0.675,3.033l-0.117-0.1L0.446,2.826L0.347,2.709   l-0.09-0.131L0.18,2.443l-0.063-0.14L0.068,2.155L0.032,2.007L0.009,1.858L0,1.701V1.683l0.009-0.157l0.018-0.153l0.036-0.148   l0.045-0.148L0.176,0.94l0.072-0.139l0.085-0.127l0.099-0.117L0.54,0.445l0.117-0.099l0.13-0.09l0.135-0.076l0.14-0.063l0.148-0.05   l0.148-0.035l0.149-0.023L1.665,0H1.683z"
   id="path5" />
</g>
</svg>