<?xml version="1.0" encoding="UTF-8" standalone="no"?>
<!-- Generator: Adobe Illustrator 13.0.0, SVG Export Plug-In . SVG Version: 6.00 Build 14948)  -->
<svg
   xmlns:dc="http://purl.org/dc/elements/1.1/"
   xmlns:cc="http://creativecommons.org/ns#"
   xmlns:rdf="http://www.w3.org/1999/02/22-rdf-syntax-ns#"
   xmlns:svg="http://www.w3.org/2000/svg"
   xmlns="http://www.w3.org/2000/svg"
   xmlns:xlink="http://www.w3.org/1999/xlink"
   xmlns:sodipodi="http://sodipodi.sourceforge.net/DTD/sodipodi-0.dtd"
   xmlns:inkscape="http://www.inkscape.org/namespaces/inkscape"
   version="1.1"
   id="Layer_1"
   x="0px"
   y="0px"
   width="11.932"
   height="12.559999"
   viewBox="0 0 11.932 12.559999"
   xml:space="preserve"
   inkscape:version="0.46"
   sodipodi:docname="Siteescalade.svg"
   sodipodi:version="0.32"
   inkscape:output_extension="org.inkscape.output.svg.inkscape"><metadata
   id="metadata29"><rdf:RDF><cc:Work
       rdf:about=""><dc:format>image/svg+xml</dc:format><dc:type
         rdf:resource="http://purl.org/dc/dcmitype/StillImage" /></cc:Work></rdf:RDF></metadata><defs
   id="defs27"><inkscape:perspective
   sodipodi:type="inkscape:persp3d"
   inkscape:vp_x="0 : 6.2799997 : 1"
   inkscape:vp_y="0 : 1000 : 0"
   inkscape:vp_z="11.932 : 6.2799997 : 1"
   inkscape:persp3d-origin="5.9660001 : 4.1866665 : 1"
   id="perspective19" />
	

		<defs
   id="defs7">
			<polyline
   id="SVGID_1_"
   points="0,0 0,8.62 0,17.23 0,25.85 0,34.47 0,43.09 0,51.699 0,60.32 0,68.939 0,77.561 0,86.17      0,94.791 8.8,94.791 17.61,94.791 26.41,94.791 35.21,94.791 44.01,94.791 52.82,94.791 61.62,94.791 70.42,94.791 79.23,94.791      88.03,94.791 96.83,94.791 96.83,86.17 96.83,77.561 96.83,68.939 96.83,60.32 96.83,51.699 96.83,43.09 96.83,34.47      96.83,25.85 96.83,17.23 96.83,8.62 96.83,0 88.03,0 79.23,0 70.42,0 61.62,0 52.82,0 44.01,0 35.21,0 26.41,0 17.61,0 8.8,0      0,0    " />
		</defs>
		<defs
   id="defs10">
			<rect
   id="SVGID_2_"
   width="96.959999"
   height="94.560997"
   x="0"
   y="0" />
		</defs>
		<clipPath
   id="SVGID_3_">
			<use
   xlink:href="#SVGID_1_"
   style="overflow:visible"
   id="use14"
   x="0"
   y="0"
   width="96.959999"
   height="94.791" />
		</clipPath>
		<clipPath
   id="SVGID_4_">
			<use
   xlink:href="#SVGID_2_"
   style="overflow:visible"
   id="use17"
   x="0"
   y="0"
   width="96.959999"
   height="94.791" />
		</clipPath>
		
		
		
			
	</defs><sodipodi:namedview
   pagecolor="#ffffff"
   bordercolor="#666666"
   borderopacity="1"
   objecttolerance="10"
   gridtolerance="10"
   guidetolerance="10"
   inkscape:pageopacity="0"
   inkscape:pageshadow="2"
   inkscape:window-width="695"
   inkscape:window-height="667"
   id="namedview25"
   showgrid="false"
   fit-margin-top="0"
   fit-margin-left="0"
   fit-margin-right="0"
   fit-margin-bottom="0"
   inkscape:zoom="12.079546"
   inkscape:cx="3.5709991"
   inkscape:cy="1.2711437"
   inkscape:window-x="597"
   inkscape:window-y="270"
   inkscape:window-maximized="0"
   inkscape:current-layer="Layer_1" />
<path
   style="fill:#a3a3a3;fill-opacity:1"
   d="M 43.89,34.35 L 43.8,34.39 L 43.7,34.5 L 43.5,34.83 L 43.33,35.2 L 43.23,35.46 L 43.19,35.62 L 43.17,35.68 L 43.16,35.7 L 43.15,35.72 L 42.77,37.37 L 42.77,37.38 L 42.77,37.39 L 42.71,37.91 L 42.59,38.92 L 42.53,39.93 L 42.52,40.94 L 42.57,41.94 L 42.67,42.95 L 42.82,43.96 L 43.03,44.96 L 43.3,45.96 L 43.35,46.02 L 43.47,46.07 L 43.84,46.17 L 44.36,46.26 L 44.96,46.34 L 46.85,46.51 L 47.47,46.56 L 48.08,46.58 L 49.32,46.57 L 50.549,46.5 L 51.77,46.4 L 51.879,46.35 L 51.969,46.23 L 52.14,45.86 L 52.28,45.5 L 52.34,45.38 L 52.391,45.33 L 50.731,45.41 L 49.901,45.43 L 49.081,45.42 L 48.271,45.39 L 47.451,45.34 L 46.631,45.26 L 45.811,45.16 L 46.221,43.7 L 46.231,43.66 L 46.231,43.61 L 46.181,43.31 L 49.681,42.21 L 49.691,41.93 L 49.671,41.67 L 49.611,41.4 L 49.491,40.95 L 49.451,40.59 L 49.491,39.66 L 50.031,39.93 L 50.111,40.87 L 50.22,41.59 L 50.29,41.89 L 50.38,42.09 L 50.36,42.09 L 50.36,44.59 L 50.7,44.59 L 50.7,42.12 L 50.76,42.13 L 50.651,41.15 L 50.601,40.34 L 50.601,39.97 L 50.63,39.66 L 49.49,39.01 L 49.19,38.85 L 48.89,38.73 L 48.57,38.65 L 48.59,38.64 L 48.56,38.64 L 48.41,38.63 L 48.27,38.64 L 48.24,38.64 L 48.26,38.65 L 47.77,38.72 L 47.58,38.71 L 47.5,38.67 L 47.45,38.62 L 46.83,37.85 L 46.79,37.8 L 46.68,37.73 L 46.69,37.73 L 46.01,35.27 L 47.41,35.18 L 48.12,35.15 L 48.82,35.16 L 49.51,35.19 L 50.18,35.26 L 50.82,35.36 L 51.42,35.52 L 51.97,35.73 L 52.231,35.86 L 52.47,36 L 52.691,36.16 L 52.901,36.34 L 53.081,36.54 L 53.251,36.75 L 53.392,36.99 L 53.511,37.24 L 53.612,37.52 L 53.692,37.81 L 53.742,38.13 L 53.762,38.48 L 53.762,38.84 L 53.722,39.23 L 53.762,39.14 L 53.842,39.03 L 54.063,38.74 L 54.292,38.42 L 54.372,38.26 L 54.422,38.11 L 54.452,37.61 L 54.442,37.15 L 54.392,36.72 L 54.291,36.34 L 54.151,35.99 L 53.97,35.68 L 53.76,35.4 L 53.521,35.15 L 53.241,34.93 L 52.93,34.74 L 52.601,34.57 L 52.25,34.43 L 51.87,34.32 L 51.48,34.22 L 51.07,34.15 L 50.64,34.09 L 49.76,34.03 L 48.85,34.02 L 47.93,34.05 L 47.02,34.1 L 45.32,34.25 L 43.89,34.35 M 45.81,43.68 L 45.8,43.63 L 45.4,45.06 L 45.41,45.03 L 45.39,45.09 L 45.4,45.06 L 45.38,45.09 L 44.9,45.02 L 44.41,44.95 L 44.24,44.92 L 44.11,44.87 L 44.01,44.78 L 43.92,44.64 L 43.84,44.44 L 43.74,44.16 L 43.52,43.26 L 43.36,42.35 L 43.24,41.43 L 43.16,40.51 L 43.14,39.97 L 43.13,39.42 L 43.18,38.33 L 43.3,37.25 L 43.48,36.17 L 43.56,35.84 L 43.55,35.86 L 43.57,35.82 L 43.56,35.84 L 43.74,35.46 L 44.26,35.42 L 45.49,41.62 L 45.53,41.92 L 45.44,42.28 L 45.65,42.68 L 45.8,43.63 L 45.81,43.59 L 45.81,43.68 M 46.35,37.82 L 46.52,37.78 L 46.38,37.94 L 46.37,38.03 L 46.41,38.16 L 46.51,38.37 L 46.67,38.62 L 46.86,38.84 L 47.02,38.97 L 47.45,39.08 L 47.91,39.16 L 48.07,39.2 L 48.2,39.26 L 48.3,39.36 L 48.37,39.51 L 48.44,39.76 L 48.52,40.11 L 48.57,40.53 L 48.55,40.95 L 48.05,40.76 L 47.66,40.62 L 47.34,40.54 L 47.2,40.53 L 47.09,40.54 L 46.51,40.83 L 45.84,41.21 L 44.69,35.38 L 45.66,35.3 L 46.35,37.82 M 48.3,37.37 L 48.31,37.53 L 48.36,37.67 L 48.43,37.8 L 48.52,37.92 L 48.63,38.01 L 48.76,38.08 L 48.9,38.13 L 49.06,38.15 L 49.21,38.13 L 49.36,38.09 L 49.49,38.02 L 49.6,37.93 L 49.7,37.82 L 49.77,37.69 L 49.81,37.54 L 49.83,37.39 L 49.82,37.24 L 49.77,37.09 L 49.71,36.96 L 49.61,36.85 L 49.5,36.75 L 49.37,36.68 L 49.23,36.63 L 49.07,36.62 L 48.92,36.63 L 48.78,36.67 L 48.65,36.74 L 48.53,36.84 L 48.44,36.95 L 48.36,37.08 L 48.32,37.22 L 48.3,37.37 M 46.04,42.43 L 45.95,41.85 L 46.97,41.11 L 48.49,41.75 L 46.04,42.43 L 46.04,42.43 z"
   id="path21"
   clip-path="url(#SVGID_4_)"
   inkscape:connector-curvature="0"
   transform="translate(-42.52,-34.020001)" />
</svg>
