<?xml version="1.0" encoding="UTF-8" standalone="no"?>
<!-- Generator: Adobe Illustrator 13.0.0, SVG Export Plug-In . SVG Version: 6.00 Build 14948)  -->
<svg
   xmlns:dc="http://purl.org/dc/elements/1.1/"
   xmlns:cc="http://creativecommons.org/ns#"
   xmlns:rdf="http://www.w3.org/1999/02/22-rdf-syntax-ns#"
   xmlns:svg="http://www.w3.org/2000/svg"
   xmlns="http://www.w3.org/2000/svg"
   xmlns:xlink="http://www.w3.org/1999/xlink"
   xmlns:sodipodi="http://sodipodi.sourceforge.net/DTD/sodipodi-0.dtd"
   xmlns:inkscape="http://www.inkscape.org/namespaces/inkscape"
   version="1.1"
   id="Layer_1"
   x="0px"
   y="0px"
   width="11.94"
   height="12.559999"
   viewBox="0 0 11.94 12.559999"
   xml:space="preserve"
   inkscape:version="0.46"
   sodipodi:docname="Sportsnautiques.svg"
   sodipodi:version="0.32"
   inkscape:output_extension="org.inkscape.output.svg.inkscape"><metadata
   id="metadata3091"><rdf:RDF><cc:Work
       rdf:about=""><dc:format>image/svg+xml</dc:format><dc:type
         rdf:resource="http://purl.org/dc/dcmitype/StillImage" /></cc:Work></rdf:RDF></metadata><defs
   id="defs3089"><inkscape:perspective
   sodipodi:type="inkscape:persp3d"
   inkscape:vp_x="0 : 6.2799997 : 1"
   inkscape:vp_y="0 : 1000 : 0"
   inkscape:vp_z="11.94 : 6.2799997 : 1"
   inkscape:persp3d-origin="5.9699998 : 4.1866665 : 1"
   id="perspective21" />
	

		<defs
   id="defs3065">
			<polyline
   id="SVGID_1_"
   points="0,0 0,8.62 0,17.23 0,25.85 0,34.47 0,43.09 0,51.699 0,60.32 0,68.939 0,77.561 0,86.17      0,94.791 8.8,94.791 17.61,94.791 26.41,94.791 35.21,94.791 44.01,94.791 52.82,94.791 61.62,94.791 70.42,94.791 79.23,94.791      88.03,94.791 96.83,94.791 96.83,86.17 96.83,77.561 96.83,68.939 96.83,60.32 96.83,51.699 96.83,43.09 96.83,34.47      96.83,25.85 96.83,17.23 96.83,8.62 96.83,0 88.03,0 79.23,0 70.42,0 61.62,0 52.82,0 44.01,0 35.21,0 26.41,0 17.61,0 8.8,0      0,0    " />
		</defs>
		<defs
   id="defs3068">
			<rect
   id="SVGID_2_"
   width="96.959999"
   height="94.560997"
   x="0"
   y="0" />
		</defs>
		<clipPath
   id="SVGID_3_">
			<use
   xlink:href="#SVGID_1_"
   style="overflow:visible"
   id="use3072"
   x="0"
   y="0"
   width="96.959999"
   height="94.791" />
		</clipPath>
		<clipPath
   id="SVGID_4_">
			<use
   xlink:href="#SVGID_2_"
   style="overflow:visible"
   id="use3075"
   x="0"
   y="0"
   width="96.959999"
   height="94.791" />
		</clipPath>
		
		
		
		
		
			
	</defs><sodipodi:namedview
   pagecolor="#ffffff"
   bordercolor="#666666"
   borderopacity="1"
   objecttolerance="10"
   gridtolerance="10"
   guidetolerance="10"
   inkscape:pageopacity="0"
   inkscape:pageshadow="2"
   inkscape:window-width="695"
   inkscape:window-height="667"
   id="namedview3087"
   showgrid="false"
   fit-margin-top="0"
   fit-margin-left="0"
   fit-margin-right="0"
   fit-margin-bottom="0"
   inkscape:zoom="17.353253"
   inkscape:cx="5.6797563"
   inkscape:cy="2.5155827"
   inkscape:window-x="555"
   inkscape:window-y="175"
   inkscape:window-maximized="0"
   inkscape:current-layer="Layer_1" />
<polygon
   style="fill:#767676;fill-opacity:1"
   points="43.24,33.5 43.08,33.87 42.98,34.12 42.81,34.78 42.66,35.43 42.54,36.09 42.43,36.75 42.36,37.4 42.3,38.06 42.27,38.72 42.26,39.38 42.28,40.04 42.32,40.69 42.38,41.35 42.47,42.01 42.58,42.66 42.71,43.32 42.87,43.97 43.05,44.62 43.1,44.68 43.22,44.73 43.59,44.84 44.11,44.93 44.71,45 46.6,45.18 47.22,45.22 47.83,45.24 49.06,45.23 50.3,45.16 51.521,45.06 51.63,45.01 51.72,44.89 51.891,44.52 52.021,44.16 52.08,44.04 52.141,43.99 51.19,44.05 50.25,44.08 49.31,44.1 48.38,44.08 47.45,44.03 46.52,43.96 45.59,43.84 44.65,43.68 44.16,43.61 43.99,43.58 43.86,43.53 43.76,43.44 43.67,43.31 43.58,43.1 43.49,42.82 43.27,41.92 43.11,41.01 42.99,40.09 42.91,39.17 42.88,38.54 42.88,37.9 42.9,37.27 42.95,36.63 43.03,36 43.12,35.37 43.38,34.13 46.51,33.87 47.39,33.83 48.27,33.81 49.13,33.84 49.97,33.92 50.37,33.98 50.75,34.07 51.12,34.17 51.48,34.29 51.811,34.43 52.12,34.6 52.4,34.79 52.65,35.01 52.88,35.26 53.08,35.54 53.24,35.84 53.37,36.18 53.46,36.56 53.5,36.97 53.51,37.41 53.47,37.9 53.51,37.8 53.59,37.69 53.811,37.4 54.04,37.08 54.12,36.92 54.17,36.77 54.2,36.27 54.19,35.81 54.141,35.38 54.04,35 53.9,34.65 53.72,34.34 53.51,34.06 53.271,33.81 52.99,33.59 52.681,33.4 52.351,33.23 52,33.09 51.62,32.98 51.23,32.88 50.811,32.81 50.391,32.75 49.51,32.69 48.59,32.68 47.68,32.71 46.77,32.77 45.07,32.91 43.64,33.02 43.64,33.02 43.55,33.06 43.45,33.16 43.24,33.5 "
   id="polygon3077"
   clip-path="url(#SVGID_4_)"
   transform="translate(-42.26,-32.680001)" /><polygon
   style="fill:#767676;fill-opacity:1"
   points="50.36,35.97 50.29,36.85 50.08,37.96 49.8,38.84 49.37,39.78 47.99,42.42 48.37,42.62 49.75,39.97 50.19,39 50.19,38.99 50.2,38.98 50.49,38.07 50.49,38.06 50.49,38.05 50.71,36.92 50.71,36.91 50.72,36.9 50.79,35.99 50.79,35.98 50.79,35.97 50.79,35.97 50.75,35.16 50.32,35.18 50.36,35.97 "
   id="polygon3079"
   clip-path="url(#SVGID_4_)"
   transform="translate(-42.26,-32.680001)" /><polygon
   style="fill:#767676;fill-opacity:1"
   points="46.48,37.24 45.75,38.08 45.24,38.76 44.66,39.66 44.22,40.22 45.31,40.45 46.04,40.73 46.84,41.24 47.35,41.8 47.78,40.85 48.29,40 48.8,38.93 49.24,37.86 49.46,36.11 49.46,34.58 49.46,34.58 48,35.77 47.2,36.45 46.48,37.24 "
   id="polygon3081"
   clip-path="url(#SVGID_4_)"
   transform="translate(-42.26,-32.680001)" /><polygon
   style="fill:#767676;fill-opacity:1"
   points="47.46,43.19 48.4,43.09 49.27,42.9 49.63,42.6 49.34,42.46 48.14,42.39 45.1,42.1 45.1,42.1 46.36,42.9 46.86,43.15 47.46,43.19 "
   id="polygon3083"
   clip-path="url(#SVGID_4_)"
   transform="translate(-42.26,-32.680001)" />
</svg>
