<?xml version="1.0" encoding="UTF-8" standalone="no"?>
<!-- Generator: Adobe Illustrator 13.0.0, SVG Export Plug-In . SVG Version: 6.00 Build 14948)  -->
<svg
   xmlns:dc="http://purl.org/dc/elements/1.1/"
   xmlns:cc="http://creativecommons.org/ns#"
   xmlns:rdf="http://www.w3.org/1999/02/22-rdf-syntax-ns#"
   xmlns:svg="http://www.w3.org/2000/svg"
   xmlns="http://www.w3.org/2000/svg"
   xmlns:sodipodi="http://sodipodi.sourceforge.net/DTD/sodipodi-0.dtd"
   xmlns:inkscape="http://www.inkscape.org/namespaces/inkscape"
   version="1.1"
   id="Layer_1"
   x="0px"
   y="0px"
   width="12.8px"
   height="13.22px"
   viewBox="0 0 12.8 13.22"
   style="enable-background:new 0 0 12.8 13.22;"
   xml:space="preserve"
   sodipodi:version="0.32"
   inkscape:version="0.46"
   sodipodi:docname="Stationthermale.svg"
   inkscape:output_extension="org.inkscape.output.svg.inkscape"><metadata
   id="metadata28"><rdf:RDF><cc:Work
       rdf:about=""><dc:format>image/svg+xml</dc:format><dc:type
         rdf:resource="http://purl.org/dc/dcmitype/StillImage" /></cc:Work></rdf:RDF></metadata><defs
   id="defs26"><inkscape:perspective
   sodipodi:type="inkscape:persp3d"
   inkscape:vp_x="0 : 6.6100001 : 1"
   inkscape:vp_y="0 : 1000 : 0"
   inkscape:vp_z="12.8 : 6.6100001 : 1"
   inkscape:persp3d-origin="6.4000001 : 4.4066668 : 1"
   id="perspective30" />
	
	

		
		
		
	
		
		
		
	
			
			
		</defs><sodipodi:namedview
   inkscape:window-height="998"
   inkscape:window-width="1280"
   inkscape:pageshadow="2"
   inkscape:pageopacity="0.0"
   guidetolerance="10.0"
   gridtolerance="10.0"
   objecttolerance="10.0"
   borderopacity="1.0"
   bordercolor="#666666"
   pagecolor="#ffffff"
   id="base"
   showgrid="false"
   inkscape:zoom="34.947049"
   inkscape:cx="6.4000001"
   inkscape:cy="6.6100001"
   inkscape:window-x="1276"
   inkscape:window-y="-4"
   inkscape:current-layer="Layer_1" />
<path
   id="path11"
   d="M 1.729,3.616 L 0,4.806 C 0,4.806 -0.138,11.82 6.188,13.219 C 6.188,13.219 5.113,12.547 4.51,11.934 C 3.199,10.6 2.75,9.925 2.246,8.754 C 1.926,8.01 1.688,7.398 1.62,5.829 C 1.591,5.147 1.729,3.616 1.729,3.616 z"
   style="fill:#1C62A6;fill-rule:evenodd;fill-opacity:1" /><path
   id="path13"
   d="M 11.068,3.616 L 12.798,4.805 C 12.798,4.805 12.935,11.819 6.609,13.218 C 6.609,13.218 7.685,12.546 8.287,11.933 C 9.599,10.599 10.049,9.924 10.553,8.753 C 10.873,8.009 11.11,7.398 11.178,5.828 C 11.207,5.147 11.068,3.616 11.068,3.616 z"
   style="fill:#1C62A6;fill-rule:evenodd;fill-opacity:1" /><path
   style="fill:#1C62A6;fill-rule:evenodd;fill-opacity:1"
   d="M 11.649,2.831 L 11.214,0.847 C 11.214,0.847 4.831,-2.065 1.148,2.91 C 1.148,2.91 2.173,2.238 2.964,1.955 C 4.685,1.34 5.474,1.215 6.739,1.24 C 7.544,1.256 8.194,1.292 9.66,1.855 C 10.298,2.101 11.649,2.831 11.649,2.831 z"
   id="path15" /><path
   style="fill:#1C62A6;fill-opacity:1"
   d="M 6.371,8.341 L 6.371,4.571 C 6.334,4.149 6.185,3.857 5.807,3.551 C 5.498,3.38 5.128,3.335 4.764,3.443 C 4.466,3.534 4.369,3.618 4.191,3.8 C 4.206,3.848 4.156,3.652 4.292,3.447 C 4.703,3.001 4.966,3.081 5.105,3.052 C 5.591,3.019 5.905,3.18 6.245,3.481 C 6.564,3.832 6.672,4.315 6.672,4.315 C 6.672,4.315 6.804,4.133 7.075,4.032 C 7.462,3.897 7.949,3.959 8.266,4.198 C 8.452,4.333 8.558,4.53 8.496,4.756 C 8.419,4.804 8.564,4.665 8.37,5.005 C 8.356,4.768 8.171,4.442 7.903,4.321 C 7.676,4.22 7.46,4.22 7.172,4.321 C 7.019,4.407 6.835,4.617 6.85,4.756 C 6.859,5.98 6.835,7.193 6.86,8.416"
   id="path19" /><path
   style="fill:#1C62A6;fill-opacity:1"
   d="M 10.145,5.601 C 10.145,7.814 8.102,9.683 6.328,9.683 C 4.553,9.683 2.561,7.901 2.561,5.69 L 3.406,6.699 C 3.406,6.699 4.496,7.887 5.646,8.01 C 6.556,8.104 6.666,8.055 7.3,7.946 C 7.904,7.837 8.455,7.515 8.972,7.085 C 9.409,6.721 10.145,5.601 10.145,5.601"
   id="path21" /><polyline
   style="fill:#1C62A6;fill-opacity:1"
   points="5.776,9.677 5.275,10.601 7.429,10.616 6.916,9.626 5.767,9.628   "
   id="polyline23" />
</svg>