<?xml version="1.0" encoding="UTF-8" standalone="no"?>
<!-- Generator: Adobe Illustrator 13.0.0, SVG Export Plug-In . SVG Version: 6.00 Build 14948)  -->
<svg
   xmlns:dc="http://purl.org/dc/elements/1.1/"
   xmlns:cc="http://creativecommons.org/ns#"
   xmlns:rdf="http://www.w3.org/1999/02/22-rdf-syntax-ns#"
   xmlns:svg="http://www.w3.org/2000/svg"
   xmlns="http://www.w3.org/2000/svg"
   xmlns:sodipodi="http://sodipodi.sourceforge.net/DTD/sodipodi-0.dtd"
   xmlns:inkscape="http://www.inkscape.org/namespaces/inkscape"
   version="1.1"
   id="Layer_1"
   x="0px"
   y="0px"
   width="12.8px"
   height="13.221px"
   viewBox="0 0 12.8 13.221"
   style="enable-background:new 0 0 12.8 13.221;"
   xml:space="preserve"
   sodipodi:version="0.32"
   inkscape:version="0.46"
   sodipodi:docname="Stationsportsdhiver.svg"
   inkscape:output_extension="org.inkscape.output.svg.inkscape"><metadata
   id="metadata72"><rdf:RDF><cc:Work
       rdf:about=""><dc:format>image/svg+xml</dc:format><dc:type
         rdf:resource="http://purl.org/dc/dcmitype/StillImage" /></cc:Work></rdf:RDF></metadata><defs
   id="defs70"><inkscape:perspective
   sodipodi:type="inkscape:persp3d"
   inkscape:vp_x="0 : 6.6104999 : 1"
   inkscape:vp_y="0 : 1000 : 0"
   inkscape:vp_z="12.8 : 6.6104999 : 1"
   inkscape:persp3d-origin="6.4000001 : 4.4069999 : 1"
   id="perspective74" />
	
	

		
		
		
		
		
		
		
		
		
		
		
		
		
		
		
		
		
		
		
		
		
		
		
		
		
	
		
		
		
	
			
			
		</defs><sodipodi:namedview
   inkscape:window-height="998"
   inkscape:window-width="1280"
   inkscape:pageshadow="2"
   inkscape:pageopacity="0.0"
   guidetolerance="10.0"
   gridtolerance="10.0"
   objecttolerance="10.0"
   borderopacity="1.0"
   bordercolor="#666666"
   pagecolor="#ffffff"
   id="base"
   showgrid="false"
   inkscape:zoom="34.944407"
   inkscape:cx="6.4000001"
   inkscape:cy="6.6104999"
   inkscape:window-x="1276"
   inkscape:window-y="-4"
   inkscape:current-layer="Layer_1" />
<path
   id="path11"
   d="M 1.73,3.617 L 0,4.807 C 0,4.807 -0.137,11.821 6.189,13.219 C 6.189,13.219 5.113,12.547 4.511,11.934 C 3.2,10.6 2.75,9.926 2.246,8.754 C 1.926,8.01 1.689,7.398 1.621,5.83 C 1.592,5.148 1.73,3.617 1.73,3.617 z"
   style="fill:#767676;fill-rule:evenodd;fill-opacity:1" /><path
   id="path13"
   d="M 11.069,3.617 L 12.798,4.806 C 12.798,4.806 12.935,11.82 6.609,13.218 C 6.609,13.218 7.685,12.546 8.288,11.933 C 9.6,10.599 10.049,9.925 10.553,8.753 C 10.873,8.009 11.111,7.398 11.179,5.829 C 11.208,5.148 11.069,3.617 11.069,3.617 z"
   style="fill:#767676;fill-rule:evenodd;fill-opacity:1" /><path
   style="fill:#767676;fill-rule:evenodd;fill-opacity:1"
   d="M 11.65,2.832 L 11.214,0.847 C 11.214,0.847 4.831,-2.065 1.148,2.91 C 1.148,2.91 2.173,2.237 2.964,1.954 C 4.686,1.339 5.474,1.214 6.74,1.239 C 7.544,1.255 8.194,1.291 9.661,1.855 C 10.299,2.102 11.65,2.832 11.65,2.832 z"
   id="path15" /><polyline
   style="fill:none"
   points="5.266,3.338 6.346,4.265 7.468,3.338   "
   id="polyline19" /><polyline
   style="fill:none;stroke:#767676;stroke-width:0.53939998000000000;stroke-opacity:1"
   points="5.266,3.338 6.346,4.265 7.468,3.338   "
   id="polyline21" /><line
   style="fill:#ffffff"
   x1="6.3670001"
   y1="3.05"
   x2="6.3670001"
   y2="5.5869999"
   id="line23" /><line
   style="fill:none;stroke:#767676;stroke-width:0.53939998000000000;stroke-opacity:1"
   x1="6.3670001"
   y1="3.05"
   x2="6.3670001"
   y2="5.5869999"
   id="line25" /><polyline
   style="fill:none"
   points="8.84,3.993 8.725,5.36 10.195,5.616   "
   id="polyline27" /><polyline
   style="fill:none;stroke:#767676;stroke-width:0.53939998000000000;stroke-opacity:1"
   points="8.84,3.993 8.725,5.36 10.195,5.616   "
   id="polyline29" /><line
   style="fill:#ffffff"
   x1="9.7609997"
   y1="4.6269999"
   x2="7.6269999"
   y2="6.1880002"
   id="line31" /><line
   style="fill:none;stroke:#767676;stroke-width:0.53939998000000000;stroke-opacity:1"
   x1="9.7609997"
   y1="4.6269999"
   x2="7.6269999"
   y2="6.1880002"
   id="line33" /><polyline
   style="fill:none"
   points="10.254,7.625 8.85,8.009 9.115,9.39   "
   id="polyline35" /><polyline
   style="fill:none;stroke:#767676;stroke-width:0.53939998000000000;stroke-opacity:1"
   points="10.254,7.625 8.85,8.009 9.115,9.39   "
   id="polyline37" /><line
   style="fill:#ffffff"
   x1="9.948"
   y1="8.6569996"
   x2="7.6329999"
   y2="7.3429999"
   id="line39" /><line
   style="fill:none;stroke:#767676;stroke-width:0.53939998000000000;stroke-opacity:1"
   x1="9.948"
   y1="8.6569996"
   x2="7.6329999"
   y2="7.3429999"
   id="line41" /><polyline
   style="fill:none"
   points="2.602,5.862 4.031,5.563 3.857,4.169   "
   id="polyline43" /><polyline
   style="fill:none;stroke:#767676;stroke-width:0.53939998000000000;stroke-opacity:1"
   points="2.602,5.862 4.031,5.563 3.857,4.169   "
   id="polyline45" /><line
   style="fill:#ffffff"
   x1="2.977"
   y1="4.8509998"
   x2="5.1989999"
   y2="6.3000002"
   id="line47" /><line
   style="fill:none;stroke:#767676;stroke-width:0.53939998000000000;stroke-opacity:1"
   x1="2.977"
   y1="4.8509998"
   x2="5.1989999"
   y2="6.3000002"
   id="line49" /><polyline
   style="fill:none"
   points="4.068,9.67 4.135,8.298 2.655,8.089   "
   id="polyline51" /><polyline
   style="fill:none;stroke:#767676;stroke-width:0.53939998000000000;stroke-opacity:1"
   points="4.068,9.67 4.135,8.298 2.655,8.089   "
   id="polyline53" /><line
   style="fill:#ffffff"
   x1="3.1259999"
   y1="9.0640001"
   x2="5.2020001"
   y2="7.4349999"
   id="line55" /><line
   style="fill:none;stroke:#767676;stroke-width:0.53939998000000000;stroke-opacity:1"
   x1="3.1259999"
   y1="9.0640001"
   x2="5.2020001"
   y2="7.4349999"
   id="line57" /><polyline
   style="fill:none"
   points="7.592,10.401 6.502,9.486 5.392,10.428   "
   id="polyline59" /><polyline
   style="fill:none;stroke:#767676;stroke-width:0.53939998000000000;stroke-opacity:1"
   points="7.592,10.401 6.502,9.486 5.392,10.428   "
   id="polyline61" /><line
   style="fill:#ffffff"
   x1="6.4970002"
   y1="10.704"
   x2="6.4629998"
   y2="8.1669998"
   id="line63" /><path
   style="fill:none;stroke:#767676;stroke-width:0.53939998000000000;stroke-opacity:1"
   d="M 6.497,10.704 L 6.463,8.167 M 6.424,5.566 L 7.591,6.206 L 7.656,7.423 L 6.49,8.185 L 5.279,7.483 L 5.279,6.269 L 6.424,5.566 L 6.424,5.566 z"
   id="path65" /><polyline
   style="fill:#767676;fill-opacity:1"
   points="6.445,6.493 6.821,6.669 6.803,7.058 6.445,7.251 6.07,7.058 6.07,6.669 6.445,6.493       "
   id="polyline67" />
</svg>
