<?xml version="1.0" encoding="UTF-8" standalone="no"?>
<!-- Generator: Adobe Illustrator 13.0.0, SVG Export Plug-In . SVG Version: 6.00 Build 14948)  -->
<svg
   xmlns:dc="http://purl.org/dc/elements/1.1/"
   xmlns:cc="http://creativecommons.org/ns#"
   xmlns:rdf="http://www.w3.org/1999/02/22-rdf-syntax-ns#"
   xmlns:svg="http://www.w3.org/2000/svg"
   xmlns="http://www.w3.org/2000/svg"
   xmlns:sodipodi="http://sodipodi.sourceforge.net/DTD/sodipodi-0.dtd"
   xmlns:inkscape="http://www.inkscape.org/namespaces/inkscape"
   version="1.1"
   id="Layer_1"
   x="0px"
   y="0px"
   width="3.011px"
   height="3.011px"
   viewBox="0 0 3.011 3.011"
   style="enable-background:new 0 0 3.011 3.011;"
   xml:space="preserve"
   sodipodi:version="0.32"
   inkscape:version="0.46"
   sodipodi:docname="Tennis.svg"
   inkscape:output_extension="org.inkscape.output.svg.inkscape"><metadata
   id="metadata10"><rdf:RDF><cc:Work
       rdf:about=""><dc:format>image/svg+xml</dc:format><dc:type
         rdf:resource="http://purl.org/dc/dcmitype/StillImage" /></cc:Work></rdf:RDF></metadata><defs
   id="defs8"><inkscape:perspective
   sodipodi:type="inkscape:persp3d"
   inkscape:vp_x="0 : 1.5055 : 1"
   inkscape:vp_y="0 : 1000 : 0"
   inkscape:vp_z="3.0109999 : 1.5055 : 1"
   inkscape:persp3d-origin="1.5055 : 1.0036666 : 1"
   id="perspective12" />
	
</defs><sodipodi:namedview
   inkscape:window-height="667"
   inkscape:window-width="1158"
   inkscape:pageshadow="2"
   inkscape:pageopacity="0.0"
   guidetolerance="10.0"
   gridtolerance="10.0"
   objecttolerance="10.0"
   borderopacity="1.0"
   bordercolor="#666666"
   pagecolor="#ffffff"
   id="base"
   showgrid="false"
   inkscape:zoom="153.4374"
   inkscape:cx="1.5055"
   inkscape:cy="1.6613976"
   inkscape:window-x="1431"
   inkscape:window-y="206"
   inkscape:current-layer="Layer_1" />
<path
   id="path5"
   d="M 0.648,0.738 L 0.652,0.751 L 0.652,0.757 L 0.68,0.882 L 0.684,0.892 L 0.716,1.004 L 0.716,1.009 L 0.747,1.113 L 0.756,1.13 L 0.792,1.22 L 0.801,1.229 L 0.842,1.301 L 0.842,1.31 L 0.882,1.378 L 0.896,1.399 L 0.94,1.454 L 0.958,1.472 L 1.003,1.517 L 1.025,1.535 L 1.075,1.566 L 1.111,1.586 L 1.161,1.604 L 1.179,1.608 L 1.737,1.749 L 1.76,1.751 L 1.778,1.769 L 1.805,1.787 L 1.831,1.818 L 1.858,1.873 L 1.895,1.94 L 1.927,2.016 L 1.958,2.102 L 1.989,2.21 L 2.011,2.331 L 2.042,2.462 L 2.051,2.521 L 2.003,2.548 L 1.881,2.593 L 1.76,2.628 L 1.634,2.651 L 1.507,2.655 L 1.485,2.655 L 1.359,2.651 L 1.233,2.624 L 1.107,2.587 L 0.99,2.534 L 0.882,2.47 L 0.778,2.4 L 0.684,2.313 L 0.599,2.218 L 0.526,2.11 L 0.463,2.003 L 0.418,1.882 L 0.382,1.759 L 0.36,1.634 L 0.355,1.503 L 0.355,1.485 L 0.36,1.354 L 0.387,1.233 L 0.423,1.106 L 0.477,0.99 L 0.54,0.882 L 0.612,0.778 L 0.648,0.738 z M 1.525,0.351 L 1.656,0.361 L 1.777,0.388 L 1.903,0.423 L 2.02,0.473 L 2.127,0.536 L 2.231,0.612 L 2.327,0.698 L 2.412,0.792 L 2.488,0.9 L 2.547,1.008 L 2.592,1.13 L 2.628,1.251 L 2.65,1.377 L 2.659,1.503 L 2.659,1.526 L 2.65,1.651 L 2.624,1.778 L 2.587,1.903 L 2.538,2.021 L 2.476,2.128 L 2.398,2.231 L 2.362,2.269 L 2.358,2.255 L 2.358,2.251 L 2.331,2.128 L 2.327,2.12 L 2.295,2.003 L 2.264,1.899 L 2.259,1.882 L 2.219,1.792 L 2.21,1.782 L 2.173,1.706 L 2.169,1.7 L 2.128,1.634 L 2.115,1.61 L 2.075,1.557 L 2.057,1.534 L 2.007,1.494 L 1.984,1.476 L 1.934,1.445 L 1.899,1.427 L 1.85,1.409 L 1.831,1.404 L 1.273,1.264 L 1.251,1.256 L 1.233,1.242 L 1.21,1.22 L 1.179,1.188 L 1.152,1.134 L 1.116,1.071 L 1.084,0.995 L 1.057,0.905 L 1.026,0.802 L 0.999,0.68 L 0.972,0.55 L 0.958,0.491 L 1.007,0.464 L 1.129,0.419 L 1.251,0.383 L 1.377,0.36 L 1.507,0.35 L 1.525,0.35 L 1.525,0.351 z M 1.507,0 L 1.652,0.005 L 1.797,0.027 L 1.941,0.063 L 2.077,0.108 L 2.21,0.171 L 2.335,0.247 L 2.452,0.333 L 2.56,0.428 L 2.659,0.536 L 2.749,0.653 L 2.826,0.778 L 2.894,0.909 L 2.943,1.044 L 2.98,1.184 L 3.001,1.332 L 3.011,1.476 L 3.011,1.503 L 3.005,1.651 L 2.984,1.796 L 2.947,1.935 L 2.902,2.075 L 2.839,2.206 L 2.763,2.335 L 2.678,2.452 L 2.583,2.562 L 2.476,2.659 L 2.359,2.749 L 2.231,2.821 L 2.102,2.89 L 1.967,2.938 L 1.827,2.979 L 1.679,3.001 L 1.534,3.011 L 1.507,3.011 L 1.359,3.001 L 1.215,2.983 L 1.076,2.948 L 0.936,2.903 L 0.806,2.835 L 0.675,2.763 L 0.558,2.677 L 0.45,2.583 L 0.351,2.472 L 0.261,2.355 L 0.189,2.231 L 0.122,2.103 L 0.072,1.966 L 0.032,1.823 L 0.009,1.679 L 0,1.534 L 0,1.503 L 0.009,1.359 L 0.027,1.215 L 0.063,1.07 L 0.108,0.935 L 0.175,0.8 L 0.247,0.673 L 0.332,0.556 L 0.428,0.45 L 0.54,0.35 L 0.657,0.26 L 0.778,0.184 L 0.909,0.117 L 1.044,0.067 L 1.188,0.032 L 1.332,0.009 L 1.476,0.001 L 1.507,0 z"
   style="fill:#595959;fill-rule:evenodd;fill-opacity:1" />
</svg>