<?xml version="1.0" encoding="UTF-8" standalone="no"?>
<!-- Generator: Adobe Illustrator 13.0.0, SVG Export Plug-In . SVG Version: 6.00 Build 14948)  -->
<svg
   xmlns:dc="http://purl.org/dc/elements/1.1/"
   xmlns:cc="http://creativecommons.org/ns#"
   xmlns:rdf="http://www.w3.org/1999/02/22-rdf-syntax-ns#"
   xmlns:svg="http://www.w3.org/2000/svg"
   xmlns="http://www.w3.org/2000/svg"
   xmlns:xlink="http://www.w3.org/1999/xlink"
   xmlns:sodipodi="http://sodipodi.sourceforge.net/DTD/sodipodi-0.dtd"
   xmlns:inkscape="http://www.inkscape.org/namespaces/inkscape"
   version="1.1"
   id="Layer_1"
   x="0px"
   y="0px"
   width="11.94"
   height="12.569"
   viewBox="0 0 11.94 12.569"
   xml:space="preserve"
   inkscape:version="0.46"
   sodipodi:docname="Vollibre.svg"
   sodipodi:version="0.32"
   inkscape:output_extension="org.inkscape.output.svg.inkscape"><metadata
   id="metadata3426"><rdf:RDF><cc:Work
       rdf:about=""><dc:format>image/svg+xml</dc:format><dc:type
         rdf:resource="http://purl.org/dc/dcmitype/StillImage" /></cc:Work></rdf:RDF></metadata><defs
   id="defs3424"><inkscape:perspective
   sodipodi:type="inkscape:persp3d"
   inkscape:vp_x="0 : 6.2845001 : 1"
   inkscape:vp_y="0 : 1000 : 0"
   inkscape:vp_z="11.94 : 6.2845001 : 1"
   inkscape:persp3d-origin="5.9699998 : 4.1896667 : 1"
   id="perspective19" />
	

		<defs
   id="defs3404">
			<polyline
   id="SVGID_1_"
   points="0,0 0,8.62 0,17.23 0,25.85 0,34.47 0,43.09 0,51.699 0,60.32 0,68.939 0,77.561 0,86.17      0,94.791 8.8,94.791 17.61,94.791 26.41,94.791 35.21,94.791 44.01,94.791 52.82,94.791 61.62,94.791 70.42,94.791 79.23,94.791      88.03,94.791 96.83,94.791 96.83,86.17 96.83,77.561 96.83,68.939 96.83,60.32 96.83,51.699 96.83,43.09 96.83,34.47      96.83,25.85 96.83,17.23 96.83,8.62 96.83,0 88.03,0 79.23,0 70.42,0 61.62,0 52.82,0 44.01,0 35.21,0 26.41,0 17.61,0 8.8,0      0,0    " />
		</defs>
		<defs
   id="defs3407">
			<rect
   id="SVGID_2_"
   width="96.959999"
   height="94.560997"
   x="0"
   y="0" />
		</defs>
		<clipPath
   id="SVGID_3_">
			<use
   xlink:href="#SVGID_1_"
   style="overflow:visible"
   id="use3411"
   x="0"
   y="0"
   width="96.959999"
   height="94.791" />
		</clipPath>
		<clipPath
   id="SVGID_4_">
			<use
   xlink:href="#SVGID_2_"
   style="overflow:visible"
   id="use3414"
   x="0"
   y="0"
   width="96.959999"
   height="94.791" />
		</clipPath>
		
		
		
			
	</defs><sodipodi:namedview
   pagecolor="#ffffff"
   bordercolor="#666666"
   borderopacity="1"
   objecttolerance="10"
   gridtolerance="10"
   guidetolerance="10"
   inkscape:pageopacity="0"
   inkscape:pageshadow="2"
   inkscape:window-width="695"
   inkscape:window-height="667"
   id="namedview3422"
   showgrid="false"
   fit-margin-top="0"
   fit-margin-left="0"
   fit-margin-right="0"
   fit-margin-bottom="0"
   inkscape:zoom="30.660779"
   inkscape:cx="7.4811461"
   inkscape:cy="6.9511044"
   inkscape:window-x="1460"
   inkscape:window-y="220"
   inkscape:window-maximized="0"
   inkscape:current-layer="Layer_1" />
<path
   style="fill:#AD4E81;fill-opacity:1"
   d="M 54.12,52.51 L 53.98,52.52 L 55.879,47.27 L 55.77,47.23 L 55.759,47.16 L 55.73,47.09 L 55.61,46.96 L 55.45,46.84 L 55.25,46.73 L 55.09,46.64 L 53.92,46.14 L 53.9,46.14 L 53.33,46.07 L 53.62,46.03 L 53.67,46.01 L 53.63,45.97 L 53.36,45.86 L 52.839,45.75 L 52.499,45.72 L 52.109,45.71 L 51.599,45.72 L 51.328,45.74 L 51.038,45.79 L 50.718,45.88 L 50.349,46.01 L 49.929,46.2 L 49.458,46.46 L 49.118,46.69 L 48.738,47.01 L 48.398,47.32 L 48.178,47.57 L 47.988,47.83 L 47.768,48.19 L 47.558,48.57 L 47.418,48.9 L 47.338,49.211 L 47.278,49.529 L 47.218,50.07 L 47.258,50.359 L 47.378,50.759 L 47.508,51.109 L 47.588,51.259 L 47.638,51.249 L 47.588,51.358 L 52.398,53.909 L 52.458,53.97 L 52.519,53.909 L 52.92,54 L 53.101,54.029 L 53.321,54.019 L 53.591,53.98 L 53.871,53.9 L 54.121,53.791 L 54.321,53.65 L 54.461,53.509 L 54.581,53.339 L 54.541,52.409 L 54.12,52.51 M 52.771,51.9 L 52.72,51.81 L 52.69,51.68 L 52.65,51.391 L 52.64,51.03 L 51.93,51.081 L 51.659,51.802 L 51.61,52 L 51.58,52.26 L 51.601,52.801 L 49.341,50.571 L 49.271,50.45 L 49.221,50.311 L 49.201,50.081 L 49.191,49.392 L 49.221,49.122 L 49.301,48.872 L 49.541,48.441 L 49.631,48.291 L 49.641,48.281 L 49.671,48.311 L 49.761,48.411 L 49.891,48.291 L 50.121,48.171 L 50.53,48 L 51,47.84 L 51.38,47.75 L 52.41,47.74 L 53.33,48.01 L 53.53,48.08 L 53.89,48.24 L 53.44,52.461 L 53.3,52.43 L 53.181,52.36 L 53.04,52.221 L 52.771,51.9 M 53.84,46.42 L 54.95,46.89 L 55.12,46.98 L 55.5,47.23 L 55.33,47.42 L 55.19,47.58 L 54.73,47.86 L 54.23,48.11 L 54.06,48.01 L 53.629,47.82 L 53.43,47.74 L 52.459,47.46 L 51.329,47.47 L 50.859,47.59 L 50.279,47.8 L 50.369,47.69 L 50.449,47.6 L 50.989,47.1 L 51.879,46.61 L 52.989,46.31 L 53.809,46.41 L 53.84,46.42 M 53.67,52.49 L 54.11,48.33 L 54.28,48.39 L 54.49,48.3 L 54.85,48.11 L 55.209,47.9 L 55.399,47.76 L 55.508,47.65 L 53.748,52.5 L 53.67,52.49 M 49.15,50.699 L 51.77,53.291 L 51.8,53.34 L 47.81,51.221 L 48.17,51.11 L 48.54,50.971 L 49.15,50.699 L 49.15,50.699 L 49.15,50.699 z"
   id="path3416"
   clip-path="url(#SVGID_4_)"
   inkscape:connector-curvature="0"
   transform="translate(-45.75,-43.540001)" /><polygon
   style="fill:#AD4E81;fill-opacity:1"
   points="46.74,44.36 46.57,44.73 46.47,44.98 46.3,45.64 46.15,46.3 46.03,46.95 45.92,47.61 45.85,48.27 45.79,48.92 45.76,49.58 45.75,50.24 45.77,50.9 45.81,51.561 45.87,52.211 45.96,52.871 46.07,53.52 46.2,54.18 46.36,54.83 46.54,55.49 46.59,55.541 46.71,55.6 47.08,55.699 47.6,55.791 48.2,55.871 50.09,56.041 50.71,56.08 51.32,56.109 52.55,56.09 53.79,56.02 55.01,55.93 55.12,55.871 55.21,55.75 55.38,55.391 55.521,55.02 55.57,54.9 55.63,54.85 54.681,54.91 53.74,54.949 52.8,54.961 51.87,54.939 50.94,54.9 50.01,54.82 49.08,54.699 48.14,54.551 47.65,54.471 47.48,54.439 47.35,54.391 47.25,54.311 47.16,54.17 47.07,53.971 46.98,53.68 46.76,52.779 46.6,51.871 46.48,50.961 46.4,50.041 46.37,49.4 46.37,48.77 46.39,48.13 46.44,47.5 46.52,46.87 46.62,46.24 46.87,44.99 50,44.74 50.88,44.69 51.76,44.68 52.62,44.7 53.46,44.78 53.86,44.85 54.25,44.93 54.62,45.03 54.97,45.15 55.3,45.3 55.61,45.46 55.891,45.66 56.15,45.88 56.37,46.12 56.57,46.4 56.73,46.71 56.86,47.05 56.95,47.42 57,47.83 57,48.28 56.97,48.76 57,48.67 57.08,48.55 57.3,48.26 57.53,47.94 57.61,47.78 57.66,47.63 57.69,47.13 57.681,46.67 57.63,46.25 57.53,45.86 57.391,45.52 57.22,45.2 57,44.92 56.76,44.67 56.48,44.45 56.17,44.26 55.84,44.1 55.49,43.96 55.11,43.84 54.72,43.75 54.311,43.67 53.88,43.62 53,43.55 52.09,43.54 51.17,43.57 50.26,43.63 48.56,43.78 47.13,43.88 47.13,43.88 47.04,43.92 46.94,44.03 46.74,44.36 "
   id="polygon3418"
   clip-path="url(#SVGID_4_)"
   transform="translate(-45.75,-43.540001)" />
</svg>